<svg width="40" height="40" viewBox="0 0 40 40" fill="none" xmlns="http://www.w3.org/2000/svg">
<rect width="40" height="40" fill="#0870FF"/>
<g clip-path="url(#clip0_30_1071)">
<path d="M22.9316 27.3363C24.5582 27.9658 26.0954 28.5627 27.1376 29.3469C27.1812 29.3795 27.2052 29.4318 27.2052 29.4863C27.2052 29.5407 27.1791 29.5908 27.1354 29.6235C25.0575 31.1592 22.5914 31.9717 20.0011 31.9717C16.7937 31.9717 13.7803 30.7235 11.5149 28.4603C9.24721 26.1971 8 23.1868 8 19.9847C8 16.7849 9.24939 13.7745 11.5149 11.5113C13.7825 9.24596 16.7959 8 20.0011 8C22.9665 8 25.8141 9.08913 28.0163 11.0692C28.073 11.1193 28.0905 11.1999 28.0578 11.2696C28.0272 11.3371 27.9553 11.3785 27.879 11.3676C27.0242 11.25 26.1019 11.1911 25.136 11.1911C21.6408 11.1911 18.8018 11.971 16.9289 13.4434C15.2586 14.7569 14.3756 16.5736 14.3756 18.6996C14.3756 21.0673 15.2848 22.9406 17.1513 24.4262C18.7997 25.7353 20.9954 26.587 22.9316 27.3363Z" fill="white"/>
<path d="M31.8866 18.7606C31.9215 18.7889 31.9433 18.8325 31.9477 18.8782C31.9826 19.2594 31.9979 19.6319 32 19.9847C32 21.4899 31.7231 22.9602 31.178 24.3543C31.1606 24.4022 31.1213 24.4371 31.0755 24.4545C31.0559 24.461 31.0363 24.4654 31.0167 24.4654C30.9883 24.4654 30.96 24.4589 30.9338 24.4436C29.5078 23.6529 27.9532 23.0735 26.4508 22.5137C23.5334 21.4268 21.015 20.4879 21.015 18.4295C21.015 17.6954 21.3225 17.0681 21.9046 16.6194C22.5762 16.1009 23.5836 15.8374 24.8962 15.8374C27.3579 15.8374 29.3835 16.6847 31.8866 18.7606Z" fill="white"/>
</g>
<defs>
<clipPath id="clip0_30_1071">
<rect width="24" height="24" fill="white" transform="translate(8 8)"/>
</clipPath>
</defs>
</svg>
