<svg width="406" height="58" viewBox="0 0 406 58" fill="none" xmlns="http://www.w3.org/2000/svg">
<g clip-path="url(#clip0_23_1062)">
<path d="M77.6872 28.8217C75.2662 27.7681 73.2742 26.8131 73.2742 25.23C73.2742 24.1193 74.5262 23.0657 76.6372 23.0657C78.5302 23.0657 80.1652 23.5432 81.8472 24.2802C82.3232 24.493 83.0572 24.5449 83.4242 23.8027L84.2682 22.1106C84.5832 21.4774 84.3192 20.7352 83.7402 20.3148C82.5292 19.5207 80.0052 18.519 76.6322 18.519C70.7346 18.519 68.3238 22.1106 68.3238 25.1729C68.3238 29.185 71.4226 31.1937 75.1582 32.8857C78.5252 34.4168 80.3672 35.4705 80.3672 37.1106C80.3672 38.486 79.2082 39.4878 77.1542 39.4878C74.2572 39.4878 72.5242 38.486 71.1019 37.6919C70.4707 37.3234 69.7878 37.4791 69.524 38.0085L68.4169 40.2819C68.1531 40.8113 68.4687 41.2836 68.836 41.5483C70.2069 42.4981 72.9952 44.0293 76.8392 44.0293C82.2602 44.0293 85.5252 40.7023 85.5252 36.8978C85.5302 32.3615 82.1622 30.7265 77.6872 28.8217Z" fill="#0870FF"/>
<path d="M45.4059 50.865C42.9331 48.996 39.2859 47.574 35.4266 46.0743C30.8328 44.2888 25.6233 42.2594 21.7123 39.14C17.2839 35.6003 15.1267 31.1366 15.1267 25.4947C15.1267 20.429 17.2219 16.1003 21.1846 12.9706C25.6284 9.4619 32.3641 7.6038 40.6568 7.6038C42.9486 7.6038 45.1369 7.7439 47.1648 8.0242C47.3459 8.0502 47.5166 7.9515 47.589 7.7906C47.6666 7.6245 47.6252 7.4325 47.4907 7.3131C42.2657 2.5951 35.5094 0 28.4738 0C20.869 0 13.7195 2.9689 8.3393 8.3668C2.9643 13.7595 0 20.9325 0 28.557C0 36.1868 2.9591 43.3597 8.3393 48.752C13.7144 54.145 20.8639 57.119 28.4738 57.119C34.6196 57.119 40.4706 55.183 45.4007 51.524C45.5042 51.446 45.5663 51.327 45.5663 51.197C45.5663 51.067 45.5094 50.943 45.4059 50.865Z" fill="#0870FF"/>
<path d="M56.8182 25.9204C56.8079 25.8115 56.7561 25.7076 56.6734 25.6402C50.7344 20.6938 45.9285 18.6748 40.0878 18.6748C36.9735 18.6748 34.5834 19.3028 32.9901 20.5381C31.6088 21.6073 30.8794 23.1021 30.8794 24.8512C30.8794 29.7561 36.8545 31.9931 43.7764 34.5831C47.3408 35.917 51.0293 37.2976 54.4126 39.1817C54.4747 39.218 54.542 39.2336 54.6092 39.2336C54.6558 39.2336 54.7023 39.2232 54.7489 39.2076C54.8575 39.1661 54.9507 39.083 54.992 38.9689C56.2854 35.6471 56.9424 32.1436 56.9424 28.5571C56.9372 27.7163 56.901 26.8288 56.8182 25.9204Z" fill="#0870FF"/>
<path d="M220.444 43.7335C221.173 43.6505 221.675 43.1159 221.675 42.4515V30.0623C221.675 23.7249 220.904 18.8149 212.772 18.8149C208.1 18.8149 204.474 20.0814 204.034 20.2474C203.429 20.4654 203.046 20.8547 203.212 21.7371L203.708 23.8339C203.874 24.5502 204.365 25.0485 205.136 24.8824C206.455 24.4983 209.311 23.6678 212.224 23.6678C215.41 23.6678 216.398 25.4896 216.29 29.5121C216.29 29.5121 213.817 28.7388 211.179 28.7388C204.64 28.7388 201.013 32.2682 201.013 36.955C201.013 42.2491 204.36 44.0398 209.14 44.0398C213.041 44.0398 217.055 43.9931 218.726 43.8841L220.444 43.7335ZM216.233 39.2387C215.462 40.5052 212.715 40.1886 210.356 40.1419C207.718 40.0848 206.398 39.1609 206.398 36.8979C206.398 34.2509 208.649 32.7093 211.618 32.7093C213.926 32.7093 215.907 33.3737 216.233 33.5917V39.2387Z" fill="#0870FF"/>
<path d="M261.934 18.5242C263.532 18.5242 264.826 17.2318 264.826 15.6332C264.826 14.0346 263.532 12.7422 261.934 12.7422C260.335 12.7422 259.042 14.0346 259.042 15.6332C259.042 17.2318 260.335 18.5242 261.934 18.5242ZM261.934 13.1678C263.274 13.1678 264.37 14.2785 264.37 15.6332C264.37 16.9879 263.279 18.0986 261.934 18.0986C260.594 18.0986 259.502 16.9879 259.502 15.6332C259.502 14.2785 260.594 13.1678 261.934 13.1678Z" fill="#0870FF"/>
<path d="M260.951 17.0969H261.22C261.261 17.0969 261.297 17.0606 261.297 17.019V15.955H261.929L262.472 17.045C262.487 17.0813 262.513 17.0969 262.56 17.0969H262.87C262.942 17.0969 262.968 17.0294 262.942 16.9775L262.373 15.9135C262.736 15.7682 262.989 15.4516 262.989 15.0675C262.989 14.5692 262.58 14.1748 262.084 14.1748H260.951C260.904 14.1748 260.873 14.2111 260.873 14.2526V17.019C260.873 17.0606 260.904 17.0969 260.951 17.0969ZM261.308 14.5796H262.047C262.316 14.5796 262.554 14.8028 262.554 15.0779C262.554 15.3685 262.316 15.5969 262.047 15.5969H261.308V14.5796Z" fill="#0870FF"/>
<path d="M101.702 18.5244C97.8578 18.5244 95.2248 20.6368 94.6498 21.0624V10.168C94.6498 9.58667 94.0708 9.00537 93.4918 9.00537H90.5428C89.9118 9.00537 89.3838 9.58667 89.3838 10.168V42.8721C89.3838 43.5053 89.9118 44.0347 90.5428 44.0347H93.4398C94.1798 44.0347 94.6498 43.5572 94.6498 42.8721V27.0832C95.1778 26.0295 97.2838 23.5434 101.019 23.5434C104.18 23.5434 105.861 25.9205 105.861 29.9326V42.8772C105.861 43.5105 106.389 44.0399 107.02 44.0399H109.969C110.548 44.0399 111.127 43.5105 111.127 42.8772V30.0416C111.122 23.3877 108.598 18.5244 101.702 18.5244Z" fill="#0870FF"/>
<path d="M163.352 30.296C163.062 22.0071 159.601 18.5244 151.629 18.5244C147.801 18.5244 143.233 19.6766 142.56 19.9725C141.732 20.3306 141.122 20.7562 141.122 21.3375V21.8202V23.5901V29.3202V30.0987V52.3911C141.122 53.0241 141.65 53.5541 142.281 53.5541H144.723C145.514 53.5541 145.985 53.0761 145.985 52.3911L145.98 43.6143C146.719 43.8063 150.501 44.1281 153.657 44.0295C159.285 43.853 163.062 39.7527 163.377 32.8288C163.424 31.8894 163.352 30.296 163.352 30.296ZM158.266 32.8236C158.158 37.5209 156.797 39.597 152.855 39.815C150.905 39.924 146.3 39.379 146.3 39.379C146.109 39.3167 145.98 39.2336 145.98 39.0572L145.974 29.5382V24.1403C145.974 23.9949 146.083 23.8756 146.228 23.86C146.771 23.8029 148.763 23.1593 151.629 23.1593C156.43 23.1593 158.121 23.8652 158.277 29.9638C158.287 30.7683 158.292 31.8946 158.266 32.8236Z" fill="#0870FF"/>
<path d="M198.225 19.0538H196.016C195.385 19.0538 194.49 19.0538 194.174 19.796L190.279 33.8409H190.175L183.646 19.1057C183.543 18.7891 183.17 18.5244 182.596 18.5244H182.229C181.753 18.5244 181.386 18.7891 181.23 19.1057L174.645 33.789H174.541L170.542 19.796C170.439 19.3185 169.911 19.0538 169.492 19.0538H166.331C165.488 19.0538 165.121 19.687 165.488 20.4292L172.596 43.4015C172.7 43.77 173.072 44.0347 173.595 44.0347H173.91C174.438 44.0347 174.754 43.77 174.857 43.4534L182.332 26.8704H182.436L189.859 43.4534C190.02 43.77 190.387 44.0347 190.91 44.0347H191.122C191.649 44.0347 192.12 43.77 192.229 43.4015L199.177 20.4292C199.544 19.687 199.068 19.0538 198.225 19.0538Z" fill="#0870FF"/>
<path d="M237.055 18.8149C236.926 18.8149 236.807 18.8253 236.678 18.8305C236.466 18.8253 236.259 18.8149 236.036 18.8149C234.774 18.8149 233.563 18.8564 232.43 18.9135C230.247 19.0018 228.954 19.1679 228.033 19.2717C228.033 19.2717 227.443 19.3288 226.755 19.417C226.295 19.4741 225.959 19.6661 225.752 19.9308C225.612 20.0814 225.524 20.2734 225.524 20.507V20.59V21.0727V22.8426V27.7526V42.8668C225.524 43.5 226.052 44.0294 226.683 44.0294H229.104C230.103 44.0294 230.791 43.9256 230.791 42.8668V27.7526V24.2855C230.791 24.1402 231.018 23.9585 231.142 23.8806C231.737 23.5225 233.165 23.263 236.036 23.263C236.316 23.263 236.497 23.2682 236.704 23.2734C237.361 23.3357 238.4 23.5381 238.737 23.7301C239.264 23.9948 239.896 23.8339 240.211 23.1488L241.473 21.0779C242.265 19.4481 239.373 18.8149 237.055 18.8149Z" fill="#0870FF"/>
<path d="M253.719 18.5244C246.404 18.5244 241.613 24.3894 241.613 31.251C241.613 38.2215 246.403 44.0295 253.77 44.0295C257.821 44.0295 261.034 42.5503 262.772 41.0191C263.506 40.3859 263.299 39.9084 262.875 39.3842L261.453 37.1679C261.034 36.5347 260.558 36.6904 260.03 37.0641C258.556 38.1177 256.869 39.1247 254.081 39.1247C249.818 39.1247 246.869 35.7458 246.817 32.4707H263.61C264.138 32.4707 264.66 32.0451 264.717 31.4119C264.769 30.9915 264.82 30.1454 264.82 29.7198C264.82 23.2268 260.035 18.5244 253.719 18.5244ZM247.086 28.5572C247.454 25.4949 249.771 23.014 253.615 23.014C257.195 23.014 259.513 25.6039 259.616 28.5572H247.086Z" fill="#0870FF"/>
<path d="M136.906 26.0708C136.357 24.4982 135.586 23.1487 134.598 22.0276C133.61 20.9065 132.426 20.0397 131.055 19.4325C129.684 18.8252 127.739 18.519 126.124 18.519C124.51 18.519 122.57 18.8252 121.2 19.4325C119.829 20.0397 118.649 20.9065 117.656 22.0276C116.668 23.1487 115.897 24.4982 115.349 26.0708C114.8 27.6435 114.526 29.3823 114.526 31.2819C114.526 33.2127 114.8 34.9566 115.349 36.5137C115.897 38.0708 116.668 39.4099 117.656 40.531C118.644 41.6521 119.829 42.5189 121.2 43.1262C122.57 43.7334 124.51 44.0345 126.124 44.0345C127.739 44.0345 129.684 43.7334 131.055 43.1262C132.426 42.5189 133.605 41.6521 134.598 40.531C135.586 39.4099 136.357 38.0708 136.906 36.5137C137.454 34.9566 137.728 33.2127 137.728 31.2819C137.728 29.3823 137.454 27.6435 136.906 26.0708ZM125.99 39.8303C121.598 39.8303 119.384 36.0985 119.384 31.4947C119.384 26.8909 121.593 23.1591 125.99 23.1591C130.387 23.1591 132.596 26.8909 132.596 31.4947C132.596 36.0985 130.382 39.8303 125.99 39.8303Z" fill="#0870FF"/>
<path d="M285.768 44.5368C283.726 44.5368 281.937 44.0001 280.401 42.9268C278.866 41.8386 277.666 40.3255 276.801 38.3875C275.952 36.4347 275.527 34.1614 275.527 31.5675C275.527 28.9886 275.959 26.7376 276.824 24.8146C277.688 22.8766 278.888 21.371 280.424 20.2977C281.974 19.2095 283.763 18.6653 285.79 18.6653C287.311 18.6653 288.578 18.9411 289.592 19.4927C290.605 20.0293 291.418 20.6927 292.029 21.4828C292.655 22.2729 293.132 23.0481 293.46 23.8083H293.706V10.6825H296.725V44.0001H293.796V39.3267H293.46C293.132 40.1019 292.655 40.892 292.029 41.6969C291.403 42.5019 290.576 43.1802 289.547 43.7318C288.533 44.2684 287.274 44.5368 285.768 44.5368ZM286.17 41.7864C287.78 41.7864 289.144 41.3466 290.263 40.4671C291.395 39.5876 292.253 38.3801 292.834 36.8447C293.43 35.2943 293.728 33.5278 293.728 31.5451C293.728 29.5625 293.43 27.8109 292.834 26.2904C292.253 24.7698 291.395 23.5773 290.263 22.7126C289.144 21.848 287.78 21.4157 286.17 21.4157C284.531 21.4157 283.144 21.8629 282.011 22.7574C280.893 23.6518 280.044 24.8667 279.462 26.4022C278.881 27.9227 278.59 29.637 278.59 31.5451C278.59 33.4682 278.881 35.2049 279.462 36.7552C280.059 38.2906 280.916 39.513 282.034 40.4224C283.167 41.3317 284.546 41.7864 286.17 41.7864ZM313.172 44.5368C310.832 44.5368 308.805 43.9926 307.09 42.9044C305.391 41.8013 304.072 40.2808 303.132 38.3428C302.208 36.4049 301.746 34.1763 301.746 31.657C301.746 29.1376 302.201 26.9016 303.11 24.9487C304.034 22.9959 305.316 21.4604 306.956 20.3424C308.611 19.2244 310.526 18.6653 312.703 18.6653C314.522 18.6653 316.243 19.1126 317.868 20.007C319.493 20.9014 320.812 22.2654 321.826 24.099C322.84 25.9326 323.347 28.2656 323.347 31.0979V32.4172H304.81C304.869 35.2645 305.652 37.5453 307.157 39.2596C308.663 40.959 310.676 41.8087 313.195 41.8087C314.939 41.8087 316.37 41.4063 317.488 40.6013C318.606 39.7963 319.396 38.8422 319.858 37.7391L322.743 38.6559C322.176 40.2211 321.066 41.5926 319.411 42.7703C317.771 43.9479 315.692 44.5368 313.172 44.5368ZM304.81 29.801H320.283C320.119 27.3711 319.374 25.3661 318.047 23.786C316.72 22.1909 314.939 21.3934 312.703 21.3934C311.197 21.3934 309.871 21.7735 308.723 22.5338C307.575 23.294 306.658 24.3152 305.972 25.5972C305.287 26.8643 304.899 28.2656 304.81 29.801ZM336.194 44.5368C333.735 44.5368 331.7 43.9852 330.09 42.8821C328.495 41.764 327.474 40.154 327.026 38.0521L329.933 37.3589C330.291 38.8646 330.999 39.9901 332.057 40.7354C333.131 41.4659 334.495 41.8311 336.15 41.8311C338.043 41.8311 339.556 41.4063 340.689 40.5565C341.837 39.7068 342.411 38.6484 342.411 37.3813C342.411 35.3539 341.054 34.0123 338.341 33.3564L334.271 32.3725C329.993 31.3439 327.854 29.1302 327.854 25.7313C327.854 24.3301 328.226 23.1002 328.972 22.0418C329.732 20.9834 330.768 20.1561 332.08 19.5598C333.407 18.9635 334.912 18.6653 336.597 18.6653C338.952 18.6653 340.815 19.202 342.187 20.2753C343.573 21.3337 344.557 22.7648 345.139 24.5686L342.366 25.2841C341.978 24.1363 341.33 23.1897 340.42 22.4443C339.526 21.684 338.259 21.3039 336.619 21.3039C334.964 21.3039 333.6 21.7064 332.527 22.5114C331.454 23.3015 330.917 24.3152 330.917 25.5525C330.917 27.6097 332.408 28.996 335.389 29.7116L339.213 30.6284C343.432 31.642 345.541 33.8334 345.541 37.2024C345.541 38.6335 345.146 39.9006 344.356 41.0038C343.566 42.1069 342.463 42.9715 341.047 43.5976C339.645 44.2237 338.028 44.5368 336.194 44.5368ZM350.518 44.0001V19.0008H353.559V44.0001H350.518ZM352.061 14.3721C351.449 14.3721 350.928 14.1634 350.495 13.746C350.063 13.3286 349.847 12.8292 349.847 12.2478C349.847 11.6664 350.063 11.167 350.495 10.7496C350.928 10.3322 351.449 10.1235 352.061 10.1235C352.672 10.1235 353.193 10.3322 353.626 10.7496C354.058 11.167 354.274 11.6664 354.274 12.2478C354.274 12.8292 354.058 13.3286 353.626 13.746C353.193 14.1634 352.672 14.3721 352.061 14.3721ZM369.403 53.8831C366.854 53.8831 364.759 53.4061 363.119 52.4521C361.494 51.4981 360.324 50.2831 359.609 48.8081L362.113 47.2871C362.65 48.2561 363.477 49.1501 364.595 49.9701C365.713 50.7901 367.316 51.2001 369.403 51.2001C371.609 51.2001 373.383 50.6491 374.725 49.5451C376.066 48.4571 376.737 46.7654 376.737 44.4697V38.8571H376.446C376.118 39.6323 375.634 40.4 374.993 41.1603C374.367 41.9056 373.547 42.5243 372.533 43.0162C371.519 43.4933 370.267 43.7318 368.777 43.7318C366.794 43.7318 365.027 43.2473 363.477 42.2783C361.942 41.2944 360.734 39.8857 359.855 38.0521C358.975 36.2186 358.535 34.0197 358.535 31.4557C358.535 28.9066 358.968 26.678 359.832 24.7698C360.697 22.8468 361.904 21.3486 363.455 20.2753C365.005 19.202 366.801 18.6653 368.844 18.6653C370.364 18.6653 371.631 18.9411 372.645 19.4927C373.659 20.0293 374.471 20.6927 375.082 21.4828C375.708 22.2729 376.185 23.0481 376.513 23.8083H376.826V19.0008H379.778V44.6038C379.778 46.7207 379.323 48.4651 378.414 49.8361C377.52 51.2081 376.29 52.2211 374.725 52.8771C373.174 53.5481 371.4 53.8831 369.403 53.8831ZM369.224 41.0038C371.609 41.0038 373.465 40.154 374.792 38.4546C376.118 36.7403 376.782 34.385 376.782 31.3886C376.782 29.4656 376.484 27.7513 375.887 26.2456C375.306 24.74 374.456 23.5624 373.338 22.7126C372.22 21.848 370.849 21.4157 369.224 21.4157C367.584 21.4157 366.19 21.8629 365.042 22.7574C363.909 23.6369 363.052 24.8295 362.471 26.3351C361.889 27.8407 361.599 29.5252 361.599 31.3886C361.599 34.2359 362.255 36.554 363.567 38.3428C364.893 40.1168 366.779 41.0038 369.224 41.0038ZM389.093 28.4146V44.0001H386.052V19.0008H388.981L389.003 23.6071C389.764 21.8778 390.829 20.6256 392.201 19.8505C393.572 19.0604 395.108 18.6653 396.807 18.6653C399.341 18.6653 401.399 19.4554 402.979 21.0356C404.559 22.6008 405.349 24.8667 405.349 27.8333V44.0001H402.33V28.0569C402.33 26.0146 401.756 24.4046 400.608 23.2269C399.461 22.0344 397.925 21.4381 396.002 21.4381C394.034 21.4381 392.387 22.0642 391.06 23.3164C389.749 24.5686 389.093 26.268 389.093 28.4146Z" fill="#0870FF"/>
</g>
<defs>
<clipPath id="clip0_23_1062">
<rect width="406" height="58" fill="white"/>
</clipPath>
</defs>
</svg>
