<?xml version="1.0" encoding="UTF-8"?>
<svg id="Ebene_1" data-name="Ebene 1" xmlns="http://www.w3.org/2000/svg" viewBox="0 0 788.95 114">
  <defs>
    <style>
      .cls-1 {
        fill: #0870ff;
      }
    </style>
  </defs>
  <g>
    <path class="cls-1" d="M155.54,57.53c-4.85-2.11-8.84-4-8.84-7.17,0-2.21,2.51-4.32,6.73-4.32,3.79,0,7.06.95,10.43,2.42.95.42,2.42.53,3.16-.95l1.69-3.37c.63-1.26.1-2.74-1.05-3.58-2.42-1.58-7.48-3.58-14.23-3.58-11.8,0-16.64,7.17-16.64,13.28,0,8.01,6.2,12.02,13.68,15.39,6.75,3.06,10.43,5.16,10.43,8.43,0,2.74-2.32,4.74-6.43,4.74-5.8,0-9.28-2-12.12-3.58-1.26-.74-2.63-.42-3.16.63l-2.21,4.53c-.53,1.05.11,2,.84,2.53,2.74,1.9,8.33,4.95,16.02,4.95,10.86,0,17.39-6.64,17.39-14.23,0-9.06-6.75-12.33-15.7-16.13Z"/>
    <g>
      <path class="cls-1" d="M90.91,101.52c-4.95-3.73-12.25-6.56-19.99-9.56-9.2-3.57-19.63-7.61-27.46-13.84-8.87-7.06-13.18-15.97-13.18-27.24,0-10.11,4.2-18.75,12.13-25,8.9-7.01,22.38-10.71,38.98-10.71,4.59,0,8.97.28,13.03.84.36.05.7-.15.85-.47.15-.33.07-.71-.2-.95C84.62,5.18,71.09,0,57.01,0,41.78,0,27.46,5.93,16.7,16.7,5.93,27.46,0,41.78,0,57s5.93,29.54,16.7,40.31c10.77,10.76,25.08,16.69,40.31,16.69,12.3,0,24.02-3.86,33.9-11.17.21-.15.33-.4.33-.65,0-.26-.12-.5-.33-.66Z"/>
      <path class="cls-1" d="M113.76,51.73c-.02-.22-.13-.42-.29-.56-11.9-9.87-21.52-13.9-33.21-13.9-6.24,0-11.02,1.25-14.22,3.72-2.77,2.14-4.23,5.11-4.23,8.61,0,9.79,11.96,14.25,25.82,19.42,7.14,2.66,14.52,5.42,21.3,9.18.12.07.26.1.4.1.1,0,.19-.02.28-.05.22-.08.4-.25.49-.47,2.59-6.63,3.9-13.62,3.9-20.78,0-1.68-.08-3.45-.24-5.27Z"/>
    </g>
    <path class="cls-1" d="M441.38,87.28c1.46-.16,2.46-1.24,2.46-2.56v-24.72c0-12.65-1.54-22.44-17.82-22.44-9.35,0-16.61,2.53-17.49,2.86-1.21.44-1.98,1.21-1.65,2.97l.99,4.18c.33,1.43,1.32,2.42,2.86,2.09,2.64-.77,8.36-2.42,14.19-2.42,6.38,0,8.36,3.63,8.14,11.66,0,0-4.95-1.54-10.23-1.54-13.09,0-20.36,7.04-20.36,16.39,0,10.56,6.7,14.14,16.27,14.14,7.81,0,15.85-.09,19.19-.31l3.44-.3ZM432.95,78.32c-1.54,2.53-7.04,1.9-11.77,1.8-5.28-.11-7.92-1.96-7.92-6.47,0-5.28,4.51-8.36,10.45-8.36,4.62,0,8.58,1.32,9.24,1.76v11.27Z"/>
    <path class="cls-1" d="M524.45,36.98c3.2,0,5.79-2.58,5.79-5.76s-2.59-5.77-5.79-5.77-5.79,2.58-5.79,5.77,2.59,5.76,5.79,5.76ZM524.45,26.29c2.69,0,4.88,2.21,4.88,4.92s-2.19,4.92-4.88,4.92-4.87-2.22-4.87-4.92,2.18-4.92,4.87-4.92Z"/>
    <path class="cls-1" d="M522.48,34.13h.54c.08,0,.16-.08.16-.16v-2.13h1.26l1.09,2.18c.03.07.08.11.18.11h.63c.14,0,.2-.13.14-.24l-1.14-2.12c.73-.29,1.24-.93,1.24-1.69,0-.99-.82-1.79-1.82-1.79h-2.27c-.09,0-.16.08-.16.16v5.52c0,.08.07.16.16.16ZM523.2,29.1h1.48c.54,0,1.02.45,1.02.99,0,.58-.48,1.03-1.02,1.03h-1.48v-2.03Z"/>
    <path class="cls-1" d="M203.62,36.98c-7.69,0-12.96,4.21-14.12,5.06v-21.74c0-1.16-1.16-2.32-2.32-2.32h-5.9c-1.27,0-2.32,1.16-2.32,2.32v65.27c0,1.26,1.05,2.32,2.32,2.32h5.8c1.48,0,2.42-.95,2.42-2.32v-31.51c1.05-2.11,5.27-7.06,12.75-7.06,6.32,0,9.7,4.74,9.7,12.75v25.83c0,1.26,1.05,2.32,2.32,2.32h5.9c1.16,0,2.32-1.05,2.32-2.32v-25.62c0-13.28-5.06-22.98-18.86-22.98Z"/>
    <path class="cls-1" d="M327.07,60.47c-.58-16.54-7.51-23.49-23.48-23.49-7.67,0-16.81,2.3-18.16,2.89-1.66.72-2.88,1.57-2.88,2.73v61.98c0,1.26,1.05,2.32,2.32,2.32h4.89c1.58,0,2.53-.95,2.53-2.32v-17.51c1.48.38,9.04,1.03,15.36.83,11.27-.35,18.84-8.54,19.47-22.35.09-1.89-.05-5.07-.05-5.07ZM316.88,65.51c-.22,9.37-2.95,13.52-10.84,13.95-3.9.21-13.13-.87-13.13-.87-.38-.13-.64-.29-.64-.64v-19s0-10.77,0-10.77c0-.29.22-.53.5-.56,1.09-.12,5.07-1.39,10.82-1.39,9.61,0,13,1.41,13.31,13.58.02,1.62.02,3.87-.02,5.71Z"/>
    <path class="cls-1" d="M396.89,38.03h-4.43c-1.27,0-3.06,0-3.69,1.48l-7.8,28.03h-.21l-13.07-29.4c-.21-.63-.95-1.16-2.11-1.16h-.74c-.95,0-1.69.53-2,1.16l-13.17,29.3h-.21l-8.01-27.93c-.21-.95-1.27-1.48-2.11-1.48h-6.32c-1.69,0-2.42,1.26-1.69,2.74l14.23,45.84c.21.74.95,1.27,2,1.27h.63c1.05,0,1.69-.53,1.9-1.16l14.97-33.09h.21l14.86,33.09c.32.63,1.05,1.16,2.11,1.16h.42c1.05,0,2-.53,2.21-1.27l13.91-45.84c.74-1.48-.21-2.74-1.9-2.74Z"/>
    <path class="cls-1" d="M474.64,37.56c-.26,0-.5.02-.75.03-.43-.01-.84-.03-1.29-.03-2.53,0-4.95.08-7.22.2h0c-4.37.18-6.96.5-8.81.71,0,0-1.18.11-2.56.29-.93.12-1.6.5-2.01,1.02-.28.3-.45.69-.45,1.15v44.63c0,1.27,1.05,2.32,2.32,2.32h4.85c2,0,3.37-.21,3.37-2.32v-30.17h0v-6.92c0-.29.46-.66.71-.8,1.19-.71,4.05-1.23,9.8-1.23.56,0,.92,0,1.34.02,1.32.13,3.4.53,4.08.92,1.05.53,2.32.21,2.95-1.16l2.53-4.14c1.58-3.27-4.21-4.53-8.85-4.53Z"/>
    <path class="cls-1" d="M507.99,36.98c-14.65,0-24.24,11.7-24.24,25.4s9.59,25.5,24.35,25.5c8.11,0,14.54-2.95,18.02-6.01,1.47-1.26,1.05-2.21.21-3.27l-2.85-4.43c-.84-1.27-1.79-.95-2.84-.21-2.95,2.11-6.32,4.11-11.91,4.11-8.54,0-14.44-6.75-14.54-13.28h33.62c1.05,0,2.11-.85,2.21-2.11.11-.84.21-2.53.21-3.37,0-12.96-9.59-22.34-22.24-22.34ZM494.72,57c.74-6.11,5.37-11.07,13.07-11.07,7.17,0,11.8,5.17,12.02,11.07h-25.08Z"/>
    <path class="cls-1" d="M274.12,52.03c-1.1-3.14-2.64-5.83-4.62-8.06-1.98-2.24-4.35-3.96-7.09-5.17-2.75-1.21-6.64-1.82-9.88-1.82s-7.12.61-9.87,1.82c-2.75,1.21-5.11,2.94-7.09,5.17-1.98,2.24-3.52,4.93-4.62,8.06-1.1,3.14-1.65,6.61-1.65,10.39s.55,7.34,1.65,10.44c1.1,3.11,2.64,5.78,4.62,8.02,1.98,2.24,4.35,3.96,7.09,5.17,2.75,1.21,6.63,1.82,9.87,1.82s7.13-.61,9.88-1.82c2.74-1.21,5.11-2.94,7.09-5.17,1.98-2.24,3.52-4.91,4.62-8.02,1.1-3.11,1.65-6.59,1.65-10.44s-.55-7.26-1.65-10.39ZM252.26,79.49c-8.8,0-13.22-7.45-13.22-16.63s4.42-16.63,13.22-16.63,13.23,7.45,13.23,16.63-4.44,16.63-13.23,16.63Z"/>
  </g>
  <g>
    <path class="cls-1" d="M554.88,87.81v-40.25h7.52v6.55h.5c.84-2.22,2.21-3.95,4.11-5.2,1.9-1.25,4.18-1.87,6.84-1.87s4.95.63,6.77,1.89c1.83,1.26,3.17,2.99,4.05,5.19h.42c.96-2.15,2.49-3.87,4.59-5.15,2.1-1.28,4.59-1.93,7.49-1.93,3.65,0,6.63,1.14,8.95,3.43,2.31,2.29,3.47,5.74,3.47,10.35v26.99h-7.83v-26.26c0-2.72-.74-4.7-2.23-5.92s-3.26-1.83-5.32-1.83c-2.55,0-4.53.78-5.95,2.34s-2.12,3.57-2.12,6.01v25.65h-7.81v-26.75c0-2.18-.68-3.94-2.04-5.27-1.36-1.33-3.14-1.99-5.32-1.99-1.48,0-2.85.39-4.1,1.17s-2.25,1.86-3.01,3.24-1.14,2.98-1.14,4.79v24.82h-7.83Z"/>
    <path class="cls-1" d="M634.47,88.62c-3.97,0-7.38-.85-10.23-2.56s-5.06-4.1-6.6-7.21c-1.55-3.1-2.32-6.74-2.32-10.91s.77-7.76,2.32-10.9,3.71-5.6,6.5-7.36c2.79-1.76,6.05-2.65,9.79-2.65,2.27,0,4.47.38,6.6,1.13,2.13.75,4.04,1.93,5.74,3.54,1.69,1.61,3.03,3.69,4.01,6.25s1.47,5.66,1.47,9.32v2.78h-32v-5.87h24.32c0-2.06-.42-3.89-1.26-5.49-.84-1.6-2.01-2.86-3.53-3.79-1.51-.93-3.28-1.39-5.31-1.39-2.2,0-4.12.54-5.75,1.61-1.63,1.07-2.89,2.47-3.77,4.19-.88,1.72-1.32,3.59-1.32,5.59v4.59c0,2.69.48,4.98,1.43,6.87s2.28,3.32,4,4.31c1.71.99,3.71,1.48,6,1.48,1.48,0,2.84-.21,4.06-.64,1.22-.43,2.28-1.07,3.17-1.93.89-.86,1.57-1.91,2.04-3.17l7.42,1.34c-.59,2.18-1.66,4.09-3.18,5.73-1.53,1.63-3.44,2.9-5.74,3.8s-4.91,1.35-7.85,1.35Z"/>
    <path class="cls-1" d="M676.3,47.56v6.29h-21.99v-6.29h21.99ZM660.21,37.92h7.84v38.08c0,1.52.23,2.66.68,3.42.45.76,1.04,1.28,1.77,1.55.72.27,1.51.41,2.37.41.63,0,1.18-.04,1.65-.13.47-.09.84-.16,1.1-.21l1.42,6.47c-.46.17-1.1.35-1.94.54s-1.89.28-3.14.3c-2.06.04-3.98-.33-5.76-1.1-1.78-.77-3.22-1.96-4.32-3.56s-1.65-3.62-1.65-6.05v-39.7Z"/>
    <path class="cls-1" d="M699.34,88.62c-3.97,0-7.38-.85-10.23-2.56s-5.06-4.1-6.6-7.21c-1.55-3.1-2.32-6.74-2.32-10.91s.77-7.76,2.32-10.9,3.71-5.6,6.5-7.36c2.79-1.76,6.05-2.65,9.79-2.65,2.27,0,4.47.38,6.6,1.13,2.13.75,4.04,1.93,5.74,3.54,1.69,1.61,3.03,3.69,4.01,6.25s1.47,5.66,1.47,9.32v2.78h-32v-5.87h24.32c0-2.06-.42-3.89-1.26-5.49-.84-1.6-2.01-2.86-3.53-3.79-1.51-.93-3.28-1.39-5.31-1.39-2.2,0-4.12.54-5.75,1.61-1.63,1.07-2.89,2.47-3.77,4.19-.88,1.72-1.32,3.59-1.32,5.59v4.59c0,2.69.48,4.98,1.43,6.87s2.28,3.32,4,4.31c1.71.99,3.71,1.48,6,1.48,1.48,0,2.84-.21,4.06-.64,1.22-.43,2.28-1.07,3.17-1.93.89-.86,1.57-1.91,2.04-3.17l7.42,1.34c-.59,2.18-1.66,4.09-3.18,5.73-1.53,1.63-3.44,2.9-5.74,3.8s-4.91,1.35-7.85,1.35Z"/>
    <path class="cls-1" d="M739.34,88.62c-3.77,0-7.07-.87-9.88-2.59-2.81-1.73-5-4.15-6.55-7.26-1.55-3.11-2.33-6.74-2.33-10.9s.78-7.83,2.33-10.95,3.74-5.56,6.55-7.29c2.81-1.73,6.11-2.59,9.88-2.59s7.07.86,9.88,2.59,5,4.16,6.55,7.29c1.55,3.13,2.33,6.78,2.33,10.95s-.78,7.79-2.33,10.9c-1.56,3.11-3.74,5.53-6.55,7.26s-6.11,2.59-9.88,2.59ZM739.37,82.04c2.45,0,4.47-.65,6.08-1.94s2.8-3.01,3.58-5.16c.78-2.15,1.17-4.52,1.17-7.1s-.39-4.93-1.17-7.09c-.78-2.16-1.97-3.89-3.58-5.2-1.61-1.31-3.63-1.96-6.08-1.96s-4.5.66-6.12,1.96c-1.62,1.31-2.81,3.04-3.59,5.2-.78,2.16-1.17,4.52-1.17,7.09s.39,4.95,1.17,7.1c.78,2.15,1.97,3.87,3.59,5.16s3.66,1.94,6.12,1.94Z"/>
    <path class="cls-1" d="M763.88,87.81v-40.25h7.57v6.39h.42c.73-2.17,2.03-3.87,3.89-5.12,1.86-1.25,3.97-1.87,6.33-1.87.49,0,1.07.02,1.74.05.67.04,1.2.08,1.59.13v7.49c-.31-.09-.87-.19-1.68-.3-.8-.11-1.61-.17-2.41-.17-1.85,0-3.5.39-4.94,1.17-1.44.78-2.58,1.85-3.42,3.22s-1.26,2.93-1.26,4.68v24.58h-7.83Z"/>
  </g>
</svg>