<svg width="24" height="24" viewBox="0 0 24 24" fill="none" xmlns="http://www.w3.org/2000/svg">
<path fill-rule="evenodd" clip-rule="evenodd" d="M3 4.5C3 3.67157 3.67157 3 4.5 3H19.5C20.3284 3 21 3.67157 21 4.5C21 5.32843 20.3284 6 19.5 6H4.5C3.67157 6 3 5.32843 3 4.5ZM6 9.5C6 8.67157 6.67157 8 7.5 8H17.5C18.3284 8 19 8.67157 19 9.5C19 10.3284 18.3284 11 17.5 11H7.5C6.67157 11 6 10.3284 6 9.5ZM3 14.5C3 13.6716 3.67157 13 4.5 13H19.5C20.3284 13 21 13.6716 21 14.5C21 15.3284 20.3284 16 19.5 16H4.5C3.67157 16 3 15.3284 3 14.5ZM6 19.5C6 18.6716 6.67157 18 7.5 18H17.5C18.3284 18 19 18.6716 19 19.5C19 20.3284 18.3284 21 17.5 21H7.5C6.67157 21 6 20.3284 6 19.5Z" fill="#758CA3"/>
</svg>
