<svg width="24" height="24" viewBox="0 0 24 24" fill="none" xmlns="http://www.w3.org/2000/svg">
<path fill-rule="evenodd" clip-rule="evenodd" d="M2 4.5C2 3.67157 2.67157 3 3.5 3H20.5C21.3284 3 22 3.67157 22 4.5C22 5.32843 21.3284 6 20.5 6H3.5C2.67157 6 2 5.32843 2 4.5ZM2 9.5C2 8.67157 2.67157 8 3.5 8H16.5C17.3284 8 18 8.67157 18 9.5C18 10.3284 17.3284 11 16.5 11H3.5C2.67157 11 2 10.3284 2 9.5ZM2 14.5C2 13.6716 2.67157 13 3.5 13H20.5C21.3284 13 22 13.6716 22 14.5C22 15.3284 21.3284 16 20.5 16H3.5C2.67157 16 2 15.3284 2 14.5ZM2 19.5C2 18.6716 2.67157 18 3.5 18H17.5C18.3284 18 19 18.6716 19 19.5C19 20.3284 18.3284 21 17.5 21H3.5C2.67157 21 2 20.3284 2 19.5Z" fill="#758CA3"/>
</svg>
