<svg width="24" height="24" viewBox="0 0 24 24" fill="none" xmlns="http://www.w3.org/2000/svg">
<path fill-rule="evenodd" clip-rule="evenodd" d="M4 13C5.65685 13 7 14.3431 7 16V21C7 22.6569 5.65685 24 4 24C2.34315 24 1 22.6569 1 21V16C1 14.3431 2.34315 13 4 13ZM12 0C13.6569 0 15 1.34315 15 3V21C15 22.6569 13.6569 24 12 24C10.3431 24 9 22.6569 9 21V3C9 1.34315 10.3431 0 12 0ZM20 7C21.6569 7 23 8.34315 23 10V21C23 22.6569 21.6569 24 20 24C18.3431 24 17 22.6569 17 21V10C17 8.34315 18.3431 7 20 7Z" fill="#758CA3"/>
</svg>
