<svg id="meteor-icon-kit__solid-artificial-intelligence" viewBox="0 0 24 18" fill="none" xmlns="http://www.w3.org/2000/svg"><path d="M11.3464 5.23062L11.3464 5.23053C11.0358 4.48528 10.3075 4 9.50027 4C8.69301 4 7.96475 4.48526 7.65414 5.23053L7.6541 5.23062L5.1541 11.2306C4.72928 12.2502 5.21142 13.4211 6.23103 13.8459L6.23105 13.8459C7.16992 14.2371 8.23796 13.8596 8.73265 13H10.2679C10.7626 13.8596 11.8306 14.2371 12.7695 13.8459L12.7695 13.8459C13.5246 13.5313 13.9849 12.8076 14.0004 12.0391C14.0212 13.1256 14.9085 14 16 14C17.1046 14 18 13.1045 18 12V6C18 4.89549 17.1046 4 16 4C14.8954 4 14 4.89549 14 6V11.9434C13.9933 11.705 13.9436 11.4639 13.8464 11.2306L11.3464 5.23062zM1 2C1 1.44772 1.44772 1 2 1H22C22.5523 1 23 1.44772 23 2V16C23 16.5523 22.5523 17 22 17H2C1.44771 17 1 16.5523 1 16V2z" fill="#758CA3" stroke="#758CA3" stroke-width="2"/></svg>