<svg id="meteor-icon-kit__solid-audio-description" viewBox="0 0 24 18" fill="none" xmlns="http://www.w3.org/2000/svg"><path d="M1 2C1 1.44772 1.44772 1 2 1H22C22.5523 1 23 1.44772 23 2V16C23 16.5523 22.5523 17 22 17H2C1.44771 17 1 16.5523 1 16V2zM9.34617 5.23077C9.03563 4.48548 8.30742 4 7.50002 4C6.69262 4 5.9644 4.48548 5.65386 5.23077L3.15386 11.2308C2.72903 12.2504 3.21118 13.4213 4.23079 13.8462C5.17007 14.2375 6.23779 13.8592 6.73232 13H8.26771C8.76224 13.8592 9.82996 14.2375 10.7692 13.8462C11.5265 13.5306 11.9873 12.8035 12.0003 12.0325C12.0176 13.1221 12.9063 14 14 14H16C18.2091 14 20 12.2091 20 10V8C20 5.79086 18.2091 4 16 4H14C12.8954 4 12 4.89543 12 6V11.9529C11.9944 11.7115 11.9446 11.4671 11.8462 11.2308L9.34617 5.23077z" fill="#758CA3" stroke="#758CA3" stroke-width="2"/></svg>