<svg width="24" height="24" viewBox="0 0 24 24" fill="none" xmlns="http://www.w3.org/2000/svg">
<path fill-rule="evenodd" clip-rule="evenodd" d="M9 7V15C9 15.5523 8.55228 16 8 16C7.44772 16 7 15.5523 7 15V7C7 6.44772 7.44772 6 8 6C8.55228 6 9 6.44772 9 7ZM18 7V15C18 15.5523 17.5523 16 17 16C16.4477 16 16 15.5523 16 15V7C16 6.44772 16.4477 6 17 6C17.5523 6 18 6.44772 18 7ZM5 7V17C5 17.5523 4.55228 18 4 18H3C2.44772 18 2 17.5523 2 17V7C2 6.44772 2.44772 6 3 6H4C4.55228 6 5 6.44772 5 7ZM14 7V15C14 15.5523 13.5523 16 13 16H12C11.4477 16 11 15.5523 11 15V7C11 6.44772 11.4477 6 12 6H13C13.5523 6 14 6.44772 14 7ZM23 7V17C23 17.5523 22.5523 18 22 18H21C20.4477 18 20 17.5523 20 17V7C20 6.44772 20.4477 6 21 6H22C22.5523 6 23 6.44772 23 7Z" fill="#758CA3"/>
</svg>
