<svg width="24" height="24" viewBox="0 0 24 24" fill="none" xmlns="http://www.w3.org/2000/svg">
<path fill-rule="evenodd" clip-rule="evenodd" d="M9 7V8C9 8.55228 8.55229 9 8 9C7.44772 9 7 8.55228 7 8V7C7 6.44772 7.44772 6 8 6C8.55229 6 9 6.44772 9 7ZM18 7V8C18 8.55228 17.5523 9 17 9C16.4477 9 16 8.55228 16 8V7C16 6.44772 16.4477 6 17 6C17.5523 6 18 6.44772 18 7ZM5 7V8C5 8.55228 4.55228 9 4 9H3C2.44772 9 2 8.55228 2 8V7C2 6.44772 2.44772 6 3 6H4C4.55228 6 5 6.44772 5 7ZM14 7V8C14 8.55228 13.5523 9 13 9H12C11.4477 9 11 8.55228 11 8V7C11 6.44772 11.4477 6 12 6H13C13.5523 6 14 6.44772 14 7ZM23 7V8C23 8.55228 22.5523 9 22 9H21C20.4477 9 20 8.55228 20 8V7C20 6.44772 20.4477 6 21 6H22C22.5523 6 23 6.44772 23 7ZM9 14V15C9 15.5523 8.55229 16 8 16C7.44772 16 7 15.5523 7 15V14C7 13.4477 7.44772 13 8 13C8.55229 13 9 13.4477 9 14ZM18 14V15C18 15.5523 17.5523 16 17 16C16.4477 16 16 15.5523 16 15V14C16 13.4477 16.4477 13 17 13C17.5523 13 18 13.4477 18 14ZM5 14V17C5 17.5523 4.55228 18 4 18H3C2.44772 18 2 17.5523 2 17V14C2 13.4477 2.44772 13 3 13H4C4.55228 13 5 13.4477 5 14ZM14 14V15C14 15.5523 13.5523 16 13 16H12C11.4477 16 11 15.5523 11 15V14C11 13.4477 11.4477 13 12 13H13C13.5523 13 14 13.4477 14 14ZM23 14V17C23 17.5523 22.5523 18 22 18H21C20.4477 18 20 17.5523 20 17V14C20 13.4477 20.4477 13 21 13H22C22.5523 13 23 13.4477 23 14ZM1 10H23C23.5523 10 24 10.4477 24 11C24 11.5523 23.5523 12 23 12H1C0.447715 12 0 11.5523 0 11C0 10.4477 0.447715 10 1 10Z" fill="#758CA3"/>
</svg>
