<svg width="24" height="24" viewBox="0 0 24 24" fill="none" xmlns="http://www.w3.org/2000/svg">
<path fill-rule="evenodd" clip-rule="evenodd" d="M6.5 8.5C5.67157 8.5 5 7.82843 5 7C5 6.17157 5.67157 5.5 6.5 5.5H17.5C18.3284 5.5 19 6.17157 19 7C19 7.82843 18.3284 8.5 17.5 8.5H6.5ZM6.5 13.5C5.67157 13.5 5 12.8284 5 12C5 11.1716 5.67157 10.5 6.5 10.5H17.5C18.3284 10.5 19 11.1716 19 12C19 12.8284 18.3284 13.5 17.5 13.5H6.5ZM6.5 18.5C5.67157 18.5 5 17.8284 5 17C5 16.1716 5.67157 15.5 6.5 15.5H17.5C18.3284 15.5 19 16.1716 19 17C19 17.8284 18.3284 18.5 17.5 18.5H6.5Z" fill="#758CA3"/>
</svg>
