<svg width="24" height="24" viewBox="0 0 24 24" fill="none" xmlns="http://www.w3.org/2000/svg">
<path fill-rule="evenodd" clip-rule="evenodd" d="M6 4H18C19.1046 4 20 4.89543 20 6V18C20 19.1046 19.1046 20 18 20H6C4.89543 20 4 19.1046 4 18V6C4 4.89543 4.89543 4 6 4ZM9 11H15C15.5523 11 16 10.5523 16 10C16 9.44772 15.5523 9 15 9H9C8.44772 9 8 9.44772 8 10C8 10.5523 8.44772 11 9 11ZM9 15H15C15.5523 15 16 14.5523 16 14C16 13.4477 15.5523 13 15 13H9C8.44772 13 8 13.4477 8 14C8 14.5523 8.44772 15 9 15Z" fill="#758CA3"/>
</svg>
