<svg width="24" height="24" viewBox="0 0 24 24" fill="none" xmlns="http://www.w3.org/2000/svg">
<path fill-rule="evenodd" clip-rule="evenodd" d="M12 20C7.58172 20 4 16.4183 4 12C4 7.58172 7.58172 4 12 4C16.4183 4 20 7.58172 20 12C20 16.4183 16.4183 20 12 20ZM9 11H15C15.5523 11 16 10.5523 16 10C16 9.44772 15.5523 9 15 9H9C8.44772 9 8 9.44772 8 10C8 10.5523 8.44772 11 9 11ZM9 15H15C15.5523 15 16 14.5523 16 14C16 13.4477 15.5523 13 15 13H9C8.44772 13 8 13.4477 8 14C8 14.5523 8.44772 15 9 15Z" fill="#758CA3"/>
</svg>
