<svg width="24" height="24" viewBox="0 0 24 24" fill="none" xmlns="http://www.w3.org/2000/svg">
<path fill-rule="evenodd" clip-rule="evenodd" d="M4.5 3.91465C3.9174 3.70873 3.5 3.15311 3.5 2.5C3.5 1.67157 4.17157 1 5 1H12.5C15.8137 1 18.5 3.68629 18.5 7C18.5 8.44502 17.9892 9.77073 17.1383 10.8064C19.1426 11.9135 20.5 14.0482 20.5 16.5C20.5 20.0899 17.5899 23 14 23H5C4.17157 23 3.5 22.3284 3.5 21.5C3.5 20.8469 3.9174 20.2913 4.5 20.0854V3.91465ZM7.5 4V10H12.5C14.1569 10 15.5 8.65685 15.5 7C15.5 5.34315 14.1569 4 12.5 4H7.5ZM7.5 13V20H14C15.933 20 17.5 18.433 17.5 16.5C17.5 14.567 15.933 13 14 13H7.5Z" fill="#758CA3"/>
</svg>
