<svg width="24" height="24" viewBox="0 0 24 24" fill="none" xmlns="http://www.w3.org/2000/svg">
<path fill-rule="evenodd" clip-rule="evenodd" d="M3 6H7C7.55228 6 8 6.44772 8 7V21C8 21.5523 7.55228 22 7 22H3C2.44772 22 2 21.5523 2 21V7C2 6.44772 2.44772 6 3 6ZM4 15V19C4 19.5523 4.44772 20 5 20C5.55228 20 6 19.5523 6 19V15C6 14.4477 5.55228 14 5 14C4.44772 14 4 14.4477 4 15ZM10 2H14C14.5523 2 15 2.44772 15 3V21C15 21.5523 14.5523 22 14 22H10C9.44772 22 9 21.5523 9 21V3C9 2.44772 9.44772 2 10 2ZM11 13V19C11 19.5523 11.4477 20 12 20C12.5523 20 13 19.5523 13 19V13C13 12.4477 12.5523 12 12 12C11.4477 12 11 12.4477 11 13ZM17 4H21C21.5523 4 22 4.44772 22 5V21C22 21.5523 21.5523 22 21 22H17C16.4477 22 16 21.5523 16 21V5C16 4.44772 16.4477 4 17 4ZM18 17V19C18 19.5523 18.4477 20 19 20C19.5523 20 20 19.5523 20 19V17C20 16.4477 19.5523 16 19 16C18.4477 16 18 16.4477 18 17Z" fill="#758CA3"/>
</svg>
