<svg width="24" height="24" viewBox="0 0 24 24" fill="none" xmlns="http://www.w3.org/2000/svg">
<path fill-rule="evenodd" clip-rule="evenodd" d="M3 21H2C1.44772 21 1 20.5523 1 20C1 19.4477 1.44772 19 2 19H3V17H2C1.44772 17 1 16.5523 1 16C1 15.4477 1.44772 15 2 15H3V13H2C1.44772 13 1 12.5523 1 12C1 11.4477 1.44772 11 2 11H3V9H2C1.44772 9 1 8.55229 1 8C1 7.44772 1.44772 7 2 7H3V5H2C1.44772 5 1 4.55228 1 4C1 3.44772 1.44772 3 2 3H3C3 1.34315 4.34315 0 6 0H19C20.6569 0 22 1.34315 22 3V21C22 22.6569 20.6569 24 19 24H6C4.34315 24 3 22.6569 3 21ZM12.5 5C10.0147 5 8 7.01472 8 9.5C8 11.9853 10.0147 14 12.5 14C14.9853 14 17 11.9853 17 9.5C17 7.01472 14.9853 5 12.5 5ZM8 22C8.55228 22 16.4477 22 17 22C17.5523 22 18 21.5523 18 21V19C18 16.7909 16.2091 15 14 15H11C8.79086 15 7 16.7909 7 19V21C7 21.5523 7.44772 22 8 22Z" fill="#758CA3"/>
</svg>
