<svg width="24" height="24" viewBox="0 0 24 24" fill="none" xmlns="http://www.w3.org/2000/svg">
<path fill-rule="evenodd" clip-rule="evenodd" d="M11.0003 22.9265C8.93366 22.6206 7.11181 21.3786 5.8451 19.5691L4.70711 20.7071C4.31658 21.0976 3.68342 21.0976 3.29289 20.7071C2.90237 20.3166 2.90237 19.6834 3.29289 19.2929L4.84103 17.7448C4.48231 16.8933 4.22814 15.9688 4.09852 14.9952C4.06611 14.9984 4.03324 15 4 15H2C1.44772 15 1 14.5523 1 14C1 13.4477 1.44772 13 2 13H4C4.00363 13 4.00726 13 4.01089 13.0001C4.06942 11.6594 4.362 10.3923 4.84103 9.25525L3.29289 7.70711C2.90237 7.31658 2.90237 6.68342 3.29289 6.29289C3.68342 5.90237 4.31658 5.90237 4.70711 6.29289L5.8451 7.43089C6.45625 6.55786 7.19663 5.81693 8.03137 5.24949C8.01089 5.16974 8 5.08614 8 5C8 2.79086 9.79086 1 12 1C14.2091 1 16 2.79086 16 5C16 5.08614 15.9891 5.16974 15.9686 5.24949C16.8034 5.81693 17.5437 6.55786 18.1549 7.43089L19.2929 6.29289C19.6834 5.90237 20.3166 5.90237 20.7071 6.29289C21.0976 6.68342 21.0976 7.31658 20.7071 7.70711L19.159 9.25525C19.638 10.3923 19.9306 11.6594 19.9891 13.0001C19.9927 13 19.9964 13 20 13H22C22.5523 13 23 13.4477 23 14C23 14.5523 22.5523 15 22 15H20C19.9668 15 19.9339 14.9984 19.9015 14.9952C19.7719 15.9688 19.5177 16.8933 19.159 17.7448L20.7071 19.2929C21.0976 19.6834 21.0976 20.3166 20.7071 20.7071C20.3166 21.0976 19.6834 21.0976 19.2929 20.7071L18.1549 19.5691C16.8882 21.3786 15.0663 22.6206 12.9997 22.9265C12.9999 22.9177 13 22.9089 13 22.9V14.1C13 13.4925 12.5523 13 12 13C11.4477 13 11 13.4925 11 14.1V22.9C11 22.9089 11.0001 22.9177 11.0003 22.9265Z" fill="#758CA3"/>
</svg>
