<svg width="24" height="24" viewBox="0 0 24 24" fill="none" xmlns="http://www.w3.org/2000/svg">
<path fill-rule="evenodd" clip-rule="evenodd" d="M23 6H1V5C1 3.34315 2.34315 2 4 2H5V1C5 0.447715 5.44772 0 6 0C6.55228 0 7 0.447715 7 1V2H17V1C17 0.447715 17.4477 0 18 0C18.5523 0 19 0.447715 19 1V2H20C21.6569 2 23 3.34315 23 5V6ZM23 8V21C23 22.6569 21.6569 24 20 24H4C2.34315 24 1 22.6569 1 21V8H23ZM6 18C5.44772 18 5 18.4477 5 19C5 19.5523 5.44772 20 6 20C6.55228 20 7 19.5523 7 19C7 18.4477 6.55228 18 6 18ZM10 18C9.44771 18 9 18.4477 9 19C9 19.5523 9.44771 20 10 20C10.5523 20 11 19.5523 11 19C11 18.4477 10.5523 18 10 18ZM14 18C13.4477 18 13 18.4477 13 19C13 19.5523 13.4477 20 14 20C14.5523 20 15 19.5523 15 19C15 18.4477 14.5523 18 14 18ZM6 14C5.44772 14 5 14.4477 5 15C5 15.5523 5.44772 16 6 16C6.55228 16 7 15.5523 7 15C7 14.4477 6.55228 14 6 14ZM10 14C9.44771 14 9 14.4477 9 15C9 15.5523 9.44771 16 10 16C10.5523 16 11 15.5523 11 15C11 14.4477 10.5523 14 10 14ZM14 14C13.4477 14 13 14.4477 13 15C13 15.5523 13.4477 16 14 16C14.5523 16 15 15.5523 15 15C15 14.4477 14.5523 14 14 14ZM6 10C5.44772 10 5 10.4477 5 11C5 11.5523 5.44772 12 6 12C6.55228 12 7 11.5523 7 11C7 10.4477 6.55228 10 6 10ZM10 10C9.44771 10 9 10.4477 9 11C9 11.5523 9.44771 12 10 12C10.5523 12 11 11.5523 11 11C11 10.4477 10.5523 10 10 10ZM14 10C13.4477 10 13 10.4477 13 11C13 11.5523 13.4477 12 14 12C14.5523 12 15 11.5523 15 11C15 10.4477 14.5523 10 14 10ZM18 18C17.4477 18 17 18.4477 17 19C17 19.5523 17.4477 20 18 20C18.5523 20 19 19.5523 19 19C19 18.4477 18.5523 18 18 18ZM18 14C17.4477 14 17 14.4477 17 15C17 15.5523 17.4477 16 18 16C18.5523 16 19 15.5523 19 15C19 14.4477 18.5523 14 18 14ZM18 10C17.4477 10 17 10.4477 17 11C17 11.5523 17.4477 12 18 12C18.5523 12 19 11.5523 19 11C19 10.4477 18.5523 10 18 10Z" fill="#758CA3"/>
</svg>
