<svg width="24" height="25" viewBox="0 0 24 25" fill="none" xmlns="http://www.w3.org/2000/svg">
<path fill-rule="evenodd" clip-rule="evenodd" d="M16.0618 9.925C15.4154 9.40685 15.3115 8.4628 15.8296 7.81642C16.3478 7.17004 17.2918 7.0661 17.9382 7.58426C20.1724 9.37527 21.5 12.0801 21.5 15C21.5 20.2467 17.2467 24.5 12 24.5C6.75329 24.5 2.5 20.2467 2.5 15C2.5 12.0801 3.82758 9.37527 6.06179 7.58426C6.70817 7.0661 7.65222 7.17004 8.17037 7.81642C8.68853 8.4628 8.58458 9.40685 7.93821 9.925C6.40686 11.1526 5.5 13.0002 5.5 15C5.5 18.5899 8.41015 21.5 12 21.5C15.5899 21.5 18.5 18.5899 18.5 15C18.5 13.0002 17.5931 11.1526 16.0618 9.925ZM10.5 5.12132L10.0607 5.56066C9.47487 6.14645 8.52513 6.14645 7.93934 5.56066C7.35355 4.97487 7.35355 4.02513 7.93934 3.43934L10.9393 0.43934C11.5251 -0.146447 12.4749 -0.146447 13.0607 0.43934L16.0607 3.43934C16.6464 4.02513 16.6464 4.97487 16.0607 5.56066C15.4749 6.14645 14.5251 6.14645 13.9393 5.56066L13.5 5.12132V17C13.5 17.8284 12.8284 18.5 12 18.5C11.1716 18.5 10.5 17.8284 10.5 17V5.12132Z" fill="#758CA3"/>
</svg>
