<svg width="24" height="24" viewBox="0 0 24 24" fill="none" xmlns="http://www.w3.org/2000/svg">
<path fill-rule="evenodd" clip-rule="evenodd" d="M13.5 13.3787L13.9393 12.9393C14.5251 12.3536 15.4749 12.3536 16.0607 12.9393C16.6464 13.5251 16.6464 14.4749 16.0607 15.0607L13.0607 18.0607C12.4749 18.6464 11.5251 18.6464 10.9393 18.0607L7.93934 15.0607C7.35355 14.4749 7.35355 13.5251 7.93934 12.9393C8.52513 12.3536 9.47487 12.3536 10.0607 12.9393L10.5 13.3787V1.5C10.5 0.671573 11.1716 0 12 0C12.8284 0 13.5 0.671573 13.5 1.5V13.3787ZM16.0618 9.425C15.4154 8.90685 15.3115 7.9628 15.8296 7.31642C16.3478 6.67004 17.2918 6.5661 17.9382 7.08426C20.1724 8.87527 21.5 11.5801 21.5 14.5C21.5 19.7467 17.2467 24 12 24C6.75329 24 2.5 19.7467 2.5 14.5C2.5 11.5801 3.82758 8.87527 6.06179 7.08426C6.70817 6.5661 7.65222 6.67004 8.17037 7.31642C8.68853 7.9628 8.58458 8.90685 7.93821 9.425C6.40686 10.6526 5.5 12.5002 5.5 14.5C5.5 18.0899 8.41015 21 12 21C15.5899 21 18.5 18.0899 18.5 14.5C18.5 12.5002 17.5931 10.6526 16.0618 9.425Z" fill="#758CA3"/>
</svg>
