<svg id="meteor-icon-kit__solid-closed-captioning" viewBox="0 0 24 18" fill="none" xmlns="http://www.w3.org/2000/svg"><path d="M8.45761 9.6948L9.22881 10.3314L8.45761 9.6948C8.33438 9.844 8.18385 9.9354 8.0349 9.9754C7.88725 10.015 7.73244 10.0071 7.58556 9.9496C7.43706 9.8915 7.29126 9.78 7.17988 9.6121C7.06769 9.4429 7.00085 9.2307 7.00001 9.0043C6.99916 8.778 7.06442 8.565 7.17561 8.3945C7.28599 8.2252 7.43135 8.1122 7.57978 8.0527C7.72657 7.9939 7.88139 7.9847 8.02907 8.0231C8.17802 8.0618 8.32883 8.1516 8.45283 8.2995C8.77945 8.689 9.22291 8.9226 9.68898 8.9923C9.22323 9.0654 8.78135 9.3026 8.45761 9.6948zM10.2981 8.99C10.6449 8.9354 10.9818 8.7888 11.2704 8.5467C12.1168 7.8369 12.2274 6.57544 11.5176 5.72911C10.8745 4.96228 10.0114 4.4053 9.0348 4.1516C8.05706 3.8976 7.02856 3.96441 6.09203 4.33966C5.15695 4.71433 4.37051 5.37301 3.82495 6.20971C3.28005 7.0454 2.99632 8.0253 3.00004 9.0193C3.00375 10.0132 3.29479 10.991 3.84618 11.8226C4.39825 12.6551 5.18997 13.3076 6.1282 13.6747C7.06786 14.0423 8.09689 14.1005 9.07244 13.8385C10.0468 13.5768 10.9054 13.0129 11.5424 12.2412C12.2456 11.3893 12.125 10.1287 11.2732 9.4256C10.9829 9.1859 10.6451 9.0419 10.2981 8.99zM1 2C1 1.44772 1.44772 1 2 1H22C22.5523 1 23 1.44772 23 2V16C23 16.5523 22.5523 17 22 17H2C1.44771 17 1 16.5523 1 16V2zM20.5176 5.72911L19.7514 6.37171L20.5176 5.72911C19.8745 4.96228 19.0114 4.4053 18.0348 4.1516C17.0571 3.8976 16.0286 3.96441 15.092 4.33966C14.1569 4.71433 13.3705 5.37301 12.825 6.20971C12.28 7.0454 11.9963 8.0253 12 9.0193C12.0037 10.0132 12.2948 10.991 12.8462 11.8226C13.3982 12.6551 14.19 13.3076 15.1282 13.6747C16.0679 14.0423 17.0969 14.1005 18.0724 13.8385C19.0468 13.5768 19.9054 13.0129 20.5424 12.2412C21.2456 11.3893 21.125 10.1287 20.2732 9.4256C19.9829 9.1859 19.6451 9.0419 19.2981 8.99C19.6449 8.9354 19.9818 8.7888 20.2704 8.5467C21.1168 7.8369 21.2274 6.57544 20.5176 5.72911zM17.4528 8.2995C17.7795 8.689 18.2229 8.9226 18.689 8.9923C18.2232 9.0654 17.7813 9.3026 17.4576 9.6948C17.3344 9.844 17.1838 9.9354 17.0349 9.9754C16.8873 10.015 16.7324 10.0071 16.5856 9.9496C16.4371 9.8915 16.2913 9.78 16.1799 9.6121C16.0677 9.4429 16.0009 9.2307 16 9.0043C15.9992 8.778 16.0644 8.565 16.1756 8.3945C16.286 8.2252 16.4314 8.1122 16.5798 8.0527C16.7266 7.9939 16.8814 7.9847 17.0291 8.0231C17.178 8.0618 17.3288 8.1516 17.4528 8.2995z" fill="#758CA3" stroke="#758CA3" stroke-width="2"/></svg>