<svg width="24" height="24" viewBox="0 0 24 24" fill="none" xmlns="http://www.w3.org/2000/svg">
<path fill-rule="evenodd" clip-rule="evenodd" d="M7.56066 8.06077L3.62132 12.0001L7.56066 15.9395C8.14645 16.5252 8.14645 17.475 7.56066 18.0608C6.97487 18.6466 6.02513 18.6466 5.43934 18.0608L0.43934 13.0608C-0.146447 12.475 -0.146447 11.5252 0.43934 10.9395L5.43934 5.93945C6.02513 5.35366 6.97487 5.35366 7.56066 5.93945C8.14645 6.52524 8.14645 7.47498 7.56066 8.06077ZM16.4393 8.06077C15.8536 7.47498 15.8536 6.52524 16.4393 5.93945C17.0251 5.35366 17.9749 5.35366 18.5607 5.93945L23.5607 10.9395C24.1464 11.5252 24.1464 12.475 23.5607 13.0608L18.5607 18.0608C17.9749 18.6466 17.0251 18.6466 16.4393 18.0608C15.8536 17.475 15.8536 16.5252 16.4393 15.9395L20.3787 12.0001L16.4393 8.06077ZM11.4552 20.3639C11.2543 21.1676 10.4399 21.6562 9.6362 21.4553C8.8325 21.2544 8.34386 20.44 8.54479 19.6363L12.5448 3.63631C12.7457 2.83261 13.5601 2.34397 14.3638 2.5449C15.1675 2.74582 15.6561 3.56022 15.4552 4.36391L11.4552 20.3639Z" fill="#758CA3"/>
</svg>
