<svg width="24" height="24" viewBox="0 0 24 24" fill="none" xmlns="http://www.w3.org/2000/svg">
<path fill-rule="evenodd" clip-rule="evenodd" d="M16.0147 7.54093C15.7032 7.26033 15.3631 7.01279 15 6.8028V6.28979C15 5.18523 14.1046 4.28979 13 4.28979H11C9.89543 4.28979 9 5.18523 9 6.28979V6.8028C8.63687 7.01279 8.29676 7.26033 7.98527 7.54093L7.49754 7.38243C6.44678 7.0412 5.31856 7.61627 4.97739 8.66684L4.3599 10.5693C4.01882 11.6196 4.59374 12.7477 5.64413 13.089L6.12996 13.2469C6.21717 13.6592 6.34742 14.0594 6.51802 14.4419L6.21777 14.8552C5.56879 15.7485 5.76656 16.9988 6.65966 17.6483L8.27642 18.8249L8.2774 18.8256C9.17102 19.4749 10.4218 19.2768 11.071 18.3832L11.3729 17.9675C11.5803 17.989 11.7895 17.9999 12 17.9999C12.2105 17.9999 12.4197 17.989 12.6271 17.9675L12.9295 18.3838C13.5791 19.2772 14.8299 19.4748 15.7232 18.8251L17.3407 17.648C18.2334 16.9988 18.4312 15.7485 17.7821 14.8551L17.482 14.4419C17.6526 14.0594 17.7828 13.6592 17.87 13.2469L18.3559 13.089C19.4063 12.7477 19.9812 11.6196 19.64 10.5691L19.0226 8.66684C18.6812 7.61603 17.5529 7.04113 16.5024 7.38246L16.0147 7.54093ZM12 13.9999C13.1046 13.9999 14 13.1045 14 11.9999C14 10.8953 13.1046 9.99992 12 9.99992C10.8954 9.99992 10 10.8953 10 11.9999C10 13.1045 10.8954 13.9999 12 13.9999Z" fill="#758CA3"/>
</svg>
