<svg width="24" height="24" viewBox="0 0 24 24" fill="none" xmlns="http://www.w3.org/2000/svg">
<path fill-rule="evenodd" clip-rule="evenodd" d="M18 20H13C10.2386 20 8 17.7614 8 15V12C8 9.23858 10.2386 7 13 7H19C21.7614 7 24 9.23858 24 12V22.1315C24 22.3289 23.9416 22.5219 23.8321 22.6862C23.5257 23.1457 22.9048 23.2699 22.4453 22.9635L18 20ZM15.9 5H13C9.13401 5 6 8.13401 6 12V14L1.5547 16.9635C1.09517 17.2699 0.474302 17.1457 0.16795 16.6862C0.058438 16.5219 0 16.3289 0 16.1315V6C0 3.23858 2.23858 1 5 1H11C13.419 1 15.4367 2.71776 15.9 5Z" fill="#758CA3"/>
</svg>
