<svg width="24" height="24" viewBox="0 0 24 24" fill="none" xmlns="http://www.w3.org/2000/svg">
<path fill-rule="evenodd" clip-rule="evenodd" d="M17.6213 8.5H19C19.8284 8.5 20.5 9.17157 20.5 10C20.5 10.8284 19.8284 11.5 19 11.5H14C13.1716 11.5 12.5 10.8284 12.5 10V5C12.5 4.17157 13.1716 3.5 14 3.5C14.8284 3.5 15.5 4.17157 15.5 5V6.37868L17.9393 3.93934C18.5251 3.35355 19.4749 3.35355 20.0607 3.93934C20.6464 4.52513 20.6464 5.47487 20.0607 6.06066L17.6213 8.5ZM6.37868 15.5H5C4.17157 15.5 3.5 14.8284 3.5 14C3.5 13.1716 4.17157 12.5 5 12.5H10C10.8284 12.5 11.5 13.1716 11.5 14V19C11.5 19.8284 10.8284 20.5 10 20.5C9.17157 20.5 8.5 19.8284 8.5 19V17.6213L6.06066 20.0607C5.47487 20.6464 4.52513 20.6464 3.93934 20.0607C3.35355 19.4749 3.35355 18.5251 3.93934 17.9393L6.37868 15.5Z" fill="#758CA3"/>
</svg>
