<svg width="24" height="24" viewBox="0 0 24 24" fill="none" xmlns="http://www.w3.org/2000/svg">
<path fill-rule="evenodd" clip-rule="evenodd" d="M17 14H19C19.5523 14 20 13.5523 20 13C20 12.4477 19.5523 12 19 12H17C16.4477 12 16 12.4477 16 13C16 13.5523 16.4477 14 17 14ZM8 14H14C14.5523 14 15 13.5523 15 13C15 12.4477 14.5523 12 14 12H8C7.44772 12 7 12.4477 7 13C7 13.5523 7.44772 14 8 14ZM24 8.01176C23.9407 8.00402 23.88 8 23.8182 8H0.181818C0.119988 8 0.0592673 8.00402 0 8.01176V6C0 4.34315 1.34315 3 3 3H21C22.6569 3 24 4.34315 24 6V8.01176ZM24 9.98824V18C24 19.6569 22.6569 21 21 21H3C1.34315 21 0 19.6569 0 18V9.98824C0.0592673 9.99598 0.119988 10 0.181818 10H23.8182C23.88 10 23.9407 9.99598 24 9.98824Z" fill="#758CA3"/>
</svg>
