<svg width="24" height="24" viewBox="0 0 24 24" fill="none" xmlns="http://www.w3.org/2000/svg">
<path fill-rule="evenodd" clip-rule="evenodd" d="M0.000170503 8.62897C6.7795 11.6903 17.2205 11.6903 23.9998 8.62897V13.4125C17.5819 16.8277 6.41808 16.8277 0.000170503 13.4125V8.62897ZM0.000170503 6.40704V5.99996C0.000170503 5.98826 0.000371306 5.97661 0.000769651 5.96501C-0.0134009 5.60448 0.16863 5.24861 0.503449 5.05699C7.62584 0.980799 16.3741 0.980799 23.4965 5.05699C23.8313 5.24861 24.0134 5.60448 23.9992 5.96501C23.9996 5.97661 23.9998 5.98826 23.9998 5.99996V6.40704C17.5651 9.76434 6.43489 9.76434 0.000170503 6.40704H0.000170503ZM0.000170503 15.6422C6.77073 18.7511 17.2292 18.7511 23.9998 15.6422V18.9998C23.9998 19.3783 23.7895 19.7077 23.4793 19.8775C16.3658 23.9406 7.63419 23.9406 0.520666 19.8775C0.210499 19.7077 0.000170503 19.3783 0.000170503 18.9998V15.6422Z" fill="#758CA3"/>
</svg>
