<svg width="24" height="24" viewBox="0 0 24 24" fill="none" xmlns="http://www.w3.org/2000/svg">
<path fill-rule="evenodd" clip-rule="evenodd" d="M7.06066 11.9393L12 16.8787L16.9393 11.9393C17.5251 11.3536 18.4749 11.3536 19.0607 11.9393C19.6464 12.5251 19.6464 13.4749 19.0607 14.0607L13.0607 20.0607C12.4749 20.6464 11.5251 20.6464 10.9393 20.0607L4.93934 14.0607C4.35355 13.4749 4.35355 12.5251 4.93934 11.9393C5.52513 11.3536 6.47487 11.3536 7.06066 11.9393ZM12 9.87868L16.9393 4.93934C17.5251 4.35355 18.4749 4.35355 19.0607 4.93934C19.6464 5.52513 19.6464 6.47487 19.0607 7.06066L13.0607 13.0607C12.4749 13.6464 11.5251 13.6464 10.9393 13.0607L4.93934 7.06066C4.35355 6.47487 4.35355 5.52513 4.93934 4.93934C5.52513 4.35355 6.47487 4.35355 7.06066 4.93934L12 9.87868Z" fill="#758CA3"/>
</svg>
