<svg width="24" height="24" viewBox="0 0 24 24" fill="none" xmlns="http://www.w3.org/2000/svg">
<path fill-rule="evenodd" clip-rule="evenodd" d="M10.0607 11.5607C9.47487 12.1464 8.52513 12.1464 7.93934 11.5607C7.35355 10.9749 7.35355 10.0251 7.93934 9.43934L10.9393 6.43934C11.5251 5.85355 12.4749 5.85355 13.0607 6.43934L16.0607 9.43934C16.6464 10.0251 16.6464 10.9749 16.0607 11.5607C15.4749 12.1464 14.5251 12.1464 13.9393 11.5607L12 9.62132L10.0607 11.5607ZM10.0607 17.5607C9.47487 18.1464 8.52513 18.1464 7.93934 17.5607C7.35355 16.9749 7.35355 16.0251 7.93934 15.4393L10.9393 12.4393C11.5251 11.8536 12.4749 11.8536 13.0607 12.4393L16.0607 15.4393C16.6464 16.0251 16.6464 16.9749 16.0607 17.5607C15.4749 18.1464 14.5251 18.1464 13.9393 17.5607L12 15.6213L10.0607 17.5607Z" fill="#758CA3"/>
</svg>
