<svg width="24" height="24" viewBox="0 0 24 24" fill="none" xmlns="http://www.w3.org/2000/svg">
<path fill-rule="evenodd" clip-rule="evenodd" d="M10.0607 12.4393L12 14.3787L13.9393 12.4393C14.5251 11.8536 15.4749 11.8536 16.0607 12.4393C16.6464 13.0251 16.6464 13.9749 16.0607 14.5607L13.0607 17.5607C12.4749 18.1464 11.5251 18.1464 10.9393 17.5607L7.93934 14.5607C7.35355 13.9749 7.35355 13.0251 7.93934 12.4393C8.52513 11.8536 9.47487 11.8536 10.0607 12.4393ZM10.0607 6.43934L12 8.37868L13.9393 6.43934C14.5251 5.85355 15.4749 5.85355 16.0607 6.43934C16.6464 7.02513 16.6464 7.97487 16.0607 8.56066L13.0607 11.5607C12.4749 12.1464 11.5251 12.1464 10.9393 11.5607L7.93934 8.56066C7.35355 7.97487 7.35355 7.02513 7.93934 6.43934C8.52513 5.85355 9.47487 5.85355 10.0607 6.43934Z" fill="#758CA3"/>
</svg>
