<svg width="24" height="24" viewBox="0 0 24 24" fill="none" xmlns="http://www.w3.org/2000/svg">
<path fill-rule="evenodd" clip-rule="evenodd" d="M9.06066 12.0607L12 9.12132L14.9393 12.0607C15.5251 12.6464 16.4749 12.6464 17.0607 12.0607C17.6464 11.4749 17.6464 10.5251 17.0607 9.93934L13.0607 5.93934C12.4749 5.35355 11.5251 5.35355 10.9393 5.93934L6.93934 9.93934C6.35355 10.5251 6.35355 11.4749 6.93934 12.0607C7.52513 12.6464 8.47487 12.6464 9.06066 12.0607ZM9.06066 18.0607L12 15.1213L14.9393 18.0607C15.5251 18.6464 16.4749 18.6464 17.0607 18.0607C17.6464 17.4749 17.6464 16.5251 17.0607 15.9393L13.0607 11.9393C12.4749 11.3536 11.5251 11.3536 10.9393 11.9393L6.93934 15.9393C6.35355 16.5251 6.35355 17.4749 6.93934 18.0607C7.52513 18.6464 8.47487 18.6464 9.06066 18.0607Z" fill="#758CA3"/>
</svg>
