<svg width="24" height="24" viewBox="0 0 24 24" fill="none" xmlns="http://www.w3.org/2000/svg">
<path fill-rule="evenodd" clip-rule="evenodd" d="M12.4393 10.0607C11.8536 9.47487 11.8536 8.52513 12.4393 7.93934C13.0251 7.35355 13.9749 7.35355 14.5607 7.93934L17.5607 10.9393C18.1464 11.5251 18.1464 12.4749 17.5607 13.0607L14.5607 16.0607C13.9749 16.6464 13.0251 16.6464 12.4393 16.0607C11.8536 15.4749 11.8536 14.5251 12.4393 13.9393L14.3787 12L12.4393 10.0607ZM6.43934 10.0607C5.85355 9.47487 5.85355 8.52513 6.43934 7.93934C7.02513 7.35355 7.97487 7.35355 8.56066 7.93934L11.5607 10.9393C12.1464 11.5251 12.1464 12.4749 11.5607 13.0607L8.56066 16.0607C7.97487 16.6464 7.02513 16.6464 6.43934 16.0607C5.85355 15.4749 5.85355 14.5251 6.43934 13.9393L8.37868 12L6.43934 10.0607Z" fill="#758CA3"/>
</svg>
