<svg width="24" height="24" viewBox="0 0 24 24" fill="none" xmlns="http://www.w3.org/2000/svg">
<path fill-rule="evenodd" clip-rule="evenodd" d="M9.06066 11.9393L12 14.8787L14.9393 11.9393C15.5251 11.3536 16.4749 11.3536 17.0607 11.9393C17.6464 12.5251 17.6464 13.4749 17.0607 14.0607L13.0607 18.0607C12.4749 18.6464 11.5251 18.6464 10.9393 18.0607L6.93934 14.0607C6.35355 13.4749 6.35355 12.5251 6.93934 11.9393C7.52513 11.3536 8.47487 11.3536 9.06066 11.9393ZM9.06066 5.93934L12 8.87868L14.9393 5.93934C15.5251 5.35355 16.4749 5.35355 17.0607 5.93934C17.6464 6.52513 17.6464 7.47487 17.0607 8.06066L13.0607 12.0607C12.4749 12.6464 11.5251 12.6464 10.9393 12.0607L6.93934 8.06066C6.35355 7.47487 6.35355 6.52513 6.93934 5.93934C7.52513 5.35355 8.47487 5.35355 9.06066 5.93934Z" fill="#758CA3"/>
</svg>
