<svg width="24" height="24" viewBox="0 0 24 24" fill="none" xmlns="http://www.w3.org/2000/svg">
<path fill-rule="evenodd" clip-rule="evenodd" d="M7.06066 12.0607C6.47487 12.6464 5.52513 12.6464 4.93934 12.0607C4.35355 11.4749 4.35355 10.5251 4.93934 9.93934L10.9393 3.93934C11.5251 3.35355 12.4749 3.35355 13.0607 3.93934L19.0607 9.93934C19.6464 10.5251 19.6464 11.4749 19.0607 12.0607C18.4749 12.6464 17.5251 12.6464 16.9393 12.0607L12 7.12132L7.06066 12.0607ZM12 14.1213L7.06066 19.0607C6.47487 19.6464 5.52513 19.6464 4.93934 19.0607C4.35355 18.4749 4.35355 17.5251 4.93934 16.9393L10.9393 10.9393C11.5251 10.3536 12.4749 10.3536 13.0607 10.9393L19.0607 16.9393C19.6464 17.5251 19.6464 18.4749 19.0607 19.0607C18.4749 19.6464 17.5251 19.6464 16.9393 19.0607L12 14.1213Z" fill="#758CA3"/>
</svg>
