<svg width="24" height="24" viewBox="0 0 24 24" fill="none" xmlns="http://www.w3.org/2000/svg">
<path fill-rule="evenodd" clip-rule="evenodd" d="M11.9393 7.06066C11.3536 6.47487 11.3536 5.52513 11.9393 4.93934C12.5251 4.35355 13.4749 4.35355 14.0607 4.93934L20.0607 10.9393C20.6464 11.5251 20.6464 12.4749 20.0607 13.0607L14.0607 19.0607C13.4749 19.6464 12.5251 19.6464 11.9393 19.0607C11.3536 18.4749 11.3536 17.5251 11.9393 16.9393L16.8787 12L11.9393 7.06066ZM9.87868 12L4.93934 7.06066C4.35355 6.47487 4.35355 5.52513 4.93934 4.93934C5.52513 4.35355 6.47487 4.35355 7.06066 4.93934L13.0607 10.9393C13.6464 11.5251 13.6464 12.4749 13.0607 13.0607L7.06066 19.0607C6.47487 19.6464 5.52513 19.6464 4.93934 19.0607C4.35355 18.4749 4.35355 17.5251 4.93934 16.9393L9.87868 12Z" fill="#758CA3"/>
</svg>
