<svg width="24" height="24" viewBox="0 0 24 24" fill="none" xmlns="http://www.w3.org/2000/svg">
<path fill-rule="evenodd" clip-rule="evenodd" d="M11.5607 10.0607L9.62132 12L11.5607 13.9393C12.1464 14.5251 12.1464 15.4749 11.5607 16.0607C10.9749 16.6464 10.0251 16.6464 9.43934 16.0607L6.43934 13.0607C5.85355 12.4749 5.85355 11.5251 6.43934 10.9393L9.43934 7.93934C10.0251 7.35355 10.9749 7.35355 11.5607 7.93934C12.1464 8.52513 12.1464 9.47487 11.5607 10.0607ZM17.5607 10.0607L15.6213 12L17.5607 13.9393C18.1464 14.5251 18.1464 15.4749 17.5607 16.0607C16.9749 16.6464 16.0251 16.6464 15.4393 16.0607L12.4393 13.0607C11.8536 12.4749 11.8536 11.5251 12.4393 10.9393L15.4393 7.93934C16.0251 7.35355 16.9749 7.35355 17.5607 7.93934C18.1464 8.52513 18.1464 9.47487 17.5607 10.0607Z" fill="#758CA3"/>
</svg>
