<svg width="24" height="24" viewBox="0 0 24 24" fill="none" xmlns="http://www.w3.org/2000/svg">
<path fill-rule="evenodd" clip-rule="evenodd" d="M12.0607 9.06066L9.12132 12L12.0607 14.9393C12.6464 15.5251 12.6464 16.4749 12.0607 17.0607C11.4749 17.6464 10.5251 17.6464 9.93934 17.0607L5.93934 13.0607C5.35355 12.4749 5.35355 11.5251 5.93934 10.9393L9.93934 6.93934C10.5251 6.35355 11.4749 6.35355 12.0607 6.93934C12.6464 7.52513 12.6464 8.47487 12.0607 9.06066ZM18.0607 9.06066L15.1213 12L18.0607 14.9393C18.6464 15.5251 18.6464 16.4749 18.0607 17.0607C17.4749 17.6464 16.5251 17.6464 15.9393 17.0607L11.9393 13.0607C11.3536 12.4749 11.3536 11.5251 11.9393 10.9393L15.9393 6.93934C16.5251 6.35355 17.4749 6.35355 18.0607 6.93934C18.6464 7.52513 18.6464 8.47487 18.0607 9.06066Z" fill="#758CA3"/>
</svg>
