<svg width="24" height="24" viewBox="0 0 24 24" fill="none" xmlns="http://www.w3.org/2000/svg">
<path fill-rule="evenodd" clip-rule="evenodd" d="M11.9393 9.16066C11.3536 8.57487 11.3536 7.62512 11.9393 7.03934C12.5251 6.45355 13.4749 6.45355 14.0607 7.03934L18.0607 11.0393C18.6464 11.6251 18.6464 12.5749 18.0607 13.1607L14.0607 17.1607C13.4749 17.7464 12.5251 17.7464 11.9393 17.1607C11.3536 16.5749 11.3536 15.6251 11.9393 15.0393L14.8787 12.1L11.9393 9.16066ZM5.93934 9.16066C5.35355 8.57487 5.35355 7.62512 5.93934 7.03934C6.52513 6.45355 7.47487 6.45355 8.06066 7.03934L12.0607 11.0393C12.6464 11.6251 12.6464 12.5749 12.0607 13.1607L8.06066 17.1607C7.47487 17.7464 6.52513 17.7464 5.93934 17.1607C5.35355 16.5749 5.35355 15.6251 5.93934 15.0393L8.87868 12.1L5.93934 9.16066Z" fill="#758CA3"/>
</svg>
