<svg width="24" height="24" viewBox="0 0 24 24" fill="none" xmlns="http://www.w3.org/2000/svg">
<path fill-rule="evenodd" clip-rule="evenodd" d="M12.0607 7.06066L7.12132 12L12.0607 16.9393C12.6464 17.5251 12.6464 18.4749 12.0607 19.0607C11.4749 19.6464 10.5251 19.6464 9.93934 19.0607L3.93934 13.0607C3.35355 12.4749 3.35355 11.5251 3.93934 10.9393L9.93934 4.93934C10.5251 4.35355 11.4749 4.35355 12.0607 4.93934C12.6464 5.52513 12.6464 6.47487 12.0607 7.06066ZM14.1213 12L19.0607 16.9393C19.6464 17.5251 19.6464 18.4749 19.0607 19.0607C18.4749 19.6464 17.5251 19.6464 16.9393 19.0607L10.9393 13.0607C10.3536 12.4749 10.3536 11.5251 10.9393 10.9393L16.9393 4.93934C17.5251 4.35355 18.4749 4.35355 19.0607 4.93934C19.6464 5.52513 19.6464 6.47487 19.0607 7.06066L14.1213 12Z" fill="#758CA3"/>
</svg>
