<svg width="24" height="24" viewBox="0 0 24 24" fill="none" xmlns="http://www.w3.org/2000/svg">
<path fill-rule="evenodd" clip-rule="evenodd" d="M4.552 13C4.51762 12.6714 4.5 12.3377 4.5 12C4.5 11.6623 4.51762 11.3286 4.552 11H3.5C2.67157 11 2 10.3284 2 9.5C2 8.67157 2.67157 8 3.5 8H5.38065C6.89052 4.75197 10.1823 2.5 14 2.5C15.7615 2.5 17.4559 2.98157 18.9302 3.87807C19.638 4.30851 19.8629 5.23125 19.4324 5.93908C19.002 6.6469 18.0792 6.87177 17.3714 6.44133C16.3637 5.82851 15.2078 5.5 14 5.5C11.9187 5.5 10.0658 6.47823 8.87616 8H12C12.8284 8 13.5 8.67157 13.5 9.5C13.5 10.3284 12.8284 11 12 11H7.57645C7.52611 11.326 7.5 11.6599 7.5 12C7.5 12.3401 7.52611 12.674 7.57645 13H12C12.8284 13 13.5 13.6716 13.5 14.5C13.5 15.3284 12.8284 16 12 16H8.87616C10.0658 17.5218 11.9187 18.5 14 18.5C15.2078 18.5 16.3637 18.1715 17.3714 17.5587C18.0792 17.1282 19.002 17.3531 19.4324 18.0609C19.8629 18.7687 19.638 19.6915 18.9302 20.1219C17.4559 21.0184 15.7615 21.5 14 21.5C10.1823 21.5 6.89052 19.248 5.38065 16H3.5C2.67157 16 2 15.3284 2 14.5C2 13.6716 2.67157 13 3.5 13H4.552Z" fill="#758CA3"/>
</svg>
