<svg width="24" height="24" viewBox="0 0 24 24" fill="none" xmlns="http://www.w3.org/2000/svg">
<path fill-rule="evenodd" clip-rule="evenodd" d="M8.62132 8.5L9.06066 8.93934C9.64645 9.52513 9.64645 10.4749 9.06066 11.0607C8.47487 11.6464 7.52513 11.6464 6.93934 11.0607L3.93934 8.06066C3.35355 7.47487 3.35355 6.52513 3.93934 5.93934L6.93934 2.93934C7.52513 2.35355 8.47487 2.35355 9.06066 2.93934C9.64645 3.52513 9.64645 4.47487 9.06066 5.06066L8.62132 5.5H19C19.8284 5.5 20.5 6.17157 20.5 7V10C20.5 10.8284 19.8284 11.5 19 11.5C18.1716 11.5 17.5 10.8284 17.5 10V8.5H8.62132ZM15.3787 15.5L14.9393 15.0607C14.3536 14.4749 14.3536 13.5251 14.9393 12.9393C15.5251 12.3536 16.4749 12.3536 17.0607 12.9393L20.0607 15.9393C20.6464 16.5251 20.6464 17.4749 20.0607 18.0607L17.0607 21.0607C16.4749 21.6464 15.5251 21.6464 14.9393 21.0607C14.3536 20.4749 14.3536 19.5251 14.9393 18.9393L15.3787 18.5H5C4.17157 18.5 3.5 17.8284 3.5 17V14C3.5 13.1716 4.17157 12.5 5 12.5C5.82843 12.5 6.5 13.1716 6.5 14V15.5H15.3787Z" fill="#758CA3"/>
</svg>
