<svg width="24" height="24" viewBox="0 0 24 24" fill="none" xmlns="http://www.w3.org/2000/svg">
<path fill-rule="evenodd" clip-rule="evenodd" d="M9.62132 9.5L10.0607 9.93934C10.6464 10.5251 10.6464 11.4749 10.0607 12.0607C9.47487 12.6464 8.52513 12.6464 7.93934 12.0607L4.93934 9.06066C4.35355 8.47487 4.35355 7.52513 4.93934 6.93934L7.93934 3.93934C8.52513 3.35355 9.47487 3.35355 10.0607 3.93934C10.6464 4.52513 10.6464 5.47487 10.0607 6.06066L9.62132 6.5H12C12.8284 6.5 13.5 7.17157 13.5 8C13.5 8.82843 12.8284 9.5 12 9.5H9.62132ZM14.3787 17.5H12C11.1716 17.5 10.5 16.8284 10.5 16C10.5 15.1716 11.1716 14.5 12 14.5H14.3787L13.9393 14.0607C13.3536 13.4749 13.3536 12.5251 13.9393 11.9393C14.5251 11.3536 15.4749 11.3536 16.0607 11.9393L19.0607 14.9393C19.6464 15.5251 19.6464 16.4749 19.0607 17.0607L16.0607 20.0607C15.4749 20.6464 14.5251 20.6464 13.9393 20.0607C13.3536 19.4749 13.3536 18.5251 13.9393 17.9393L14.3787 17.5Z" fill="#758CA3"/>
</svg>
