<svg width="24" height="24" viewBox="0 0 24 24" fill="none" xmlns="http://www.w3.org/2000/svg">
<path fill-rule="evenodd" clip-rule="evenodd" d="M8.62132 17.5H10C10.8284 17.5 11.5 18.1716 11.5 19C11.5 19.8284 10.8284 20.5 10 20.5H5C4.17157 20.5 3.5 19.8284 3.5 19V14C3.5 13.1716 4.17157 12.5 5 12.5C5.82843 12.5 6.5 13.1716 6.5 14V15.3787L8.93934 12.9393C9.52513 12.3536 10.4749 12.3536 11.0607 12.9393C11.6464 13.5251 11.6464 14.4749 11.0607 15.0607L8.62132 17.5ZM15.3787 6.5H14C13.1716 6.5 12.5 5.82843 12.5 5C12.5 4.17157 13.1716 3.5 14 3.5H19C19.8284 3.5 20.5 4.17157 20.5 5V10C20.5 10.8284 19.8284 11.5 19 11.5C18.1716 11.5 17.5 10.8284 17.5 10V8.62132L15.0607 11.0607C14.4749 11.6464 13.5251 11.6464 12.9393 11.0607C12.3536 10.4749 12.3536 9.52513 12.9393 8.93934L15.3787 6.5Z" fill="#758CA3"/>
</svg>
