<svg width="24" height="24" viewBox="0 0 24 24" fill="none" xmlns="http://www.w3.org/2000/svg">
<path fill-rule="evenodd" clip-rule="evenodd" d="M15.3787 6.5H14C13.1716 6.5 12.5 5.82843 12.5 5C12.5 4.17157 13.1716 3.5 14 3.5H19C19.8284 3.5 20.5 4.17157 20.5 5V10C20.5 10.8284 19.8284 11.5 19 11.5C18.1716 11.5 17.5 10.8284 17.5 10V8.62132L11.0607 15.0607C10.4749 15.6464 9.52513 15.6464 8.93934 15.0607C8.35355 14.4749 8.35355 13.5251 8.93934 12.9393L15.3787 6.5ZM9 4.5C9.82843 4.5 10.5 5.17157 10.5 6C10.5 6.82843 9.82843 7.5 9 7.5H7C6.72386 7.5 6.5 7.72386 6.5 8V17C6.5 17.2761 6.72386 17.5 7 17.5H16C16.2761 17.5 16.5 17.2761 16.5 17V15C16.5 14.1716 17.1716 13.5 18 13.5C18.8284 13.5 19.5 14.1716 19.5 15V17C19.5 18.933 17.933 20.5 16 20.5H7C5.067 20.5 3.5 18.933 3.5 17V8C3.5 6.067 5.067 4.5 7 4.5H9Z" fill="#758CA3"/>
</svg>
