<svg width="24" height="24" viewBox="0 0 24 24" fill="none" xmlns="http://www.w3.org/2000/svg">
<path fill-rule="evenodd" clip-rule="evenodd" d="M9.28945 13.2963C9.10115 12.904 8.99568 12.4643 8.99568 12C8.99568 10.3431 10.3388 9 11.9957 9C12.4588 9 12.8975 9.10495 13.2891 9.29237C13.2704 9.31102 13.2525 9.33041 13.2353 9.35048L14.7557 7.83012C13.9647 7.30555 13.0159 7 11.9957 7C9.23425 7 6.99568 9.23858 6.99568 12C6.99568 13.0202 7.30122 13.969 7.8258 14.76L9.28945 13.2963ZM4.91142 17.6744C3.33211 16.5723 1.83 15.0819 0.407613 13.2101C-0.135884 12.4948 -0.135868 11.505 0.407642 10.7899C3.82274 6.29581 7.69744 4 11.9967 4C13.8492 4 15.6229 4.42623 17.3149 5.27089L20.2929 2.29289C20.6834 1.90237 21.3166 1.90237 21.7071 2.29289C22.0976 2.68342 22.0976 3.31658 21.7071 3.70711L3.70711 21.7071C3.31658 22.0976 2.68342 22.0976 2.29289 21.7071C1.90237 21.3166 1.90237 20.6834 2.29289 20.2929L4.91142 17.6744ZM8.52547 19.4745L11.0831 16.9169C11.379 16.9715 11.684 17 11.9957 17C14.7571 17 16.9957 14.7614 16.9957 12C16.9957 11.6883 16.9672 11.3833 16.9126 11.0874L20.5334 7.4666C21.5882 8.39185 22.606 9.50039 23.5859 10.7899C24.1294 11.5051 24.1294 12.495 23.5859 13.2101C20.1708 17.7042 16.2961 20 11.9967 20C10.8069 20 9.64955 19.8242 8.52547 19.4745Z" fill="#758CA3"/>
</svg>
