<svg width="24" height="24" viewBox="0 0 24 24" fill="none" xmlns="http://www.w3.org/2000/svg">
<path fill-rule="evenodd" clip-rule="evenodd" d="M12 17C9.24097 17 6.7266 15.5377 4.45689 12.6131C4.17689 12.2523 4.17689 11.7476 4.45689 11.3868C6.72662 8.46229 9.24098 7 12 7C14.759 7 17.2734 8.4623 19.5431 11.3869C19.8231 11.7477 19.8231 12.2524 19.5431 12.6132C17.2734 15.5377 14.759 17 12 17ZM12 14.5C10.6193 14.5 9.49999 13.3807 9.49999 12C9.49999 10.6193 10.6193 9.5 12 9.5C13.3807 9.5 14.5 10.6193 14.5 12C14.5 13.3807 13.3807 14.5 12 14.5Z" fill="#758CA3"/>
</svg>
