<svg width="24" height="24" viewBox="0 0 24 24" fill="none" xmlns="http://www.w3.org/2000/svg">
<path fill-rule="evenodd" clip-rule="evenodd" d="M13.8248 4.52518L15.057 3.29295C16.5521 1.79786 18.9761 1.79786 20.4712 3.29295C21.9663 4.78804 21.9663 7.21207 20.4712 8.70716L19.239 9.9394L19.3707 10.0711C20.1518 10.8522 20.1518 12.1185 19.3707 12.8996L18.2568 14.0135C17.4757 14.7946 16.2094 14.7946 15.4283 14.0135L15.2966 13.8818L8.76413 20.4143C8.38905 20.7893 7.88035 21.0001 7.34991 21.0001H6.00019L4.89462 21.5528C4.33157 21.8344 3.66882 21.8344 3.10577 21.5528C2.11781 21.0589 1.71736 19.8575 2.21134 18.8696L2.76413 17.764V16.4143C2.76413 15.8838 2.97484 15.3751 3.34991 15.0001L9.8824 8.46757L9.77149 8.35666C8.99044 7.57561 8.99044 6.30928 9.77149 5.52823L10.8854 4.41427C11.6665 3.63322 12.9328 3.63322 13.7139 4.41427L13.8248 4.52518ZM11.2966 9.88179L4.76413 16.4143V18.0001C4.76413 18.1553 4.72798 18.3084 4.65855 18.4473L4.00019 19.764L5.31691 19.1056C5.45577 19.0362 5.60888 19.0001 5.76413 19.0001H7.34991L13.8824 12.4676L11.2966 9.88179Z" fill="#758CA3"/>
</svg>
