<svg width="24" height="24" viewBox="0 0 24 24" fill="none" xmlns="http://www.w3.org/2000/svg">
<path d="M11 1H7.5C5.567 1 4 2.567 4 4.5C4 6.433 5.567 8 7.5 8H11V1Z" fill="#758CA3"/>
<path d="M12 1H15.5C17.433 1 19 2.567 19 4.5C19 6.433 17.433 8 15.5 8H12V1Z" fill="#758CA3"/>
<path d="M11 9H7.5C5.567 9 4 10.567 4 12.5C4 14.433 5.567 16 7.5 16H11V9Z" fill="#758CA3"/>
<path d="M11 17H7.5C5.567 17 4 18.567 4 20.5C4 22.433 5.567 24 7.5 24C9.433 24 11 22.433 11 20.5V17Z" fill="#758CA3"/>
<path d="M15.5 16C17.433 16 19 14.433 19 12.5C19 10.567 17.433 9 15.5 9C13.567 9 12 10.567 12 12.5C12 14.433 13.567 16 15.5 16Z" fill="#758CA3"/>
</svg>
