<svg width="24" height="24" viewBox="0 0 24 24" fill="none" xmlns="http://www.w3.org/2000/svg">
<path fill-rule="evenodd" clip-rule="evenodd" d="M21 5.7654C19.0966 4.04784 16 5.38566 16 8.002V9H9C7.34315 9 6 10.3431 6 12C6 13.6569 7.34315 15 9 15H16V16.002C16 18.6184 19.0966 19.9562 21 18.2386V22C21 23.1046 20.1046 24 19 24H5C3.89543 24 3 23.1046 3 22V6H8C8.55228 6 9 5.55228 9 5V0H19C20.1046 0 21 0.89543 21 2V5.7654ZM3.34141 4C3.94398 2.29517 5.29517 0.943981 7 0.341411V4H3.34141ZM18 13H9C8.44772 13 8 12.5523 8 12C8 11.4477 8.44772 11 9 11H18V8.002C18 7.1111 19.0771 6.66493 19.7071 7.2949L23.7071 11.2949C24.0976 11.6854 24.0976 12.3186 23.7071 12.7091L19.7071 16.7091C19.0771 17.3391 18 16.8929 18 16.002V13Z" fill="#758CA3"/>
</svg>
