<svg width="24" height="24" viewBox="0 0 24 24" fill="none" xmlns="http://www.w3.org/2000/svg">
<path fill-rule="evenodd" clip-rule="evenodd" d="M21 5.58579L19.7071 4.29289C19.3166 3.90237 18.6834 3.90237 18.2929 4.29289L9.29289 13.2929C9.10536 13.4804 9 13.7348 9 14V17C9 17.5523 9.44772 18 10 18H13C13.2652 18 13.5196 17.8946 13.7071 17.7071L21 10.4142V22C21 23.1046 20.1046 24 19 24H5C3.89543 24 3 23.1046 3 22V6H8C8.55228 6 9 5.55228 9 5V0H19C20.1046 0 21 0.89543 21 2V5.58579ZM3.34141 4C3.94398 2.29517 5.29517 0.943981 7 0.341411V4H3.34141ZM12.5858 16H11V14.4142L19 6.41421L20.5858 8L12.5858 16Z" fill="#758CA3"/>
</svg>
