<svg width="24" height="24" viewBox="0 0 24 24" fill="none" xmlns="http://www.w3.org/2000/svg">
<path fill-rule="evenodd" clip-rule="evenodd" d="M6 18C5.44772 18 5 18.4477 5 19C5 19.5523 5.44772 20 6 20H13C13.2652 20 13.5196 19.8946 13.7071 19.7071L21 12.4142V22C21 23.1046 20.1046 24 19 24H5C3.89543 24 3 23.1046 3 22V6H8C8.55228 6 9 5.55228 9 5V0H19C20.1046 0 21 0.89543 21 2V7.58579L19.7071 6.29289C19.3166 5.90237 18.6834 5.90237 18.2929 6.29289L9.29289 15.2929C9.10536 15.4804 9 15.7348 9 16V18H6ZM7 0.341411V4H3.34141C3.94398 2.29517 5.29517 0.943981 7 0.341411ZM12.5858 18H11V16.4142L19 8.41421L20.5858 10L12.5858 18Z" fill="#758CA3"/>
</svg>
