<svg width="24" height="24" viewBox="0 0 24 24" fill="none" xmlns="http://www.w3.org/2000/svg">
<path fill-rule="evenodd" clip-rule="evenodd" d="M3 6H8C8.55228 6 9 5.55228 9 5V0H19C20.1046 0 21 0.89543 21 2V22C21 23.1046 20.1046 24 19 24H5C3.89543 24 3 23.1046 3 22V6ZM3.34141 4C3.94398 2.29517 5.29517 0.943981 7 0.341411V4H3.34141ZM8 11H16C16.5523 11 17 10.5523 17 10C17 9.44771 16.5523 9 16 9H8C7.44772 9 7 9.44771 7 10C7 10.5523 7.44772 11 8 11ZM8 15H16C16.5523 15 17 14.5523 17 14C17 13.4477 16.5523 13 16 13H8C7.44772 13 7 13.4477 7 14C7 14.5523 7.44772 15 8 15ZM8 19H16C16.5523 19 17 18.5523 17 18C17 17.4477 16.5523 17 16 17H8C7.44772 17 7 17.4477 7 18C7 18.5523 7.44772 19 8 19Z" fill="#758CA3"/>
</svg>
