<svg width="24" height="24" viewBox="0 0 24 24" fill="none" xmlns="http://www.w3.org/2000/svg">
<path fill-rule="evenodd" clip-rule="evenodd" d="M7.5 8.5C6.67157 8.5 6 7.82843 6 7C6 6.17157 6.67157 5.5 7.5 5.5H16.5C17.3284 5.5 18 6.17157 18 7C18 7.82843 17.3284 8.5 16.5 8.5H7.5ZM9.5 13.5C8.67157 13.5 8 12.8284 8 12C8 11.1716 8.67157 10.5 9.5 10.5H14.5C15.3284 10.5 16 11.1716 16 12C16 12.8284 15.3284 13.5 14.5 13.5H9.5ZM11.5 18.5C10.6716 18.5 10 17.8284 10 17C10 16.1716 10.6716 15.5 11.5 15.5H12.5C13.3284 15.5 14 16.1716 14 17C14 17.8284 13.3284 18.5 12.5 18.5H11.5Z" fill="#758CA3"/>
</svg>
