<svg width="24" height="24" viewBox="0 0 24 24" fill="none" xmlns="http://www.w3.org/2000/svg">
<path fill-rule="evenodd" clip-rule="evenodd" d="M12 0C17.5228 0 22 4.47715 22 10V14C22 19.5228 17.5228 24 12 24C6.47715 24 2 19.5228 2 14V10C2 4.47715 6.47715 0 12 0ZM10.4227 2.15566C6.71126 2.89835 4 6.16983 4 10V12C4 12.5523 4.44772 13 5 13C5.55228 13 6 12.5523 6 12V10C6 7.12765 8.03406 4.6733 10.8151 4.11678C11.3566 4.00841 11.7078 3.48155 11.5994 2.94C11.4911 2.39845 10.9642 2.04729 10.4227 2.15566ZM4.68023 17.2325C5.95103 20.1064 8.80246 22 12 22C12.5523 22 13 21.5523 13 21C13 20.4477 12.5523 20 12 20C9.60135 20 7.4628 18.5798 6.50939 16.4237C6.28604 15.9186 5.69551 15.6902 5.1904 15.9135C4.6853 16.1369 4.45689 16.7274 4.68023 17.2325ZM16.4836 20.6263C18.6652 19.1477 20 16.686 20 14C20 13.4477 19.5523 13 19 13C18.4477 13 18 13.4477 18 14C18 16.0157 16.9997 17.8604 15.3615 18.9708C14.9043 19.2806 14.7849 19.9024 15.0948 20.3596C15.4047 20.8168 16.0265 20.9362 16.4836 20.6263ZM20 10C20 6.72583 18.0146 3.8195 15.0369 2.59686C14.526 2.38708 13.9418 2.63119 13.732 3.14208C13.5223 3.65298 13.7664 4.2372 14.2773 4.44697C16.5109 5.36409 18 7.54399 18 10C18 10.5523 18.4477 11 19 11C19.5523 11 20 10.5523 20 10ZM15.0729 7.43915C14.3183 6.5344 13.2017 6 12 6C11.1162 6 10.2735 6.28859 9.58354 6.8122C8.59404 7.56315 8 8.73325 8 10C8 10.5523 8.44772 11 9 11C9.55228 11 10 10.5523 10 10C10 9.36553 10.2962 8.7821 10.7926 8.40536C11.1377 8.14347 11.5566 8 12 8C12.602 8 13.1584 8.26629 13.537 8.72017C13.8907 9.1443 14.5213 9.20135 14.9454 8.84761C15.3696 8.49387 15.4266 7.86328 15.0729 7.43915ZM8 14C8 15.1453 8.4853 16.2149 9.31814 16.9678C9.72782 17.3382 10.3602 17.3063 10.7306 16.8966C11.1009 16.487 11.0691 15.8546 10.6594 15.4842C10.2417 15.1066 10 14.5739 10 14C10 13.4477 9.55228 13 9 13C8.44772 13 8 13.4477 8 14ZM14.7104 16.9418C15.5261 16.1899 16 15.1318 16 14V12C16 11.4477 15.5523 11 15 11C14.4477 11 14 11.4477 14 12V14C14 14.5672 13.764 15.0941 13.3549 15.4711C12.9488 15.8454 12.923 16.4781 13.2973 16.8842C13.6716 17.2903 14.3043 17.3161 14.7104 16.9418Z" fill="#758CA3"/>
</svg>
