<svg width="24" height="24" viewBox="0 0 24 24" fill="none" xmlns="http://www.w3.org/2000/svg">
<path fill-rule="evenodd" clip-rule="evenodd" d="M5 0L19.6126 0C20.1649 0 20.6126 0.447715 20.6126 1C20.6126 1.10748 20.5952 1.21426 20.5613 1.31623L19.1054 5.68377C19.037 5.88904 19.037 6.11096 19.1054 6.31623L20.5613 10.6838C20.7359 11.2077 20.4527 11.774 19.9288 11.9487C19.8268 11.9827 19.7201 12 19.6126 12H6V23C6 23.5523 5.55228 24 5 24C4.44772 24 4 23.5523 4 23V1C4 0.447715 4.44772 0 5 0Z" fill="#758CA3"/>
</svg>
