<svg width="24" height="24" viewBox="0 0 24 24" fill="none" xmlns="http://www.w3.org/2000/svg">
<path fill-rule="evenodd" clip-rule="evenodd" d="M15.071 3.92338L15 9.00008L20.2063 21.526C20.4681 22.0123 20.2862 22.6187 19.7999 22.8806C19.6542 22.959 19.4913 23.0001 19.3258 23.0001H4.67422C4.12194 23.0001 3.67422 22.5524 3.67422 22.0001C3.67422 21.8346 3.7153 21.6717 3.79375 21.526L9.00001 9.00008V4.00008C9.00001 3.97174 9.00119 3.94368 9.0035 3.91594C8.41908 3.711 8.00001 3.15446 8.00001 2.50004V2C8.00001 1.44772 8.44772 1 9.00001 1H15C15.5523 1 16 1.44772 16 2V2.50004C16 3.12754 15.6147 3.66505 15.071 3.92338ZM12 18.0001C11.4477 18.0001 11 18.4478 11 19.0001C11 19.5524 11.4477 20.0001 12 20.0001C12.5523 20.0001 13 19.5524 13 19.0001C13 18.4478 12.5523 18.0001 12 18.0001ZM12 15.0001C11.4477 15.0001 11 15.4478 11 16.0001C11 16.5524 11.4477 17.0001 12 17.0001C12.5523 17.0001 13 16.5524 13 16.0001C13 15.4478 12.5523 15.0001 12 15.0001ZM12 12.0001C11.4477 12.0001 11 12.4478 11 13.0001C11 13.5524 11.4477 14.0001 12 14.0001C12.5523 14.0001 13 13.5524 13 13.0001C13 12.4478 12.5523 12.0001 12 12.0001Z" fill="#758CA3"/>
</svg>
