<svg width="24" height="24" viewBox="0 0 24 24" fill="none" xmlns="http://www.w3.org/2000/svg">
<path fill-rule="evenodd" clip-rule="evenodd" d="M20.375 8H6.71585C5.23514 8 3.97589 9.08033 3.75073 10.5438L2.83766 16.4788L0.507805 5.41202C0.479282 5.27654 0.464905 5.13845 0.464905 5C0.464905 3.89543 1.36034 3 2.4649 3H6.39446C6.72881 3 7.04104 3.1671 7.22651 3.4453L8.63278 5.5547C8.81824 5.8329 9.13047 6 9.46483 6H18.3402C19.3026 6 20.1285 6.68548 20.3059 7.63142L20.375 8ZM5.72748 10.8479C5.80253 10.3601 6.22228 10 6.71585 10H22.6688C22.7197 10 22.7705 10.0039 22.8208 10.0116C23.3667 10.0956 23.7411 10.6062 23.6572 11.1521L22.2725 20.1521C22.1975 20.6399 21.7777 21 21.2842 21H5.33123C5.28033 21 5.22949 20.9961 5.17918 20.9884C4.63331 20.9044 4.25888 20.3938 4.34286 19.8479L5.72748 10.8479Z" fill="#758CA3"/>
</svg>
