<svg width="24" height="24" viewBox="0 0 24 24" fill="none" xmlns="http://www.w3.org/2000/svg">
<path fill-rule="evenodd" clip-rule="evenodd" d="M3 9V2C3 1.44772 3.44772 1 4 1H11C11.3921 1 11.7481 1.2292 11.9104 1.5862L16.6439 12H19V4C19 3.44772 19.4477 3 20 3C20.5523 3 21 3.44772 21 4V20H23C23.5523 20 24 20.4477 24 21C24 21.5523 23.5523 22 23 22H20C19.4477 22 19 21.5523 19 21V20H16.9646C16.7219 21.6961 15.2632 23 13.5 23C11.7368 23 10.2781 21.6961 10.0354 20H6.96456C6.72194 21.6961 5.26324 23 3.5 23C1.567 23 0 21.433 0 19.5C0 19.3899 0.00507963 19.2811 0.0150172 19.1736C0.00514672 19.1172 0 19.0592 0 19V10C0 9.44771 0.447715 9 1 9H3ZM14.447 12L10.3561 3H5V9H6C6.26522 9 6.51957 9.10536 6.70711 9.29289L9.41421 12H14.447ZM17 14V18H19V14H17ZM3.5 21C4.32843 21 5 20.3284 5 19.5C5 18.6716 4.32843 18 3.5 18C2.67157 18 2 18.6716 2 19.5C2 20.3284 2.67157 21 3.5 21ZM13.5 21C14.3284 21 15 20.3284 15 19.5C15 18.6716 14.3284 18 13.5 18C12.6716 18 12 18.6716 12 19.5C12 20.3284 12.6716 21 13.5 21Z" fill="#758CA3"/>
</svg>
