<svg width="24" height="24" viewBox="0 0 24 24" fill="none" xmlns="http://www.w3.org/2000/svg">
<path fill-rule="evenodd" clip-rule="evenodd" d="M13.3787 9.5H10.5C6.35786 9.5 3 12.8579 3 17V19C3 19.8284 2.32843 20.5 1.5 20.5C0.671573 20.5 0 19.8284 0 19V17C0 11.201 4.70101 6.5 10.5 6.5H13.3787L11.9393 5.06066C11.3536 4.47487 11.3536 3.52513 11.9393 2.93934C12.5251 2.35355 13.4749 2.35355 14.0607 2.93934L18.0607 6.93934C18.6464 7.52513 18.6464 8.47487 18.0607 9.06066L14.0607 13.0607C13.4749 13.6464 12.5251 13.6464 11.9393 13.0607C11.3536 12.4749 11.3536 11.5251 11.9393 10.9393L13.3787 9.5ZM20.3787 8L17.4393 5.06066C16.8536 4.47487 16.8536 3.52513 17.4393 2.93934C18.0251 2.35355 18.9749 2.35355 19.5607 2.93934L23.5607 6.93934C24.1464 7.52513 24.1464 8.47487 23.5607 9.06066L19.5607 13.0607C18.9749 13.6464 18.0251 13.6464 17.4393 13.0607C16.8536 12.4749 16.8536 11.5251 17.4393 10.9393L20.3787 8Z" fill="#758CA3"/>
</svg>
