<svg width="24" height="24" viewBox="0 0 24 24" fill="none" xmlns="http://www.w3.org/2000/svg">
<path fill-rule="evenodd" clip-rule="evenodd" d="M7 11V10C7 9.44772 6.55228 9 6 9C5.44772 9 5 9.44772 5 10V11H4C3.44772 11 3 11.4477 3 12C3 12.5523 3.44772 13 4 13H5V14C5 14.5523 5.44772 15 6 15C6.55228 15 7 14.5523 7 14V13H8C8.55229 13 9 12.5523 9 12C9 11.4477 8.55229 11 8 11H7ZM0 11.5C0 7.91015 2.91015 5 6.5 5H17.5C21.0899 5 24 7.91015 24 11.5V14.3074C24 16.3425 22.761 18.1726 20.8714 18.9285L20.4586 19.0936C18.8384 19.7417 16.9976 19.4982 15.6016 18.4512L14.4667 17.6C13.9474 17.2105 13.3158 17 12.6667 17H11.3333C10.6842 17 10.0526 17.2105 9.53333 17.6L8.39838 18.4512C7.0024 19.4982 5.16158 19.7417 3.54142 19.0936L3.12861 18.9285C1.23904 18.1726 0 16.3425 0 14.3074V11.5ZM17 12C16.4477 12 16 12.4477 16 13C16 13.5523 16.4477 14 17 14C17.5523 14 18 13.5523 18 13C18 12.4477 17.5523 12 17 12ZM19 10C18.4477 10 18 10.4477 18 11C18 11.5523 18.4477 12 19 12C19.5523 12 20 11.5523 20 11C20 10.4477 19.5523 10 19 10Z" fill="#758CA3"/>
</svg>
