<svg width="24" height="24" viewBox="0 0 24 24" fill="none" xmlns="http://www.w3.org/2000/svg">
<path fill-rule="evenodd" clip-rule="evenodd" d="M0.522074 9.12131C0.549569 9.10633 0.577846 9.09259 0.606828 9.08019L11.1724 4.27766C11.6982 4.03863 12.3018 4.03863 12.8276 4.27766L23.4138 9.08956C24.1954 9.44483 24.1954 10.555 23.4138 10.9103L12.8276 15.7222C12.3018 15.9612 11.6982 15.9612 11.1724 15.7222L2 11.5529V14.4999C2 15.0522 1.55228 15.4999 1 15.4999C0.447715 15.4999 0 15.0522 0 14.4999V9.99993C0 9.98437 0.000355195 9.9689 0.00105792 9.95352C0.015847 9.6237 0.189526 9.3001 0.522074 9.12131ZM20 14.462V16.724C20 17.0995 19.8943 17.4675 19.6949 17.7858C18.1427 20.2633 15.5333 21.4999 12 21.4999C8.46671 21.4999 5.85733 20.2633 4.30518 17.7859C4.10583 17.4677 4.00009 17.0998 4 16.7241V14.462L11.1724 17.7222C11.6982 17.9612 12.3018 17.9612 12.8276 17.7222L20 14.462Z" fill="#758CA3"/>
</svg>
