<svg width="24" height="24" viewBox="0 0 24 24" fill="none" xmlns="http://www.w3.org/2000/svg">
<path fill-rule="evenodd" clip-rule="evenodd" d="M5 4.5C5 3.11929 6.11929 2 7.5 2C8.88071 2 10 3.11929 10 4.5C10 5.88071 8.88071 7 7.5 7C6.11929 7 5 5.88071 5 4.5ZM5 19.5C5 18.1193 6.11929 17 7.5 17C8.88071 17 10 18.1193 10 19.5C10 20.8807 8.88071 22 7.5 22C6.11929 22 5 20.8807 5 19.5ZM5 12C5 10.6193 6.11929 9.5 7.5 9.5C8.88071 9.5 10 10.6193 10 12C10 13.3807 8.88071 14.5 7.5 14.5C6.11929 14.5 5 13.3807 5 12ZM14 4.5C14 3.11929 15.1193 2 16.5 2C17.8807 2 19 3.11929 19 4.5C19 5.88071 17.8807 7 16.5 7C15.1193 7 14 5.88071 14 4.5ZM14 19.5C14 18.1193 15.1193 17 16.5 17C17.8807 17 19 18.1193 19 19.5C19 20.8807 17.8807 22 16.5 22C15.1193 22 14 20.8807 14 19.5ZM14 12C14 10.6193 15.1193 9.5 16.5 9.5C17.8807 9.5 19 10.6193 19 12C19 13.3807 17.8807 14.5 16.5 14.5C15.1193 14.5 14 13.3807 14 12Z" fill="#758CA3"/>
</svg>
