<svg width="24" height="24" viewBox="0 0 24 24" fill="none" xmlns="http://www.w3.org/2000/svg">
<path fill-rule="evenodd" clip-rule="evenodd" d="M4.5 19C3.11929 19 2 17.8807 2 16.5C2 15.1193 3.11929 14 4.5 14C5.88071 14 7 15.1193 7 16.5C7 17.8807 5.88071 19 4.5 19ZM19.5 19C18.1193 19 17 17.8807 17 16.5C17 15.1193 18.1193 14 19.5 14C20.8807 14 22 15.1193 22 16.5C22 17.8807 20.8807 19 19.5 19ZM12 19C10.6193 19 9.5 17.8807 9.5 16.5C9.5 15.1193 10.6193 14 12 14C13.3807 14 14.5 15.1193 14.5 16.5C14.5 17.8807 13.3807 19 12 19ZM4.5 10C3.11929 10 2 8.88071 2 7.5C2 6.11929 3.11929 5 4.5 5C5.88071 5 7 6.11929 7 7.5C7 8.88071 5.88071 10 4.5 10ZM19.5 10C18.1193 10 17 8.88071 17 7.5C17 6.11929 18.1193 5 19.5 5C20.8807 5 22 6.11929 22 7.5C22 8.88071 20.8807 10 19.5 10ZM12 10C10.6193 10 9.5 8.88071 9.5 7.5C9.5 6.11929 10.6193 5 12 5C13.3807 5 14.5 6.11929 14.5 7.5C14.5 8.88071 13.3807 10 12 10Z" fill="#758CA3"/>
</svg>
