<svg width="24" height="24" viewBox="0 0 24 24" fill="none" xmlns="http://www.w3.org/2000/svg">
<path fill-rule="evenodd" clip-rule="evenodd" d="M9.5 8.5C8.67157 8.5 8 7.82843 8 7C8 6.17157 8.67157 5.5 9.5 5.5C10.3284 5.5 11 6.17157 11 7C11 7.82843 10.3284 8.5 9.5 8.5ZM9.5 13.5C8.67157 13.5 8 12.8284 8 12C8 11.1716 8.67157 10.5 9.5 10.5C10.3284 10.5 11 11.1716 11 12C11 12.8284 10.3284 13.5 9.5 13.5ZM9.5 18.5C8.67157 18.5 8 17.8284 8 17C8 16.1716 8.67157 15.5 9.5 15.5C10.3284 15.5 11 16.1716 11 17C11 17.8284 10.3284 18.5 9.5 18.5ZM14.5 8.5C13.6716 8.5 13 7.82843 13 7C13 6.17157 13.6716 5.5 14.5 5.5C15.3284 5.5 16 6.17157 16 7C16 7.82843 15.3284 8.5 14.5 8.5ZM14.5 13.5C13.6716 13.5 13 12.8284 13 12C13 11.1716 13.6716 10.5 14.5 10.5C15.3284 10.5 16 11.1716 16 12C16 12.8284 15.3284 13.5 14.5 13.5ZM14.5 18.5C13.6716 18.5 13 17.8284 13 17C13 16.1716 13.6716 15.5 14.5 15.5C15.3284 15.5 16 16.1716 16 17C16 17.8284 15.3284 18.5 14.5 18.5Z" fill="#758CA3"/>
</svg>
