<svg width="24" height="24" viewBox="0 0 24 24" fill="none" xmlns="http://www.w3.org/2000/svg">
<path fill-rule="evenodd" clip-rule="evenodd" d="M0.691527 14.2189L2.71124 3.44713C2.97728 2.02822 4.21621 1 5.65985 1H18.3401C19.7838 1 21.0227 2.02822 21.2888 3.44713L23.3085 14.2189C22.8985 14.0771 22.4582 14 22 14H2C1.54176 14 1.10152 14.0771 0.691527 14.2189ZM2 16H22C23.1046 16 24 16.8954 24 18V20C24 21.1046 23.1046 22 22 22H2C0.89543 22 0 21.1046 0 20V18C0 16.8954 0.89543 16 2 16ZM21 20C21.5523 20 22 19.5523 22 19C22 18.4477 21.5523 18 21 18C20.4477 18 20 18.4477 20 19C20 19.5523 20.4477 20 21 20ZM18 20C18.5523 20 19 19.5523 19 19C19 18.4477 18.5523 18 18 18C17.4477 18 17 18.4477 17 19C17 19.5523 17.4477 20 18 20Z" fill="#758CA3"/>
</svg>
