<svg width="24" height="24" viewBox="0 0 24 24" fill="none" xmlns="http://www.w3.org/2000/svg">
<path fill-rule="evenodd" clip-rule="evenodd" d="M22 23V12.0861C22 11.3843 21.754 10.7047 21.3047 10.1656L13.5364 0.843705C12.8293 -0.00484902 11.5682 -0.119497 10.7196 0.587631C10.6267 0.665069 10.541 0.750779 10.4636 0.843705L2.69534 10.1656C2.24605 10.7047 2 11.3843 2 12.0861V23C2 23.5523 2.44772 24 3 24H8C8.55228 24 9 23.5523 9 23V18C9 16.8954 9.89543 16 11 16H13C14.1046 16 15 16.8954 15 18V23C15 23.5523 15.4477 24 16 24H21C21.5523 24 22 23.5523 22 23Z" fill="#758CA3"/>
</svg>
