<svg width="24" height="24" viewBox="0 0 24 24" fill="none" xmlns="http://www.w3.org/2000/svg">
<path fill-rule="evenodd" clip-rule="evenodd" d="M1.49613 12.9696L11.4961 7.13622C11.8075 6.95459 12.1925 6.95459 12.5039 7.13622L22.5039 12.9696C22.8111 13.1488 23 13.4777 23 13.8333V22.8423C23 23.3946 22.5523 23.8423 22 23.8423H2C1.44772 23.8423 1 23.3946 1 22.8423V13.8333C1 13.4777 1.18891 13.1488 1.49613 12.9696ZM0 10.1013V8.41667C0 8.061 0.188911 7.7321 0.496129 7.55289L11.4961 1.13622C11.8075 0.954593 12.1925 0.954593 12.5039 1.13622L23.5039 7.55289C23.8111 7.7321 24 8.061 24 8.41667V10.1013C24 10.6535 23.5523 11.1013 23 11.1013C22.8229 11.1013 22.6491 11.0543 22.4961 10.965L12.5039 5.13622C12.1925 4.95459 11.8075 4.95459 11.4961 5.13622L1.50387 10.965C1.02682 11.2433 0.414501 11.0822 0.136221 10.6051C0.0470084 10.4522 0 10.2783 0 10.1013ZM6 14.8423C5.44772 14.8423 5 15.29 5 15.8423V18.8423C5 19.3946 5.44772 19.8423 6 19.8423H9C9.55229 19.8423 10 19.3946 10 18.8423V15.8423C10 15.29 9.55229 14.8423 9 14.8423H6ZM14 14.8423C13.4477 14.8423 13 15.29 13 15.8423V23.8423H18V15.8423C18 15.29 17.5523 14.8423 17 14.8423H14Z" fill="#758CA3"/>
</svg>
