<svg width="24" height="24" viewBox="0 0 24 24" fill="none" xmlns="http://www.w3.org/2000/svg">
<path fill-rule="evenodd" clip-rule="evenodd" d="M6 16.4142V17C6 17.5523 6.44772 18 7 18H17C17.5523 18 18 17.5523 18 17V12.4142C18 12.149 17.8946 11.8946 17.7071 11.7071L16.7071 10.7071C16.3166 10.3166 15.6834 10.3166 15.2929 10.7071L12.7071 13.2929C12.3166 13.6834 11.6834 13.6834 11.2929 13.2929L10.7071 12.7071C10.3166 12.3166 9.68342 12.3166 9.29289 12.7071L6.29289 15.7071C6.10536 15.8946 6 16.149 6 16.4142ZM8.5 10C9.32843 10 10 9.32843 10 8.5C10 7.67157 9.32843 7 8.5 7C7.67157 7 7 7.67157 7 8.5C7 9.32843 7.67157 10 8.5 10ZM7 4H17C18.6569 4 20 5.34315 20 7V17C20 18.6569 18.6569 20 17 20H7C5.34315 20 4 18.6569 4 17V7C4 5.34315 5.34315 4 7 4Z" fill="#758CA3"/>
</svg>
