<svg width="24" height="24" viewBox="0 0 24 24" fill="none" xmlns="http://www.w3.org/2000/svg">
<path fill-rule="evenodd" clip-rule="evenodd" d="M4.43774e-07 12.9998H6.00011V14.9997C6.00011 15.552 6.44781 15.9997 7.00009 15.9997H16.9999C17.5522 15.9997 17.9999 15.552 17.9999 14.9997V12.9998H24C24 13.007 23.9999 13.0142 23.9998 13.0213V18.9997C23.9998 20.1042 23.1044 20.9996 21.9998 20.9996H2.00018C0.895629 20.9996 0.0002142 20.1042 0.0002142 18.9997V13.0213C6.51086e-05 13.0142 -6.36102e-06 13.007 4.43729e-07 12.9998H4.43774e-07ZM0.420257 10.9998L2.02399 3.783C2.12566 3.32547 2.53147 2.99995 3.00016 2.99995H20.9998C21.4685 2.99995 21.8743 3.32547 21.976 3.783L23.5797 10.9998H16.9999C16.4476 10.9998 15.9999 11.4475 15.9999 11.9998V13.9998H8.00007V11.9998C8.00007 11.4475 7.55236 10.9998 7.00009 10.9998H0.420257Z" fill="#758CA3"/>
</svg>
