<svg width="24" height="24" viewBox="0 0 24 24" fill="none" xmlns="http://www.w3.org/2000/svg">
<path fill-rule="evenodd" clip-rule="evenodd" d="M12 13.983L10.4339 15.9528C10.2954 16.1271 10.1467 16.2932 9.98875 16.4502C7.74909 18.6759 4.1292 18.6646 1.90348 16.4249L1.78221 16.3029C-0.59407 13.9118 -0.59407 10.0507 1.78221 7.65951L1.90348 7.53748C2.06046 7.37952 2.22653 7.23087 2.40085 7.09228C4.87244 5.12732 8.46898 5.53801 10.4339 8.00961L12 9.97944L13.5661 8.00961C15.531 5.53801 19.1276 5.12732 21.5992 7.09228C21.7735 7.23087 21.9395 7.37952 22.0965 7.53748L22.2178 7.65951C24.5941 10.0507 24.5941 13.9118 22.2178 16.3029L22.0965 16.4249C19.8708 18.6646 16.2509 18.6759 14.0113 16.4502C13.8533 16.2932 13.7046 16.1271 13.5661 15.9528L12 13.983ZM15.5163 14.4023C15.5945 14.5007 15.6784 14.5944 15.7675 14.683C17.0311 15.9387 19.0735 15.9324 20.3293 14.6687L20.4506 14.5467C21.8612 13.1272 21.8612 10.8352 20.4506 9.41574L20.3293 9.29371C20.2407 9.20459 20.147 9.12072 20.0487 9.04252C18.6542 7.93386 16.625 8.16559 15.5163 9.56009L13.5915 11.9812L15.5163 14.4023ZM8.4837 9.56009C7.37504 8.16559 5.34583 7.93386 3.95133 9.04252C3.85298 9.12072 3.75928 9.20459 3.67071 9.29371L3.54944 9.41574C2.13882 10.8352 2.13882 13.1272 3.54944 14.5467L3.67071 14.6687C4.92648 15.9324 6.96888 15.9387 8.23252 14.683C8.32164 14.5944 8.40551 14.5007 8.4837 14.4023L10.4085 11.9812L8.4837 9.56009Z" fill="#758CA3"/>
</svg>
