<svg width="24" height="24" viewBox="0 0 24 24" fill="none" xmlns="http://www.w3.org/2000/svg">
<path d="M4.48959 4.46882C4.09907 4.85935 4.09907 5.49251 4.48959 5.88304C4.88012 6.27356 5.51328 6.27356 5.90381 5.88304C6.70437 5.08247 7.65478 4.44743 8.70076 4.01417C9.74675 3.58091 10.8678 3.35791 12 3.35791C13.1322 3.35791 14.2532 3.58091 15.2992 4.01417C16.3452 4.44743 17.2956 5.08247 18.0962 5.88303C18.4867 6.27356 19.1199 6.27356 19.5104 5.88303C19.9009 5.49251 19.9009 4.85935 19.5104 4.46882C18.5241 3.48254 17.3532 2.70018 16.0646 2.16641C14.776 1.63264 13.3948 1.35791 12 1.35791C10.6052 1.35791 9.22404 1.63264 7.9354 2.16641C6.64676 2.70018 5.47587 3.48254 4.48959 4.46882Z" fill="#758CA3"/>
<path d="M7.62654 9.04594C7.23601 8.65542 7.23601 8.02225 7.62654 7.63173C8.20087 7.0574 8.8827 6.60181 9.6331 6.29099C10.3835 5.98016 11.1878 5.82018 12 5.82018C12.8122 5.82018 13.6165 5.98016 14.3669 6.29099C15.1173 6.60181 15.7991 7.0574 16.3735 7.63173C16.764 8.02225 16.764 8.65542 16.3735 9.04594C15.9829 9.43647 15.3498 9.43647 14.9592 9.04594C14.5706 8.65733 14.1093 8.34906 13.6015 8.13875C13.0938 7.92843 12.5496 7.82018 12 7.82018C11.4504 7.82018 10.9062 7.92843 10.3985 8.13875C9.89072 8.34906 9.42937 8.65733 9.04075 9.04594C8.65023 9.43647 8.01706 9.43647 7.62654 9.04594Z" fill="#758CA3"/>
<path fill-rule="evenodd" clip-rule="evenodd" d="M12 10C10.3431 10 9 11.3432 9 13C9 14.3114 9.84136 15.4262 11.0137 15.8341C11.0047 15.8881 11 15.9435 11 16V17C11 18.1046 10.1046 19 9 19H6C6 17.8955 5.10457 17 4 17H2C0.89543 17 0 17.8955 0 19V21C0 22.1046 0.89543 23 2 23H4C5.10457 23 6 22.1046 6 21H9C10.1947 21 11.2671 20.4763 12 19.6459C12.7329 20.4763 13.8053 21 15 21H18C18 22.1046 18.8954 23 20 23H22C23.1046 23 24 22.1046 24 21V19C24 17.8955 23.1046 17 22 17H20C18.8954 17 18 17.8955 18 19H15C13.8954 19 13 18.1046 13 17V16C13 15.9435 12.9953 15.8881 12.9863 15.8341C14.1586 15.4262 15 14.3114 15 13C15 11.3432 13.6569 10 12 10Z" fill="#758CA3"/>
</svg>
