<svg width="24" height="24" viewBox="0 0 24 24" fill="none" xmlns="http://www.w3.org/2000/svg">
<path fill-rule="evenodd" clip-rule="evenodd" d="M19 16H17V15C17 14.4477 16.5523 14 16 14C15.4477 14 15 14.4477 15 15V16H12.7457C11.4611 17.8444 9.33628 19 7 19C3.13401 19 0 15.866 0 12C0 8.13401 3.13401 5 7 5C9.33628 5 11.4611 6.15555 12.7457 8H21C22.6569 8 24 9.34315 24 11V13C24 14.6569 22.6569 16 21 16V15C21 14.4477 20.5523 14 20 14C19.4477 14 19 14.4477 19 15V16ZM5 13.5C5.82843 13.5 6.5 12.8284 6.5 12C6.5 11.1716 5.82843 10.5 5 10.5C4.17157 10.5 3.5 11.1716 3.5 12C3.5 12.8284 4.17157 13.5 5 13.5Z" fill="#758CA3"/>
</svg>
