<svg width="24" height="24" viewBox="0 0 24 24" fill="none" xmlns="http://www.w3.org/2000/svg">
<path fill-rule="evenodd" clip-rule="evenodd" d="M3 4H21C22.6569 4 24 5.34315 24 7V17C24 18.6569 22.6569 20 21 20H3C1.34315 20 0 18.6569 0 17V7C0 5.34315 1.34315 4 3 4ZM16 7C15.4477 7 15 7.44772 15 8C15 8.55228 15.4477 9 16 9C16.5523 9 17 8.55228 17 8C17 7.44772 16.5523 7 16 7ZM12 7C11.4477 7 11 7.44772 11 8C11 8.55228 11.4477 9 12 9C12.5523 9 13 8.55228 13 8C13 7.44772 12.5523 7 12 7ZM20 7C19.4477 7 19 7.44772 19 8C19 8.55228 19.4477 9 20 9C20.5523 9 21 8.55228 21 8C21 7.44772 20.5523 7 20 7ZM16 11C15.4477 11 15 11.4477 15 12C15 12.5523 15.4477 13 16 13C16.5523 13 17 12.5523 17 12C17 11.4477 16.5523 11 16 11ZM12 11C11.4477 11 11 11.4477 11 12C11 12.5523 11.4477 13 12 13C12.5523 13 13 12.5523 13 12C13 11.4477 12.5523 11 12 11ZM9 17H15C15.5523 17 16 16.5523 16 16C16 15.4477 15.5523 15 15 15H9C8.44771 15 8 15.4477 8 16C8 16.5523 8.44771 17 9 17ZM20 11C19.4477 11 19 11.4477 19 12C19 12.5523 19.4477 13 20 13C20.5523 13 21 12.5523 21 12C21 11.4477 20.5523 11 20 11ZM8 7C7.44772 7 7 7.44772 7 8C7 8.55228 7.44772 9 8 9C8.55229 9 9 8.55228 9 8C9 7.44772 8.55229 7 8 7ZM8 11C7.44772 11 7 11.4477 7 12C7 12.5523 7.44772 13 8 13C8.55229 13 9 12.5523 9 12C9 11.4477 8.55229 11 8 11ZM4 7C3.44772 7 3 7.44772 3 8C3 8.55228 3.44772 9 4 9C4.55228 9 5 8.55228 5 8C5 7.44772 4.55228 7 4 7ZM4 11C3.44772 11 3 11.4477 3 12C3 12.5523 3.44772 13 4 13C4.55228 13 5 12.5523 5 12C5 11.4477 4.55228 11 4 11Z" fill="#758CA3"/>
</svg>
