<svg width="24" height="24" viewBox="0 0 24 24" fill="none" xmlns="http://www.w3.org/2000/svg">
<path fill-rule="evenodd" clip-rule="evenodd" d="M3 3H21C21.5523 3 22 3.44772 22 4V16C22 16.5523 21.5523 17 21 17H3C2.44772 17 2 16.5523 2 16V4C2 3.44772 2.44772 3 3 3ZM9.08535 18C9.29127 18.5826 9.84689 19 10.5 19H13.5C14.1531 19 14.7087 18.5826 14.9146 18H22.5C23.3284 18 24 18.6716 24 19.5C24 20.3284 23.3284 21 22.5 21H1.5C0.671573 21 0 20.3284 0 19.5C0 18.6716 0.671573 18 1.5 18H9.08535Z" fill="#758CA3"/>
</svg>
