<svg width="24" height="24" viewBox="0 0 24 24" fill="none" xmlns="http://www.w3.org/2000/svg">
<path fill-rule="evenodd" clip-rule="evenodd" d="M16.8376 16C16.8376 17.1046 15.9422 18 14.8376 18H8.83761C7.73304 18 6.83761 17.1046 6.83761 16V13.4862C4.37065 11.5108 3.3839 8.19886 4.38893 5.18377C5.42083 2.08807 8.31787 0 11.581 0H12.0942C15.3573 0 18.2544 2.08807 19.2863 5.18377C20.2921 8.20132 19.3058 11.5163 16.8376 13.495V16ZM8.83761 21C8.28532 21 7.83761 20.5523 7.83761 20C7.83761 19.4477 8.28532 19 8.83761 19H14.8376C15.3899 19 15.8376 19.4477 15.8376 20C15.8376 20.5523 15.3899 21 14.8376 21H8.83761ZM9.83761 24C9.28532 24 8.83761 23.5523 8.83761 23C8.83761 22.4477 9.28532 22 9.83761 22H13.8376C14.3899 22 14.8376 22.4477 14.8376 23C14.8376 23.5523 14.3899 24 13.8376 24H9.83761Z" fill="#758CA3"/>
</svg>
