<svg id="meteor-icon-kit__solid-line-column" viewBox="0 0 24 24" fill="none" xmlns="http://www.w3.org/2000/svg"><rect width="24" height="24" fill="white"/><path d="M3.5 3C2.67157 3 2 3.67157 2 4.5C2 5.32843 2.67157 6 3.5 6H9.5C10.3284 6 11 5.32843 11 4.5C11 3.67157 10.3284 3 9.5 3H3.5Z" fill="#758CA3"/><path d="M3.5 8C2.67157 8 2 8.67157 2 9.5C2 10.3284 2.67157 11 3.5 11H9.5C10.3284 11 11 10.3284 11 9.5C11 8.67157 10.3284 8 9.5 8H3.5Z" fill="#758CA3"/><path d="M3.5 13C2.67157 13 2 13.6716 2 14.5C2 15.3284 2.67157 16 3.5 16H9.5C10.3284 16 11 15.3284 11 14.5C11 13.6716 10.3284 13 9.5 13H3.5Z" fill="#758CA3"/><path d="M3.5 18C2.67157 18 2 18.6716 2 19.5C2 20.3284 2.67157 21 3.5 21H9.5C10.3284 21 11 20.3284 11 19.5C11 18.6716 10.3284 18 9.5 18H3.5Z" fill="#758CA3"/><path d="M14.5 3C13.6716 3 13 3.67157 13 4.5C13 5.32843 13.6716 6 14.5 6H20.5C21.3284 6 22 5.32843 22 4.5C22 3.67157 21.3284 3 20.5 3H14.5Z" fill="#758CA3"/><path d="M14.5 8C13.6716 8 13 8.67157 13 9.5C13 10.3284 13.6716 11 14.5 11H20.5C21.3284 11 22 10.3284 22 9.5C22 8.67157 21.3284 8 20.5 8H14.5Z" fill="#758CA3"/><path d="M14.5 13C13.6716 13 13 13.6716 13 14.5C13 15.3284 13.6716 16 14.5 16H20.5C21.3284 16 22 15.3284 22 14.5C22 13.6716 21.3284 13 20.5 13H14.5Z" fill="#758CA3"/><path d="M14.5 18C13.6716 18 13 18.6716 13 19.5C13 20.3284 13.6716 21 14.5 21H20.5C21.3284 21 22 20.3284 22 19.5C22 18.6716 21.3284 18 20.5 18H14.5Z" fill="#758CA3"/></svg>