<svg width="24" height="24" viewBox="0 0 24 24" fill="none" xmlns="http://www.w3.org/2000/svg">
<path fill-rule="evenodd" clip-rule="evenodd" d="M8.5 9H15.5V4.5C15.5 3.67157 14.8284 3 14 3H10C9.17157 3 8.5 3.67157 8.5 4.5V9ZM18.5 9.40135C19.3967 9.92006 20 10.8896 20 12V21C20 22.6569 18.6569 24 17 24H7C5.34315 24 4 22.6569 4 21V12C4 10.8896 4.6033 9.92006 5.5 9.40135V4.5C5.5 2.03613 7.48015 0.0347512 9.93587 0.000447667C9.95721 0.000168253 9.97859 0 10 0H14.0554C14.364 0 14.6645 0.0349518 14.953 0.101113C16.9806 0.538303 18.5 2.34171 18.5 4.5V9.40135ZM11 15V18C11 18.5523 11.4477 19 12 19C12.5523 19 13 18.5523 13 18V15C13 14.4477 12.5523 14 12 14C11.4477 14 11 14.4477 11 15Z" fill="#758CA3"/>
</svg>
