<svg width="24" height="24" viewBox="0 0 24 24" fill="none" xmlns="http://www.w3.org/2000/svg">
<path fill-rule="evenodd" clip-rule="evenodd" d="M8.5 9H17C18.6569 9 20 10.3431 20 12V21C20 22.6569 18.6569 24 17 24H7C5.34315 24 4 22.6569 4 21V12C4 10.8896 4.6033 9.92006 5.5 9.40135V4.5C5.5 2.03613 7.48015 0.0347512 9.93587 0.000447667C9.95721 0.000168253 9.97859 0 10 0H14.0554C14.364 0 14.6645 0.0349518 14.953 0.101113C16.9806 0.538303 18.5 2.34171 18.5 4.5C18.5 5.22539 17.9851 5.83051 17.3009 5.96982C17.2223 5.98964 17.1401 6.00017 17.0554 6.00017C17.0458 6.00017 17.0362 6.00004 17.0267 5.99977C17.0178 5.99992 17.0089 6 17 6C16.1716 6 15.5 5.32843 15.5 4.5C15.5 3.67157 14.8284 3 14 3H10C9.17157 3 8.5 3.67157 8.5 4.5V9ZM11 15V18C11 18.5523 11.4477 19 12 19C12.5523 19 13 18.5523 13 18V15C13 14.4477 12.5523 14 12 14C11.4477 14 11 14.4477 11 15Z" fill="#758CA3"/>
</svg>
