<svg width="24" height="24" viewBox="0 0 24 24" fill="none" xmlns="http://www.w3.org/2000/svg">
<path fill-rule="evenodd" clip-rule="evenodd" d="M15.3787 16.5H10C6.41015 16.5 3.5 13.5899 3.5 10V5C3.5 4.17157 4.17157 3.5 5 3.5C5.82843 3.5 6.5 4.17157 6.5 5V10C6.5 11.933 8.067 13.5 10 13.5H15.3787L13.9393 12.0607C13.3536 11.4749 13.3536 10.5251 13.9393 9.93934C14.5251 9.35355 15.4749 9.35355 16.0607 9.93934L20.0607 13.9393C20.6464 14.5251 20.6464 15.4749 20.0607 16.0607L16.0607 20.0607C15.4749 20.6464 14.5251 20.6464 13.9393 20.0607C13.3536 19.4749 13.3536 18.5251 13.9393 17.9393L15.3787 16.5Z" fill="#758CA3"/>
</svg>
