<svg width="24" height="24" viewBox="0 0 24 24" fill="none" xmlns="http://www.w3.org/2000/svg">
<path fill-rule="evenodd" clip-rule="evenodd" d="M4.91142 17.4581C3.33211 16.3009 1.83 14.7359 0.407613 12.7706C-0.135884 12.0196 -0.135868 10.9803 0.407642 10.2294C3.82274 5.5106 7.69744 3.1 11.9967 3.1C13.8492 3.1 15.6229 3.54754 17.3149 4.43444L20.2929 1.30754C20.6834 0.897487 21.3166 0.897487 21.7071 1.30754C22.0976 1.71759 22.0976 2.38241 21.7071 2.79246L3.70711 21.6925C3.31658 22.1025 2.68342 22.1025 2.29289 21.6925C1.90237 21.2824 1.90237 20.6176 2.29289 20.2075L4.91142 17.4581ZM9.36472 12.4911C9.1706 12.0866 9.06186 11.6333 9.06186 11.1546C9.06186 9.44655 10.4465 8.06186 12.1546 8.06186C12.6321 8.06186 13.0843 8.17006 13.4881 8.36327C13.4688 8.3825 13.4503 8.40249 13.4326 8.42318L15 6.8558C14.1846 6.315 13.2064 6 12.1546 6C9.30781 6 7 8.30781 7 11.1546C7 12.2064 7.315 13.1846 7.8558 14L9.36472 12.4911Z" fill="#758CA3"/>
<path d="M9 19.455C10.0901 19.8176 11.2124 20 12.3662 20C13.3339 20 14.2794 19.8717 15.2022 19.6164L13.2929 17.7071C12.9024 17.3166 12.9024 16.6834 13.2929 16.2929C13.6834 15.9024 14.3166 15.9024 14.7071 16.2929L17.2418 18.8276C17.9077 18.4939 18.5607 18.0896 19.2007 17.6149L16.2929 14.7071C15.9024 14.3166 15.9024 13.6834 16.2929 13.2929C16.6834 12.9024 17.3166 12.9024 17.7071 13.2929L20.7341 16.3198C21.2554 15.824 21.7673 15.2787 22.2698 14.684L19.2929 11.7071C18.9024 11.3166 18.9024 10.6834 19.2929 10.2929C19.6834 9.90237 20.3166 9.90237 20.7071 10.2929L23.5075 13.0933C23.5399 13.0482 23.5723 13.0029 23.6047 12.9573C24.1318 12.2156 24.1318 11.1889 23.6047 10.4471C22.6544 9.10951 21.6675 7.95969 20.6446 7L9 19.455Z" fill="#758CA3"/>
</svg>
