<svg width="24" height="24" viewBox="0 0 24 24" fill="none" xmlns="http://www.w3.org/2000/svg">
<path fill-rule="evenodd" clip-rule="evenodd" d="M12.7685 23.0866C12.7296 23.1333 12.6866 23.1763 12.6399 23.2152C12.2154 23.5686 11.5849 23.511 11.2315 23.0866C5.74384 16.4959 3 11.6798 3 8.63811C3 3.86741 7.2293 0 12 0C16.7707 0 21 3.86741 21 8.63811C21 11.6798 18.2562 16.4959 12.7685 23.0866ZM12 12C13.6569 12 15 10.6569 15 9C15 7.34315 13.6569 6 12 6C10.3431 6 9 7.34315 9 9C9 10.6569 10.3431 12 12 12Z" fill="#758CA3"/>
</svg>
