<svg width="24" height="24" viewBox="0 0 24 24" fill="none" xmlns="http://www.w3.org/2000/svg">
<path fill-rule="evenodd" clip-rule="evenodd" d="M15 2.21934V20.0001C15 20.0942 15.013 20.1853 15.0373 20.2716L9 21.7809V4.00012C9 3.90603 8.98701 3.81498 8.96272 3.72866L15 2.21934ZM17 2.24582L23.2747 4.0386C23.704 4.16125 24 4.55364 24 5.00012V21.0001C24 21.6645 23.3641 22.1442 22.7253 21.9616L16.9505 20.3117C16.9826 20.2137 17 20.1089 17 20.0001V2.24582ZM7 21.7544L0.725279 19.9616C0.295977 19.839 0 19.4466 0 19.0001V3.00012C0 2.33574 0.635905 1.85608 1.27472 2.0386L7.0495 3.68853C7.01737 3.78659 7 3.89133 7 4.00012V21.7544Z" fill="#758CA3"/>
</svg>
