<svg width="24" height="24" viewBox="0 0 24 24" fill="none" xmlns="http://www.w3.org/2000/svg">
<path fill-rule="evenodd" clip-rule="evenodd" d="M10.9393 0.430374C11.5251 -0.143458 12.4749 -0.143458 13.0607 0.430374L16.0607 3.36915C16.6464 3.94298 16.6464 4.87335 16.0607 5.44718C15.4749 6.02101 14.5251 6.02101 13.9393 5.44718L13.5 5.0168V7.34694H14C14.8284 7.34694 15.5 8.00481 15.5 8.81633C15.5 9.62785 14.8284 10.2857 14 10.2857H13.5V12.2449C13.5 12.3066 13.4961 12.3675 13.4886 12.4272C16.0822 13.0758 18 15.3797 18 18.1224C18 21.3685 15.3137 24 12 24C8.68629 24 6 21.3685 6 18.1224C6 15.3797 7.91779 13.0758 10.5114 12.4272C10.5039 12.3675 10.5 12.3066 10.5 12.2449V10.2857H10C9.17157 10.2857 8.5 9.62785 8.5 8.81633C8.5 8.00481 9.17157 7.34694 10 7.34694H10.5V5.0168L10.0607 5.44718C9.47487 6.02101 8.52513 6.02101 7.93934 5.44718C7.35355 4.87335 7.35355 3.94298 7.93934 3.36915L10.9393 0.430374ZM12 15.1837C13.6569 15.1837 15 16.4994 15 18.1224C15 19.7455 13.6569 21.0612 12 21.0612C10.3431 21.0612 9 19.7455 9 18.1224C9 16.4994 10.3431 15.1837 12 15.1837Z" fill="#758CA3"/>
</svg>
