<svg width="24" height="24" viewBox="0 0 24 24" fill="none" xmlns="http://www.w3.org/2000/svg">
<path fill-rule="evenodd" clip-rule="evenodd" d="M21.9992 3.54903C22.0122 3.14897 21.866 2.7447 21.5607 2.43934C21.2553 2.13398 20.851 1.98779 20.451 2.0008C20.434 2.00027 20.4171 2 20.4 2H16.5C15.6716 2 15 2.67157 15 3.5C15 4.32843 15.6716 5 16.5 5H16.8787L15.5 6.37868L14.5607 5.43934C13.9749 4.85355 13.0251 4.85355 12.4393 5.43934C11.8536 6.02513 11.8536 6.97487 12.4393 7.56066L13.3787 8.5L11.548 10.3307C10.6547 9.80289 9.61271 9.5 8.5 9.5C5.18629 9.5 2.5 12.1863 2.5 15.5C2.5 18.8137 5.18629 21.5 8.5 21.5C11.8137 21.5 14.5 18.8137 14.5 15.5C14.5 14.3873 14.1971 13.3453 13.6693 12.452L15.5 10.6213L16.4393 11.5607C17.0251 12.1464 17.9749 12.1464 18.5607 11.5607C19.1464 10.9749 19.1464 10.0251 18.5607 9.43934L17.6213 8.5L19 7.12132V7.5C19 8.32843 19.6716 9 20.5 9C21.3284 9 22 8.32843 22 7.5V3.6C22 3.58295 21.9997 3.56595 21.9992 3.54903ZM8.5 18.5C10.1569 18.5 11.5 17.1569 11.5 15.5C11.5 13.8431 10.1569 12.5 8.5 12.5C6.84315 12.5 5.5 13.8431 5.5 15.5C5.5 17.1569 6.84315 18.5 8.5 18.5Z" fill="#758CA3"/>
</svg>
