<svg width="24" height="24" viewBox="0 0 24 24" fill="none" xmlns="http://www.w3.org/2000/svg">
<path fill-rule="evenodd" clip-rule="evenodd" d="M11.811 13.5C11.1449 16.0878 8.79576 18 6 18C2.68629 18 0 15.3137 0 12C0 8.68629 2.68629 6 6 6C8.79576 6 11.1449 7.91216 11.811 10.5H13.5V10C13.5 9.17157 14.1716 8.5 15 8.5C15.8284 8.5 16.5 9.17157 16.5 10V10.5H18.8787L18.4393 10.0607C17.8536 9.47487 17.8536 8.52513 18.4393 7.93934C19.0251 7.35355 19.9749 7.35355 20.5607 7.93934L23.4899 10.8686C24.1148 11.4935 24.1148 12.5065 23.4899 13.1314L20.5607 16.0607C19.9749 16.6464 19.0251 16.6464 18.4393 16.0607C17.8536 15.4749 17.8536 14.5251 18.4393 13.9393L18.8787 13.5H16.5V14C16.5 14.8284 15.8284 15.5 15 15.5C14.1716 15.5 13.5 14.8284 13.5 14V13.5H11.811ZM9 12C9 13.6569 7.65685 15 6 15C4.34315 15 3 13.6569 3 12C3 10.3431 4.34315 9 6 9C7.65685 9 9 10.3431 9 12Z" fill="#758CA3"/>
</svg>
