<svg width="24" height="24" viewBox="0 0 24 24" fill="none" xmlns="http://www.w3.org/2000/svg">
<path fill-rule="evenodd" clip-rule="evenodd" d="M21.0607 3.93934C21.366 4.2447 21.5122 4.64897 21.4992 5.04903C21.4997 5.06595 21.5 5.08295 21.5 5.1V9C21.5 9.82843 20.8284 10.5 20 10.5C19.1716 10.5 18.5 9.82843 18.5 9V8.62132L16.1693 10.952C16.6971 11.8453 17 12.8873 17 14C17 17.3137 14.3137 20 11 20C7.68629 20 5 17.3137 5 14C5 10.6863 7.68629 8 11 8C12.1127 8 13.1547 8.30289 14.048 8.83073L16.3787 6.5H16C15.1716 6.5 14.5 5.82843 14.5 5C14.5 4.17157 15.1716 3.5 16 3.5H19.9C19.9171 3.5 19.934 3.50027 19.951 3.5008C20.351 3.48779 20.7553 3.63398 21.0607 3.93934ZM14 14C14 15.6569 12.6569 17 11 17C9.34315 17 8 15.6569 8 14C8 12.3431 9.34315 11 11 11C12.6569 11 14 12.3431 14 14Z" fill="#758CA3"/>
</svg>
