<svg width="24" height="24" viewBox="0 0 24 24" fill="none" xmlns="http://www.w3.org/2000/svg">
<path fill-rule="evenodd" clip-rule="evenodd" d="M8.5 2C8.5 1.17157 7.82843 0.5 7 0.5C6.17157 0.5 5.5 1.17157 5.5 2C5.5 3.9266 6.58275 5.46377 8.12626 6.4179C6.82571 7.5185 6 9.16282 6 11C6 13.7958 7.91216 16.1449 10.5 16.811V18.5H10C9.17157 18.5 8.5 19.1716 8.5 20C8.5 20.8284 9.17157 21.5 10 21.5H10.5V22.5C10.5 23.3284 11.1716 24 12 24C12.8284 24 13.5 23.3284 13.5 22.5V21.5H14C14.8284 21.5 15.5 20.8284 15.5 20C15.5 19.1716 14.8284 18.5 14 18.5H13.5V16.811C16.0878 16.1449 18 13.7958 18 11C18 9.16282 17.1743 7.5185 15.8737 6.4179C17.4172 5.46377 18.5 3.9266 18.5 2C18.5 1.17157 17.8284 0.5 17 0.5C16.1716 0.5 15.5 1.17157 15.5 2C15.5 3.08566 14.2626 4.5 12 4.5C9.73736 4.5 8.5 3.08566 8.5 2ZM15 11C15 12.6569 13.6569 14 12 14C10.3431 14 9 12.6569 9 11C9 9.34315 10.3431 8 12 8C13.6569 8 15 9.34315 15 11Z" fill="#758CA3"/>
</svg>
