<svg width="24" height="24" viewBox="0 0 24 24" fill="none" xmlns="http://www.w3.org/2000/svg">
<path fill-rule="evenodd" clip-rule="evenodd" d="M12.9929 7.11938C12.9976 7.08024 13 7.0404 13 7C13 6.44772 12.5523 6 12 6C11.4477 6 11 6.44772 11 7C11 7.0404 11.0024 7.08024 11.0071 7.11938C9.72961 7.45345 9 8.47425 9 10C9 11.3855 9.69749 11.9668 11.5528 12.8944C12.6975 13.4668 13 13.7189 13 14C13 14.781 12.781 15 12 15C11.219 15 11 14.781 11 14C11 13.4477 10.5523 13 10 13C9.44771 13 9 13.4477 9 14C9 15.5257 9.72961 16.5466 11.0071 16.8806C11.0024 16.9198 11 16.9596 11 17C11 17.5523 11.4477 18 12 18C12.5523 18 13 17.5523 13 17C13 16.9596 12.9976 16.9198 12.9929 16.8806C14.2704 16.5466 15 15.5257 15 14C15 12.6145 14.3025 12.0332 12.4472 11.1056C11.3025 10.5332 11 10.2811 11 10C11 9.21895 11.219 9 12 9C12.781 9 13 9.21895 13 10C13 10.5523 13.4477 11 14 11C14.5523 11 15 10.5523 15 10C15 8.47425 14.2704 7.45345 12.9929 7.11938ZM2 3H22C23.1046 3 24 3.89543 24 5V19C24 20.1046 23.1046 21 22 21H2C0.89543 21 0 20.1046 0 19V5C0 3.89543 0.89543 3 2 3Z" fill="#758CA3"/>
</svg>
