<svg width="24" height="24" viewBox="0 0 24 24" fill="none" xmlns="http://www.w3.org/2000/svg">
<path fill-rule="evenodd" clip-rule="evenodd" d="M20.68 20.0771C17.3295 18.7641 15.0869 15.5674 15.0869 11.9568C15.0869 8.34728 17.3297 5.1507 20.68 3.83774C20.8676 3.76728 21.0359 3.6399 21.1565 3.46112C21.4654 3.00329 21.3447 2.38174 20.8868 2.07286C18.8964 0.72996 16.5451 0 14.0869 0C7.41353 0 2 5.35064 2 11.958C2 18.5644 7.41374 23.9149 14.0869 23.9149C16.5451 23.9149 18.8964 23.1849 20.8868 21.842C21.3447 21.5331 21.4654 20.9116 21.1565 20.4538C21.0359 20.275 20.8676 20.1476 20.68 20.0771Z" fill="#758CA3"/>
</svg>
