<svg width="24" height="24" viewBox="0 0 24 24" fill="none" xmlns="http://www.w3.org/2000/svg">
<path fill-rule="evenodd" clip-rule="evenodd" d="M7.5 15.5V7.5C7.5 5.01472 9.51472 3 12 3C14.4853 3 16.5 5.01472 16.5 7.5V18.5C16.5 19.8807 15.3807 21 14 21C12.6193 21 11.5 19.8807 11.5 18.5V7.5C11.5 7.22386 11.7239 7 12 7C12.2761 7 12.5 7.22386 12.5 7.5V15.5C12.5 16.3284 13.1716 17 14 17C14.8284 17 15.5 16.3284 15.5 15.5V7.5C15.5 5.567 13.933 4 12 4C10.067 4 8.5 5.567 8.5 7.5V18.5C8.5 21.5376 10.9624 24 14 24C17.0376 24 19.5 21.5376 19.5 18.5V7.5C19.5 3.35786 16.1421 0 12 0C7.85786 0 4.5 3.35786 4.5 7.5V15.5C4.5 16.3284 5.17157 17 6 17C6.82843 17 7.5 16.3284 7.5 15.5Z" fill="#758CA3"/>
</svg>
