<svg width="24" height="24" viewBox="0 0 24 24" fill="none" xmlns="http://www.w3.org/2000/svg">
<path fill-rule="evenodd" clip-rule="evenodd" d="M8.88138 9.90846C7.73464 8.99226 7 7.58192 7 6C7 3.23858 9.23858 1 12 1C14.7614 1 17 3.23858 17 6C17 7.5814 16.2658 8.99133 15.1198 9.90755L17.0777 14.8831C17.6866 16.4306 18.0015 18.1081 18.0015 19.8049V22C18.0015 22.5523 17.5538 23 17.0015 23H7C6.44772 23 6 22.5523 6 22L6 19.8049C6 18.1081 6.31487 16.4306 6.92382 14.8831L8.88138 9.90846Z" fill="#758CA3"/>
</svg>
