<svg width="24" height="24" viewBox="0 0 24 24" fill="none" xmlns="http://www.w3.org/2000/svg">
<path fill-rule="evenodd" clip-rule="evenodd" d="M5 13.5H1.5C0.671573 13.5 0 12.8284 0 12C0 11.1716 0.671573 10.5 1.5 10.5H5V9C5 6.79086 6.79086 5 9 5H17C18.1046 5 19 5.89543 19 7V8H22C22.5523 8 23 8.44772 23 9C23 9.55228 22.5523 10 22 10H19V14H22C22.5523 14 23 14.4477 23 15C23 15.5523 22.5523 16 22 16H19V17C19 18.1046 18.1046 19 17 19H9C6.79086 19 5 17.2091 5 15V13.5ZM8 11V13C8 13.5523 8.44771 14 9 14C9.55229 14 10 13.5523 10 13V11C10 10.4477 9.55229 10 9 10C8.44771 10 8 10.4477 8 11Z" fill="#758CA3"/>
</svg>
