<svg width="24" height="24" viewBox="0 0 24 24" fill="none" xmlns="http://www.w3.org/2000/svg">
<path fill-rule="evenodd" clip-rule="evenodd" d="M7.17071 18H7C5.34315 18 4 16.6569 4 15V12C4 10.6938 4.83481 9.58254 6 9.17071V5C6 4.44772 6.44772 4 7 4H17C17.5523 4 18 4.44772 18 5V9.17071C19.1652 9.58254 20 10.6938 20 12V15C20 16.6569 18.6569 18 17 18H16.8293C16.4175 19.1652 15.3062 20 14 20H10C8.69378 20 7.58254 19.1652 7.17071 18ZM8 6V9H16V6H8ZM10 16C9.44772 16 9 16.4477 9 17C9 17.5523 9.44772 18 10 18H14C14.5523 18 15 17.5523 15 17C15 16.4477 14.5523 16 14 16H10Z" fill="#758CA3"/>
</svg>
