<svg width="24" height="24" viewBox="0 0 24 24" fill="none" xmlns="http://www.w3.org/2000/svg">
<path fill-rule="evenodd" clip-rule="evenodd" d="M9.17071 19H4C3.44772 19 3 18.5523 3 18V15C4.65685 15 6 13.6569 6 12C6 10.3431 4.65685 9 3 9V6C3 5.44772 3.44772 5 4 5H9.17071C9.06015 4.68722 9 4.35064 9 4C9 2.34315 10.3431 1 12 1C13.6569 1 15 2.34315 15 4C15 4.35064 14.9398 4.68722 14.8293 5H20C20.5523 5 21 5.44772 21 6V9C19.3431 9 18 10.3431 18 12C18 13.6569 19.3431 15 21 15V18C21 18.5523 20.5523 19 20 19H14.8293C14.9398 19.3128 15 19.6494 15 20C15 21.6569 13.6569 23 12 23C10.3431 23 9 21.6569 9 20C9 19.6494 9.06015 19.3128 9.17071 19Z" fill="#758CA3"/>
</svg>
