<svg width="24" height="24" viewBox="0 0 24 24" fill="none" xmlns="http://www.w3.org/2000/svg">
<path fill-rule="evenodd" clip-rule="evenodd" d="M12 4C16.4183 4 20 7.58172 20 12C20 16.4183 16.4183 20 12 20C7.58172 20 4 16.4183 4 12C4 7.58172 7.58172 4 12 4ZM11.07 13.228H12.618C12.594 12.988 12.618 12.774 12.69 12.586C12.762 12.398 12.86 12.22 12.984 12.052C13.108 11.884 13.244 11.722 13.392 11.566C13.54 11.41 13.68 11.248 13.812 11.08C13.944 10.912 14.054 10.73 14.142 10.534C14.23 10.338 14.274 10.116 14.274 9.868C14.274 9.516 14.216 9.21 14.1 8.95C13.984 8.69 13.824 8.476 13.62 8.308C13.416 8.14 13.176 8.016 12.9 7.936C12.624 7.856 12.326 7.816 12.006 7.816C11.534 7.816 11.104 7.916 10.716 8.116C10.328 8.316 9.994 8.58 9.714 8.908L10.686 9.796C10.846 9.636 11.012 9.504 11.184 9.4C11.356 9.296 11.554 9.244 11.778 9.244C12.018 9.244 12.212 9.308 12.36 9.436C12.508 9.564 12.582 9.752 12.582 10C12.582 10.152 12.54 10.298 12.456 10.438C12.372 10.578 12.266 10.722 12.138 10.87C12.01 11.018 11.876 11.172 11.736 11.332C11.596 11.492 11.47 11.668 11.358 11.86C11.246 12.052 11.16 12.26 11.1 12.484C11.04 12.708 11.03 12.956 11.07 13.228ZM11.838 16.144C12.142 16.144 12.396 16.038 12.6 15.826C12.804 15.614 12.906 15.352 12.906 15.04C12.906 14.72 12.804 14.454 12.6 14.242C12.396 14.03 12.142 13.924 11.838 13.924C11.534 13.924 11.282 14.03 11.082 14.242C10.882 14.454 10.782 14.72 10.782 15.04C10.782 15.352 10.882 15.614 11.082 15.826C11.282 16.038 11.534 16.144 11.838 16.144Z" fill="#758CA3"/>
</svg>
