<svg width="24" height="24" viewBox="0 0 24 24" fill="none" xmlns="http://www.w3.org/2000/svg">
<path fill-rule="evenodd" clip-rule="evenodd" d="M20 9V14C20 15.6569 18.6569 17 17 17H16C15.4477 17 15 16.5523 15 16C15 15.4477 15.4477 15 16 15H17C17.5523 15 18 14.5523 18 14H15C13.8954 14 13 13.1046 13 12V9C13 7.89543 13.8954 7 15 7H18C19.1046 7 20 7.89543 20 9ZM11 9V14C11 15.6569 9.65685 17 8 17H7C6.44772 17 6 16.5523 6 16C6 15.4477 6.44772 15 7 15H8C8.55228 15 9 14.5523 9 14H6C4.89543 14 4 13.1046 4 12V9C4 7.89543 4.89543 7 6 7H9C10.1046 7 11 7.89543 11 9Z" fill="#758CA3"/>
</svg>
