<svg width="24" height="24" viewBox="0 0 24 24" fill="none" xmlns="http://www.w3.org/2000/svg">
<path fill-rule="evenodd" clip-rule="evenodd" d="M3.24254 0.310618L6 0.999985L8.68377 0.105394C8.88904 0.0369716 9.11096 0.0369716 9.31623 0.105394L12 0.999985L14.6838 0.105394C14.889 0.0369716 15.111 0.0369716 15.3162 0.105394L18 0.999985L20.7575 0.310618C21.2933 0.17667 21.8362 0.50243 21.9701 1.03823C21.99 1.11755 22 1.199 22 1.28076V22.7192C22 23.2715 21.5523 23.7192 21 23.7192C20.9182 23.7192 20.8368 23.7092 20.7575 23.6894L18 23L15.3162 23.8946C15.111 23.963 14.889 23.963 14.6838 23.8946L12 23L9.31623 23.8946C9.11096 23.963 8.88904 23.963 8.68377 23.8946L6 23L3.24254 23.6894C2.70674 23.8233 2.16381 23.4975 2.02986 22.9617C2.01003 22.8824 2 22.801 2 22.7192V1.28076C2 0.728476 2.44772 0.280761 3 0.280761C3.08176 0.280761 3.16322 0.290788 3.24254 0.310618ZM6.16667 6.99998H17.8333C18.4777 6.99998 19 7.4477 19 7.99998C19 8.55227 18.4777 8.99998 17.8333 8.99998H6.16667C5.52233 8.99998 5 8.55227 5 7.99998C5 7.4477 5.52233 6.99998 6.16667 6.99998ZM6.16667 11H17.8333C18.4777 11 19 11.4477 19 12C19 12.5523 18.4777 13 17.8333 13H6.16667C5.52233 13 5 12.5523 5 12C5 11.4477 5.52233 11 6.16667 11ZM6.16667 15H17.8333C18.4777 15 19 15.4477 19 16C19 16.5523 18.4777 17 17.8333 17H6.16667C5.52233 17 5 16.5523 5 16C5 15.4477 5.52233 15 6.16667 15Z" fill="#758CA3"/>
</svg>
