<svg width="24" height="24" viewBox="0 0 24 24" fill="none" xmlns="http://www.w3.org/2000/svg">
<path d="M11.0407 5.8374C11.4576 5.27023 12.3145 5.29995 12.6912 5.89464L13.9058 7.81235C13.1036 7.68258 12.34 8.1933 12.1836 8.97602C12.0235 9.77757 12.5609 10.5608 13.3839 10.7255L16.6716 11.3833C17.5424 11.5575 18.3874 11.0169 18.5668 10.1708L19.2438 6.97653C19.4133 6.17691 18.885 5.38781 18.0639 5.21403C17.3404 5.06092 16.6309 5.43656 16.3565 6.07499L15.2256 4.28941C13.7189 1.91064 10.2914 1.79176 8.62357 4.06042L7.7359 5.26785C7.2452 5.93531 7.38849 6.87419 8.05596 7.36489C8.72342 7.85559 9.66229 7.71229 10.153 7.04483L11.0407 5.8374Z" fill="#758CA3"/>
<path d="M3.34061 12.1263C2.59262 12.2084 1.88748 11.737 1.71328 11.0041C1.52417 10.2085 2.03247 9.40604 2.8486 9.21175L6.10904 8.43557C6.97139 8.23028 7.83425 8.73865 8.04554 9.57651L8.84442 12.7443C9.04439 13.5373 8.54699 14.3462 7.73344 14.551C6.9692 14.7435 6.19783 14.3344 5.94137 13.6268L4.69792 15.59C4.2762 16.2558 4.75459 17.1251 5.54272 17.1251H7.72222C8.55065 17.1251 9.22222 17.7967 9.22222 18.6251C9.22222 19.4535 8.55065 20.1251 7.72222 20.1251H5.54272C2.39019 20.1251 0.476659 16.648 2.16351 13.9848L3.34061 12.1263Z" fill="#758CA3"/>
<path d="M11.0285 19.7726C11.0158 19.7603 11.0034 19.7478 10.9912 19.7352C10.6894 19.4608 10.5 19.0651 10.5 18.6251C10.5 18.1851 10.6894 17.7894 10.9912 17.515C11.0034 17.5024 11.0158 17.4899 11.0285 17.4775L13.3991 15.1743C13.9933 14.597 14.9429 14.6107 15.5202 15.2048C16.0347 15.7343 16.0798 16.5461 15.6631 17.1251H18.2527C19.0574 17.1251 19.5325 16.2229 19.0772 15.5593L18.0965 14.13C17.6278 13.4469 17.8016 12.5132 18.4847 12.0445C19.1678 11.5758 20.1015 11.7496 20.5702 12.4327L21.5509 13.862C23.3722 16.5163 21.4717 20.1251 18.2527 20.1251H15.6631C16.0798 20.7041 16.0347 21.5159 15.5202 22.0454C14.9429 22.6395 13.9933 22.6532 13.3991 22.0759L11.0285 19.7726Z" fill="#758CA3"/>
</svg>
