<svg width="24" height="24" viewBox="0 0 24 24" fill="none" xmlns="http://www.w3.org/2000/svg">
<path fill-rule="evenodd" clip-rule="evenodd" d="M12.3787 9.5H11.5C9.29086 9.5 7.5 11.2909 7.5 13.5C7.5 15.7091 9.29086 17.5 11.5 17.5C13.7091 17.5 15.5 15.7091 15.5 13.5C15.5 12.6716 16.1716 12 17 12C17.8284 12 18.5 12.6716 18.5 13.5C18.5 17.366 15.366 20.5 11.5 20.5C7.63401 20.5 4.5 17.366 4.5 13.5C4.5 9.63401 7.63401 6.5 11.5 6.5H12.3787L11.9393 6.06066C11.3536 5.47487 11.3536 4.52513 11.9393 3.93934C12.5251 3.35355 13.4749 3.35355 14.0607 3.93934L17.0607 6.93934C17.6464 7.52513 17.6464 8.47487 17.0607 9.06066L14.0607 12.0607C13.4749 12.6464 12.5251 12.6464 11.9393 12.0607C11.3536 11.4749 11.3536 10.5251 11.9393 9.93934L12.3787 9.5Z" fill="#758CA3"/>
</svg>
