<svg width="24" height="24" viewBox="0 0 24 24" fill="none" xmlns="http://www.w3.org/2000/svg">
<path fill-rule="evenodd" clip-rule="evenodd" d="M14 9.5H5.12132L6.56066 10.9393C7.14645 11.5251 7.14645 12.4749 6.56066 13.0607C5.97487 13.6464 5.02513 13.6464 4.43934 13.0607L0.43934 9.06066C-0.146447 8.47487 -0.146447 7.52513 0.43934 6.93934L4.43934 2.93934C5.02513 2.35355 5.97487 2.35355 6.56066 2.93934C7.14645 3.52513 7.14645 4.47487 6.56066 5.06066L5.12132 6.5H13.5C19.299 6.5 24 11.201 24 17V19C24 19.8284 23.3284 20.5 22.5 20.5C21.6716 20.5 21 19.8284 21 19V17C21 12.8579 18.1421 9.5 14 9.5Z" fill="#758CA3"/>
</svg>
