<svg width="24" height="24" viewBox="0 0 24 24" fill="none" xmlns="http://www.w3.org/2000/svg">
<path fill-rule="evenodd" clip-rule="evenodd" d="M5.22131 14.4042C4.15911 13.767 2.99505 13.2795 1.75747 12.9701C1.00338 12.7816 0.743264 11.8425 1.29289 11.2929L3.12132 9.46447C4.059 8.52678 5.33077 8 6.65686 8H9.12714L9.59713 7.35377C12.0434 3.99009 15.9515 2 20.1107 2H21C21.5523 2 22 2.44772 22 3V3.8893C22 8.04848 20.0099 11.9566 16.6462 14.4029L16.2107 14.7196L16.4209 15.5603C16.8468 17.2642 16.3476 19.0666 15.1057 20.3085L12.7071 22.7071C12.1575 23.2567 11.2184 22.9966 11.0299 22.2425C10.7205 21.0049 10.233 19.8409 9.59583 18.7787C7.88985 19.6201 6.12604 20.3454 4.31623 20.9487C3.53447 21.2093 2.79073 20.4655 3.05132 19.6838C3.65459 17.874 4.37995 16.1102 5.22131 14.4042ZM8.41758 17.1283C7.9475 16.5698 7.43024 16.0525 6.87171 15.5824C6.43696 16.4825 6.03594 17.3991 5.66964 18.3304C6.60092 17.9641 7.51753 17.563 8.41758 17.1283Z" fill="#758CA3"/>
</svg>
