<svg width="24" height="24" viewBox="0 0 24 24" fill="none" xmlns="http://www.w3.org/2000/svg">
<path fill-rule="evenodd" clip-rule="evenodd" d="M4.00078 1H16.5008C17.7119 1 18.8042 1.72821 19.27 2.84615L23.02 10.8462C23.3277 11.5846 23.3277 12.4154 23.02 13.1538L19.27 21.1538C18.8042 22.2718 17.7119 23 16.5008 23H4.00078C2.34393 23 1.00078 21.6569 1.00078 20C1.00078 19.6039 1.07921 19.2118 1.23155 18.8462L4.18027 12.7692C4.3854 12.2769 4.3854 11.7231 4.18027 11.2308L1.23155 5.15385C0.5943 3.62444 1.31753 1.86802 2.84694 1.23077C3.21255 1.07843 3.6047 1 4.00078 1ZM13.6584 17.3292C13.2879 18.0701 13.5882 18.9712 14.3292 19.3416C15.0701 19.7121 15.9712 19.4118 16.3416 18.6708L19.3416 12.6708C19.5528 12.2485 19.5528 11.7515 19.3416 11.3292L16.3416 5.32918C15.9712 4.58821 15.0701 4.28788 14.3292 4.65836C13.5882 5.02884 13.2879 5.92985 13.6584 6.67082L16.3229 12L13.6584 17.3292Z" fill="#758CA3"/>
</svg>
