<svg width="24" height="24" viewBox="0 0 24 24" fill="none" xmlns="http://www.w3.org/2000/svg">
<path fill-rule="evenodd" clip-rule="evenodd" d="M6 0V7C6 7.55228 6.44772 8 7 8H17C17.5523 8 18 7.55228 18 7V0H19L23 5V21C23 22.6569 21.6569 24 20 24H4C2.34315 24 1 22.6569 1 21V3C1 1.34315 2.34315 0 4 0H6ZM8 0H16V6H8V0ZM7.2 15H16.8C17.4627 15 18 14.5523 18 14C18 13.4477 17.4627 13 16.8 13H7.2C6.53726 13 6 13.4477 6 14C6 14.5523 6.53726 15 7.2 15ZM7.2 19H16.8C17.4627 19 18 18.5523 18 18C18 17.4477 17.4627 17 16.8 17H7.2C6.53726 17 6 17.4477 6 18C6 18.5523 6.53726 19 7.2 19Z" fill="#758CA3"/>
</svg>
