<svg width="24" height="24" viewBox="0 0 24 24" fill="none" xmlns="http://www.w3.org/2000/svg">
<path fill-rule="evenodd" clip-rule="evenodd" d="M19.0002 1.99993H23C23.5523 1.99993 24 2.44763 24 2.99989C24 3.55216 23.5523 3.99986 23 3.99986H19.0002C18.4479 3.99986 18.0002 3.55216 18.0002 2.99989C18.0002 2.44763 18.4479 1.99993 19.0002 1.99993ZM19.0002 5.99978H23C23.5523 5.99978 24 6.44748 24 6.99975V7.99971C24 8.55197 23.5523 8.99967 23 8.99967H19.0002C18.4479 8.99967 18.0002 8.55197 18.0002 7.99971V6.99975C18.0002 6.44748 18.4479 5.99978 19.0002 5.99978ZM19.0002 10.9996H23C23.5523 10.9996 24 11.4473 24 11.9996C24 12.5518 23.5523 12.9995 23 12.9995H19.0002C18.4479 12.9995 18.0002 12.5518 18.0002 11.9996C18.0002 11.4473 18.4479 10.9996 19.0002 10.9996ZM19.0002 14.9995H23C23.5523 14.9995 24 15.4472 24 15.9994C24 16.5517 23.5523 16.9994 23 16.9994H19.0002C18.4479 16.9994 18.0002 16.5517 18.0002 15.9994C18.0002 15.4472 18.4479 14.9995 19.0002 14.9995ZM19.0002 18.9993H23C23.5523 18.9993 24 19.447 24 19.9993V20.9992C24 21.5515 23.5523 21.9992 23 21.9992H19.0002C18.4479 21.9992 18.0002 21.5515 18.0002 20.9992V19.9993C18.0002 19.447 18.4479 18.9993 19.0002 18.9993ZM8.15554 18.9993L6.94041 22.3409C6.79671 22.7361 6.42114 22.9992 6.00065 22.9992H1.00083C0.306892 22.9992 -0.176077 22.3096 0.0610717 21.6575L3.16602 13.1189C1.8581 12.2171 1.00083 10.7085 1.00083 8.99967C1.00083 6.23835 3.23933 3.99986 6.00065 3.99986H15.0003C15.5526 3.99986 16.0003 4.44755 16.0003 4.99982V12.9995C16.0003 13.5518 15.5526 13.9995 15.0003 13.9995H14.0004V15.9994C14.0004 17.6562 12.6573 18.9993 11.0005 18.9993H8.15554ZM8.88279 16.9994H11.0005C11.5527 16.9994 12.0004 16.5517 12.0004 15.9994V13.9995H9.97366L8.88279 16.9994ZM6.00065 11.9996H8.57286H6.00065Z" fill="#758CA3"/>
</svg>
