<svg width="24" height="24" viewBox="0 0 24 24" fill="none" xmlns="http://www.w3.org/2000/svg">
<path fill-rule="evenodd" clip-rule="evenodd" d="M8.38225 14.4964C7.5099 13.215 7 11.6671 7 10C7 5.58172 10.5817 2 15 2C19.4183 2 23 5.58172 23 10C23 14.4183 19.4183 18 15 18C13.3329 18 11.785 17.4901 10.5036 16.6178L4.56066 22.5607C3.97487 23.1464 3.02513 23.1464 2.43934 22.5607C1.85355 21.9749 1.85355 21.0251 2.43934 20.4393L8.38225 14.4964ZM15 15C17.7614 15 20 12.7614 20 10C20 7.23858 17.7614 5 15 5C12.2386 5 10 7.23858 10 10C10 12.7614 12.2386 15 15 15Z" fill="#758CA3"/>
</svg>
