<svg width="24" height="24" viewBox="0 0 24 24" fill="none" xmlns="http://www.w3.org/2000/svg">
<path fill-rule="evenodd" clip-rule="evenodd" d="M8.46655 13.4121C7.85368 12.4204 7.5 11.2515 7.5 10C7.5 6.41015 10.4101 3.5 14 3.5C17.5899 3.5 20.5 6.41015 20.5 10C20.5 13.5899 17.5899 16.5 14 16.5C12.7485 16.5 11.5796 16.1463 10.5879 15.5335L7.06066 19.0607C6.47487 19.6464 5.52513 19.6464 4.93934 19.0607C4.35355 18.4749 4.35355 17.5251 4.93934 16.9393L8.46655 13.4121ZM14 13.5C15.933 13.5 17.5 11.933 17.5 10C17.5 8.067 15.933 6.5 14 6.5C12.067 6.5 10.5 8.067 10.5 10C10.5 11.933 12.067 13.5 14 13.5Z" fill="#758CA3"/>
</svg>
