<svg width="24" height="24" viewBox="0 0 24 24" fill="none" xmlns="http://www.w3.org/2000/svg">
<path fill-rule="evenodd" clip-rule="evenodd" d="M5 16H19C20.6569 16 22 17.3431 22 19C22 20.6569 20.6569 22 19 22H5C3.34315 22 2 20.6569 2 19C2 17.3431 3.34315 16 5 16ZM5 18C4.44772 18 4 18.4477 4 19C4 19.5523 4.44772 20 5 20C5.55228 20 6 19.5523 6 19C6 18.4477 5.55228 18 5 18ZM5 9H19C20.6569 9 22 10.3431 22 12C22 13.6569 20.6569 15 19 15H5C3.34315 15 2 13.6569 2 12C2 10.3431 3.34315 9 5 9ZM5 11C4.44772 11 4 11.4477 4 12C4 12.5523 4.44772 13 5 13C5.55228 13 6 12.5523 6 12C6 11.4477 5.55228 11 5 11ZM5 2H19C20.6569 2 22 3.34315 22 5C22 6.65685 20.6569 8 19 8H5C3.34315 8 2 6.65685 2 5C2 3.34315 3.34315 2 5 2ZM5 4C4.44772 4 4 4.44772 4 5C4 5.55228 4.44772 6 5 6C5.55228 6 6 5.55228 6 5C6 4.44772 5.55228 4 5 4Z" fill="#758CA3"/>
</svg>
