<svg width="24" height="24" viewBox="0 0 24 24" fill="none" xmlns="http://www.w3.org/2000/svg">
<path fill-rule="evenodd" clip-rule="evenodd" d="M15.5 6C16.8807 6 18 7.11929 18 8.5C18 9.88071 16.8807 11 15.5 11C14.8906 11 14.3321 10.7819 13.8983 10.4196L10.995 11.87L11 12L10.9967 12.1305L13.8983 13.5804C14.3321 13.2181 14.8906 13 15.5 13C16.8807 13 18 14.1193 18 15.5C18 16.8807 16.8807 18 15.5 18C14.1193 18 13 16.8807 13 15.5C13 15.4565 13.0011 15.4132 13.0033 15.3703L10.1017 13.9196C9.66794 14.2819 9.10943 14.5 8.5 14.5C7.11929 14.5 6 13.3807 6 12C6 10.6193 7.11929 9.5 8.5 9.5C9.10943 9.5 9.66794 9.71807 10.1017 10.0804L13.004 8.629L13 8.5C13 7.17452 14.0315 6.08996 15.3356 6.00532L15.5 6Z" fill="#758CA3"/>
</svg>
