<svg width="24" height="24" viewBox="0 0 24 24" fill="none" xmlns="http://www.w3.org/2000/svg">
<path fill-rule="evenodd" clip-rule="evenodd" d="M8.79108 11.7208C8.92656 12.1224 9 12.5526 9 13C9 13.4311 8.93181 13.8462 8.80563 14.2352L15.6561 16.8042C16.3712 15.7174 17.6018 15 19 15C21.2091 15 23 16.7909 23 19C23 21.2091 21.2091 23 19 23C16.7909 23 15 21.2091 15 19C15 18.8978 15.0038 18.7964 15.0114 18.6961L7.69763 15.9535C6.98636 16.6035 6.03948 17 5 17C2.79086 17 1 15.2091 1 13C1 10.7909 2.79086 9 5 9C6.03547 9 6.97904 9.39345 7.68937 10.039L15.2089 6.27923C15.0734 5.87757 15 5.44736 15 5C15 2.79086 16.7909 1 19 1C21.2091 1 23 2.79086 23 5C23 7.20914 21.2091 9 19 9C17.9645 9 17.021 8.60655 16.3106 7.961L8.79108 11.7208Z" fill="#758CA3"/>
</svg>
