<svg width="24" height="24" viewBox="0 0 24 24" fill="none" xmlns="http://www.w3.org/2000/svg">
<path fill-rule="evenodd" clip-rule="evenodd" d="M14.6248 18.5409C16.0722 19.1011 17.4401 19.6322 18.3676 20.33C18.4064 20.3591 18.4277 20.4056 18.4277 20.454C18.4277 20.5025 18.4044 20.5471 18.3656 20.5762C16.5165 21.9427 14.3221 22.6657 12.017 22.6657C9.1629 22.6657 6.48144 21.555 4.46549 19.5411C2.44761 17.5272 1.33777 14.8484 1.33777 11.999C1.33777 9.1516 2.44955 6.47282 4.46549 4.45889C6.48338 2.44302 9.16484 1.33429 12.017 1.33429C14.6558 1.33429 17.1898 2.30346 19.1495 4.06541C19.1999 4.10999 19.2155 4.18171 19.1864 4.24373C19.1592 4.30382 19.0952 4.34065 19.0273 4.33096C18.2667 4.22629 17.4459 4.17395 16.5864 4.17395C13.4761 4.17395 10.9499 4.86788 9.28319 6.17819C7.79694 7.34701 7.01113 8.96358 7.01113 10.8554C7.01113 12.9624 7.82023 14.6293 9.4811 15.9513C10.948 17.1162 12.9018 17.8741 14.6248 18.5409ZM22.5935 10.9097C22.6245 10.9349 22.6439 10.9736 22.6478 11.0143C22.6789 11.3536 22.6925 11.685 22.6944 11.999C22.6944 13.3384 22.448 14.6468 21.9629 15.8873C21.9474 15.93 21.9125 15.961 21.8717 15.9765C21.8542 15.9823 21.8368 15.9862 21.8193 15.9862C21.7941 15.9862 21.7689 15.9804 21.7456 15.9668C20.4767 15.2632 19.0932 14.7476 17.7564 14.2494C15.1603 13.2822 12.9193 12.4468 12.9193 10.615C12.9193 9.96183 13.1929 9.40359 13.7109 9.00429C14.3085 8.54297 15.2049 8.30843 16.373 8.30843C18.5635 8.30843 20.3661 9.06244 22.5935 10.9097Z" fill="#758CA3"/>
</svg>
