<svg width="24" height="24" viewBox="0 0 24 24" fill="none" xmlns="http://www.w3.org/2000/svg">
<path d="M20.5 1.93934C19.9142 1.35355 18.9645 1.35355 18.3787 1.93934C17.7929 2.52513 17.7929 3.47487 18.3787 4.06066L18.818 4.5L17.5 4.50001C15.3595 4.50001 13.7565 5.39639 12.5306 6.6513C13.1372 7.60189 13.6499 8.59951 14.0757 9.45308C14.2267 9.25298 14.382 9.06449 14.5432 8.88859C15.3556 8.00236 16.2582 7.50001 17.5 7.50001L18.818 7.5L18.3787 7.93934C17.7929 8.52513 17.7929 9.47487 18.3787 10.0607C18.9645 10.6464 19.9142 10.6464 20.5 10.0607L23.5 7.06066C24.0858 6.47487 24.0858 5.52513 23.5 4.93934L20.5 1.93934Z" fill="#758CA3"/>
<path d="M7.33187 15.184C7.46831 15.0146 7.60042 14.8345 7.72972 14.6441C8.1751 15.5084 8.71236 16.4832 9.36788 17.4199C8.31566 18.5958 6.91476 19.5 5 19.5H1.5C0.671573 19.5 0 18.8284 0 18C0 17.1716 0.671573 16.5 1.5 16.5H5C5.89709 16.5 6.60148 16.0907 7.33187 15.184Z" fill="#758CA3"/>
<path d="M12.3318 17.1386C13.5819 18.5024 15.2418 19.5 17.5 19.5L18.818 19.5L18.3787 19.9393C17.7929 20.5251 17.7929 21.4749 18.3787 22.0607C18.9645 22.6464 19.9142 22.6464 20.5 22.0607L23.5 19.0607C24.0858 18.4749 24.0858 17.5251 23.5 16.9393L20.5 13.9393C19.9142 13.3536 18.9645 13.3536 18.3787 13.9393C17.7929 14.5251 17.7929 15.4749 18.3787 16.0607L18.818 16.5L17.5 16.5C16.2582 16.5 15.3556 15.9977 14.5432 15.1114C13.6753 14.1646 12.9785 12.853 12.2166 11.3292C12.1558 11.2074 12.0943 11.0839 12.0321 10.959C11.3619 9.61224 10.6127 8.10655 9.66813 6.93401C8.58602 5.5907 7.10291 4.50001 5 4.50001H1.5C0.671573 4.50001 0 5.17158 0 6.00001C0 6.82843 0.671573 7.50001 1.5 7.50001H5C5.89709 7.50001 6.60148 7.90931 7.33187 8.816C8.06134 9.72155 8.66713 10.9354 9.38234 12.3684L9.53336 12.6708C10.2715 14.147 11.1372 15.8354 12.3318 17.1386Z" fill="#758CA3"/>
</svg>
