<svg width="24" height="24" viewBox="0 0 24 24" fill="none" xmlns="http://www.w3.org/2000/svg">
<path fill-rule="evenodd" clip-rule="evenodd" d="M12 4.7708V7.00011C12 7.82853 11.3284 8.50011 10.5 8.50011C9.67157 8.50011 9 7.82853 9 7.00011V4.34723C9 3.12513 9.88353 2.08216 11.089 1.88125L21.089 0.214581C22.4509 -0.0124066 23.739 0.907643 23.966 2.26957C23.9886 2.4054 24 2.54286 24 2.68057V21.3196C24 22.7004 22.8807 23.8196 21.5 23.8196C21.3623 23.8196 21.2248 23.8083 21.089 23.7856L11.089 22.119C9.88353 21.9181 9 20.8751 9 19.653V17.0001C9 16.1717 9.67157 15.5001 10.5 15.5001C11.3284 15.5001 12 16.1717 12 17.0001V19.2294L21 20.7294V3.2708L12 4.7708ZM14.3787 13.5001H2.5C1.67157 13.5001 1 12.8285 1 12.0001C1 11.1717 1.67157 10.5001 2.5 10.5001H14.3787L13.9393 10.0608C13.3536 9.47498 13.3536 8.52523 13.9393 7.93945C14.5251 7.35366 15.4749 7.35366 16.0607 7.93945L19.0607 10.9394C19.6464 11.5252 19.6464 12.475 19.0607 13.0608L16.0607 16.0608C15.4749 16.6466 14.5251 16.6466 13.9393 16.0608C13.3536 15.475 13.3536 14.5252 13.9393 13.9394L14.3787 13.5001Z" fill="#758CA3"/>
</svg>
