<svg width="24" height="24" viewBox="0 0 24 24" fill="none" xmlns="http://www.w3.org/2000/svg">
<path fill-rule="evenodd" clip-rule="evenodd" d="M24 13V21C24 21.5523 23.5523 22 23 22H20C19.4477 22 19 21.5523 19 21V13C19 12.4477 19.4477 12 20 12H23C23.5523 12 24 12.4477 24 13ZM17 21H7V16H17V21ZM4 22H1C0.447715 22 0 21.5523 0 21V13C0 12.4477 0.447715 12 1 12H4C4.55228 12 5 12.4477 5 13V21C5 21.5523 4.55228 22 4 22ZM2 10V8C2 4.68629 4.68629 2 8 2H16C19.3137 2 22 4.68629 22 8V10H20C18.3431 10 17 11.3431 17 13V14H7V13C7 11.3431 5.65685 10 4 10H2ZM9 7C8.44771 7 8 7.44772 8 8C8 8.55228 8.44771 9 9 9C9.55229 9 10 8.55228 10 8C10 7.44772 9.55229 7 9 7ZM15 7C14.4477 7 14 7.44772 14 8C14 8.55228 14.4477 9 15 9C15.5523 9 16 8.55228 16 8C16 7.44772 15.5523 7 15 7Z" fill="#758CA3"/>
</svg>
