<svg width="24" height="24" viewBox="0 0 24 24" fill="none" xmlns="http://www.w3.org/2000/svg">
<path fill-rule="evenodd" clip-rule="evenodd" d="M8.5 5.12132V22.5C8.5 23.3284 7.82843 24 7 24C6.17157 24 5.5 23.3284 5.5 22.5V5.12132L5.06066 5.56066C4.47487 6.14645 3.52513 6.14645 2.93934 5.56066C2.35355 4.97487 2.35355 4.02513 2.93934 3.43934L5.93934 0.43934C6.52513 -0.146447 7.47487 -0.146447 8.06066 0.43934L11.0607 3.43934C11.6464 4.02513 11.6464 4.97487 11.0607 5.56066C10.4749 6.14645 9.52513 6.14645 8.93934 5.56066L8.5 5.12132ZM18.5 18.8787L18.9393 18.4393C19.5251 17.8536 20.4749 17.8536 21.0607 18.4393C21.6464 19.0251 21.6464 19.9749 21.0607 20.5607L18.0607 23.5607C17.4749 24.1464 16.5251 24.1464 15.9393 23.5607L12.9393 20.5607C12.3536 19.9749 12.3536 19.0251 12.9393 18.4393C13.5251 17.8536 14.4749 17.8536 15.0607 18.4393L15.5 18.8787V1.5C15.5 0.671573 16.1716 2.98023e-08 17 2.98023e-08C17.8284 2.98023e-08 18.5 0.671573 18.5 1.5V18.8787Z" fill="#758CA3"/>
</svg>
