<svg width="24" height="24" viewBox="0 0 24 24" fill="none" xmlns="http://www.w3.org/2000/svg">
<path fill-rule="evenodd" clip-rule="evenodd" d="M10.5 2C10.5 0 13.5 0 13.5 2V7C13.5 9 10.5 9 10.5 7V2ZM10.5 17C10.5 15 13.5 15 13.5 17V22C13.5 24 10.5 24 10.5 22V17ZM19.9103 5.70096C21.6423 4.70096 23.1423 7.29904 21.4103 8.29904L17.0801 10.799C15.3481 11.799 13.8481 9.20096 15.5801 8.20096L19.9103 5.70096ZM6.91988 13.201C8.65194 12.201 10.1519 14.799 8.41988 15.799L4.08976 18.299C2.35771 19.299 0.857707 16.701 2.58976 15.701L6.91988 13.201ZM2.58976 8.29904C0.857707 7.29904 2.35771 4.70096 4.08976 5.70096L8.41988 8.20096C10.1519 9.20096 8.65194 11.799 6.91988 10.799L2.58976 8.29904ZM15.5801 15.799C13.8481 14.799 15.3481 12.201 17.0801 13.201L21.4103 15.701C23.1423 16.701 21.6423 19.299 19.9103 18.299L15.5801 15.799Z" fill="#758CA3"/>
</svg>
