<svg width="24" height="24" viewBox="0 0 24 24" fill="none" xmlns="http://www.w3.org/2000/svg">
<path fill-rule="evenodd" clip-rule="evenodd" d="M6.7998 23.3168C5.78902 23.7622 4.60854 23.3039 4.16313 22.2931C4.02364 21.9766 3.96864 21.6293 4.00348 21.2852L4.57592 15.6314L0.789612 11.3939C0.0536467 10.5702 0.124744 9.3059 0.948413 8.56994C1.20635 8.33946 1.51965 8.17983 1.85771 8.10662L7.41165 6.90394L10.2717 1.99348C10.8277 1.03901 12.0521 0.715929 13.0066 1.27186C13.3054 1.44595 13.5541 1.69459 13.7282 1.99348L16.5883 6.90394L22.1422 8.10662C23.2217 8.3404 23.9074 9.40505 23.6736 10.4846C23.6004 10.8227 23.4408 11.136 23.2103 11.3939L19.424 15.6314L19.9964 21.2852C20.1077 22.3841 19.307 23.3652 18.2081 23.4765C17.8639 23.5113 17.5166 23.4563 17.2001 23.3168L12 21.0253L6.7998 23.3168Z" fill="#758CA3"/>
</svg>
