<svg width="24" height="24" viewBox="0 0 24 24" fill="none" xmlns="http://www.w3.org/2000/svg">
<path fill-rule="evenodd" clip-rule="evenodd" d="M10.7478 17.8691L10.4393 17.5607C9.85355 16.9749 9.85355 16.0251 10.4393 15.4393C11.0251 14.8536 11.9749 14.8536 12.5607 15.4393L15.5607 18.4393C16.1464 19.0251 16.1464 19.9749 15.5607 20.5607L12.5607 23.5607C11.9749 24.1464 11.0251 24.1464 10.4393 23.5607C9.85355 22.9749 9.85355 22.0251 10.4393 21.4393L10.9404 20.9383C6.46918 20.4139 3 16.6121 3 12C3 10.5942 3.32365 9.23154 3.93688 7.998C4.30566 7.25618 5.20598 6.95378 5.9478 7.32256C6.68961 7.69134 6.99202 8.59166 6.62324 9.33347C6.21516 10.1543 6 11.0602 6 12C6 14.8843 8.03517 17.2932 10.7478 17.8691ZM12.1225 6.00123L12.5607 6.43934C13.1464 7.02513 13.1464 7.97487 12.5607 8.56066C11.9749 9.14645 11.0251 9.14645 10.4393 8.56066L7.43934 5.56066C6.85355 4.97487 6.85355 4.02513 7.43934 3.43934L10.4393 0.43934C11.0251 -0.146447 11.9749 -0.146447 12.5607 0.43934C13.1464 1.02513 13.1464 1.97487 12.5607 2.56066L12.1205 3.00079C17.0355 3.0653 21 7.06968 21 12C21 13.4805 20.641 14.9127 19.9639 16.1956C19.5773 16.9283 18.6699 17.2088 17.9372 16.8221C17.2046 16.4355 16.9241 15.5281 17.3107 14.7954C17.7614 13.9415 18 12.9896 18 12C18 8.72724 15.3797 6.06648 12.1225 6.00123Z" fill="#758CA3"/>
</svg>
