<svg width="24" height="24" viewBox="0 0 24 24" fill="none" xmlns="http://www.w3.org/2000/svg">
<path fill-rule="evenodd" clip-rule="evenodd" d="M23.9589 11.9999H21C20.4477 11.9999 20 12.4477 20 12.9999C20 13.5522 20.4477 13.9999 21 13.9999H23.9587C23.6636 17.5601 21.8039 20.774 18.9019 22.8176C18.7334 22.9362 18.5323 22.9999 18.3262 22.9999H5.67384C5.46771 22.9999 5.26662 22.9362 5.09808 22.8176C2.19615 20.774 0.336381 17.5601 0.0413086 13.9999H3C3.55229 13.9999 4 13.5522 4 12.9999C4 12.4477 3.55229 11.9999 3 11.9999H0.0410767C0.522025 6.17014 5.17021 1.52196 11 1.04102V3.99994C11 4.55223 11.4477 4.99994 12 4.99994C12.5523 4.99994 13 4.55223 13 3.99994V1.04102C18.8298 1.52196 23.478 6.17014 23.9589 11.9999ZM12.7372 13.6757L16.8278 9.21314C17.201 8.80603 17.1735 8.17346 16.7664 7.80027C16.3593 7.42707 15.7267 7.45458 15.3535 7.8617L11.2628 12.3242C10.8897 12.7313 10.9172 13.3639 11.3243 13.7371C11.7314 14.1103 12.364 14.0828 12.7372 13.6757Z" fill="#758CA3"/>
</svg>
