<svg width="24" height="24" viewBox="0 0 24 24" fill="none" xmlns="http://www.w3.org/2000/svg">
<path fill-rule="evenodd" clip-rule="evenodd" d="M7.99999 8.91864V5.82929C6.8348 5.41746 5.99999 4.30622 5.99999 3C5.99999 1.34315 7.34314 0 8.99999 0H15C16.6568 0 18 1.34315 18 3C18 4.30622 17.1652 5.41746 16 5.82929V8.91864C16.1699 9.09496 16.3195 9.29354 16.4441 9.51158L18.1584 12.5116C18.9804 13.9501 18.4806 15.7827 17.042 16.6047C16.5888 16.8638 16.0757 17 15.5536 17H13V23C13 23.5523 12.5523 24 12 24C11.4477 24 11 23.5523 11 23V17H8.44635C6.7895 17 5.44635 15.6569 5.44635 14C5.44635 13.4779 5.5826 12.9649 5.84162 12.5116L7.55591 9.51158C7.6805 9.29354 7.83013 9.09496 7.99999 8.91864Z" fill="#758CA3"/>
</svg>
