<svg width="24" height="24" viewBox="0 0 24 24" fill="none" xmlns="http://www.w3.org/2000/svg">
<path fill-rule="evenodd" clip-rule="evenodd" d="M14.1213 11.9998L15.5355 13.414C16.1213 13.9998 16.1213 14.9495 15.5355 15.5353C14.9497 16.1211 14 16.1211 13.4142 15.5353L12 14.1211L10.5858 15.5353C10 16.1211 9.05025 16.1211 8.46447 15.5353C7.87868 14.9495 7.87868 13.9998 8.46447 13.414L9.87868 11.9998L8.46447 10.5856C7.87868 9.99978 7.87868 9.05003 8.46447 8.46424C9.05025 7.87846 10 7.87846 10.5858 8.46424L12 9.87846L13.4142 8.46424C14 7.87846 14.9497 7.87846 15.5355 8.46424C16.1213 9.05003 16.1213 9.99978 15.5355 10.5856L14.1213 11.9998Z" fill="#758CA3"/>
</svg>
