<svg width="24" height="24" viewBox="0 0 24 24" fill="none" xmlns="http://www.w3.org/2000/svg">
<path fill-rule="evenodd" clip-rule="evenodd" d="M12 9.87846L18.0104 3.86805C18.5962 3.28226 19.5459 3.28226 20.1317 3.86805C20.7175 4.45384 20.7175 5.40358 20.1317 5.98937L14.1213 11.9998L20.1317 18.0102C20.7175 18.596 20.7175 19.5457 20.1317 20.1315C19.5459 20.7173 18.5962 20.7173 18.0104 20.1315L12 14.1211L5.98958 20.1315C5.4038 20.7173 4.45405 20.7173 3.86826 20.1315C3.28248 19.5457 3.28248 18.596 3.86826 18.0102L9.87867 11.9998L3.86826 5.98937C3.28248 5.40358 3.28248 4.45384 3.86826 3.86805C4.45405 3.28226 5.4038 3.28226 5.98958 3.86805L12 9.87846Z" fill="#758CA3"/>
</svg>
