<svg width="24" height="24" viewBox="0 0 24 24" fill="none" xmlns="http://www.w3.org/2000/svg">
<path fill-rule="evenodd" clip-rule="evenodd" d="M14.1213 12L16.5962 14.4749C17.182 15.0607 17.182 16.0104 16.5962 16.5962C16.0104 17.182 15.0607 17.182 14.4749 16.5962L12 14.1213L9.52513 16.5962C8.93934 17.182 7.98959 17.182 7.40381 16.5962C6.81802 16.0104 6.81802 15.0607 7.40381 14.4749L9.87868 12L7.40381 9.52513C6.81802 8.93935 6.81802 7.9896 7.40381 7.40381C7.98959 6.81802 8.93934 6.81802 9.52513 7.40381L12 9.87868L14.4749 7.40381C15.0607 6.81802 16.0104 6.81802 16.5962 7.40381C17.182 7.9896 17.182 8.93935 16.5962 9.52513L14.1213 12Z" fill="#758CA3"/>
</svg>
