<svg width="24" height="24" viewBox="0 0 24 24" fill="none" xmlns="http://www.w3.org/2000/svg">
<path fill-rule="evenodd" clip-rule="evenodd" d="M12 10.5858L10.5858 9.17157C10.1953 8.78105 9.5621 8.78105 9.17157 9.17157C8.78105 9.5621 8.78105 10.1953 9.17157 10.5858L10.5858 12L9.17157 13.4142C8.78105 13.8047 8.78105 14.4379 9.17157 14.8284C9.5621 15.219 10.1953 15.219 10.5858 14.8284L12 13.4142L13.4142 14.8284C13.8047 15.219 14.4379 15.219 14.8284 14.8284C15.219 14.4379 15.219 13.8047 14.8284 13.4142L13.4142 12L14.8284 10.5858C15.219 10.1953 15.219 9.5621 14.8284 9.17157C14.4379 8.78105 13.8047 8.78105 13.4142 9.17157L12 10.5858ZM6 4H18C19.1046 4 20 4.89543 20 6V18C20 19.1046 19.1046 20 18 20H6C4.89543 20 4 19.1046 4 18V6C4 4.89543 4.89543 4 6 4Z" fill="#758CA3"/>
</svg>
