<svg width="24" height="24" viewBox="0 0 24 24" fill="none" xmlns="http://www.w3.org/2000/svg">
<path fill-rule="evenodd" clip-rule="evenodd" d="M11 18.4142L7.70711 21.7071C7.51957 21.8946 7.26522 22 7 22H3C2.44772 22 2 21.5523 2 21V17C2 16.7348 2.10536 16.4804 2.29289 16.2929L5.58579 13L1.29289 8.70711C0.902369 8.31658 0.902369 7.68342 1.29289 7.29289L7.29289 1.29289C7.68342 0.902369 8.31658 0.902369 8.70711 1.29289L13 5.58579L17.2929 1.29289C17.6834 0.902369 18.3166 0.902369 18.7071 1.29289L22.7071 5.29289C23.0976 5.68342 23.0976 6.31658 22.7071 6.70711L18.4142 11L22.7071 15.2929C23.0976 15.6834 23.0976 16.3166 22.7071 16.7071L16.7071 22.7071C16.3166 23.0976 15.6834 23.0976 15.2929 22.7071L11 18.4142ZM12.4142 17L13.5 18.0858L14.2929 17.2929C14.6834 16.9024 15.3166 16.9024 15.7071 17.2929C16.0976 17.6834 16.0976 18.3166 15.7071 18.7071L14.9142 19.5L16 20.5858L20.5858 16L17 12.4142L12.4142 17ZM16.9142 4.5L19.5 7.08579L20.5858 6L18 3.41421L16.9142 4.5ZM11.5858 7L8 3.41421L3.41421 8L4.5 9.08579L5.29289 8.29289C5.68342 7.90237 6.31658 7.90237 6.70711 8.29289C7.09763 8.68342 7.09763 9.31658 6.70711 9.70711L5.91421 10.5L7 11.5858L11.5858 7Z" fill="#758CA3"/>
</svg>
