<svg width="24" height="24" viewBox="0 0 24 24" fill="none" xmlns="http://www.w3.org/2000/svg">
<path d="M1.5 4.5C0.671573 4.5 0 5.17157 0 6C0 6.82843 0.671573 7.5 1.5 7.5H4V17C4 17.8284 4.67157 18.5 5.5 18.5C6.32843 18.5 7 17.8284 7 17V7.5H9.5C10.3284 7.5 11 6.82843 11 6C11 5.17157 10.3284 4.5 9.5 4.5H1.5Z" fill="#758CA3"/>
<path d="M16 17V10.6128L17.2788 12.3711C17.8818 13.2003 19.1182 13.2003 19.7212 12.3711L21 10.6128V17C21 17.8284 21.6716 18.5 22.5 18.5C23.3284 18.5 24 17.8284 24 17V6.03075C24 4.56833 22.1289 3.95993 21.2688 5.14262L18.5 8.94973L15.7312 5.14262C14.871 3.95986 13 4.56841 13 6.03076V17C13 17.8284 13.6716 18.5 14.5 18.5C15.3284 18.5 16 17.8284 16 17Z" fill="#758CA3"/>
</svg>
