<svg width="24" height="24" viewBox="0 0 24 24" fill="none" xmlns="http://www.w3.org/2000/svg">
<path fill-rule="evenodd" clip-rule="evenodd" d="M5.00939 15.5H18.9906L20.5739 20.5H22.5C23.3284 20.5 24 21.1716 24 22C24 22.8284 23.3284 23.5 22.5 23.5H1.5C0.671573 23.5 0 22.8284 0 22C0 21.1716 0.671573 20.5 1.5 20.5H3.42606L5.00939 15.5ZM5.95939 12.5L6.90939 9.5H17.0906L18.0406 12.5H5.95939ZM7.85939 6.5L9.15892 2.39622C9.42216 1.56493 10.1936 1 11.0656 1H12.9344C13.8064 1 14.5778 1.56493 14.8411 2.39622L16.1406 6.5H7.85939Z" fill="#758CA3"/>
</svg>
