<svg width="24" height="24" viewBox="0 0 24 24" fill="none" xmlns="http://www.w3.org/2000/svg">
<path fill-rule="evenodd" clip-rule="evenodd" d="M19.9 1.21076e-10H16C15.1716 1.21076e-10 14.5 0.671573 14.5 1.5C14.5 2.32843 15.1716 3 16 3H16.3787L14.048 5.33073C13.1547 4.80289 12.1127 4.5 11 4.5C7.68629 4.5 5 7.18629 5 10.5C5 13.2958 6.91216 15.6449 9.5 16.311V18H9C8.17157 18 7.5 18.6716 7.5 19.5C7.5 20.3284 8.17157 21 9 21H9.5V22C9.5 22.8284 10.1716 23.5 11 23.5C11.8284 23.5 12.5 22.8284 12.5 22V21H13C13.8284 21 14.5 20.3284 14.5 19.5C14.5 18.6716 13.8284 18 13 18H12.5V16.311C15.0878 15.6449 17 13.2958 17 10.5C17 9.38729 16.6971 8.34532 16.1693 7.45205L18.5 5.12132V5.5C18.5 6.32843 19.1716 7 20 7C20.8284 7 21.5 6.32843 21.5 5.5V1.6C21.5 1.58295 21.4997 1.56595 21.4992 1.54903C21.5122 1.14897 21.366 0.744704 21.0607 0.43934C20.7553 0.133976 20.351 -0.0122056 19.951 0.000796507C19.934 0.000266818 19.9171 1.21076e-10 19.9 1.21076e-10ZM11 13.5C12.6569 13.5 14 12.1569 14 10.5C14 8.84315 12.6569 7.5 11 7.5C9.34315 7.5 8 8.84315 8 10.5C8 12.1569 9.34315 13.5 11 13.5Z" fill="#758CA3"/>
</svg>
