<svg width="24" height="24" viewBox="0 0 24 24" fill="none" xmlns="http://www.w3.org/2000/svg">
<path fill-rule="evenodd" clip-rule="evenodd" d="M7 3C7 1.34315 8.34315 0 10 0H14C15.6569 0 17 1.34315 17 3H19C20.6569 3 22 4.34315 22 6C22 6.55228 21.5523 7 21 7H3C2.44772 7 2 6.55228 2 6C2 4.34315 3.34315 3 5 3H7ZM4 9H20C20.5523 9 21 9.44771 21 10V21C21 22.6569 19.6569 24 18 24H6C4.34315 24 3 22.6569 3 21V10C3 9.44771 3.44772 9 4 9ZM7 13.1429V18.8571C7 19.4883 7.44772 20 8 20C8.55228 20 9 19.4883 9 18.8571V13.1429C9 12.5117 8.55228 12 8 12C7.44772 12 7 12.5117 7 13.1429ZM11 13.1429V18.8571C11 19.4883 11.4477 20 12 20C12.5523 20 13 19.4883 13 18.8571V13.1429C13 12.5117 12.5523 12 12 12C11.4477 12 11 12.5117 11 13.1429ZM15 13.1429V18.8571C15 19.4883 15.4477 20 16 20C16.5523 20 17 19.4883 17 18.8571V13.1429C17 12.5117 16.5523 12 16 12C15.4477 12 15 12.5117 15 13.1429ZM10 2C9.44772 2 9 2.44772 9 3H15C15 2.44772 14.5523 2 14 2H10Z" fill="#758CA3"/>
</svg>
