<svg width="24" height="24" viewBox="0 0 24 24" fill="none" xmlns="http://www.w3.org/2000/svg">
<path fill-rule="evenodd" clip-rule="evenodd" d="M9 15V16C9 16.5523 9.44772 17 10 17C10.5523 17 11 16.5523 11 16V15C11 14.4477 10.5523 14 10 14C9.44772 14 9 14.4477 9 15ZM13 15V16C13 16.5523 13.4477 17 14 17C14.5523 17 15 16.5523 15 16V15C15 14.4477 14.5523 14 14 14C13.4477 14 13 14.4477 13 15ZM8 7V6C8 4.89543 8.89543 4 10 4H14C15.1046 4 16 4.89543 16 6V7H17C18.1046 7 19 7.89543 19 9C19 9.55228 18.5523 10 18 10H6C5.44772 10 5 9.55228 5 9C5 7.89543 5.89543 7 7 7H8ZM6 11H18V18C18 19.1046 17.1046 20 16 20H8C6.89543 20 6 19.1046 6 18V11ZM10 7H14V6H10V7Z" fill="#758CA3"/>
</svg>
