<svg width="24" height="24" viewBox="0 0 24 24" fill="none" xmlns="http://www.w3.org/2000/svg">
<path fill-rule="evenodd" clip-rule="evenodd" d="M5.00009 11.3873L3.31634 11.9485C2.7924 12.1232 2.22609 11.84 2.05144 11.3161L0.0514698 5.31616C-0.105899 4.84405 0.107827 4.32807 0.552933 4.10552L4.55288 2.10555C4.69174 2.03612 4.84485 1.99997 5.00009 1.99997H8.00005C8.31481 1.99997 8.61119 2.14817 8.80004 2.39997C9.61118 3.48148 10.6481 3.99995 12 3.99995C13.3519 3.99995 14.3888 3.48148 15.2 2.39997C15.3888 2.14817 15.6852 1.99997 16 1.99997H18.9999C19.1552 1.99997 19.3083 2.03612 19.4471 2.10555L23.4471 4.10552C23.8922 4.32807 24.1059 4.84405 23.9485 5.31616L21.9486 11.3161C21.7739 11.84 21.2076 12.1232 20.6837 11.9485L18.9999 11.3873V20.9997C18.9999 21.552 18.5522 21.9997 17.9999 21.9997H6.00008C5.4478 21.9997 5.00009 21.552 5.00009 20.9997V11.3873Z" fill="#758CA3"/>
</svg>
