<svg width="24" height="24" viewBox="0 0 24 24" fill="none" xmlns="http://www.w3.org/2000/svg">
<path fill-rule="evenodd" clip-rule="evenodd" d="M6.62132 7L8.06066 8.43934C8.64645 9.02513 8.64645 9.97487 8.06066 10.5607C7.47487 11.1464 6.52513 11.1464 5.93934 10.5607L1.93934 6.56066C1.35355 5.97487 1.35355 5.02513 1.93934 4.43934L5.93934 0.43934C6.52513 -0.146447 7.47487 -0.146447 8.06066 0.43934C8.64645 1.02513 8.64645 1.97487 8.06066 2.56066L6.62132 4H16C19.5899 4 22.5 6.91015 22.5 10.5V22.5C22.5 23.3284 21.8284 24 21 24C20.1716 24 19.5 23.3284 19.5 22.5V10.5C19.5 8.567 17.933 7 16 7H6.62132ZM4 15C4 13.8954 4.89543 13 6 13H11C12.1046 13 13 13.8954 13 15V20C13 21.1046 12.1046 22 11 22H6C4.89543 22 4 21.1046 4 20V15Z" fill="#758CA3"/>
</svg>
