<svg width="24" height="24" viewBox="0 0 24 24" fill="none" xmlns="http://www.w3.org/2000/svg">
<path fill-rule="evenodd" clip-rule="evenodd" d="M17.3787 7H8C6.067 7 4.5 8.567 4.5 10.5V22.5C4.5 23.3284 3.82843 24 3 24C2.17157 24 1.5 23.3284 1.5 22.5V10.5C1.5 6.91015 4.41015 4 8 4H17.3787L15.9393 2.56066C15.3536 1.97487 15.3536 1.02513 15.9393 0.43934C16.5251 -0.146447 17.4749 -0.146447 18.0607 0.43934L22.0607 4.43934C22.6464 5.02513 22.6464 5.97487 22.0607 6.56066L18.0607 10.5607C17.4749 11.1464 16.5251 11.1464 15.9393 10.5607C15.3536 9.97487 15.3536 9.02513 15.9393 8.43934L17.3787 7ZM20 15V20C20 21.1046 19.1046 22 18 22H13C11.8954 22 11 21.1046 11 20V15C11 13.8954 11.8954 13 13 13H18C19.1046 13 20 13.8954 20 15Z" fill="#758CA3"/>
</svg>
