<svg width="24" height="24" viewBox="0 0 24 24" fill="none" xmlns="http://www.w3.org/2000/svg">
<path fill-rule="evenodd" clip-rule="evenodd" d="M7.54752 22C16.6042 22 21.5578 14.3048 21.5578 7.63156C21.5578 7.41299 21.5578 7.19541 21.5434 6.97881C22.507 6.26394 23.3389 5.37881 24 4.36484C23.1013 4.77324 22.148 5.04106 21.1718 5.15937C22.1998 4.52826 22.9691 3.53563 23.3366 2.36622C22.3701 2.95444 21.3126 3.36899 20.2099 3.59198C18.6836 1.9275 16.2583 1.52012 14.294 2.59826C12.3296 3.6764 11.3148 5.97194 11.8186 8.19768C7.85942 7.99412 4.1707 6.0763 1.6704 2.9215C0.363478 5.22892 1.03103 8.1808 3.19488 9.66268C2.41127 9.63886 1.64475 9.42207 0.96 9.0306C0.96 9.05128 0.96 9.07294 0.96 9.09459C0.960641 11.4985 2.61288 13.5689 4.9104 14.0449C4.18547 14.2476 3.42488 14.2773 2.68704 14.1315C3.33211 16.1887 5.18071 17.5979 7.28736 17.6385C5.54375 19.0438 3.38982 19.8068 1.17216 19.8045C0.780387 19.8037 0.388996 19.7794 0 19.7316C2.25181 21.2136 4.87192 21.9997 7.54752 21.9961" fill="#758CA3"/>
</svg>
