<svg width="24" height="24" viewBox="0 0 24 24" fill="none" xmlns="http://www.w3.org/2000/svg">
<path fill-rule="evenodd" clip-rule="evenodd" d="M17.5 16.7454C16.1304 17.8433 14.3919 18.5 12.5 18.5C8.08172 18.5 4.5 14.9183 4.5 10.5V3.91465C3.9174 3.70873 3.5 3.15311 3.5 2.5C3.5 1.67157 4.17157 1 5 1H7C7.82843 1 8.5 1.67157 8.5 2.5C8.5 3.15311 8.0826 3.70873 7.5 3.91465V10.5C7.5 13.2614 9.73858 15.5 12.5 15.5C15.2614 15.5 17.5 13.2614 17.5 10.5V3.91465C16.9174 3.70873 16.5 3.15311 16.5 2.5C16.5 1.67157 17.1716 1 18 1H20C20.8284 1 21.5 1.67157 21.5 2.5C21.5 3.15311 21.0826 3.70873 20.5 3.91465V17C20.5 17.8284 19.8284 18.5 19 18.5C18.1716 18.5 17.5 17.8284 17.5 17V16.7454ZM5 23.5C4.17157 23.5 3.5 22.8284 3.5 22C3.5 21.1716 4.17157 20.5 5 20.5H20C20.8284 20.5 21.5 21.1716 21.5 22C21.5 22.8284 20.8284 23.5 20 23.5H5Z" fill="#758CA3"/>
</svg>
