<svg width="24" height="24" viewBox="0 0 24 24" fill="none" xmlns="http://www.w3.org/2000/svg">
<path fill-rule="evenodd" clip-rule="evenodd" d="M11.6213 9.5L12.0607 9.93934C12.6464 10.5251 12.6464 11.4749 12.0607 12.0607C11.4749 12.6464 10.5251 12.6464 9.93934 12.0607L6.93934 9.06066C6.35355 8.47487 6.35355 7.52513 6.93934 6.93934L9.93934 3.93934C10.5251 3.35355 11.4749 3.35355 12.0607 3.93934C12.6464 4.52513 12.6464 5.47487 12.0607 6.06066L11.6213 6.5H12.5C16.366 6.5 19.5 9.63401 19.5 13.5C19.5 17.366 16.366 20.5 12.5 20.5C8.63401 20.5 5.5 17.366 5.5 13.5C5.5 12.6716 6.17157 12 7 12C7.82843 12 8.5 12.6716 8.5 13.5C8.5 15.7091 10.2909 17.5 12.5 17.5C14.7091 17.5 16.5 15.7091 16.5 13.5C16.5 11.2909 14.7091 9.5 12.5 9.5H11.6213Z" fill="#758CA3"/>
</svg>
