<svg id="meteor-icon-kit__solid-universal-access" viewBox="0 0 24 24" fill="none" xmlns="http://www.w3.org/2000/svg"><path d="M23 12C23 18.0751 18.0751 23 12 23C5.92487 23 1 18.0751 1 12C1 5.92487 5.92487 1 12 1C18.0751 1 23 5.92487 23 12ZM9.25 6.25C9.25 6.56956 9.30451 6.8764 9.40473 7.16171C8.45732 7.00912 7.68276 6.80196 7.18351 6.62041C6.14545 6.24293 4.99792 6.77844 4.62044 7.81651C4.24296 8.85458 4.77847 10.0021 5.81654 10.3796C6.59893 10.6641 7.77787 10.9746 9.19149 11.1738C9.22886 14.2089 8.4798 16.7682 8.0611 17.6056C7.56712 18.5935 7.96756 19.7949 8.95552 20.2889C9.94348 20.7828 11.1448 20.3824 11.6388 19.3944C11.7579 19.1563 11.8796 18.8742 12 18.5539C12.1204 18.8742 12.2421 19.1563 12.3612 19.3944C12.8552 20.3824 14.0565 20.7828 15.0445 20.2889C16.0324 19.7949 16.4329 18.5935 15.9389 17.6056C15.5218 16.7713 14.7763 14.2269 14.8082 11.2053C15.9174 11.052 17.0565 10.7894 18.1835 10.3796C19.2216 10.0021 19.7571 8.85458 19.3796 7.81651C19.0021 6.77844 17.8546 6.24293 16.8165 6.62041C16.0812 6.8878 15.3294 7.0732 14.5836 7.19421C14.6913 6.89975 14.75 6.58173 14.75 6.25C14.75 4.73122 13.5188 3.5 12 3.5C10.4812 3.5 9.25 4.73122 9.25 6.25Z" fill="#758CA3" stroke="#758CA3" stroke-width="2"/></svg>