<svg width="24" height="24" viewBox="0 0 24 24" fill="none" xmlns="http://www.w3.org/2000/svg">
<path fill-rule="evenodd" clip-rule="evenodd" d="M7.99978 0.999972C11.3134 0.999972 13.9996 3.68619 13.9996 6.9998C13.9996 10.3134 11.3134 12.9996 7.99978 12.9996C4.68616 12.9996 1.99994 10.3134 1.99994 6.9998C1.99994 3.68619 4.68616 0.999972 7.99978 0.999972ZM0.999972 23.0984C0.447703 23.0984 0 22.6507 0 22.0984V19.9994C0 17.2381 2.23851 14.9996 4.99986 14.9996H11.0004C13.7617 14.9996 16.0003 17.2381 16.0003 19.9994V22.0984C16.0003 22.6507 15.5526 23.0984 15.0003 23.0984C14.448 23.0984 1.55224 23.0984 0.999972 23.0984ZM13.7484 12.563C15.142 11.1233 15.9996 9.16172 15.9996 6.9998C15.9996 4.83789 15.142 2.87627 13.7484 1.43658C14.4436 1.15502 15.2034 0.999972 15.9996 0.999972C19.3132 0.999972 21.9994 3.68619 21.9994 6.9998C21.9994 10.3134 19.3132 12.9996 15.9996 12.9996C15.2034 12.9996 14.4436 12.8446 13.7484 12.563ZM15.8992 14.9996H19.0002C21.7615 14.9996 24 17.2381 24 19.9994V22.0984C24 22.6507 23.5523 23.0984 23.0001 23.0984H17.8295C17.94 22.7856 18.0002 22.449 18.0002 22.0984V19.9994C18.0002 18.0408 17.1958 16.2701 15.8992 14.9996Z" fill="#758CA3"/>
</svg>
