<svg width="25" height="24" viewBox="0 0 25 24" fill="none" xmlns="http://www.w3.org/2000/svg">
<path fill-rule="evenodd" clip-rule="evenodd" d="M9.54999 2C12.5876 2 15.05 4.46243 15.05 7.5C15.05 10.5376 12.5876 13 9.54999 13C6.51242 13 4.04999 10.5376 4.04999 7.5C4.04999 4.46243 6.51242 2 9.54999 2ZM0.999955 22C0.475302 22 0.0499878 21.613 0.0499878 21.1357V19.3215C0.0499878 16.9348 2.17656 15 4.79982 15H14.3002C16.9234 15 19.05 16.9348 19.05 19.3215V21.1357C19.05 21.613 18.6247 22 18.1 22H0.999955ZM20.508 7.08156L23.4927 8.36069C23.9638 8.5626 24.2563 9.08089 24.1306 9.61951C23.958 10.3594 23.6003 11.4726 23.0511 12.5503C22.5172 13.598 21.7349 14.7468 20.6474 15.4077C20.4872 15.5089 20.3012 15.5625 20.1125 15.5626C19.9238 15.5625 19.7378 15.5089 19.5776 15.4077C18.4901 14.7468 17.7078 13.598 17.1739 12.5503C16.6247 11.4726 16.267 10.3594 16.0943 9.61951C15.9686 9.08089 16.2612 8.5626 16.7323 8.36069L19.7169 7.08156L19.7273 7.07718C19.8532 7.02458 19.9839 6.99968 20.1125 6.99974C20.2411 6.99968 20.3718 7.02458 20.4977 7.07718L20.508 7.08156ZM20.1125 13.3011C20.5345 12.8911 20.9272 12.3132 21.2691 11.6422C21.5765 11.0391 21.8147 10.4168 21.9818 9.88908L20.1125 9.08796V13.3011Z" fill="#758CA3"/>
<path d="M23.4927 8.36069L23.473 8.40665L23.4927 8.36069ZM20.508 7.08156L20.5277 7.0356L20.5276 7.03552L20.508 7.08156ZM24.1306 9.61951L24.1793 9.63088L24.1306 9.61951ZM23.0511 12.5503L23.0065 12.5276L23.0511 12.5503ZM20.6474 15.4077L20.6214 15.3649L20.6207 15.3654L20.6474 15.4077ZM20.1125 15.5626L20.1124 15.6126H20.1125L20.1125 15.5626ZM19.5776 15.4077L19.6043 15.3654L19.6036 15.3649L19.5776 15.4077ZM17.1739 12.5503L17.2185 12.5276L17.1739 12.5503ZM16.0943 9.61951L16.0456 9.63088L16.0943 9.61951ZM16.7323 8.36069L16.752 8.40665L16.7323 8.36069ZM19.7169 7.08156L19.6974 7.03552L19.6972 7.0356L19.7169 7.08156ZM19.7273 7.07718L19.708 7.03104L19.7077 7.03114L19.7273 7.07718ZM20.1125 6.99974L20.1125 7.04974H20.1125L20.1125 6.99974ZM20.4977 7.07718L20.5172 7.03114L20.517 7.03104L20.4977 7.07718ZM21.2691 11.6422L21.2246 11.6195L21.2691 11.6422ZM20.1125 13.3011H20.0625V13.4194L20.1473 13.337L20.1125 13.3011ZM21.9818 9.88908L22.0294 9.90418L22.0431 9.86098L22.0015 9.84313L21.9818 9.88908ZM20.1125 9.08796L20.1322 9.04201L20.0625 9.01214V9.08796H20.1125ZM15.1 7.5C15.1 4.43482 12.6152 1.95 9.54999 1.95V2.05C12.5599 2.05 15 4.49005 15 7.5H15.1ZM9.54999 13.05C12.6152 13.05 15.1 10.5652 15.1 7.5H15C15 10.51 12.5599 12.95 9.54999 12.95V13.05ZM3.99999 7.5C3.99999 10.5652 6.48481 13.05 9.54999 13.05V12.95C6.54004 12.95 4.09999 10.51 4.09999 7.5H3.99999ZM9.54999 1.95C6.48481 1.95 3.99999 4.43482 3.99999 7.5H4.09999C4.09999 4.49005 6.54004 2.05 9.54999 2.05V1.95ZM-1.22078e-05 21.1357C-1.22078e-05 21.645 0.45224 22.05 0.999955 22.05V21.95C0.498365 21.95 0.0999878 21.5811 0.0999878 21.1357H-1.22078e-05ZM-1.22078e-05 19.3215V21.1357H0.0999878V19.3215H-1.22078e-05ZM4.79982 14.95C2.1535 14.95 -1.22078e-05 16.9029 -1.22078e-05 19.3215H0.0999878C0.0999878 16.9668 2.19962 15.05 4.79982 15.05V14.95ZM14.3002 14.95H4.79982V15.05H14.3002V14.95ZM19.1 19.3215C19.1 16.9029 16.9465 14.95 14.3002 14.95V15.05C16.9004 15.05 19 16.9668 19 19.3215H19.1ZM19.1 21.1357V19.3215H19V21.1357H19.1ZM18.1 22.05C18.6477 22.05 19.1 21.645 19.1 21.1357H19C19 21.5811 18.6016 21.95 18.1 21.95V22.05ZM0.999955 22.05H18.1V21.95H0.999955V22.05ZM23.5124 8.31473L20.5277 7.0356L20.4884 7.12751L23.473 8.40665L23.5124 8.31473ZM24.1793 9.63088C24.3108 9.06747 24.0047 8.5257 23.5124 8.31473L23.473 8.40665C23.923 8.59949 24.2019 9.09432 24.082 9.60815L24.1793 9.63088ZM23.0956 12.5731C23.6469 11.4912 24.0059 10.3741 24.1793 9.63088L24.082 9.60815C23.9101 10.3447 23.5537 11.454 23.0065 12.5276L23.0956 12.5731ZM20.6733 15.4504C21.7727 14.7823 22.5602 13.6236 23.0956 12.5731L23.0065 12.5276C22.4741 13.5724 21.6971 14.7112 20.6214 15.3649L20.6733 15.4504ZM20.1125 15.6126C20.3106 15.6125 20.5059 15.5562 20.6741 15.4499L20.6207 15.3654C20.4685 15.4615 20.2917 15.5125 20.1124 15.5126L20.1125 15.6126ZM19.5509 15.4499C19.7191 15.5562 19.9144 15.6125 20.1124 15.6126L20.1125 15.5126C19.9333 15.5125 19.7565 15.4615 19.6043 15.3654L19.5509 15.4499ZM17.1294 12.5731C17.6648 13.6236 18.4523 14.7823 19.5516 15.4504L19.6036 15.3649C18.5279 14.7112 17.7509 13.5724 17.2185 12.5276L17.1294 12.5731ZM16.0456 9.63088C16.2191 10.3741 16.578 11.4912 17.1294 12.5731L17.2185 12.5276C16.6713 11.454 16.3149 10.3447 16.143 9.60815L16.0456 9.63088ZM16.7126 8.31473C16.2203 8.5257 15.9142 9.06747 16.0456 9.63088L16.143 9.60815C16.0231 9.09432 16.302 8.59949 16.752 8.40665L16.7126 8.31473ZM19.6972 7.0356L16.7126 8.31473L16.752 8.40665L19.7366 7.12752L19.6972 7.0356ZM19.7077 7.03114L19.6974 7.03552L19.7364 7.12759L19.7468 7.12321L19.7077 7.03114ZM20.1125 6.94974C19.9774 6.94968 19.8401 6.97584 19.708 7.03104L19.7465 7.12332C19.8662 7.07332 19.9904 7.04968 20.1125 7.04974L20.1125 6.94974ZM20.517 7.03104C20.3848 6.97584 20.2476 6.94968 20.1125 6.94974L20.1125 7.04974C20.2346 7.04968 20.3587 7.07332 20.4785 7.12332L20.517 7.03104ZM20.5276 7.03552L20.5172 7.03114L20.4782 7.12321L20.4885 7.12759L20.5276 7.03552ZM21.2246 11.6195C20.8841 12.2876 20.4944 12.8603 20.0776 13.2653L20.1473 13.337C20.5746 12.9219 20.9702 12.3389 21.3137 11.6649L21.2246 11.6195ZM21.9341 9.87399C21.7677 10.3997 21.5305 11.0193 21.2246 11.6195L21.3137 11.6649C21.6225 11.0589 21.8617 10.434 22.0294 9.90418L21.9341 9.87399ZM20.0928 9.13392L21.9621 9.93504L22.0015 9.84313L20.1322 9.04201L20.0928 9.13392ZM20.1625 13.3011V9.08796H20.0625V13.3011H20.1625Z" fill="#758CA3"/>
</svg>
