<svg width="24" height="24" viewBox="0 0 24 24" fill="none" xmlns="http://www.w3.org/2000/svg">
<path fill-rule="evenodd" clip-rule="evenodd" d="M9.5 2C12.5376 2 15 4.46243 15 7.5C15 10.5376 12.5376 13 9.5 13C6.46243 13 4 10.5376 4 7.5C4 4.46243 6.46243 2 9.5 2ZM0.949967 22C0.425315 22 0 21.613 0 21.1357V19.3215C0 16.9348 2.12657 15 4.74983 15H14.2502C16.8734 15 19 16.9348 19 19.3215V21.1357C19 21.613 18.5747 22 18.05 22H0.949967ZM18 10.5C17.4477 10.5 17 10.9477 17 11.5C17 12.0523 17.4477 12.5 18 12.5H23C23.5523 12.5 24 12.0523 24 11.5C24 10.9477 23.5523 10.5 23 10.5H18Z" fill="#758CA3"/>
</svg>
