<svg width="24" height="24" viewBox="0 0 24 24" fill="none" xmlns="http://www.w3.org/2000/svg">
<path fill-rule="evenodd" clip-rule="evenodd" d="M18 9C18 11.7958 16.0878 14.1449 13.5 14.811V16.5H14C14.8284 16.5 15.5 17.1716 15.5 18C15.5 18.8284 14.8284 19.5 14 19.5H13.5V20.5C13.5 21.3284 12.8284 22 12 22C11.1716 22 10.5 21.3284 10.5 20.5V19.5H10C9.17157 19.5 8.5 18.8284 8.5 18C8.5 17.1716 9.17157 16.5 10 16.5H10.5V14.811C7.91216 14.1449 6 11.7958 6 9C6 5.68629 8.68629 3 12 3C15.3137 3 18 5.68629 18 9ZM12 12C13.6569 12 15 10.6569 15 9C15 7.34315 13.6569 6 12 6C10.3431 6 9 7.34315 9 9C9 10.6569 10.3431 12 12 12Z" fill="#758CA3"/>
</svg>
