<svg width="24" height="24" viewBox="0 0 24 24" fill="none" xmlns="http://www.w3.org/2000/svg">
<path fill-rule="evenodd" clip-rule="evenodd" d="M14 9C14 11.7958 12.0878 14.1449 9.5 14.811V16.5H10C10.8284 16.5 11.5 17.1716 11.5 18C11.5 18.8284 10.8284 19.5 10 19.5H9.5V20.5C9.5 21.3284 8.82843 22 8 22C7.17157 22 6.5 21.3284 6.5 20.5V19.5H6C5.17157 19.5 4.5 18.8284 4.5 18C4.5 17.1716 5.17157 16.5 6 16.5H6.5V14.811C3.91216 14.1449 2 11.7958 2 9C2 5.68629 4.68629 3 8 3C11.3137 3 14 5.68629 14 9ZM11 9C11 10.6569 9.65685 12 8 12C6.34315 12 5 10.6569 5 9C5 7.34315 6.34315 6 8 6C9.65685 6 11 7.34315 11 9Z" fill="#758CA3"/>
<path d="M15.4394 11.9477C15.0498 12.93 14.4714 13.8169 13.7488 14.5634C14.023 14.6745 14.3073 14.7658 14.6 14.8358V16.5H14C13.1716 16.5 12.5 17.1716 12.5 18C12.5 18.8284 13.1716 19.5 14 19.5H14.6V20.5C14.6 21.3284 15.2715 22 16.1 22C16.9284 22 17.6 21.3284 17.6 20.5V19.5H18C18.8284 19.5 19.5 18.8284 19.5 18C19.5 17.1716 18.8284 16.5 18 16.5H17.6V14.7843C20.1369 14.0841 22 11.7596 22 9C22 5.68629 19.3137 3 16 3C15.2038 3 14.4439 3.15506 13.7488 3.43662C14.4714 4.18313 15.0498 5.06996 15.4394 6.05228C15.621 6.01796 15.8084 6 16 6C17.6568 6 19 7.34315 19 9C19 10.6569 17.6568 12 16 12C15.8084 12 15.621 11.982 15.4394 11.9477Z" fill="#758CA3"/>
</svg>
