<svg width="24" height="24" viewBox="0 0 24 24" fill="none" xmlns="http://www.w3.org/2000/svg">
<path fill-rule="evenodd" clip-rule="evenodd" d="M0 2.5C0 1.67157 0.671573 1 1.5 1H22.5C23.3284 1 24 1.67157 24 2.5C24 3.32843 23.3284 4 22.5 4H1.5C0.671573 4 0 3.32843 0 2.5ZM0 7.5C0 6.67157 0.671573 6 1.5 6H22.5C23.3284 6 24 6.67157 24 7.5C24 8.32843 23.3284 9 22.5 9H1.5C0.671573 9 0 8.32843 0 7.5ZM0 12.5C0 11.6716 0.671573 11 1.5 11H22.5C23.3284 11 24 11.6716 24 12.5C24 13.3284 23.3284 14 22.5 14H1.5C0.671573 14 0 13.3284 0 12.5ZM0 17.5C0 16.6716 0.671573 16 1.5 16H22.5C23.3284 16 24 16.6716 24 17.5C24 18.3284 23.3284 19 22.5 19H1.5C0.671573 19 0 18.3284 0 17.5ZM0 22.5C0 21.6716 0.671573 21 1.5 21H22.5C23.3284 21 24 21.6716 24 22.5C24 23.3284 23.3284 24 22.5 24H1.5C0.671573 24 0 23.3284 0 22.5Z" fill="#758CA3"/>
</svg>
