<svg width="24" height="24" viewBox="0 0 24 24" fill="none" xmlns="http://www.w3.org/2000/svg">
<path d="M13.5 9.08589V3.30132C13.5 1.55256 11.4138 0.646005 10.1354 1.83922L4.60584 7.00011H1C0.447715 7.00011 0 7.44783 0 8.00011V16.0001C0 16.5524 0.447715 17.0001 1 17.0001H4.60584L5.1127 17.4732L2.29289 20.293C1.90237 20.6835 1.90237 21.3167 2.29289 21.7072C2.68342 22.0977 3.31658 22.0977 3.70711 21.7072L21.7071 3.70721C22.0976 3.31669 22.0976 2.68352 21.7071 2.293C21.3166 1.90248 20.6834 1.90248 20.2929 2.293L13.5 9.08589Z" fill="#758CA3"/>
<path d="M13.5 14.7143L8.02396 20.1904L10.1354 22.161C11.4138 23.3542 13.5 22.4477 13.5 20.6989V14.7143Z" fill="#758CA3"/>
<path d="M17.7563 10.4581L19.2887 8.92564C19.7574 9.88434 20.0016 10.9396 20 12.0109C19.9981 13.2415 19.6718 14.4498 19.0541 15.5141C18.4363 16.5784 17.5489 17.4611 16.4813 18.0731C16.0021 18.3477 15.391 18.182 15.1164 17.7028C14.8417 17.2237 15.0075 16.6126 15.4866 16.3379C16.2492 15.9008 16.8831 15.2703 17.3243 14.5101C17.7656 13.7499 17.9986 12.8868 18 12.0078C18.0008 11.4795 17.9179 10.9566 17.7563 10.4581Z" fill="#758CA3"/>
<path d="M20.7977 7.50611L20.7648 7.44952L22.2174 5.99688C22.3262 6.16393 22.4306 6.33417 22.5305 6.50745C23.4961 8.1829 24.003 10.0833 24 12.0171C23.997 13.9509 23.4843 15.8497 22.5135 17.5221C21.5427 19.1946 20.1482 20.5816 18.4705 21.5433C17.9914 21.818 17.3803 21.6522 17.1057 21.1731C16.831 20.6939 16.9968 20.0828 17.4759 19.8082C18.8485 19.0213 19.9895 17.8865 20.7838 16.5181C21.578 15.1498 21.9975 13.5962 22 12.014C22.0024 10.4318 21.5877 8.87694 20.7977 7.50611Z" fill="#758CA3"/>
</svg>
