<svg width="24" height="24" viewBox="0 0 24 24" fill="none" xmlns="http://www.w3.org/2000/svg">
<path fill-rule="evenodd" clip-rule="evenodd" d="M22.0208 11.0001C23.1158 11.0113 24 11.9024 24 13V15C24 16.0976 23.1158 16.9887 22.0208 16.9999V19C22.0208 20.6569 20.6777 22 19.0208 22H3.01666C1.36224 22 0.0201073 20.6607 0.016662 19.0058C0.00948531 14.697 0.00905352 14.4378 0.00499359 12H0V5C0 3.34315 1.34315 2 3 2H16.025C17.6818 2 19.025 3.34315 19.0249 5.01249L19.0126 6H19.0208C20.6777 6 22.0208 7.34315 22.0208 9V11.0001ZM2 5C2 5.55228 2.44772 6 3 6H17.0125L17.025 5C17.025 4.44772 16.5773 4 16.025 4H3C2.44772 4 2 4.44772 2 5ZM19 13V15H22V13H19Z" fill="#758CA3"/>
</svg>
