<svg width="24" height="24" viewBox="0 0 24 24" fill="none" xmlns="http://www.w3.org/2000/svg">
<path fill-rule="evenodd" clip-rule="evenodd" d="M16.3787 14.5L15.9393 14.0607C15.3536 13.4749 15.3536 12.5251 15.9393 11.9393C16.5251 11.3536 17.4749 11.3536 18.0607 11.9393L21.0607 14.9393C21.6464 15.5251 21.6464 16.4749 21.0607 17.0607L18.0607 20.0607C17.4749 20.6464 16.5251 20.6464 15.9393 20.0607C15.3536 19.4749 15.3536 18.5251 15.9393 17.9393L16.3787 17.5H7.5C5.29086 17.5 3.5 15.7091 3.5 13.5C3.5 11.2909 5.29086 9.5 7.5 9.5H12.5C13.0523 9.5 13.5 9.05228 13.5 8.5C13.5 7.94772 13.0523 7.5 12.5 7.5H5C4.17157 7.5 3.5 6.82843 3.5 6C3.5 5.17157 4.17157 4.5 5 4.5H12.5C14.7091 4.5 16.5 6.29086 16.5 8.5C16.5 10.7091 14.7091 12.5 12.5 12.5H7.5C6.94772 12.5 6.5 12.9477 6.5 13.5C6.5 14.0523 6.94772 14.5 7.5 14.5H16.3787Z" fill="#758CA3"/>
</svg>
