<svg width="24" height="24" viewBox="0 0 24 24" fill="none" xmlns="http://www.w3.org/2000/svg">
<path fill-rule="evenodd" clip-rule="evenodd" d="M23.4593 6.63137C23.1843 5.59561 22.3738 4.77987 21.3447 4.50304C19.4795 4 12 4 12 4C12 4 4.52059 4 2.65529 4.50304C1.62622 4.77991 0.815739 5.59561 0.540659 6.63137C0.040863 8.50876 0.040863 12.4258 0.040863 12.4258C0.040863 12.4258 0.040863 16.3427 0.540659 18.2201C0.815739 19.2559 1.62622 20.0376 2.65529 20.3145C4.52059 20.8175 12 20.8175 12 20.8175C12 20.8175 19.4794 20.8175 21.3447 20.3145C22.3738 20.0376 23.1843 19.2559 23.4593 18.2201C23.9591 16.3427 23.9591 12.4258 23.9591 12.4258C23.9591 12.4258 23.9591 8.50876 23.4593 6.63137ZM9.5538 15.9821V8.86942L15.8051 12.4258L9.5538 15.9821Z" fill="#758CA3"/>
</svg>
