<svg width="24" height="24" viewBox="0 0 24 24" fill="none" xmlns="http://www.w3.org/2000/svg">
<path fill-rule="evenodd" clip-rule="evenodd" d="M4 5C3.44772 5 3 4.55228 3 4C3 3.44772 3.44772 3 4 3H20C20.5523 3 21 3.44772 21 4C21 4.55228 20.5523 5 20 5H4ZM7 9C6.44772 9 6 8.55228 6 8C6 7.44772 6.44772 7 7 7H18C18.5523 7 19 7.44772 19 8C19 8.55228 18.5523 9 18 9H7ZM6 13C5.44772 13 5 12.5523 5 12C5 11.4477 5.44772 11 6 11H19C19.5523 11 20 11.4477 20 12C20 12.5523 19.5523 13 19 13H6ZM4 17C3.44772 17 3 16.5523 3 16C3 15.4477 3.44772 15 4 15H20C20.5523 15 21 15.4477 21 16C21 16.5523 20.5523 17 20 17H4ZM7 21C6.44772 21 6 20.5523 6 20C6 19.4477 6.44772 19 7 19H18C18.5523 19 19 19.4477 19 20C19 20.5523 18.5523 21 18 21H7Z" fill="#758CA3"/>
</svg>
