<svg width="24" height="24" viewBox="0 0 24 24" fill="none" xmlns="http://www.w3.org/2000/svg">
<path fill-rule="evenodd" clip-rule="evenodd" d="M7 7H16C16.5523 7 17 7.44772 17 8C17 8.55228 16.5523 9 16 9H7C6.44772 9 6 8.55228 6 8C6 7.44772 6.44772 7 7 7ZM7 11H13C13.5523 11 14 11.4477 14 12C14 12.5523 13.5523 13 13 13H7C6.44772 13 6 12.5523 6 12C6 11.4477 6.44772 11 7 11ZM7 15H17C17.5523 15 18 15.4477 18 16C18 16.5523 17.5523 17 17 17H7C6.44772 17 6 16.5523 6 16C6 15.4477 6.44772 15 7 15Z" fill="#758CA3"/>
</svg>
