<svg width="24" height="24" viewBox="0 0 24 24" fill="none" xmlns="http://www.w3.org/2000/svg">
<path fill-rule="evenodd" clip-rule="evenodd" d="M3 5C2.44772 5 2 4.55228 2 4C2 3.44772 2.44772 3 3 3H21C21.5523 3 22 3.44772 22 4C22 4.55228 21.5523 5 21 5H3ZM6 9C5.44772 9 5 8.55228 5 8C5 7.44772 5.44772 7 6 7H21C21.5523 7 22 7.44772 22 8C22 8.55228 21.5523 9 21 9H6ZM4 13C3.44772 13 3 12.5523 3 12C3 11.4477 3.44772 11 4 11H21C21.5523 11 22 11.4477 22 12C22 12.5523 21.5523 13 21 13H4ZM3 17C2.44772 17 2 16.5523 2 16C2 15.4477 2.44772 15 3 15H21C21.5523 15 22 15.4477 22 16C22 16.5523 21.5523 17 21 17H3ZM6 21C5.44772 21 5 20.5523 5 20C5 19.4477 5.44772 19 6 19H21C21.5523 19 22 19.4477 22 20C22 20.5523 21.5523 21 21 21H6Z" fill="#758CA3"/>
</svg>
