<svg width="24" height="24" viewBox="0 0 24 24" fill="none" xmlns="http://www.w3.org/2000/svg">
<path fill-rule="evenodd" clip-rule="evenodd" d="M8 7H17C17.5523 7 18 7.44772 18 8C18 8.55228 17.5523 9 17 9H8C7.44772 9 7 8.55228 7 8C7 7.44772 7.44772 7 8 7ZM11 11H17C17.5523 11 18 11.4477 18 12C18 12.5523 17.5523 13 17 13H11C10.4477 13 10 12.5523 10 12C10 11.4477 10.4477 11 11 11ZM7 15H17C17.5523 15 18 15.4477 18 16C18 16.5523 17.5523 17 17 17H7C6.44772 17 6 16.5523 6 16C6 15.4477 6.44772 15 7 15Z" fill="#758CA3"/>
</svg>
