<svg width="24" height="24" viewBox="0 0 24 24" fill="none" xmlns="http://www.w3.org/2000/svg">
<path fill-rule="evenodd" clip-rule="evenodd" d="M4 15C3.44772 15 3 15.4477 3 16V21C3 21.5523 3.44772 22 4 22C4.55228 22 5 21.5523 5 21V16C5 15.4477 4.55228 15 4 15ZM4 13C5.65685 13 7 14.3431 7 16V21C7 22.6569 5.65685 24 4 24C2.34315 24 1 22.6569 1 21V16C1 14.3431 2.34315 13 4 13ZM12 0C13.6569 0 15 1.34315 15 3V21C15 22.6569 13.6569 24 12 24C10.3431 24 9 22.6569 9 21V3C9 1.34315 10.3431 0 12 0ZM12 2C11.4477 2 11 2.44772 11 3V21C11 21.5523 11.4477 22 12 22C12.5523 22 13 21.5523 13 21V3C13 2.44772 12.5523 2 12 2ZM20 7C21.6569 7 23 8.34315 23 10V21C23 22.6569 21.6569 24 20 24C18.3431 24 17 22.6569 17 21V10C17 8.34315 18.3431 7 20 7ZM20 9C19.4477 9 19 9.44771 19 10V21C19 21.5523 19.4477 22 20 22C20.5523 22 21 21.5523 21 21V10C21 9.44771 20.5523 9 20 9Z" fill="#758CA3"/>
</svg>
