<svg width="24" height="24" viewBox="0 0 24 24" fill="none" xmlns="http://www.w3.org/2000/svg">
<path fill-rule="evenodd" clip-rule="evenodd" d="M8.42309 8.61538C8.26782 8.24274 7.90372 8 7.50002 8C7.09632 8 6.73221 8.24274 6.57694 8.61538L4.07694 14.6154C3.86452 15.1252 4.1056 15.7107 4.6154 15.9231C5.1252 16.1355 5.71068 15.8944 5.92309 15.3846L6.08335 15H8.91668L9.07694 15.3846C9.28936 15.8944 9.87483 16.1355 10.3846 15.9231C10.8944 15.7107 11.1355 15.1252 10.9231 14.6154L8.42309 8.61538ZM8.08335 13L7.50002 11.6L6.91668 13H8.08335Z" fill="#758CA3"/>
<path fill-rule="evenodd" clip-rule="evenodd" d="M13 9C13 8.44772 13.4477 8 14 8H16C17.6569 8 19 9.34315 19 11V13C19 14.6569 17.6569 16 16 16H14C13.4477 16 13 15.5523 13 15V9ZM15 10V14H16C16.5523 14 17 13.5523 17 13V11C17 10.4477 16.5523 10 16 10H15Z" fill="#758CA3"/>
<path fill-rule="evenodd" clip-rule="evenodd" d="M0 5C0 3.89543 0.895431 3 2 3H22C23.1046 3 24 3.89543 24 5V19C24 20.1046 23.1046 21 22 21H2C0.89543 21 0 20.1046 0 19V5ZM2 5H22V19H2L2 5Z" fill="#758CA3"/>
</svg>
