<svg width="24" height="24" viewBox="0 0 24 24" fill="none" xmlns="http://www.w3.org/2000/svg">
<path fill-rule="evenodd" clip-rule="evenodd" d="M6.16978 5.34677L9.94871 16.6836C10.1061 17.1557 9.89235 17.6716 9.44725 17.8942L8.57775 18.3289C6.32556 19.455 3.67462 19.455 1.42243 18.3289L0.552933 17.8942C0.107827 17.6716 -0.105899 17.1557 0.0514698 16.6836L3.71242 5.7007C3.20706 5.78615 2.70167 5.87942 2.19624 5.9805C1.65469 6.08882 1.12787 5.7376 1.01956 5.19605C0.91125 4.6545 1.26246 4.12768 1.80401 4.01937C4.86842 3.40649 7.93397 3.06988 11 3.00977V1.99997C11 1.4477 11.4477 0.999987 12 0.999987C12.5523 0.999987 13 1.4477 13 1.99997V3.00977C16.066 3.06988 19.1316 3.40649 22.196 4.01937C22.7375 4.12768 23.0888 4.6545 22.9804 5.19605C22.8721 5.7376 22.3453 6.08882 21.8038 5.9805C21.2983 5.87942 20.7929 5.78615 20.2876 5.7007L23.9485 16.6836C24.1059 17.1557 23.8922 17.6716 23.4471 17.8942L22.5776 18.3289C20.3254 19.455 17.6744 19.455 15.4222 18.3289L14.5528 17.8942C14.1076 17.6716 13.8939 17.1557 14.0513 16.6836L17.8302 5.34677C16.2199 5.15519 14.6099 5.043 13 5.01014V20.9997H16C16.5522 20.9997 16.9999 21.4474 16.9999 21.9997C16.9999 22.552 16.5522 22.9997 16 22.9997H8.00005C7.44777 22.9997 7.00006 22.552 7.00006 21.9997C7.00006 21.4474 7.44777 20.9997 8.00005 20.9997H11V5.01014C9.39012 5.043 7.78008 5.15519 6.16978 5.34677ZM21.7769 16.4932L18.9999 8.16217L16.2229 16.4932L16.3167 16.5401C18.0058 17.3847 19.994 17.3847 21.6832 16.5401L21.7769 16.4932ZM5.00009 8.16217L2.22307 16.4932L2.31684 16.5401C4.00599 17.3847 5.99419 17.3847 7.68334 16.5401L7.77711 16.4932L5.00009 8.16217Z" fill="#758CA3"/>
</svg>
