<svg width="24" height="24" viewBox="0 0 24 24" fill="none" xmlns="http://www.w3.org/2000/svg">
<path fill-rule="evenodd" clip-rule="evenodd" d="M7 13H8C8.55229 13 9 13.4477 9 14V16C9 16.5523 8.55229 17 8 17H7C6.44772 17 6 16.5523 6 16V14C6 13.4477 6.44772 13 7 13ZM7 5H8C8.55229 5 9 5.44772 9 6V8C9 8.55228 8.55229 9 8 9H7C6.44772 9 6 8.55228 6 8V6C6 5.44772 6.44772 5 7 5ZM3 13C3.55228 13 4 13.4477 4 14V18C4 18.5523 3.55228 19 3 19C2.44772 19 2 18.5523 2 18V14C2 13.4477 2.44772 13 3 13ZM3 5C3.55228 5 4 5.44772 4 6V8C4 8.55228 3.55228 9 3 9C2.44772 9 2 8.55228 2 8V6C2 5.44772 2.44772 5 3 5ZM1 10H23C23.5523 10 24 10.4477 24 11C24 11.5523 23.5523 12 23 12H1C0.447715 12 0 11.5523 0 11C0 10.4477 0.447715 10 1 10ZM12 13C12.5523 13 13 13.4477 13 14V16C13 16.5523 12.5523 17 12 17C11.4477 17 11 16.5523 11 16V14C11 13.4477 11.4477 13 12 13ZM12 5C12.5523 5 13 5.44772 13 6V8C13 8.55228 12.5523 9 12 9C11.4477 9 11 8.55228 11 8V6C11 5.44772 11.4477 5 12 5ZM16 13H17C17.5523 13 18 13.4477 18 14V16C18 16.5523 17.5523 17 17 17H16C15.4477 17 15 16.5523 15 16V14C15 13.4477 15.4477 13 16 13ZM16 5H17C17.5523 5 18 5.44772 18 6V8C18 8.55228 17.5523 9 17 9H16C15.4477 9 15 8.55228 15 8V6C15 5.44772 15.4477 5 16 5ZM21 13C21.5523 13 22 13.4477 22 14V18C22 18.5523 21.5523 19 21 19C20.4477 19 20 18.5523 20 18V14C20 13.4477 20.4477 13 21 13ZM21 5C21.5523 5 22 5.44772 22 6V8C22 8.55228 21.5523 9 21 9C20.4477 9 20 8.55228 20 8V6C20 5.44772 20.4477 5 21 5Z" fill="#758CA3"/>
</svg>
