<svg width="24" height="24" viewBox="0 0 24 24" fill="none" xmlns="http://www.w3.org/2000/svg">
<path fill-rule="evenodd" clip-rule="evenodd" d="M7 5H8C8.55228 5 9 5.44772 9 6V16C9 16.5523 8.55228 17 8 17H7C6.44772 17 6 16.5523 6 16V6C6 5.44772 6.44772 5 7 5ZM3 5C3.55228 5 4 5.44772 4 6V18C4 18.5523 3.55228 19 3 19C2.44772 19 2 18.5523 2 18V6C2 5.44772 2.44772 5 3 5ZM12 5C12.5523 5 13 5.44772 13 6V16C13 16.5523 12.5523 17 12 17C11.4477 17 11 16.5523 11 16V6C11 5.44772 11.4477 5 12 5ZM16 5H17C17.5523 5 18 5.44772 18 6V16C18 16.5523 17.5523 17 17 17H16C15.4477 17 15 16.5523 15 16V6C15 5.44772 15.4477 5 16 5ZM21 5C21.5523 5 22 5.44772 22 6V18C22 18.5523 21.5523 19 21 19C20.4477 19 20 18.5523 20 18V6C20 5.44772 20.4477 5 21 5Z" fill="#758CA3"/>
</svg>
