<svg width="24" height="24" viewBox="0 0 24 24" fill="none" xmlns="http://www.w3.org/2000/svg">
<path fill-rule="evenodd" clip-rule="evenodd" d="M6.85714 9C6.38376 9 6 8.55228 6 8C6 7.44772 6.38376 7 6.85714 7H17.1429C17.6162 7 18 7.44772 18 8C18 8.55228 17.6162 9 17.1429 9H6.85714ZM6.85714 13C6.38376 13 6 12.5523 6 12C6 11.4477 6.38376 11 6.85714 11H17.1429C17.6162 11 18 11.4477 18 12C18 12.5523 17.6162 13 17.1429 13H6.85714ZM6.85714 17C6.38376 17 6 16.5523 6 16C6 15.4477 6.38376 15 6.85714 15H17.1429C17.6162 15 18 15.4477 18 16C18 16.5523 17.6162 17 17.1429 17H6.85714Z" fill="#758CA3"/>
</svg>
