<svg width="24" height="24" viewBox="0 0 24 24" fill="none" xmlns="http://www.w3.org/2000/svg">
<path fill-rule="evenodd" clip-rule="evenodd" d="M6.94999 6H18.1341C18.2006 5.88484 18.2903 5.78262 18.3994 5.70062C18.7755 5.41814 19 4.97866 19 4.5C19 3.67157 18.3284 3 17.5 3C17.0934 3 16.7148 3.16122 16.4342 3.44449C15.9436 3.93987 15.1093 3.79369 14.8163 3.161C14.4911 2.45871 13.7874 2 13 2C12.2406 2 11.5579 2.42639 11.2179 3.09086C10.9233 3.66653 10.1681 3.81547 9.67701 3.39475C9.39199 3.15055 8.96799 3 8.5 3C7.7736 3 7.18664 3.36112 7.03637 3.78943C6.82067 4.40423 6.08406 4.65187 5.54077 4.29222C5.26157 4.1074 4.89567 4 4.5 4C3.62866 4 3 4.50293 3 5V6.5C3 7.32843 3.67157 8 4.5 8C5.21646 8 5.82945 7.49333 5.96998 6.80107C6.06459 6.33497 6.47439 6 6.94999 6ZM18 8H7.66332C7.09707 9.19384 5.88159 10 4.5 10C4.33024 10 4.1633 9.98791 4 9.96456V22H18V8ZM2 8.94949C1.38141 8.31822 1 7.45365 1 6.5V5C1 3.28793 2.60991 2 4.5 2C4.91773 2 5.32603 2.06259 5.70875 2.18228C6.36045 1.44586 7.38868 1 8.5 1C9.04317 1 9.56979 1.106 10.0441 1.30452C10.787 0.489943 11.85 0 13 0C14.1691 0 15.2465 0.506365 15.9897 1.34191C16.4537 1.11979 16.9678 1 17.5 1C19.433 1 21 2.567 21 4.5C21 5.43248 20.632 6.30511 20 6.94967V9H21C22.6569 9 24 10.3431 24 12V17C24 18.6569 22.6569 20 21 20H20V22C20 23.1046 19.1046 24 18 24H4C2.89543 24 2 23.1046 2 22V8.94949ZM20 11V18H21C21.5523 18 22 17.5523 22 17V12C22 11.4477 21.5523 11 21 11H20ZM6 12C6 11.4477 6.44772 11 7 11C7.55228 11 8 11.4477 8 12V18C8 18.5523 7.55228 19 7 19C6.44772 19 6 18.5523 6 18V12ZM10 12C10 11.4477 10.4477 11 11 11C11.5523 11 12 11.4477 12 12V18C12 18.5523 11.5523 19 11 19C10.4477 19 10 18.5523 10 18V12ZM14 12C14 11.4477 14.4477 11 15 11C15.5523 11 16 11.4477 16 12V18C16 18.5523 15.5523 19 15 19C14.4477 19 14 18.5523 14 18V12Z" fill="#758CA3"/>
</svg>
