<svg width="24" height="24" viewBox="0 0 24 24" fill="none" xmlns="http://www.w3.org/2000/svg">
<path fill-rule="evenodd" clip-rule="evenodd" d="M5 3C4.44772 3 4 2.55228 4 2C4 1.44772 4.44772 1 5 1H12C15.3137 1 18 3.68629 18 7C18 8.72715 17.2702 10.2839 16.1022 11.3786C18.3791 12.2304 20 14.4259 20 17C20 20.3137 17.3137 23 14 23H5C4.44772 23 4 22.5523 4 22C4 21.4477 4.44772 21 5 21V3ZM7 3V11H12C14.2091 11 16 9.20914 16 7C16 4.79086 14.2091 3 12 3H7ZM7 13V21H14C16.2091 21 18 19.2091 18 17C18 14.7909 16.2091 13 14 13H7Z" fill="#758CA3"/>
</svg>
