<svg width="24" height="24" viewBox="0 0 24 24" fill="none" xmlns="http://www.w3.org/2000/svg">
<path fill-rule="evenodd" clip-rule="evenodd" d="M10 11H13C13.5523 11 14 10.5523 14 10V9C14 8.44772 13.5523 8 13 8H10V11ZM10 16H14C14.5523 16 15 15.5523 15 15V14C15 13.4477 14.5523 13 14 13H10V16ZM8 16V8C7.44772 8 7 7.55228 7 7C7 6.44772 7.44772 6 8 6H13C14.6569 6 16 7.34315 16 9V10C16 10.5347 15.8601 11.0366 15.615 11.4714C16.4479 12.0044 17 12.9377 17 14V15C17 16.6569 15.6569 18 14 18H8C7.44772 18 7 17.5523 7 17C7 16.4477 7.44772 16 8 16Z" fill="#758CA3"/>
</svg>
