<svg width="24" height="24" viewBox="0 0 24 24" fill="none" xmlns="http://www.w3.org/2000/svg">
<path fill-rule="evenodd" clip-rule="evenodd" d="M8 4V3C8 1.89543 8.89543 1 10 1H14C15.1046 1 16 1.89543 16 3H20C21.1046 3 22 3.89543 22 5V21C22 22.1046 21.1046 23 20 23H16C15.6357 23 15.2942 22.9026 15 22.7324C14.7058 22.9026 14.3643 23 14 23H10C9.63571 23 9.29417 22.9026 9 22.7324C8.70583 22.9026 8.36429 23 8 23H4C2.89543 23 2 22.1046 2 21V6C2 4.89543 2.89543 4 4 4H8ZM8 6H4V21H8V6ZM16 21H20V5H16V21ZM10 3V21H14V3H10ZM5 15C5 14.4477 5.44772 14 6 14C6.55228 14 7 14.4477 7 15V19C7 19.5523 6.55228 20 6 20C5.44772 20 5 19.5523 5 19V15ZM11 13C11 12.4477 11.4477 12 12 12C12.5523 12 13 12.4477 13 13V19C13 19.5523 12.5523 20 12 20C11.4477 20 11 19.5523 11 19V13ZM17 17C17 16.4477 17.4477 16 18 16C18.5523 16 19 16.4477 19 17V19C19 19.5523 18.5523 20 18 20C17.4477 20 17 19.5523 17 19V17Z" fill="#758CA3"/>
</svg>
