<svg width="24" height="24" viewBox="0 0 24 24" fill="none" xmlns="http://www.w3.org/2000/svg">
<path fill-rule="evenodd" clip-rule="evenodd" d="M3 21H2C1.44772 21 1 20.5523 1 20C1 19.4477 1.44772 19 2 19H3V17H2C1.44772 17 1 16.5523 1 16C1 15.4477 1.44772 15 2 15H3V13H2C1.44772 13 1 12.5523 1 12C1 11.4477 1.44772 11 2 11H3V9H2C1.44772 9 1 8.55229 1 8C1 7.44772 1.44772 7 2 7H3V5H2C1.44772 5 1 4.55228 1 4C1 3.44772 1.44772 3 2 3H3C3 1.34315 4.34315 0 6 0H19C20.6569 0 22 1.34315 22 3V21C22 22.6569 20.6569 24 19 24H6C4.34315 24 3 22.6569 3 21ZM18 22H19C19.5523 22 20 21.5523 20 21V3C20 2.44772 19.5523 2 19 2H6C5.44772 2 5 2.44772 5 3V21C5 21.5523 5.44772 22 6 22H7V19C7 16.7909 8.79086 15 11 15H14C16.2091 15 18 16.7909 18 19V22ZM16 22V19C16 17.8954 15.1046 17 14 17H11C9.89543 17 9 17.8954 9 19V22H16ZM12.5 5C14.9853 5 17 7.01472 17 9.5C17 11.9853 14.9853 14 12.5 14C10.0147 14 8 11.9853 8 9.5C8 7.01472 10.0147 5 12.5 5ZM12.5 7C11.1193 7 10 8.11929 10 9.5C10 10.8807 11.1193 12 12.5 12C13.8807 12 15 10.8807 15 9.5C15 8.11929 13.8807 7 12.5 7Z" fill="#758CA3"/>
</svg>
