<svg width="24" height="24" viewBox="0 0 24 24" fill="none" xmlns="http://www.w3.org/2000/svg">
<path fill-rule="evenodd" clip-rule="evenodd" d="M8 5H2V19H22V5H16V11.382C16 11.9343 15.5523 12.382 15 12.382C14.8448 12.382 14.6916 12.3458 14.5528 12.2764L12 11L9.44721 12.2764C8.95324 12.5234 8.35256 12.3232 8.10557 11.8292C8.03615 11.6903 8 11.5372 8 11.382V5ZM2 3H22C23.1046 3 24 3.89543 24 5V19C24 20.1046 23.1046 21 22 21H2C0.89543 21 0 20.1046 0 19V5C0 3.89543 0.89543 3 2 3ZM10 5V9.76393L11.1056 9.21115C11.6686 8.92962 12.3314 8.92962 12.8944 9.21115L14 9.76393V5H10Z" fill="#758CA3"/>
</svg>
