<svg width="24" height="24" viewBox="0 0 24 24" fill="none" xmlns="http://www.w3.org/2000/svg">
<path fill-rule="evenodd" clip-rule="evenodd" d="M20 8V9C20 9.55228 19.5523 10 19 10C18.4477 10 18 9.55228 18 9V8H6V9C6 9.55228 5.55228 10 5 10C4.44772 10 4 9.55228 4 9V8H3C2.44772 8 2 8.44772 2 9V19C2 19.5523 2.44772 20 3 20H21C21.5523 20 22 19.5523 22 19V9C22 8.44772 21.5523 8 21 8H20ZM7 6V4C7 2.89543 7.89543 2 9 2H15C16.1046 2 17 2.89543 17 4V6H21C22.6569 6 24 7.34315 24 9V19C24 20.6569 22.6569 22 21 22H3C1.34315 22 0 20.6569 0 19V9C0 7.34315 1.34315 6 3 6H7ZM9 6H15V4H9V6Z" fill="#758CA3"/>
</svg>
