<svg width="24" height="24" viewBox="0 0 24 24" fill="none" xmlns="http://www.w3.org/2000/svg">
<path fill-rule="evenodd" clip-rule="evenodd" d="M3 6H5.58579L8 3.58579C8.37507 3.21071 8.88378 3 9.41421 3H14.5858C15.1162 3 15.6249 3.21071 16 3.58579L18.4142 6H21C22.6569 6 24 7.34315 24 9V18C24 19.6569 22.6569 21 21 21H3C1.34315 21 0 19.6569 0 18V9C0 7.34315 1.34315 6 3 6ZM3 8C2.44772 8 2 8.44772 2 9V18C2 18.5523 2.44772 19 3 19H21C21.5523 19 22 18.5523 22 18V9C22 8.44772 21.5523 8 21 8H18.4142C17.8838 8 17.3751 7.78929 17 7.41421L14.5858 5H9.41421L7 7.41421C6.62493 7.78929 6.11622 8 5.58579 8H3ZM12 18C9.23858 18 7 15.7614 7 13C7 10.2386 9.23858 8 12 8C14.7614 8 17 10.2386 17 13C17 15.7614 14.7614 18 12 18ZM12 16C13.6569 16 15 14.6569 15 13C15 11.3431 13.6569 10 12 10C10.3431 10 9 11.3431 9 13C9 14.6569 10.3431 16 12 16Z" fill="#758CA3"/>
</svg>
