<svg width="24" height="24" viewBox="0 0 24 24" fill="none" xmlns="http://www.w3.org/2000/svg">
<path fill-rule="evenodd" clip-rule="evenodd" d="M16.5858 15L13 11.4142L10.7071 13.7071C10.3166 14.0976 9.68342 14.0976 9.29289 13.7071L4.29289 8.70711C3.90237 8.31658 3.90237 7.68342 4.29289 7.29289C4.68342 6.90237 5.31658 6.90237 5.70711 7.29289L10 11.5858L12.2929 9.29289C12.6834 8.90237 13.3166 8.90237 13.7071 9.29289L18 13.5858V11C18 10.4477 18.4477 10 19 10C19.5523 10 20 10.4477 20 11V16C20 16.5523 19.5523 17 19 17H14C13.4477 17 13 16.5523 13 16C13 15.4477 13.4477 15 14 15H16.5858Z" fill="#758CA3"/>
</svg>
