<svg width="24" height="24" viewBox="0 0 24 24" fill="none" xmlns="http://www.w3.org/2000/svg">
<path fill-rule="evenodd" clip-rule="evenodd" d="M20.9883 14C20.7273 19.5668 16.1314 24 10.5 24C4.70101 24 0 19.299 0 13.5C0 7.86862 4.43318 3.27267 10 3.0117V2C10 1.44772 10.4477 1 11 1C17.6274 1 23 6.37258 23 13C23 13.5523 22.5523 14 22 14H20.9883ZM10 5.01446C5.53831 5.27327 2 8.97343 2 13.5C2 18.1944 5.80558 22 10.5 22C15.0266 22 18.7267 18.4617 18.9855 14H11C10.4477 14 10 13.5523 10 13V5.01446ZM12 3.04938V12H20.9506C20.4816 7.27558 16.7244 3.51844 12 3.04938Z" fill="#758CA3"/>
</svg>
