<svg width="24" height="24" viewBox="0 0 24 24" fill="none" xmlns="http://www.w3.org/2000/svg">
<path fill-rule="evenodd" clip-rule="evenodd" d="M16.5858 9H14C13.4477 9 13 8.55228 13 8C13 7.44772 13.4477 7 14 7H19C19.5523 7 20 7.44772 20 8V13C20 13.5523 19.5523 14 19 14C18.4477 14 18 13.5523 18 13V10.4142L13.7071 14.7071C13.3166 15.0976 12.6834 15.0976 12.2929 14.7071L10 12.4142L5.70711 16.7071C5.31658 17.0976 4.68342 17.0976 4.29289 16.7071C3.90237 16.3166 3.90237 15.6834 4.29289 15.2929L9.29289 10.2929C9.68342 9.90237 10.3166 9.90237 10.7071 10.2929L13 12.5858L16.5858 9Z" fill="#758CA3"/>
</svg>
