<svg width="24" height="24" viewBox="0 0 24 24" fill="none" xmlns="http://www.w3.org/2000/svg">
<path fill-rule="evenodd" clip-rule="evenodd" d="M6 4H18C19.1046 4 20 4.89543 20 6V18C20 19.1046 19.1046 20 18 20H6C4.89543 20 4 19.1046 4 18V6C4 4.89543 4.89543 4 6 4ZM6 6V18H18V6H6ZM9.70711 11.2929L11 12.5858L14.2929 9.29289C14.6834 8.90237 15.3166 8.90237 15.7071 9.29289C16.0976 9.68342 16.0976 10.3166 15.7071 10.7071L11.7071 14.7071C11.3166 15.0976 10.6834 15.0976 10.2929 14.7071L8.29289 12.7071C7.90237 12.3166 7.90237 11.6834 8.29289 11.2929C8.68342 10.9024 9.31658 10.9024 9.70711 11.2929Z" fill="#758CA3"/>
</svg>
