<svg width="24" height="24" viewBox="0 0 24 24" fill="none" xmlns="http://www.w3.org/2000/svg">
<path fill-rule="evenodd" clip-rule="evenodd" d="M13 14.5858L14.2929 13.2929C14.6834 12.9024 15.3166 12.9024 15.7071 13.2929C16.0976 13.6834 16.0976 14.3166 15.7071 14.7071L12.7071 17.7071C12.3166 18.0976 11.6834 18.0976 11.2929 17.7071L8.29289 14.7071C7.90237 14.3166 7.90237 13.6834 8.29289 13.2929C8.68342 12.9024 9.31658 12.9024 9.70711 13.2929L11 14.5858V1C11 0.447715 11.4477 0 12 0C12.5523 0 13 0.447715 13 1V14.5858ZM7.49927 7.13439C7.97733 6.85785 8.58906 7.02121 8.86561 7.49927C9.14215 7.97733 8.97879 8.58906 8.50073 8.86561C6.3511 10.1091 5 12.4012 5 14.9297C5 18.7957 8.13401 21.9297 12 21.9297C15.866 21.9297 19 18.7957 19 14.9297C19 12.4012 17.6489 10.1091 15.4993 8.86561C15.0212 8.58906 14.8579 7.97733 15.1344 7.49927C15.4109 7.02121 16.0227 6.85785 16.5007 7.13439C19.2622 8.73182 21 11.6799 21 14.9297C21 19.9003 16.9706 23.9297 12 23.9297C7.02944 23.9297 3 19.9003 3 14.9297C3 11.6799 4.73779 8.73182 7.49927 7.13439Z" fill="#758CA3"/>
</svg>
