<svg width="24" height="24" viewBox="0 0 24 24" fill="none" xmlns="http://www.w3.org/2000/svg">
<path fill-rule="evenodd" clip-rule="evenodd" d="M14 3.41421V17C14 17.5523 13.5523 18 13 18C12.4477 18 12 17.5523 12 17V3.41421L10.7071 4.70711C10.3166 5.09763 9.68342 5.09763 9.29289 4.70711C8.90237 4.31658 8.90237 3.68342 9.29289 3.29289L12.2929 0.292893C12.6834 -0.0976311 13.3166 -0.0976311 13.7071 0.292893L16.7071 3.29289C17.0976 3.68342 17.0976 4.31658 16.7071 4.70711C16.3166 5.09763 15.6834 5.09763 15.2929 4.70711L14 3.41421ZM8.49927 7.13439C8.97733 6.85785 9.58906 7.02121 9.86561 7.49927C10.1421 7.97733 9.97879 8.58906 9.50073 8.86561C7.3511 10.1091 6 12.4012 6 14.9297C6 18.7957 9.13401 21.9297 13 21.9297C16.866 21.9297 20 18.7957 20 14.9297C20 12.4012 18.6489 10.1091 16.4993 8.86561C16.0212 8.58906 15.8579 7.97733 16.1344 7.49927C16.4109 7.02121 17.0227 6.85785 17.5007 7.13439C20.2622 8.73182 22 11.6799 22 14.9297C22 19.9003 17.9706 23.9297 13 23.9297C8.02944 23.9297 4 19.9003 4 14.9297C4 11.6799 5.73779 8.73182 8.49927 7.13439Z" fill="#758CA3"/>
</svg>
