<svg width="24" height="24" viewBox="0 0 24 24" fill="none" xmlns="http://www.w3.org/2000/svg">
<path fill-rule="evenodd" clip-rule="evenodd" d="M5 5V22H19V5H5ZM9 3C9 1.34315 10.3431 0 12 0C13.6569 0 15 1.34315 15 3H20C20.5523 3 21 3.44772 21 4V23C21 23.5523 20.5523 24 20 24H4C3.44772 24 3 23.5523 3 23V4C3 3.44772 3.44772 3 4 3H9ZM12 4C12.5523 4 13 3.55228 13 3C13 2.44772 12.5523 2 12 2C11.4477 2 11 2.44772 11 3C11 3.55228 11.4477 4 12 4ZM8 7C7.44772 7 7 6.55228 7 6C7 5.44772 7.44772 5 8 5H16C16.5523 5 17 5.44772 17 6C17 6.55228 16.5523 7 16 7H8Z" fill="#758CA3"/>
</svg>
