<svg width="24" height="24" viewBox="0 0 24 24" fill="none" xmlns="http://www.w3.org/2000/svg">
<path d="M17.2805 10.0552C16.9253 9.96296 16.5521 9.9865 16.2078 10.1244C15.8628 10.2627 15.5572 10.512 15.3379 10.8483C15.1184 11.185 14.9985 11.5897 15 12.0081C15.0016 12.4264 15.1245 12.8299 15.3465 13.1647C15.5681 13.4989 15.8754 13.7456 16.2212 13.8809C16.5663 14.0159 16.9397 14.0364 17.2943 13.9411C17.6495 13.8457 17.9771 13.6363 18.2288 13.3314C18.5804 12.9054 19.2107 12.8452 19.6366 13.1968C20.0625 13.5483 20.1228 14.1786 19.7712 14.6046C19.2626 15.2207 18.581 15.6664 17.8131 15.8727C17.0445 16.0791 16.234 16.0335 15.4925 15.7434C14.7518 15.4536 14.1215 14.9364 13.6796 14.2699C13.238 13.604 13.003 12.8176 13 12.0155C12.997 11.2134 13.2262 10.4253 13.6626 9.7559C14.0994 9.08599 14.7256 8.56377 15.464 8.26792C16.2031 7.97177 17.0132 7.91939 17.7834 8.11948C18.553 8.31941 19.238 8.75956 19.7514 9.37171C20.1063 9.79487 20.051 10.4256 19.6278 10.7805C19.2047 11.1354 18.5739 11.0801 18.219 10.6569C17.9652 10.3542 17.6363 10.1476 17.2805 10.0552Z" fill="#758CA3"/>
<path d="M7.20784 10.1244C7.55208 9.9865 7.92532 9.96296 8.2805 10.0552C8.63627 10.1476 8.96518 10.3542 9.21903 10.6569C9.57393 11.0801 10.2047 11.1354 10.6278 10.7805C11.051 10.4256 11.1063 9.79487 10.7514 9.37171C10.238 8.75956 9.553 8.31941 8.78337 8.11948C8.01315 7.91939 7.20308 7.97177 6.46397 8.26792C5.72562 8.56377 5.09942 9.08599 4.66262 9.7559C4.22616 10.4253 3.99703 11.2134 4.00003 12.0155C4.00302 12.8176 4.23804 13.604 4.67961 14.2699C5.12154 14.9364 5.75182 15.4536 6.49254 15.7434C7.23401 16.0335 8.04449 16.0791 8.81306 15.8727C9.58103 15.6664 10.2626 15.2207 10.7712 14.6046C11.1228 14.1786 11.0625 13.5483 10.6366 13.1968C10.2107 12.8452 9.58039 12.9054 9.22881 13.3314C8.97706 13.6363 8.64949 13.8457 8.29428 13.9411C7.93967 14.0364 7.56631 14.0159 7.22122 13.8809C6.87539 13.7456 6.56806 13.4989 6.34646 13.1647C6.12449 12.8299 6.00158 12.4264 6.00002 12.0081C5.99845 11.5897 6.11835 11.185 6.33794 10.8483C6.55718 10.512 6.86285 10.2627 7.20784 10.1244Z" fill="#758CA3"/>
<path fill-rule="evenodd" clip-rule="evenodd" d="M2 3C0.895431 3 0 3.89543 0 5V19C0 20.1046 0.89543 21 2 21H22C23.1046 21 24 20.1046 24 19V5C24 3.89543 23.1046 3 22 3H2ZM22 5H2L2 19H22V5Z" fill="#758CA3"/>
</svg>
