<svg width="24" height="24" viewBox="0 0 24 24" fill="none" xmlns="http://www.w3.org/2000/svg">
<path fill-rule="evenodd" clip-rule="evenodd" d="M13 10.4142V22C13 22.5523 12.5523 23 12 23C11.4477 23 11 22.5523 11 22V10.4142L9.70711 11.7071C9.31658 12.0976 8.68342 12.0976 8.29289 11.7071C7.90237 11.3166 7.90237 10.6834 8.29289 10.2929L11.2929 7.29289C11.6834 6.90237 12.3166 6.90237 12.7071 7.29289L15.7071 10.2929C16.0976 10.6834 16.0976 11.3166 15.7071 11.7071C15.3166 12.0976 14.6834 12.0976 14.2929 11.7071L13 10.4142ZM13 1C15.8074 1 18.2963 2.66786 19.4019 5.16474C22.0611 5.8004 24 8.1925 24 11C24 14.3137 21.3137 17 18 17H16C15.4477 17 15 16.5523 15 16C15 15.4477 15.4477 15 16 15H18C20.2091 15 22 13.2091 22 11C22 8.9919 20.511 7.30173 18.5407 7.03612L17.9296 6.95374L17.7288 6.37076C17.0398 4.37028 15.1506 3 13 3C11.4953 3 10.1017 3.66735 9.1566 4.80159L8.76027 5.27722L8.15784 5.13451C7.78192 5.04545 7.39432 5 7 5C4.23858 5 2 7.23858 2 10C2 12.7614 4.23858 15 7 15H8C8.55229 15 9 15.4477 9 16C9 16.5523 8.55229 17 8 17H7C3.13401 17 0 13.866 0 10C0 6.13401 3.13401 3 7 3C7.34554 3 7.68811 3.02511 8.02571 3.07475C9.32518 1.76157 11.1013 1 13 1Z" fill="#758CA3"/>
</svg>
