<svg width="24" height="24" viewBox="0 0 24 24" fill="none" xmlns="http://www.w3.org/2000/svg">
<path fill-rule="evenodd" clip-rule="evenodd" d="M13 19.5858L14.2929 18.2929C14.6834 17.9024 15.3166 17.9024 15.7071 18.2929C16.0976 18.6834 16.0976 19.3166 15.7071 19.7071L12.7071 22.7071C12.3166 23.0976 11.6834 23.0976 11.2929 22.7071L8.29289 19.7071C7.90237 19.3166 7.90237 18.6834 8.29289 18.2929C8.68342 17.9024 9.31658 17.9024 9.70711 18.2929L11 19.5858V8C11 7.44772 11.4477 7 12 7C12.5523 7 13 7.44772 13 8V19.5858ZM13 1C15.8074 1 18.2963 2.66786 19.4019 5.16474C22.0611 5.8004 24 8.1925 24 11C24 14.3137 21.3137 17 18 17H16C15.4477 17 15 16.5523 15 16C15 15.4477 15.4477 15 16 15H18C20.2091 15 22 13.2091 22 11C22 8.9919 20.511 7.30173 18.5407 7.03612L17.9296 6.95374L17.7288 6.37076C17.0398 4.37028 15.1506 3 13 3C11.4953 3 10.1017 3.66735 9.1566 4.80159L8.76027 5.27722L8.15784 5.13451C7.78192 5.04545 7.39432 5 7 5C4.23858 5 2 7.23858 2 10C2 12.7614 4.23858 15 7 15H8C8.55229 15 9 15.4477 9 16C9 16.5523 8.55229 17 8 17H7C3.13401 17 0 13.866 0 10C0 6.13401 3.13401 3 7 3C7.34554 3 7.68811 3.02511 8.02571 3.07475C9.32518 1.76157 11.1013 1 13 1Z" fill="#758CA3"/>
</svg>
