<svg width="24" height="24" viewBox="0 0 24 24" fill="none" xmlns="http://www.w3.org/2000/svg">
<path fill-rule="evenodd" clip-rule="evenodd" d="M8.20185 12.0001L9.83205 14.4454C10.1384 14.9049 10.0142 15.5258 9.5547 15.8322C9.09517 16.1385 8.4743 16.0143 8.16795 15.5548L6.16795 12.5548C5.94402 12.2189 5.94402 11.7813 6.16795 11.4454L8.16795 8.44541C8.4743 7.98588 9.09517 7.8617 9.5547 8.16805C10.0142 8.47441 10.1384 9.09528 9.83205 9.55481L8.20185 12.0001ZM14.1681 9.55481C13.8617 9.09528 13.9859 8.47441 14.4454 8.16805C14.9049 7.8617 15.5258 7.98588 15.8322 8.44541L17.8322 11.4454C18.0561 11.7813 18.0561 12.2189 17.8322 12.5548L15.8322 15.5548C15.5258 16.0143 14.9049 16.1385 14.4454 15.8322C13.9859 15.5258 13.8617 14.9049 14.1681 14.4454L15.7983 12.0001L14.1681 9.55481ZM11.5077 7.87607C11.5762 7.32805 12.076 6.93932 12.624 7.00783C13.1721 7.07633 13.5608 7.57612 13.4923 8.12414L12.4923 16.1241C12.4238 16.6722 11.924 17.0609 11.376 16.9924C10.8279 16.9239 10.4392 16.4241 10.5077 15.8761L11.5077 7.87607Z" fill="#758CA3"/>
</svg>
