<svg width="24" height="24" viewBox="0 0 24 24" fill="none" xmlns="http://www.w3.org/2000/svg">
<path fill-rule="evenodd" clip-rule="evenodd" d="M8 14H6.35758L3.26816 16.5333C2.41403 17.2337 1.15385 17.1091 0.453464 16.2549C0.160246 15.8974 0 15.4492 0 14.9868V6C0 3.23858 2.23858 1 5 1H11C13.7614 1 16 3.23858 16 6V7H19C21.7614 7 24 9.23858 24 12V20.9868C24 21.4492 23.8398 21.8974 23.5465 22.2549C22.8462 23.1091 21.586 23.2337 20.7318 22.5333L17.6424 20H13C10.2386 20 8 17.7614 8 15V14ZM8 12C8 9.23858 10.2386 7 13 7H14V6C14 4.34315 12.6569 3 11 3H5C3.34315 3 2 4.34315 2 6V14.9868L5.64242 12H8ZM13 9C11.3431 9 10 10.3431 10 12V15C10 16.6569 11.3431 18 13 18H18.3576L22 20.9868V12C22 10.3431 20.6569 9 19 9H13Z" fill="#758CA3"/>
</svg>
