<svg width="24" height="24" viewBox="0 0 24 24" fill="none" xmlns="http://www.w3.org/2000/svg">
<path fill-rule="evenodd" clip-rule="evenodd" d="M15.4142 10H17C17.5523 10 18 10.4477 18 11C18 11.5523 17.5523 12 17 12H13C12.4477 12 12 11.5523 12 11V7C12 6.44772 12.4477 6 13 6C13.5523 6 14 6.44772 14 7V8.58579L16.2929 6.29289C16.6834 5.90237 17.3166 5.90237 17.7071 6.29289C18.0976 6.68342 18.0976 7.31658 17.7071 7.70711L15.4142 10ZM8.58579 14H7C6.44772 14 6 13.5523 6 13C6 12.4477 6.44772 12 7 12H11C11.5523 12 12 12.4477 12 13V17C12 17.5523 11.5523 18 11 18C10.4477 18 10 17.5523 10 17V15.4142L7.70711 17.7071C7.31658 18.0976 6.68342 18.0976 6.29289 17.7071C5.90237 17.3166 5.90237 16.6834 6.29289 16.2929L8.58579 14Z" fill="#758CA3"/>
</svg>
