<svg width="24" height="24" viewBox="0 0 24 24" fill="none" xmlns="http://www.w3.org/2000/svg">
<path d="M9 10C9.55228 10 10 9.55228 10 9V3C10 2.44772 9.55228 2 9 2C8.44772 2 8 2.44772 8 3V8H3C2.44772 8 2 8.44772 2 9C2 9.55228 2.44772 10 3 10H9Z" fill="#758CA3"/>
<path d="M15 14C14.4477 14 14 14.4477 14 15V21C14 21.5523 14.4477 22 15 22C15.5523 22 16 21.5523 16 21V16H21C21.5523 16 22 15.5523 22 15C22 14.4477 21.5523 14 21 14H15Z" fill="#758CA3"/>
<path d="M14 9C14 9.55228 14.4477 10 15 10H21C21.5523 10 22 9.55228 22 9C22 8.44772 21.5523 8 21 8H16V3C16 2.44772 15.5523 2 15 2C14.4477 2 14 2.44772 14 3V9Z" fill="#758CA3"/>
<path d="M9 14C9.55228 14 10 14.4477 10 15V21C10 21.5523 9.55228 22 9 22C8.44772 22 8 21.5523 8 21V16H3C2.44772 16 2 15.5523 2 15C2 14.4477 2.44772 14 3 14H9Z" fill="#758CA3"/>
</svg>
