<svg width="24" height="24" viewBox="0 0 24 24" fill="none" xmlns="http://www.w3.org/2000/svg">
<path fill-rule="evenodd" clip-rule="evenodd" d="M15 7.58579L17.2929 5.29289C17.6834 4.90237 18.3166 4.90237 18.7071 5.29289C19.0976 5.68342 19.0976 6.31658 18.7071 6.70711L16.4142 9H18C18.5523 9 19 9.44772 19 10C19 10.5523 18.5523 11 18 11H14C13.4477 11 13 10.5523 13 10V6C13 5.44772 13.4477 5 14 5C14.5523 5 15 5.44772 15 6V7.58579ZM9 16.4142L6.70711 18.7071C6.31658 19.0976 5.68342 19.0976 5.29289 18.7071C4.90237 18.3166 4.90237 17.6834 5.29289 17.2929L7.58579 15H6C5.44772 15 5 14.5523 5 14C5 13.4477 5.44772 13 6 13H10C10.5523 13 11 13.4477 11 14V18C11 18.5523 10.5523 19 10 19C9.44772 19 9 18.5523 9 18V16.4142Z" fill="#758CA3"/>
</svg>
