<svg width="24" height="24" viewBox="0 0 24 24" fill="none" xmlns="http://www.w3.org/2000/svg">
<path fill-rule="evenodd" clip-rule="evenodd" d="M17 14C16.4477 14 16 13.5523 16 13C16 12.4477 16.4477 12 17 12H19C19.5523 12 20 12.4477 20 13C20 13.5523 19.5523 14 19 14H17ZM8 14C7.44772 14 7 13.5523 7 13C7 12.4477 7.44772 12 8 12H14C14.5523 12 15 12.4477 15 13C15 13.5523 14.5523 14 14 14H8ZM22 8V6C22 5.44772 21.5523 5 21 5H3C2.44772 5 2 5.44772 2 6V8H22ZM22 10H2V18C2 18.5523 2.44772 19 3 19H21C21.5523 19 22 18.5523 22 18V10ZM3 3H21C22.6569 3 24 4.34315 24 6V18C24 19.6569 22.6569 21 21 21H3C1.34315 21 0 19.6569 0 18V6C0 4.34315 1.34315 3 3 3Z" fill="#758CA3"/>
</svg>
