<svg width="24" height="24" viewBox="0 0 24 24" fill="none" xmlns="http://www.w3.org/2000/svg">
<path fill-rule="evenodd" clip-rule="evenodd" d="M23.4793 19.8776C16.3658 23.9407 7.63419 23.9407 0.520666 19.8776C0.210499 19.7078 0.000170503 19.3784 0.000170503 18.9999V12.0171C-4.62269e-05 12.0051 -4.67501e-05 11.9931 0.000170503 11.981L0.000170503 6.01761C-0.000168074 5.99928 -3.04597e-06 5.98092 0.000671334 5.96255C-0.0125292 5.6029 0.169431 5.24828 0.503449 5.05711C7.62584 0.980921 16.3741 0.980921 23.4965 5.05711C23.8305 5.24828 24.0125 5.6029 23.9993 5.96255C24 5.98092 24.0001 5.99928 23.9998 6.01761V11.981C24 11.9931 24 12.0051 23.9998 12.0171V18.9999C23.9998 19.3784 23.7895 19.7078 23.4793 19.8776ZM21.9998 18.411V13.6676C15.6913 16.7428 8.30871 16.7428 2.00014 13.6676V18.411C8.24389 21.7629 15.7561 21.7629 21.9998 18.411ZM21.9998 7.65363C15.6804 10.6823 8.31959 10.6823 2.00014 7.65363V11.4167C8.22911 14.8265 15.7709 14.8265 21.9998 11.4167V7.65363ZM3.103 5.96255C8.74267 8.57936 15.2573 8.57936 20.897 5.96255C15.2573 3.34574 8.74267 3.34574 3.103 5.96255Z" fill="#758CA3"/>
</svg>
