<svg width="24" height="24" viewBox="0 0 24 24" fill="none" xmlns="http://www.w3.org/2000/svg">
<path fill-rule="evenodd" clip-rule="evenodd" d="M17.9871 14.1554V16.8395C17.9956 16.892 18 16.9458 18 17.0007C18 17.5526 17.5528 18 17.0011 18H6.99892C6.44723 18 6 17.5526 6 17.0007V13.9941C6 13.4422 6.44723 12.9948 6.99892 12.9948H17.0011C17.5528 12.9948 18 13.4422 18 13.9941C18 14.049 17.9956 14.1029 17.9871 14.1554ZM15.9892 14.9934H7.99784V16.0015H15.9892V14.9934ZM8.4973 7.08499L9.28934 6.29268C9.67944 5.90244 10.3119 5.90244 10.702 6.29268C11.0921 6.68291 11.0921 7.31561 10.702 7.70585L9.90999 8.49816L10.702 9.29046C11.0921 9.6807 11.0921 10.3134 10.702 10.7036C10.3119 11.0939 9.67944 11.0939 9.28934 10.7036L8.4973 9.91133L7.70527 10.7036C7.31516 11.0939 6.68268 11.0939 6.29258 10.7036C5.90247 10.3134 5.90247 9.6807 6.29258 9.29046L7.08462 8.49816L6.29258 7.70585C5.90247 7.31561 5.90247 6.68291 6.29258 6.29268C6.68268 5.90244 7.31516 5.90244 7.70527 6.29268L8.4973 7.08499Z" fill="#758CA3"/>
</svg>
