<svg width="24" height="24" viewBox="0 0 24 24" fill="none" xmlns="http://www.w3.org/2000/svg">
<path fill-rule="evenodd" clip-rule="evenodd" d="M15.5 7.08579L16.2929 6.29289C16.6834 5.90237 17.3166 5.90237 17.7071 6.29289C18.0976 6.68342 18.0976 7.31658 17.7071 7.70711L16.9142 8.5L17.7071 9.29289C18.0976 9.68342 18.0976 10.3166 17.7071 10.7071C17.3166 11.0976 16.6834 11.0976 16.2929 10.7071L15.5 9.91421L14.7071 10.7071C14.3166 11.0976 13.6834 11.0976 13.2929 10.7071C12.9024 10.3166 12.9024 9.68342 13.2929 9.29289L14.0858 8.5L13.2929 7.70711C12.9024 7.31658 12.9024 6.68342 13.2929 6.29289C13.6834 5.90237 14.3166 5.90237 14.7071 6.29289L15.5 7.08579ZM6 7C6 6.44772 6.44772 6 7 6H11C11.5523 6 12 6.44772 12 7V17C12 17.5523 11.5523 18 11 18H7C6.44772 18 6 17.5523 6 17V7ZM8 8V16H10V8H8Z" fill="#758CA3"/>
</svg>
