<svg width="24" height="24" viewBox="0 0 24 24" fill="none" xmlns="http://www.w3.org/2000/svg">
<path fill-rule="evenodd" clip-rule="evenodd" d="M14.2929 7.79289C14.6834 7.40237 15.3166 7.40237 15.7071 7.79289C16.0976 8.18342 16.0976 8.81658 15.7071 9.20711L12.7071 12.2071C12.3166 12.5976 11.6834 12.5976 11.2929 12.2071L8.29289 9.20711C7.90237 8.81658 7.90237 8.18342 8.29289 7.79289C8.68342 7.40237 9.31658 7.40237 9.70711 7.79289L12 10.0858L14.2929 7.79289ZM14.2929 11.7929C14.6834 11.4024 15.3166 11.4024 15.7071 11.7929C16.0976 12.1834 16.0976 12.8166 15.7071 13.2071L12.7071 16.2071C12.3166 16.5976 11.6834 16.5976 11.2929 16.2071L8.29289 13.2071C7.90237 12.8166 7.90237 12.1834 8.29289 11.7929C8.68342 11.4024 9.31658 11.4024 9.70711 11.7929L12 14.0858L14.2929 11.7929Z" fill="#758CA3"/>
</svg>
