<svg width="24" height="24" viewBox="0 0 24 24" fill="none" xmlns="http://www.w3.org/2000/svg">
<path fill-rule="evenodd" clip-rule="evenodd" d="M6.70711 18.7071C6.31658 19.0976 5.68342 19.0976 5.29289 18.7071C4.90237 18.3166 4.90237 17.6834 5.29289 17.2929L11.2929 11.2929C11.6834 10.9024 12.3166 10.9024 12.7071 11.2929L18.7071 17.2929C19.0976 17.6834 19.0976 18.3166 18.7071 18.7071C18.3166 19.0976 17.6834 19.0976 17.2929 18.7071L12 13.4142L6.70711 18.7071ZM6.70711 11.7071C6.31658 12.0976 5.68342 12.0976 5.29289 11.7071C4.90237 11.3166 4.90237 10.6834 5.29289 10.2929L11.2929 4.29289C11.6834 3.90237 12.3166 3.90237 12.7071 4.29289L18.7071 10.2929C19.0976 10.6834 19.0976 11.3166 18.7071 11.7071C18.3166 12.0976 17.6834 12.0976 17.2929 11.7071L12 6.41421L6.70711 11.7071Z" fill="#758CA3"/>
</svg>
