<svg width="24" height="24" viewBox="0 0 24 24" fill="none" xmlns="http://www.w3.org/2000/svg">
<path fill-rule="evenodd" clip-rule="evenodd" d="M14.2929 16.2071L12 13.9142L9.70711 16.2071C9.31658 16.5976 8.68342 16.5976 8.29289 16.2071C7.90237 15.8166 7.90237 15.1834 8.29289 14.7929L11.2929 11.7929C11.6834 11.4024 12.3166 11.4024 12.7071 11.7929L15.7071 14.7929C16.0976 15.1834 16.0976 15.8166 15.7071 16.2071C15.3166 16.5976 14.6834 16.5976 14.2929 16.2071ZM14.2929 12.2071L12 9.91421L9.70711 12.2071C9.31658 12.5976 8.68342 12.5976 8.29289 12.2071C7.90237 11.8166 7.90237 11.1834 8.29289 10.7929L11.2929 7.79289C11.6834 7.40237 12.3166 7.40237 12.7071 7.79289L15.7071 10.7929C16.0976 11.1834 16.0976 11.8166 15.7071 12.2071C15.3166 12.5976 14.6834 12.5976 14.2929 12.2071Z" fill="#758CA3"/>
</svg>
