<svg width="24" height="24" viewBox="0 0 24 24" fill="none" xmlns="http://www.w3.org/2000/svg">
<path fill-rule="evenodd" clip-rule="evenodd" d="M7.79289 9.70711C7.40237 9.31658 7.40237 8.68342 7.79289 8.29289C8.18342 7.90237 8.81658 7.90237 9.20711 8.29289L12.2071 11.2929C12.5976 11.6834 12.5976 12.3166 12.2071 12.7071L9.20711 15.7071C8.81658 16.0976 8.18342 16.0976 7.79289 15.7071C7.40237 15.3166 7.40237 14.6834 7.79289 14.2929L10.0858 12L7.79289 9.70711ZM11.7929 9.70711C11.4024 9.31658 11.4024 8.68342 11.7929 8.29289C12.1834 7.90237 12.8166 7.90237 13.2071 8.29289L16.2071 11.2929C16.5976 11.6834 16.5976 12.3166 16.2071 12.7071L13.2071 15.7071C12.8166 16.0976 12.1834 16.0976 11.7929 15.7071C11.4024 15.3166 11.4024 14.6834 11.7929 14.2929L14.0858 12L11.7929 9.70711Z" fill="#758CA3"/>
</svg>
