<svg width="24" height="24" viewBox="0 0 24 24" fill="none" xmlns="http://www.w3.org/2000/svg">
<path fill-rule="evenodd" clip-rule="evenodd" d="M16.2071 9.70711L13.9142 12L16.2071 14.2929C16.5976 14.6834 16.5976 15.3166 16.2071 15.7071C15.8166 16.0976 15.1834 16.0976 14.7929 15.7071L11.7929 12.7071C11.4024 12.3166 11.4024 11.6834 11.7929 11.2929L14.7929 8.29289C15.1834 7.90237 15.8166 7.90237 16.2071 8.29289C16.5976 8.68342 16.5976 9.31658 16.2071 9.70711ZM12.2071 9.70711L9.91421 12L12.2071 14.2929C12.5976 14.6834 12.5976 15.3166 12.2071 15.7071C11.8166 16.0976 11.1834 16.0976 10.7929 15.7071L7.79289 12.7071C7.40237 12.3166 7.40237 11.6834 7.79289 11.2929L10.7929 8.29289C11.1834 7.90237 11.8166 7.90237 12.2071 8.29289C12.5976 8.68342 12.5976 9.31658 12.2071 9.70711Z" fill="#758CA3"/>
</svg>
