<svg width="24" height="24" viewBox="0 0 24 24" fill="none" xmlns="http://www.w3.org/2000/svg">
<path fill-rule="evenodd" clip-rule="evenodd" d="M6.82929 20.9999C6.41746 22.1651 5.30622 22.9999 4 22.9999C2.34315 22.9999 1 21.6567 1 19.9999C1 18.343 2.34315 16.9999 4 16.9999C4.04433 16.9999 4.08843 17.0008 4.1323 17.0027L6.00797 3.87302C6.02014 3.77693 6.04594 3.68509 6.08337 3.59951C6.14019 3.46922 6.22348 3.35463 6.32562 3.26146C6.43801 3.15801 6.57808 3.07869 6.73328 3.03585C6.8233 3.01089 6.91786 2.99834 7.0147 2.99988L9 2.99988C9.55229 2.99988 10 3.4476 10 3.99988C10 4.55217 9.55229 4.99988 9 4.99988H7.8673L6.68562 13.2716C6.73976 13.3227 6.78901 13.3806 6.83205 13.4452L10.5352 18.9999H17.1707C17.5825 17.8347 18.6938 16.9999 20 16.9999C21.6569 16.9999 23 18.343 23 19.9999C23 21.6567 21.6569 22.9999 20 22.9999C18.6938 22.9999 17.5825 22.1651 17.1707 20.9999H10.0155C10.0058 21 9.99605 21 9.98633 20.9999H6.82929ZM6.82929 18.9999H8.13148L6.26686 16.2029L6.03883 17.7991C6.39163 18.1261 6.66567 18.5369 6.82929 18.9999ZM4 20.9999C4.55228 20.9999 5 20.5522 5 19.9999C5 19.4476 4.55228 18.9999 4 18.9999C3.44772 18.9999 3 19.4476 3 19.9999C3 20.5522 3.44772 20.9999 4 20.9999ZM20 20.9999C20.5523 20.9999 21 20.5522 21 19.9999C21 19.4476 20.5523 18.9999 20 18.9999C19.4477 18.9999 19 19.4476 19 19.9999C19 20.5522 19.4477 20.9999 20 20.9999Z" fill="#758CA3"/>
</svg>
