<svg width="24" height="24" viewBox="0 0 24 24" fill="none" xmlns="http://www.w3.org/2000/svg">
<path fill-rule="evenodd" clip-rule="evenodd" d="M3.74379 5L10.8531 9.9765C11.5417 10.4585 12.4583 10.4585 13.1469 9.9765L20.2562 5H3.74379ZM22 6.22066L14.2938 11.615C12.9166 12.5791 11.0834 12.5791 9.70615 11.615L2 6.22066V18C2 18.5523 2.44772 19 3 19H21C21.5523 19 22 18.5523 22 18V6.22066ZM3 3H21C22.6569 3 24 4.34315 24 6V18C24 19.6569 22.6569 21 21 21H3C1.34315 21 0 19.6569 0 18V6C0 4.34315 1.34315 3 3 3Z" fill="#758CA3"/>
</svg>
