<svg width="24" height="24" viewBox="0 0 24 24" fill="none" xmlns="http://www.w3.org/2000/svg">
<path fill-rule="evenodd" clip-rule="evenodd" d="M5.05493 13C5.01863 12.6717 5 12.338 5 12C5 11.662 5.01863 11.3283 5.05493 11H4C3.44772 11 3 10.5523 3 10C3 9.44772 3.44772 9 4 9H5.51212C6.74763 5.50442 10.0813 3 14 3C15.5834 3 17.1095 3.41032 18.456 4.17895C18.9356 4.45275 19.1025 5.06353 18.8287 5.54317C18.5549 6.02281 17.9441 6.18968 17.4645 5.91588C16.418 5.31853 15.2334 5 14 5C11.2076 5 8.7971 6.63505 7.67363 9H12C12.5523 9 13 9.44772 13 10C13 10.5523 12.5523 11 12 11H7.07089C7.02417 11.3266 7 11.6605 7 12C7 12.3395 7.02417 12.6734 7.07089 13H12C12.5523 13 13 13.4477 13 14C13 14.5523 12.5523 15 12 15H7.67363C8.7971 17.3649 11.2076 19 14 19C15.2087 19 16.3707 18.6941 17.4021 18.1193C17.8845 17.8504 18.4936 18.0236 18.7624 18.506C19.0313 18.9884 18.8582 19.5974 18.3758 19.8663C17.0486 20.606 15.5517 21 14 21C10.0813 21 6.74763 18.4956 5.51212 15H4C3.44772 15 3 14.5523 3 14C3 13.4477 3.44772 13 4 13H5.05493Z" fill="#758CA3"/>
</svg>
