<svg width="24" height="24" viewBox="0 0 24 24" fill="none" xmlns="http://www.w3.org/2000/svg">
<path fill-rule="evenodd" clip-rule="evenodd" d="M15.5858 16H12C11.4477 16 11 15.5523 11 15C11 14.4477 11.4477 14 12 14H15.5858L14.2929 12.7071C13.9024 12.3166 13.9024 11.6834 14.2929 11.2929C14.6834 10.9024 15.3166 10.9024 15.7071 11.2929L18.7071 14.2929C19.0976 14.6834 19.0976 15.3166 18.7071 15.7071L15.7071 18.7071C15.3166 19.0976 14.6834 19.0976 14.2929 18.7071C13.9024 18.3166 13.9024 17.6834 14.2929 17.2929L15.5858 16ZM8.41421 8H12C12.5523 8 13 8.44772 13 9C13 9.55228 12.5523 10 12 10H8.41421L9.70711 11.2929C10.0976 11.6834 10.0976 12.3166 9.70711 12.7071C9.31658 13.0976 8.68342 13.0976 8.29289 12.7071L5.29289 9.70711C4.90237 9.31658 4.90237 8.68342 5.29289 8.29289L8.29289 5.29289C8.68342 4.90237 9.31658 4.90237 9.70711 5.29289C10.0976 5.68342 10.0976 6.31658 9.70711 6.70711L8.41421 8Z" fill="#758CA3"/>
</svg>
