<svg width="24" height="24" viewBox="0 0 24 24" fill="none" xmlns="http://www.w3.org/2000/svg">
<path fill-rule="evenodd" clip-rule="evenodd" d="M11.0634 7.00198C11.0844 7.00067 11.1055 7 11.1268 7H19C19.5523 7 20 7.44772 20 8V11C20 11.5523 19.5523 12 19 12C18.4477 12 18 11.5523 18 11V9H11.1268C11.1055 9 11.0844 8.99933 11.0634 8.99802C11.0424 8.99933 11.0213 9 11 9H7.41421L8.70711 10.2929C9.09763 10.6834 9.09763 11.3166 8.70711 11.7071C8.31658 12.0976 7.68342 12.0976 7.29289 11.7071L4.29289 8.70711C3.90237 8.31658 3.90237 7.68342 4.29289 7.29289L7.29289 4.29289C7.68342 3.90237 8.31658 3.90237 8.70711 4.29289C9.09763 4.68342 9.09763 5.31658 8.70711 5.70711L7.41421 7H11C11.0213 7 11.0424 7.00067 11.0634 7.00198ZM16.5858 17H5C4.44772 17 4 16.505 4 15.9527V13C4 12.4477 4.44772 12 5 12C5.55228 12 6 12.4477 6 13V15H16.5858L15.2929 13.7071C14.9024 13.3166 14.9024 12.6834 15.2929 12.2929C15.6834 11.9024 16.3166 11.9024 16.7071 12.2929L19.7071 15.2929C20.0976 15.6834 20.0976 16.3166 19.7071 16.7071L16.7071 19.7071C16.3166 20.0976 15.6834 20.0976 15.2929 19.7071C14.9024 19.3166 14.9024 18.6834 15.2929 18.2929L16.5858 17Z" fill="#758CA3"/>
</svg>
