<svg width="24" height="24" viewBox="0 0 24 24" fill="none" xmlns="http://www.w3.org/2000/svg">
<path fill-rule="evenodd" clip-rule="evenodd" d="M9.41421 16H11C11.5523 16 12 16.4477 12 17C12 17.5523 11.5523 18 11 18H7C6.44772 18 6 17.5523 6 17V13C6 12.4477 6.44772 12 7 12C7.55228 12 8 12.4477 8 13V14.5858L9.79289 12.7929C10.1834 12.4024 10.8166 12.4024 11.2071 12.7929C11.5976 13.1834 11.5976 13.8166 11.2071 14.2071L9.41421 16ZM14.5858 8H13C12.4477 8 12 7.55228 12 7C12 6.44772 12.4477 6 13 6H17C17.5523 6 18 6.44772 18 7V11C18 11.5523 17.5523 12 17 12C16.4477 12 16 11.5523 16 11V9.41421L14.2071 11.2071C13.8166 11.5976 13.1834 11.5976 12.7929 11.2071C12.4024 10.8166 12.4024 10.1834 12.7929 9.79289L14.5858 8Z" fill="#758CA3"/>
</svg>
