<svg width="24" height="24" viewBox="0 0 24 24" fill="none" xmlns="http://www.w3.org/2000/svg">
<path fill-rule="evenodd" clip-rule="evenodd" d="M16.5858 6H14C13.4477 6 13 5.55228 13 5C13 4.44772 13.4477 4 14 4H19C19.5523 4 20 4.44772 20 5V10C20 10.5523 19.5523 11 19 11C18.4477 11 18 10.5523 18 10V7.41421L11.2071 14.2071C10.8166 14.5976 10.1834 14.5976 9.79289 14.2071C9.40237 13.8166 9.40237 13.1834 9.79289 12.7929L16.5858 6ZM10 5C10.5523 5 11 5.44772 11 6C11 6.55228 10.5523 7 10 7H7C6.44772 7 6 7.44772 6 8V17C6 17.5523 6.44772 18 7 18H15.9673C16.5154 18 16.9613 17.5589 16.9673 17.0109L17.0001 13.9891C17.0061 13.4369 17.4586 12.9941 18.0109 13.0001C18.5631 13.0061 19.0059 13.4586 18.9999 14.0109L18.9671 17.0326C18.9493 18.6766 17.6115 20 15.9673 20H7C5.34315 20 4 18.6569 4 17V8C4 6.34315 5.34315 5 7 5H10Z" fill="#758CA3"/>
</svg>
