<svg width="24" height="24" viewBox="0 0 24 24" fill="none" xmlns="http://www.w3.org/2000/svg">
<path fill-rule="evenodd" clip-rule="evenodd" d="M20.2929 2.29289C20.6834 1.90237 21.3166 1.90237 21.7071 2.29289C22.0976 2.68342 22.0976 3.31658 21.7071 3.70711L3.70711 21.7071C3.31659 22.0976 2.68342 22.0976 2.2929 21.7071C1.90237 21.3166 1.90237 20.6834 2.2929 20.2929L20.2929 2.29289ZM19.6411 9.35288C19.2386 8.97476 19.2188 8.3419 19.5969 7.93936C19.975 7.53681 20.6079 7.51701 21.0104 7.89513C21.897 8.72797 22.7567 9.69307 23.5902 10.7899C24.1337 11.5051 24.1337 12.4949 23.5902 13.2101C20.1751 17.7042 16.3004 20 12.0011 20C11.3045 20 10.6172 19.9394 9.93978 19.8182C9.39613 19.7209 9.03429 19.2013 9.13159 18.6576C9.22889 18.114 9.74848 17.7521 10.2921 17.8494C10.8528 17.9498 11.4223 18 12.0011 18C15.6129 18 18.9335 16.0325 21.9978 12C21.2296 10.989 20.4437 10.1068 19.6411 9.35288ZM4.36002 14.6461C4.76253 15.0243 4.78228 15.6571 4.40412 16.0597C4.02597 16.4622 3.39311 16.4819 2.9906 16.1038C2.10438 15.2712 1.24509 14.3064 0.411944 13.2101C-0.131538 12.4949 -0.131537 11.5051 0.41195 10.7899C3.82708 6.2958 7.70178 4 12.0011 4C12.6969 4 13.3836 4.06048 14.0604 4.18148C14.6041 4.27868 14.966 4.79821 14.8688 5.34187C14.7716 5.88554 14.252 6.24746 13.7084 6.15026C13.1482 6.0501 12.5793 6 12.0011 6C8.38928 6 5.0687 7.96748 2.00433 12C2.77226 13.0105 3.55775 13.8924 4.36002 14.6461Z" fill="#758CA3"/>
</svg>
