<svg width="24" height="24" viewBox="0 0 24 24" fill="none" xmlns="http://www.w3.org/2000/svg">
<path fill-rule="evenodd" clip-rule="evenodd" d="M12 17C9.24097 17 6.7266 15.5377 4.45689 12.6131C4.17689 12.2523 4.17689 11.7476 4.45689 11.3868C6.72662 8.46229 9.24098 7 12 7C14.759 7 17.2734 8.4623 19.5431 11.3869C19.8231 11.7477 19.8231 12.2524 19.5431 12.6132C17.2734 15.5377 14.759 17 12 17ZM12 9C10.099 9 8.29616 9.95259 6.53699 12C8.29611 14.0474 10.099 15 12 15C13.901 15 15.7038 14.0474 17.463 12C15.7039 9.95262 13.901 9 12 9ZM12 13.5C11.1716 13.5 10.5 12.8284 10.5 12C10.5 11.1716 11.1716 10.5 12 10.5C12.8284 10.5 13.5 11.1716 13.5 12C13.5 12.8284 12.8284 13.5 12 13.5Z" fill="#758CA3"/>
</svg>
