<svg width="24" height="24" viewBox="0 0 24 24" fill="none" xmlns="http://www.w3.org/2000/svg">
<path fill-rule="evenodd" clip-rule="evenodd" d="M12.0011 20C7.70176 20 3.82706 17.7042 0.411947 13.2101C-0.13155 12.4948 -0.131534 11.505 0.411975 10.7899C3.82708 6.29581 7.70178 4 12.0011 4C16.3004 4 20.1751 6.29582 23.5902 10.7899C24.1337 11.5052 24.1337 12.495 23.5902 13.2101C20.1751 17.7042 16.3004 20 12.0011 20ZM12.0011 18C15.6129 18 18.9335 16.0325 21.9978 12C18.9335 7.96749 15.6129 6 12.0011 6C8.38927 6 5.0687 7.96748 2.00432 12C5.06868 16.0325 8.38926 18 12.0011 18ZM12 16C9.79087 16 8.00001 14.2091 8.00001 12C8.00001 9.79086 9.79087 8 12 8C14.2091 8 16 9.79086 16 12C16 14.2091 14.2091 16 12 16ZM12 14C13.1046 14 14 13.1046 14 12C14 10.8954 13.1046 10 12 10C10.8954 10 10 10.8954 10 12C10 13.1046 10.8954 14 12 14Z" fill="#758CA3"/>
</svg>
