<svg width="24" height="24" viewBox="0 0 24 24" fill="none" xmlns="http://www.w3.org/2000/svg">
<path fill-rule="evenodd" clip-rule="evenodd" d="M8.5 1.5H15.5C17.7091 1.5 19.5 3.29086 19.5 5.5C19.5 7.00601 18.6677 8.31764 17.438 9C18.6677 9.68236 19.5 10.994 19.5 12.5C19.5 14.7091 17.7091 16.5 15.5 16.5C14.3053 16.5 13.2329 15.9762 12.5 15.1458V19.5C12.5 21.7091 10.7091 23.5 8.5 23.5C6.29086 23.5 4.5 21.7091 4.5 19.5C4.5 17.994 5.33229 16.6824 6.562 16C5.33229 15.3176 4.5 14.006 4.5 12.5C4.5 10.994 5.33229 9.68236 6.562 9C5.33229 8.31764 4.5 7.00601 4.5 5.5C4.5 3.29086 6.29086 1.5 8.5 1.5ZM18.5 5.5C18.5 7.15685 17.1569 8.5 15.5 8.5H12.5V2.5H15.5C17.1569 2.5 18.5 3.84315 18.5 5.5ZM11.5 9.5V15.5H8.5C6.84315 15.5 5.5 14.1569 5.5 12.5C5.5 10.8431 6.84315 9.5 8.5 9.5H11.5ZM15.5 9.5C13.8431 9.5 12.5 10.8431 12.5 12.5C12.5 14.1569 13.8431 15.5 15.5 15.5C17.1569 15.5 18.5 14.1569 18.5 12.5C18.5 10.8431 17.1569 9.5 15.5 9.5ZM11.5 16.5H8.5C6.84315 16.5 5.5 17.8431 5.5 19.5C5.5 21.1569 6.84315 22.5 8.5 22.5C10.1569 22.5 11.5 21.1569 11.5 19.5V16.5ZM11.5 8.5H8.5C6.84315 8.5 5.5 7.15685 5.5 5.5C5.5 3.84315 6.84315 2.5 8.5 2.5H11.5V8.5Z" fill="#758CA3"/>
</svg>
