<svg width="24" height="24" viewBox="0 0 24 24" fill="none" xmlns="http://www.w3.org/2000/svg">
<path fill-rule="evenodd" clip-rule="evenodd" d="M8 2V6C8 6.55228 7.55228 7 7 7H3V21C3 21.5523 3.44772 22 4 22H16C16.5523 22 17 21.5523 17 21V14.4142L13.7071 17.7071C13.5196 17.8946 13.2652 18 13 18H10C9.44771 18 9 17.5523 9 17V14C9 13.7348 9.10536 13.4804 9.29289 13.2929L17 5.58579V3C17 2.44772 16.5523 2 16 2H8ZM6 2.12602C4.59439 2.4878 3.4878 3.59439 3.12602 5H6V2.12602ZM19 12.4142V21C19 22.6569 17.6569 24 16 24H4C2.34315 24 1 22.6569 1 21V6C1 2.68629 3.68629 0 7 0H16C17.6569 0 19 1.34315 19 3V4C19.2559 4 19.5118 4.09763 19.7071 4.29289L22.7071 7.29289C23.0976 7.68342 23.0976 8.31658 22.7071 8.70711L19 12.4142ZM12.5858 16L20.5858 8L19 6.41421L11 14.4142V16H12.5858Z" fill="#758CA3"/>
</svg>
