<svg width="24" height="24" viewBox="0 0 24 24" fill="none" xmlns="http://www.w3.org/2000/svg">
<path fill-rule="evenodd" clip-rule="evenodd" d="M10 6V9C10 9.55228 9.55228 10 9 10H6V18H14V15.4142L12.7071 16.7071C12.5196 16.8946 12.2652 17 12 17H9C8.44772 17 8 16.5523 8 16V13C8 12.7348 8.10536 12.4804 8.29289 12.2929L14 6.58579V6H10ZM8 6.53513C7.39274 6.88641 6.88641 7.39274 6.53513 8H8V6.53513ZM16 13.4142V18C16 19.1046 15.1046 20 14 20H6C4.89543 20 4 19.1046 4 18V10C4 6.68629 6.68629 4 10 4H14C14.7532 4 15.4092 4.41638 15.7503 5.03152C16.0815 4.94645 16.4478 5.03358 16.7071 5.29289L19.7071 8.29289C20.0976 8.68342 20.0976 9.31658 19.7071 9.70711L16 13.4142ZM11.5858 15L17.5858 9L16 7.41421L10 13.4142V15H11.5858Z" fill="#758CA3"/>
</svg>
