<svg width="24" height="24" viewBox="0 0 24 24" fill="none" xmlns="http://www.w3.org/2000/svg">
<path fill-rule="evenodd" clip-rule="evenodd" d="M3 7V21C3 21.5523 3.44772 22 4 22H16C16.5523 22 17 21.5523 17 21V16.4142L13.7071 19.7071C13.5196 19.8946 13.2652 20 13 20H6C5.44772 20 5 19.5523 5 19C5 18.4477 5.44772 18 6 18H9V16C9 15.7348 9.10536 15.4804 9.29289 15.2929L17 7.58579V3C17 2.44772 16.5523 2 16 2H8V6C8 6.55228 7.55228 7 7 7H3ZM6 5V2.12602C4.59439 2.4878 3.4878 3.59439 3.12602 5H6ZM19 21C19 22.6569 17.6569 24 16 24H4C2.34315 24 1 22.6569 1 21V6C1 2.68629 3.68629 0 7 0H16C17.6569 0 19 1.34315 19 3V6C19.2559 6 19.5118 6.09763 19.7071 6.29289L22.7071 9.29289C23.0976 9.68342 23.0976 10.3166 22.7071 10.7071L19 14.4142V21ZM12.5858 18L20.5858 10L19 8.41421L11 16.4142V18H12.5858Z" fill="#758CA3"/>
</svg>
