<svg width="24" height="24" viewBox="0 0 24 24" fill="none" xmlns="http://www.w3.org/2000/svg">
<path fill-rule="evenodd" clip-rule="evenodd" d="M16 4H20C21.6569 4 23 5.34315 23 7V21C23 22.6569 21.6569 24 20 24H11C9.34315 24 8 22.6569 8 21V20H4C2.34315 20 1 18.6569 1 17V6C1 2.68629 3.68629 0 7 0H13C14.6569 0 16 1.34315 16 3V4ZM16 6V17C16 18.6569 14.6569 20 13 20H10V21C10 21.5523 10.4477 22 11 22H20C20.5523 22 21 21.5523 21 21V7C21 6.44772 20.5523 6 20 6H16ZM3 7V17C3 17.5523 3.44772 18 4 18H13C13.5523 18 14 17.5523 14 17V3C14 2.44772 13.5523 2 13 2H8V6C8 6.55228 7.55228 7 7 7H3ZM3.12602 5H6V2.12602C4.59439 2.4878 3.4878 3.59439 3.12602 5Z" fill="#758CA3"/>
</svg>
