<svg width="24" height="24" viewBox="0 0 24 24" fill="none" xmlns="http://www.w3.org/2000/svg">
<path fill-rule="evenodd" clip-rule="evenodd" d="M19 3V4C19 4.55228 18.5523 5 18 5C17.4477 5 17 4.55228 17 4V3C17 2.44772 16.5523 2 16 2H8V6C8 6.55228 7.55228 7 7 7H3V21C3 21.5523 3.44772 22 4 22H16C16.5523 22 17 21.5523 17 21V20C17 19.4477 17.4477 19 18 19C18.5523 19 19 19.4477 19 20V21C19 22.6569 17.6569 24 16 24H4C2.34315 24 1 22.6569 1 21V6C1 2.68629 3.68629 0 7 0H16C17.6569 0 19 1.34315 19 3ZM3.12602 5H6V2.12602C4.59439 2.4878 3.4878 3.59439 3.12602 5ZM20.5858 13H9C8.44772 13 8 12.5523 8 12C8 11.4477 8.44772 11 9 11H20.5858L18.2929 8.70711C17.9024 8.31658 17.9024 7.68342 18.2929 7.29289C18.6834 6.90237 19.3166 6.90237 19.7071 7.29289L23.7071 11.2929C24.0976 11.6834 24.0976 12.3166 23.7071 12.7071L19.7071 16.7071C19.3166 17.0976 18.6834 17.0976 18.2929 16.7071C17.9024 16.3166 17.9024 15.6834 18.2929 15.2929L20.5858 13Z" fill="#758CA3"/>
</svg>
