<svg width="24" height="24" viewBox="0 0 24 24" fill="none" xmlns="http://www.w3.org/2000/svg">
<path fill-rule="evenodd" clip-rule="evenodd" d="M2 3C2 1.89543 2.89543 1 4 1H20C21.1046 1 22 1.89543 22 3V8.58579C22 9.11622 21.7893 9.62493 21.4142 10L16 15.4142V21C16 22.1046 15.1046 23 14 23H10C8.89543 23 8 22.1046 8 21V15.4142L2.58579 10C2.21071 9.62493 2 9.11622 2 8.58579V3ZM4 3V8.58579L9.41421 14C9.78929 14.3751 10 14.8838 10 15.4142V21H14V15.4142C14 14.8838 14.2107 14.3751 14.5858 14L20 8.58579V3H4Z" fill="#758CA3"/>
</svg>
