<svg width="24" height="24" viewBox="0 0 24 24" fill="none" xmlns="http://www.w3.org/2000/svg">
<path fill-rule="evenodd" clip-rule="evenodd" d="M19.7886 8.16408C19.6624 7.62641 19.996 7.08824 20.5336 6.96205C21.0713 6.83586 21.6095 7.16943 21.7357 7.7071C21.9083 8.44253 21.9974 9.19928 22 9.97002L22 14C22 19.5228 17.5228 24 12 24C10.5178 24 9.07942 23.6766 7.76473 23.0612C7.26454 22.827 7.04887 22.2317 7.28303 21.7315C7.51718 21.2314 8.11249 21.0157 8.61268 21.2498C9.66331 21.7417 10.8124 22 12 22C16.4183 22 20 18.4183 20 14L20 9.97329C19.9979 9.35774 19.9266 8.75212 19.7886 8.16408ZM11.9536 5.99894C11.9382 5.99999 11.9227 6.0007 11.9072 6.00105C11.1881 6.01735 10.5016 6.22332 9.90232 6.59334C9.43239 6.88347 8.81623 6.73772 8.52609 6.26778C8.23596 5.79785 8.38171 5.18169 8.85165 4.89155C9.75156 4.33595 10.7846 4.02598 11.8618 4.00156C11.885 4.00104 11.9081 4.00131 11.9309 4.00235C11.9538 4.00079 11.9768 4 12 4C14.088 4 15.9927 5.07609 17.083 6.81088C17.3769 7.27848 17.2361 7.89578 16.7685 8.18967C16.3009 8.48356 15.6836 8.34274 15.3897 7.87514C14.6617 6.71676 13.393 6 12 6C11.9844 6 11.9689 5.99964 11.9536 5.99894ZM5.26888 18.3254C5.56794 18.7898 5.43398 19.4086 4.96967 19.7076C4.50537 20.0067 3.88653 19.8727 3.58747 19.4084C2.55675 17.8082 2 15.9441 2 14V11.1447C2 10.5924 2.44772 10.1447 3 10.1447C3.55228 10.1447 4 10.5924 4 11.1447V14C4 15.5571 4.44462 17.0457 5.26888 18.3254ZM16 11.3463C16 10.794 16.4477 10.3463 17 10.3463C17.5523 10.3463 18 10.794 18 11.3463V14C18 14.9641 17.7716 15.8976 17.3401 16.7379C17.0878 17.2292 16.485 17.423 15.9937 17.1706C15.5024 16.9183 15.3087 16.3155 15.561 15.8242C15.8482 15.265 16 14.6445 16 14V11.3463ZM13.1036 17.8461C13.6345 17.6941 14.1882 18.0013 14.3402 18.5323C14.4921 19.0632 14.1849 19.6169 13.654 19.7689C13.1526 19.9124 12.632 19.9902 12.0861 19.9993C10.463 20.0001 8.99695 19.4164 7.88165 18.3634C7.48006 17.9843 7.46187 17.3514 7.84102 16.9498C8.22016 16.5482 8.85306 16.53 9.25465 16.9091C9.9989 17.6118 10.9735 17.9998 12.0688 17.9994C12.4231 17.9935 12.7699 17.9416 13.1036 17.8461ZM8 13.961C8 14.5133 7.55228 14.961 7 14.961C6.44772 14.961 6 14.5133 6 13.961V10C6 9.58031 6.04325 9.16556 6.12835 8.76067C6.24195 8.22019 6.77219 7.87415 7.31266 7.98775C7.85314 8.10135 8.19919 8.63159 8.08558 9.17206C8.02887 9.44187 8 9.71875 8 10V13.961ZM11 11C11 10.4477 11.4477 10 12 10C12.5523 10 13 10.4477 13 11V14C13 14.5523 12.5523 15 12 15C11.4477 15 11 14.5523 11 14V11ZM4.3022 7.81348C4.15161 8.34484 3.59877 8.6535 3.06742 8.5029C2.53606 8.35231 2.2274 7.79947 2.37799 7.26812C3.58766 3.00005 7.49853 0 12 0C15.2951 0 18.3219 1.60651 20.1826 4.25027C20.5005 4.70191 20.3921 5.32572 19.9405 5.64359C19.4888 5.96147 18.865 5.85304 18.5471 5.40141C17.0571 3.28433 14.6373 2 12 2C8.39888 2 5.2695 4.40056 4.3022 7.81348Z" fill="#758CA3"/>
</svg>
