<svg width="24" height="24" viewBox="0 0 24 24" fill="none" xmlns="http://www.w3.org/2000/svg">
<path fill-rule="evenodd" clip-rule="evenodd" d="M4.29289 0.292893C4.47386 0.111929 4.72386 0 5 0H18.9669C20.0715 0 20.9669 0.89543 20.9669 2C20.9669 2.27085 20.9119 2.53889 20.8052 2.78784L19 7L20.8052 11.2122C21.2403 12.2274 20.77 13.4032 19.7548 13.8383C19.5058 13.945 19.2378 14 18.9669 14H6V23C6 23.5523 5.55228 24 5 24C4.44772 24 4 23.5523 4 23V1C4 0.723858 4.11193 0.473858 4.29289 0.292893ZM6 2V12H18.9669L16.8241 7L18.9669 2H6Z" fill="#758CA3"/>
</svg>
