<svg width="24" height="24" viewBox="0 0 24 24" fill="none" xmlns="http://www.w3.org/2000/svg">
<path fill-rule="evenodd" clip-rule="evenodd" d="M20.9672 18.5778C21.7527 20.0366 21.2069 21.856 19.7481 22.6415C19.311 22.8769 18.8223 23.0001 18.3258 23.0001H5.67422C4.01737 23.0001 2.67422 21.6569 2.67422 20.0001C2.67422 19.5036 2.79744 19.0149 3.03281 18.5778L8.00001 9.35299V6.94981C7.3754 6.31211 7.00001 5.44187 7.00001 4.50004V4C7.00001 2.34315 8.34315 1 10 1H14C15.6569 1 17 2.34315 17 4V4.50004C17 5.36578 16.6826 6.17274 16.1439 6.79377L16.3975 10.0913L20.9672 18.5778ZM14.071 5.92338C14.6147 5.66505 15 5.12754 15 4.50004V4C15 3.44772 14.5523 3 14 3H10C9.44772 3 9.00001 3.44772 9.00001 4V4.50004C9.00001 5.15446 9.41908 5.711 10.0035 5.91594C10.0012 5.94368 10 5.97174 10 6.00008V9.85722L4.79375 19.526C4.7153 19.6717 4.67422 19.8346 4.67422 20.0001C4.67422 20.5524 5.12194 21.0001 5.67422 21.0001H18.3258C18.4913 21.0001 18.6542 20.959 18.7999 20.8806C19.2862 20.6187 19.4681 20.0123 19.2063 19.526L14.4359 10.6667L14.071 5.92338ZM12 17.0001C12.5523 17.0001 13 17.4478 13 18.0001C13 18.5524 12.5523 19.0001 12 19.0001C11.4477 19.0001 11 18.5524 11 18.0001C11 17.4478 11.4477 17.0001 12 17.0001ZM12 14.0001C12.5523 14.0001 13 14.4478 13 15.0001C13 15.5524 12.5523 16.0001 12 16.0001C11.4477 16.0001 11 15.5524 11 15.0001C11 14.4478 11.4477 14.0001 12 14.0001ZM12 11.0001C12.5523 11.0001 13 11.4478 13 12.0001C13 12.5524 12.5523 13.0001 12 13.0001C11.4477 13.0001 11 12.5524 11 12.0001C11 11.4478 11.4477 11.0001 12 11.0001Z" fill="#758CA3"/>
</svg>
