<svg width="24" height="24" viewBox="0 0 24 24" fill="none" xmlns="http://www.w3.org/2000/svg">
<path fill-rule="evenodd" clip-rule="evenodd" d="M21.1679 10H21.6679C22.7724 10 23.6679 10.8954 23.6679 12C23.6679 12.2641 23.6156 12.5255 23.514 12.7692L20.1807 20.7692C19.8702 21.5145 19.1419 22 18.3345 22H4.36866C2.83339 22 1.54587 20.8409 1.38515 19.3141L0.0167269 6.31405C-0.156721 4.6663 1.03844 3.18993 2.68619 3.01648C2.79051 3.0055 2.89534 3 3.00024 3H8.94712C9.37755 3 9.75969 3.27543 9.8958 3.68377L10.6679 6H19.4023C20.5069 6 21.4023 6.89543 21.4023 8C21.4023 8.08293 21.3972 8.16578 21.3869 8.24807L21.1679 10ZM19.1523 10L19.4023 8H9.22636L8.22636 5H3.00024C2.96528 5 2.93033 5.00183 2.89556 5.00549C2.34631 5.06331 1.94792 5.55543 2.00574 6.10468L3.27334 18.1469L6.15506 11.2308C6.4656 10.4855 7.19381 10 8.00121 10H19.1523ZM8.00121 12L4.66788 20H18.3345L21.6679 12H8.00121Z" fill="#758CA3"/>
</svg>
