<svg width="24" height="24" viewBox="0 0 24 24" fill="none" xmlns="http://www.w3.org/2000/svg">
<path fill-rule="evenodd" clip-rule="evenodd" d="M15.5858 9H10C5.58172 9 2 12.5817 2 17V19.0312C2 19.5835 1.55228 20.0312 1 20.0312C0.447715 20.0312 0 19.5835 0 19.0312V17C0 11.4772 4.47715 7 10 7H15.5858L13.2929 4.70711C12.9024 4.31658 12.9024 3.68342 13.2929 3.29289C13.6834 2.90237 14.3166 2.90237 14.7071 3.29289L18.7071 7.29289C19.0976 7.68342 19.0976 8.31658 18.7071 8.70711L14.7071 12.7071C14.3166 13.0976 13.6834 13.0976 13.2929 12.7071C12.9024 12.3166 12.9024 11.6834 13.2929 11.2929L15.5858 9ZM21.5858 8L18.2929 4.70711C17.9024 4.31658 17.9024 3.68342 18.2929 3.29289C18.6834 2.90237 19.3166 2.90237 19.7071 3.29289L23.7071 7.29289C24.0976 7.68342 24.0976 8.31658 23.7071 8.70711L19.7071 12.7071C19.3166 13.0976 18.6834 13.0976 18.2929 12.7071C17.9024 12.3166 17.9024 11.6834 18.2929 11.2929L21.5858 8Z" fill="#758CA3"/>
</svg>
