<svg width="24" height="24" viewBox="0 0 24 24" fill="none" xmlns="http://www.w3.org/2000/svg">
<path fill-rule="evenodd" clip-rule="evenodd" d="M7 11H8C8.55229 11 9 11.4477 9 12C9 12.5523 8.55229 13 8 13H7V14C7 14.5523 6.55228 15 6 15C5.44772 15 5 14.5523 5 14V13H4C3.44772 13 3 12.5523 3 12C3 11.4477 3.44772 11 4 11H5V10C5 9.44772 5.44772 9 6 9C6.55228 9 7 9.44772 7 10V11ZM0 11.5C0 7.91015 2.91015 5 6.5 5H17.5C21.0899 5 24 7.91015 24 11.5V14.3074C24 16.3425 22.761 18.1726 20.8714 18.9285L20.4586 19.0936C18.8384 19.7417 16.9976 19.4982 15.6016 18.4512L14.4667 17.6C13.9474 17.2105 13.3158 17 12.6667 17H11.3333C10.6842 17 10.0526 17.2105 9.53333 17.6L8.39838 18.4512C7.0024 19.4982 5.16158 19.7417 3.54142 19.0936L3.12861 18.9285C1.23904 18.1726 0 16.3425 0 14.3074V11.5ZM2 11.5V14.3074C2 15.5247 2.74114 16.6194 3.87139 17.0715L4.2842 17.2366C5.2563 17.6255 6.36079 17.4794 7.19838 16.8512L8.33333 16C9.19881 15.3509 10.2515 15 11.3333 15H12.6667C13.7485 15 14.8012 15.3509 15.6667 16L16.8016 16.8512C17.6392 17.4794 18.7437 17.6255 19.7158 17.2366L20.1286 17.0715C21.2589 16.6194 22 15.5247 22 14.3074V11.5C22 9.01472 19.9853 7 17.5 7H6.5C4.01472 7 2 9.01472 2 11.5ZM17 12C17.5523 12 18 12.4477 18 13C18 13.5523 17.5523 14 17 14C16.4477 14 16 13.5523 16 13C16 12.4477 16.4477 12 17 12ZM19 10C19.5523 10 20 10.4477 20 11C20 11.5523 19.5523 12 19 12C18.4477 12 18 11.5523 18 11C18 10.4477 18.4477 10 19 10Z" fill="#758CA3"/>
</svg>
