<svg width="24" height="24" viewBox="0 0 24 24" fill="none" xmlns="http://www.w3.org/2000/svg">
<path fill-rule="evenodd" clip-rule="evenodd" d="M12.2047 1.00001C6.56031 0.994269 1.74628 5.08615 0.842541 10.6577C-0.061195 16.2293 3.2126 21.6331 8.56941 23.4118C9.14823 23.5177 9.35294 23.1577 9.35294 22.8541C9.35294 22.5506 9.35294 21.8588 9.35294 20.8988C6.14117 21.5977 5.46353 19.3529 5.46353 19.3529C5.25046 18.6572 4.79779 18.0595 4.18588 17.6659C3.14823 16.96 4.27059 16.96 4.27059 16.96C5.00761 17.0641 5.65578 17.5014 6.02823 18.1459C6.34368 18.7179 6.87393 19.1406 7.50179 19.3208C8.12965 19.5009 8.8034 19.4236 9.37411 19.1059C9.41842 18.5252 9.66876 17.9794 10.08 17.5671C7.5247 17.2777 4.84235 16.2894 4.84235 11.92C4.82481 10.7786 5.24688 9.67412 6.02117 8.8353C5.67632 7.84285 5.71662 6.7571 6.13412 5.79295C6.13412 5.79295 7.10117 5.48236 9.29647 6.97177C11.1816 6.45419 13.1713 6.45419 15.0565 6.97177C17.2518 5.48236 18.2118 5.79295 18.2118 5.79295C18.6351 6.74689 18.6854 7.82486 18.3529 8.81412C19.1272 9.65294 19.5493 10.7574 19.5318 11.8988C19.5318 16.3177 16.8424 17.2847 14.28 17.5459C14.8359 18.1047 15.1218 18.8774 15.0635 19.6635C15.0635 21.2024 15.0635 22.4447 15.0635 22.8188C15.0635 23.1929 15.2682 23.4824 15.8541 23.3694C21.1473 21.5447 24.3569 16.1728 23.4554 10.6469C22.5539 5.1211 17.8034 1.04779 12.2047 1.00001Z" fill="#758CA3"/>
</svg>
