<svg width="24" height="24" viewBox="0 0 24 24" fill="none" xmlns="http://www.w3.org/2000/svg">
<path fill-rule="evenodd" clip-rule="evenodd" d="M12 16C15.866 16 19 12.866 19 9C19 5.13401 15.866 2 12 2C8.13401 2 5 5.13401 5 9C5 12.866 8.13401 16 12 16ZM13 20.9589V22H15C15.5523 22 16 22.4477 16 23C16 23.5523 15.5523 24 15 24H9C8.44772 24 8 23.5523 8 23C8 22.4477 8.44772 22 9 22H11V20.9588C8.16318 20.7241 5.53468 19.4961 3.53425 17.5048C3.14284 17.1151 3.14139 16.482 3.53102 16.0906C3.92065 15.6991 4.55381 15.6977 4.94523 16.0873C6.80777 17.9414 9.31887 19 12 19C17.5228 19 22 14.5228 22 9C22 6.3316 20.9515 3.83145 19.113 1.97114C18.7248 1.57832 18.7286 0.945165 19.1214 0.556956C19.5142 0.168747 20.1474 0.17249 20.5356 0.565316C22.7403 2.7963 24 5.79988 24 9C24 15.2907 19.1595 20.4508 13 20.9589ZM12 18C7.02944 18 3 13.9706 3 9C3 4.02944 7.02944 0 12 0C16.9706 0 21 4.02944 21 9C21 13.9706 16.9706 18 12 18Z" fill="#758CA3"/>
</svg>
