<svg width="24" height="24" viewBox="0 0 24 24" fill="none" xmlns="http://www.w3.org/2000/svg">
<path fill-rule="evenodd" clip-rule="evenodd" d="M3.41661 9.99993L12 13.9015L20.5834 9.99993L12 6.09839L3.41661 9.99993ZM0 9.99993C0 9.63356 0.195399 9.2672 0.586197 9.08956L11.1724 4.27766C11.6982 4.03863 12.3018 4.03863 12.8276 4.27766L23.4138 9.08956C24.1954 9.44483 24.1954 10.555 23.4138 10.9103L20 12.462V16.724C20 17.0995 19.8943 17.4675 19.6949 17.7858C18.1427 20.2633 15.5333 21.4999 12 21.4999C8.46671 21.4999 5.85733 20.2633 4.30518 17.7859C4.10583 17.4677 4.00009 17.0998 4 16.7241V12.462L2 11.5529V14.4999C2 15.0522 1.55228 15.4999 1 15.4999C0.447715 15.4999 0 15.0522 0 14.4999V9.99993ZM18 13.3711L12.8276 15.7222C12.3018 15.9612 11.6982 15.9612 11.1724 15.7222L6.00001 13.3711L6.00004 16.724C7.15854 18.5732 9.11408 19.4999 12 19.4999C14.886 19.4999 16.8415 18.5732 18 16.724V13.3711Z" fill="#758CA3"/>
</svg>
