<svg width="24" height="24" viewBox="0 0 24 24" fill="none" xmlns="http://www.w3.org/2000/svg">
<path fill-rule="evenodd" clip-rule="evenodd" d="M17 2C16.4477 2 16 2.44772 16 3V21C16 21.5523 16.4477 22 17 22C17.5523 22 18 21.5523 18 21V10.7808L23.2425 9.47014C23.6877 9.35885 24 8.95887 24 8.5V3C24 2.44772 23.5523 2 23 2H17ZM22 7.71922L18 8.71922V4H22V7.71922Z" fill="#758CA3"/>
<path fill-rule="evenodd" clip-rule="evenodd" d="M7 13C9.20914 13 11 11.2091 11 9C11 6.79086 9.20914 5 7 5C4.79086 5 3 6.79086 3 9C3 11.2091 4.79086 13 7 13ZM7 11C8.10457 11 9 10.1046 9 9C9 7.89543 8.10457 7 7 7C5.89543 7 5 7.89543 5 9C5 10.1046 5.89543 11 7 11Z" fill="#758CA3"/>
<path d="M5 16C3.34315 16 2 17.3431 2 19V21C2 21.5523 1.55228 22 1 22C0.447715 22 0 21.5523 0 21V19C0 16.2386 2.23858 14 5 14H9C11.7614 14 14 16.2386 14 19V21C14 21.5523 13.5523 22 13 22C12.4477 22 12 21.5523 12 21V19C12 17.3431 10.6569 16 9 16H5Z" fill="#758CA3"/>
</svg>
