<svg width="24" height="24" viewBox="0 0 24 24" fill="none" xmlns="http://www.w3.org/2000/svg">
<path fill-rule="evenodd" clip-rule="evenodd" d="M21.4255 15.0297L19.3229 3.81565C19.2342 3.34269 18.8213 2.99995 18.34 2.99995H5.65995C5.17874 2.99995 4.76577 3.34269 4.67709 3.81565L2.57445 15.0297C2.7135 15.01 2.85562 14.9998 3.00013 14.9998H20.9999C21.1444 14.9998 21.2865 15.01 21.4255 15.0297ZM23.8305 17.0036C23.9379 17.3089 23.9974 17.6368 23.9997 17.9784C24.0001 17.9922 24.0001 18.006 23.9998 18.0198V19.9997C23.9998 21.6565 22.6567 22.9996 20.9999 22.9996H3.00013C1.3433 22.9996 0.000179629 21.6565 0.000179629 19.9997V18.0198C-8.18531e-05 18.006 -5.85857e-05 17.9922 0.00025419 17.9784C0.00263729 17.6368 0.0620835 17.3089 0.169533 17.0036L2.71137 3.44708C2.97742 2.02818 4.21632 0.999985 5.65995 0.999985H18.34C19.7837 0.999985 21.0226 2.02818 21.2886 3.44708L23.8305 17.0036ZM21.9011 17.5658C21.7395 17.2309 21.3967 16.9997 20.9999 16.9997H3.00013C2.60333 16.9997 2.2605 17.2309 2.09893 17.5658L2.00015 18.0927V19.9997C2.00015 20.552 2.44786 20.9997 3.00013 20.9997H20.9999C21.5521 20.9997 21.9998 20.552 21.9998 19.9997V18.0927L21.9011 17.5658ZM16.9999 17.9997C17.5522 17.9997 17.9999 18.4474 17.9999 18.9997C17.9999 19.552 17.5522 19.9997 16.9999 19.9997C16.4476 19.9997 15.9999 19.552 15.9999 18.9997C15.9999 18.4474 16.4476 17.9997 16.9999 17.9997ZM19.9999 17.9997C20.5521 17.9997 20.9999 18.4474 20.9999 18.9997C20.9999 19.552 20.5521 19.9997 19.9999 19.9997C19.4476 19.9997 18.9999 19.552 18.9999 18.9997C18.9999 18.4474 19.4476 17.9997 19.9999 17.9997Z" fill="#758CA3"/>
</svg>
