<svg width="24" height="24" viewBox="0 0 24 24" fill="none" xmlns="http://www.w3.org/2000/svg">
<path fill-rule="evenodd" clip-rule="evenodd" d="M12.1768 7.23042C13.7063 5.70086 16.1862 5.70086 17.7158 7.23042C19.2453 8.75997 19.2453 11.2399 17.7158 12.7694L13.0165 17.4687C12.4551 18.0301 11.5449 18.0301 10.9835 17.4687L6.28422 12.7694C4.75467 11.2399 4.75467 8.75997 6.28422 7.23042C7.81377 5.70086 10.2937 5.70086 11.8232 7.23042L12 7.40719L12.1768 7.23042ZM12 15.6568L16.3016 11.3552C17.0501 10.6067 17.0501 9.39314 16.3016 8.64463C15.5531 7.89613 14.3395 7.89613 13.591 8.64463L12 10.2356L10.409 8.64463C9.6605 7.89613 8.44694 7.89613 7.69843 8.64463C6.94993 9.39314 6.94993 10.6067 7.69843 11.3552L12 15.6568Z" fill="#758CA3"/>
</svg>
