<svg width="24" height="24" viewBox="0 0 24 24" fill="none" xmlns="http://www.w3.org/2000/svg">
<path fill-rule="evenodd" clip-rule="evenodd" d="M20.0139 12.2998C21.8363 10.4773 21.8363 7.52253 20.0139 5.70009C18.1914 3.87764 15.2367 3.87764 13.4142 5.70009L12 7.1143L10.5858 5.70009C8.76334 3.87764 5.80857 3.87764 3.98613 5.70009C2.16368 7.52253 2.16368 10.4773 3.98613 12.2998L11.505 19.8187C11.7784 20.092 12.2216 20.092 12.495 19.8187L20.0139 12.2998ZM21.4281 13.714L13.9092 21.2329C12.8548 22.2873 11.1452 22.2873 10.0908 21.2329L2.57191 13.714C-0.0315806 11.1105 -0.0315806 6.88937 2.57191 4.28587C5.17541 1.68238 9.39651 1.68238 12 4.28587C14.6035 1.68238 18.8246 1.68238 21.4281 4.28587C24.0316 6.88937 24.0316 11.1105 21.4281 13.714Z" fill="#758CA3"/>
</svg>
