<svg width="24" height="24" viewBox="0 0 24 24" fill="none" xmlns="http://www.w3.org/2000/svg">
<path fill-rule="evenodd" clip-rule="evenodd" d="M6.41421 6L8.70711 8.29289C9.09763 8.68342 9.09763 9.31658 8.70711 9.70711C8.31658 10.0976 7.68342 10.0976 7.29289 9.70711L3.29289 5.70711C2.90237 5.31658 2.90237 4.68342 3.29289 4.29289L7.29289 0.292893C7.68342 -0.0976311 8.31658 -0.0976311 8.70711 0.292893C9.09763 0.683418 9.09763 1.31658 8.70711 1.70711L6.41421 4H12.5C17.7467 4 22 8.25329 22 13.5C22 18.7467 17.7467 23 12.5 23C7.25329 23 3 18.7467 3 13.5C3 12.9477 3.44772 12.5 4 12.5C4.55228 12.5 5 12.9477 5 13.5C5 17.6421 8.35786 21 12.5 21C16.6421 21 20 17.6421 20 13.5C20 9.35786 16.6421 6 12.5 6H6.41421ZM13 9V13H15C15.5523 13 16 13.4477 16 14C16 14.5523 15.5523 15 15 15H12C11.4477 15 11 14.5523 11 14V9C11 8.44771 11.4477 8 12 8C12.5523 8 13 8.44771 13 9Z" fill="#758CA3"/>
</svg>
