<svg width="24" height="24" viewBox="0 0 24 24" fill="none" xmlns="http://www.w3.org/2000/svg">
<path fill-rule="evenodd" clip-rule="evenodd" d="M10.7196 0.463608C11.5258 -0.208164 12.7042 -0.138283 13.4263 0.597914L13.5364 0.719681L21.3047 10.0415C21.709 10.5268 21.9488 11.1258 21.9927 11.7523L22 11.9621V23C22 23.5128 21.614 23.9355 21.1166 23.9933L21 24H15C14.4872 24 14.0645 23.614 14.0067 23.1166L14 23V17C14 16.4872 13.614 16.0645 13.1166 16.0067L13 16H11C10.4872 16 10.0645 16.386 10.0067 16.8834L10 17V23C10 23.5128 9.61396 23.9355 9.11662 23.9933L9 24H3C2.48716 24 2.06449 23.614 2.00673 23.1166L2 23V11.9621C2 11.3305 2.1993 10.7168 2.56669 10.2074L2.69534 10.0415L10.4636 0.719681C10.541 0.626755 10.6267 0.541046 10.7196 0.463608ZM12 2.00005L4.23178 11.3219C4.11197 11.4657 4.03552 11.6394 4.00973 11.8229L4 11.9621V22H8V17C8 15.4023 9.24892 14.0963 10.8237 14.0051L11 14H13C14.5977 14 15.9037 15.2489 15.9949 16.8237L16 17V22H20V11.9621C20 11.775 19.9475 11.5925 19.8498 11.435L19.7682 11.3219L12 2.00005Z" fill="#758CA3"/>
</svg>
