<svg width="24" height="24" viewBox="0 0 24 24" fill="none" xmlns="http://www.w3.org/2000/svg">
<path fill-rule="evenodd" clip-rule="evenodd" d="M13 22V15C13 13.8954 13.8954 13 15 13H17C18.1046 13 19 13.8954 19 15V22H21.0499V13.0754L12 8.13909L3 13.0482V22H13ZM23.0499 14.0001V22C23.0499 23.1046 22.1544 24 21.0499 24H3C1.89543 24 1 23.1046 1 22V14.0014C0.477128 14.0008 0 13.5817 0 13V8C0 7.63406 0.199887 7.29734 0.521148 7.1221L11.5211 1.1221C11.8196 0.959299 12.1804 0.959299 12.4789 1.1221L23.4789 7.1221C23.8001 7.29734 24 7.63406 24 8V13C24 13.5631 23.5528 13.9739 23.0499 14.0001ZM2 11.3155L11.5211 6.1221C11.8196 5.9593 12.1804 5.9593 12.4789 6.1221L22 11.3155V8.59363L12 3.13909L2 8.59363V11.3155ZM15 15V22H17V15H15ZM7 13H9C10.1046 13 11 13.8954 11 15V17C11 18.1046 10.1046 19 9 19H7C5.89543 19 5 18.1046 5 17V15C5 13.8954 5.89543 13 7 13ZM7 15V17H9V15H7Z" fill="#758CA3"/>
</svg>
