<svg width="24" height="24" viewBox="0 0 24 24" fill="none" xmlns="http://www.w3.org/2000/svg">
<path fill-rule="evenodd" clip-rule="evenodd" d="M19 22C19.5523 22 20 22.4477 20 23C20 23.5523 19.5523 24 19 24H5C4.44772 24 4 23.5523 4 23C4 22.4477 4.44772 22 5 22V18.0523C5 17.3711 5.23184 16.7102 5.65739 16.1783L9 12L5.65739 7.82174C5.23184 7.2898 5 6.62887 5 5.94766V2C4.44772 2 4 1.55228 4 1C4 0.447715 4.44772 0 5 0H19C19.5523 0 20 0.447715 20 1C20 1.55228 19.5523 2 19 2V5.94766C19 6.62887 18.7682 7.2898 18.3426 7.82174L15 12L18.3426 16.1783C18.7682 16.7102 19 17.3711 19 18.0523V22ZM7 22H17V18.0523C17 17.8253 16.9227 17.605 16.7809 17.4276L13.4383 13.2494C12.8539 12.519 12.8539 11.481 13.4383 10.7506L16.7809 6.57235C16.9227 6.39504 17 6.17473 17 5.94766V2H7V5.94766C7 6.17473 7.07728 6.39504 7.21913 6.57235L10.5617 10.7506C11.1461 11.481 11.1461 12.519 10.5617 13.2494L7.21913 17.4276C7.07728 17.605 7 17.8253 7 18.0523V22Z" fill="#758CA3"/>
</svg>
