<svg width="24" height="24" viewBox="0 0 24 24" fill="none" xmlns="http://www.w3.org/2000/svg">
<path fill-rule="evenodd" clip-rule="evenodd" d="M18 15.9884C18.0001 15.9968 18.0001 16.0053 18 16.0138C17.9925 17.112 17.1 18 16 18H10.008C10.0022 18 9.9965 18 9.99076 18H8C6.89543 18 6 17.1046 6 16V8C6 6.89543 6.89543 6 8 6H16C17.1046 6 18 6.89543 18 8V15.9884ZM16 13V8H8V16H9.51938L12.4128 12.3833C13.1028 11.5207 14.3614 11.3809 15.2239 12.0709C15.3555 12.1762 15.4733 12.2978 15.5745 12.4327L16 13ZM15.75 16L13.9745 13.6327L12.0806 16H15.75ZM10.5 12C9.67157 12 9 11.3284 9 10.5C9 9.67157 9.67157 9 10.5 9C11.3284 9 12 9.67157 12 10.5C12 11.3284 11.3284 12 10.5 12Z" fill="#758CA3"/>
</svg>
