<svg width="24" height="24" viewBox="0 0 24 24" fill="none" xmlns="http://www.w3.org/2000/svg">
<path fill-rule="evenodd" clip-rule="evenodd" d="M6 15.3097L9.22604 11.3668C9.60068 10.9089 10.2888 10.8746 10.7071 11.2929L12.2964 12.8822L15.2318 9.35982C15.6082 8.90808 16.2913 8.87709 16.7071 9.29289L18 10.5858V7C18 6.44772 17.5523 6 17 6H7C6.44772 6 6 6.44772 6 7V15.3097ZM6.49487 17.8632C6.64311 17.9502 6.81574 18 7 18H17C17.5523 18 18 17.5523 18 17V13.4142L16.0672 11.4814L11.7682 16.6402C11.4147 17.0645 10.7841 17.1218 10.3598 16.7682C9.93554 16.4147 9.87821 15.7841 10.2318 15.3598L11.0108 14.425L10.0742 13.4885L6.49487 17.8632ZM7 4H17C18.6569 4 20 5.34315 20 7V17C20 18.6569 18.6569 20 17 20H7C5.34315 20 4 18.6569 4 17V7C4 5.34315 5.34315 4 7 4ZM8.5 10C7.67157 10 7 9.32843 7 8.5C7 7.67157 7.67157 7 8.5 7C9.32843 7 10 7.67157 10 8.5C10 9.32843 9.32843 10 8.5 10Z" fill="#758CA3"/>
</svg>
