<svg width="24" height="24" viewBox="0 0 24 24" fill="none" xmlns="http://www.w3.org/2000/svg">
<path fill-rule="evenodd" clip-rule="evenodd" d="M2.46901 10.9998H6.00011C7.10466 10.9998 8.00007 11.8952 8.00007 12.9998V13.9998H15.9999V12.9998C15.9999 11.8952 16.8953 10.9998 17.9999 10.9998H21.531L20.1977 4.99991H3.80232L2.46901 10.9998ZM0.0002142 13.0213C-0.000120925 13.0052 -6.38633e-05 12.989 0.000392793 12.9728C0.00368458 12.724 0.0523861 12.4862 0.138585 12.2673L2.02399 3.783C2.12566 3.32547 2.53147 2.99995 3.00016 2.99995H20.9998C21.4685 2.99995 21.8743 3.32547 21.976 3.783L23.8614 12.2673C23.9476 12.4862 23.9963 12.724 23.9996 12.9728C24.0001 12.989 24.0001 13.0052 23.9998 13.0213V18.9997C23.9998 20.1042 23.1044 20.9996 21.9998 20.9996H2.00018C0.895629 20.9996 0.0002142 20.1042 0.0002142 18.9997V13.0213ZM2.00018 12.9998V18.9997H21.9998V12.9998H17.9999V13.9998C17.9999 15.1043 17.1045 15.9997 15.9999 15.9997H8.00007C6.89552 15.9997 6.00011 15.1043 6.00011 13.9998V12.9998H2.00018Z" fill="#758CA3"/>
</svg>
