<svg width="25" height="24" viewBox="0 0 25 24" fill="none" xmlns="http://www.w3.org/2000/svg">
<path fill-rule="evenodd" clip-rule="evenodd" d="M12.0069 13.607L10.1888 15.8939C10.0536 16.0639 9.90862 16.2259 9.75455 16.379C7.57001 18.55 4.0392 18.5389 1.86826 16.3544L1.74414 16.2295C-0.581379 13.8894 -0.581379 10.1108 1.74414 7.77075L1.86826 7.64586C2.02137 7.49178 2.18335 7.34679 2.35338 7.21161C4.76415 5.295 8.27218 5.6956 10.1888 8.10636L12.0069 10.3932L13.825 8.10636C15.7416 5.6956 19.2496 5.295 21.6604 7.21161C21.8304 7.34679 21.9924 7.49178 22.1455 7.64586L22.2696 7.77075C24.5952 10.1108 24.5952 13.8894 22.2696 16.2295L22.1455 16.3544C19.9746 18.5389 16.4438 18.55 14.2592 16.379C14.1052 16.2259 13.9602 16.0639 13.825 15.8939L12.0069 13.607ZM15.3905 14.6493C15.4772 14.7583 15.5702 14.8622 15.669 14.9604C17.0701 16.3527 19.3346 16.3457 20.7269 14.9446L20.851 14.8197C22.4014 13.2597 22.4014 10.7406 20.851 9.18054L20.7269 9.05565C20.6287 8.95683 20.5248 8.86384 20.4158 8.77715C18.8696 7.54793 16.6197 7.80485 15.3905 9.351L13.2844 12.0001L15.3905 14.6493ZM8.62325 9.351C7.39404 7.80485 5.14416 7.54793 3.59801 8.77715C3.48896 8.86384 3.38508 8.95683 3.28688 9.05565L3.16276 9.18054C1.61241 10.7406 1.61241 13.2597 3.16276 14.8197L3.28688 14.9446C4.67921 16.3457 6.9437 16.3527 8.34475 14.9604C8.44357 14.8622 8.53656 14.7583 8.62325 14.6493L10.7294 12.0001L8.62325 9.351Z" fill="#758CA3"/>
</svg>
