<svg width="24" height="24" viewBox="0 0 24 24" fill="none" xmlns="http://www.w3.org/2000/svg">
<path fill-rule="evenodd" clip-rule="evenodd" d="M7.588 8.98559L6.31283 7.70329C5.92381 7.3121 5.92558 6.67963 6.31677 6.29061C6.70795 5.9016 7.34043 5.90336 7.72945 6.29455L9.70507 8.28122C10.0926 8.67087 10.0926 9.30032 9.70507 9.68997L7.70723 11.699C7.31822 12.0902 6.68574 12.0919 6.29455 11.7029C5.90336 11.3139 5.9016 10.6814 6.29061 10.2902L7.588 8.98559ZM17.9871 14.1526V16.8358C17.9956 16.8882 18 16.9421 18 16.997C18 17.5487 17.5528 17.9959 17.0011 17.9959H6.99892C6.44723 17.9959 6 17.5487 6 16.997V13.9914C6 13.4397 6.44723 12.9925 6.99892 12.9925H17.0011C17.5528 12.9925 18 13.4397 18 13.9914C18 14.0463 17.9956 14.1001 17.9871 14.1526ZM15.9892 14.9903H7.99784V15.9981H15.9892V14.9903Z" fill="#758CA3"/>
</svg>
