<svg width="24" height="24" viewBox="0 0 24 24" fill="none" xmlns="http://www.w3.org/2000/svg">
<path fill-rule="evenodd" clip-rule="evenodd" d="M17.9871 7.16054V9.84462C17.9956 9.89712 18 9.95099 18 10.0059C18 10.5578 17.5528 11.0052 17.0011 11.0052H6.99892C6.44723 11.0052 6 10.5578 6 10.0059V6.99926C6 6.44739 6.44723 6 6.99892 6H17.0011C17.5528 6 18 6.44739 18 6.99926C18 7.05417 17.9956 7.10804 17.9871 7.16054ZM15.9892 7.99853H7.99784V9.00664H15.9892V7.99853ZM7.588 14.991L6.31283 13.7083C5.92381 13.317 5.92558 12.6843 6.31677 12.2951C6.70795 11.906 7.34043 11.9078 7.72945 12.2991L9.70507 14.2864C10.0926 14.6762 10.0926 15.3059 9.70507 15.6957L7.70723 17.7054C7.31822 18.0967 6.68574 18.0984 6.29455 17.7093C5.90336 17.3201 5.9016 16.6874 6.29061 16.2961L7.588 14.991Z" fill="#758CA3"/>
</svg>
