<svg width="24" height="24" viewBox="0 0 24 24" fill="none" xmlns="http://www.w3.org/2000/svg">
<path fill-rule="evenodd" clip-rule="evenodd" d="M7.58971 8.98882L6.31316 7.70513C5.92373 7.31352 5.9255 6.68036 6.31711 6.29092C6.70872 5.90149 7.34188 5.90326 7.73132 6.29487L9.70908 8.28368C10.097 8.67375 10.097 9.30388 9.70908 9.69395L7.70908 11.7051C7.31964 12.0967 6.68648 12.0985 6.29487 11.7091C5.90326 11.3196 5.90149 10.6865 6.29092 10.2949L7.58971 8.98882ZM12 7C12 6.44772 12.4477 6 13 6H17C17.5523 6 18 6.44772 18 7V17C18 17.5523 17.5523 18 17 18H13C12.4477 18 12 17.5523 12 17V7ZM14 8V16H16V8H14Z" fill="#758CA3"/>
</svg>
