<svg width="24" height="24" viewBox="0 0 24 24" fill="none" xmlns="http://www.w3.org/2000/svg">
<path fill-rule="evenodd" clip-rule="evenodd" d="M16.4103 8.98882L17.7091 10.2949C18.0985 10.6865 18.0967 11.3196 17.7051 11.7091C17.3135 12.0985 16.6804 12.0967 16.2909 11.7051L14.2909 9.69395C13.903 9.30388 13.903 8.67375 14.2909 8.28368L16.2687 6.29487C16.6581 5.90326 17.2913 5.90149 17.6829 6.29092C18.0745 6.68036 18.0763 7.31352 17.6868 7.70513L16.4103 8.98882ZM12 7V17C12 17.5523 11.5523 18 11 18H7C6.44772 18 6 17.5523 6 17V7C6 6.44772 6.44772 6 7 6H11C11.5523 6 12 6.44772 12 7ZM10 8H8V16H10V8Z" fill="#758CA3"/>
</svg>
