<svg width="24" height="24" viewBox="0 0 24 24" fill="none" xmlns="http://www.w3.org/2000/svg">
<path fill-rule="evenodd" clip-rule="evenodd" d="M18 14V13C18 12.4477 18.4477 12 19 12C19.5523 12 20 12.4477 20 13V14H21C21.5523 14 22 13.5523 22 13V11C22 10.4477 21.5523 10 21 10H11.584C10.8124 8.2341 9.05032 7 7 7C4.23858 7 2 9.23858 2 12C2 14.7614 4.23858 17 7 17C9.05032 17 10.8124 15.7659 11.584 14H14V13C14 12.4477 14.4477 12 15 12C15.5523 12 16 12.4477 16 13V14H18ZM21 8C22.6569 8 24 9.34315 24 11V13C24 14.6569 22.6569 16 21 16H12.7457C11.4611 17.8444 9.33628 19 7 19C3.13401 19 0 15.866 0 12C0 8.13401 3.13401 5 7 5C9.33628 5 11.4611 6.15555 12.7457 8H21ZM5 13C4.44772 13 4 12.5523 4 12C4 11.4477 4.44772 11 5 11C5.55228 11 6 11.4477 6 12C6 12.5523 5.55228 13 5 13Z" fill="#758CA3"/>
</svg>
