<svg width="24" height="24" viewBox="0 0 24 24" fill="none" xmlns="http://www.w3.org/2000/svg">
<path fill-rule="evenodd" clip-rule="evenodd" d="M6 3V2C6 1.44772 6.44771 1 7 1C7.55228 1 8 1.44772 8 2V3H9.9828C9.9934 2.99983 10.004 2.99983 10.0147 3H12C12.5523 3 13 3.44772 13 4C13 4.55228 12.5523 5 12 5H10.8447C10.3486 7.53262 9.2812 9.87025 7.65107 12.0085C8.72015 13.194 10.007 14.2379 11.5146 15.1425C11.9882 15.4267 12.1418 16.0409 11.8576 16.5145C11.5735 16.9881 10.9592 17.1416 10.4856 16.8575C8.8934 15.9022 7.51354 14.7982 6.34869 13.5474C5.27146 14.7005 4.01514 15.7895 2.58124 16.8137C2.13183 17.1347 1.50727 17.0307 1.18627 16.5812C0.865257 16.1318 0.969349 15.5073 1.41876 15.1863C2.82799 14.1797 4.04264 13.1147 5.0646 11.9904C4.25727 10.8802 3.59248 9.67348 3.07164 8.37139C2.86652 7.85861 3.11594 7.27664 3.62872 7.07152C4.14151 6.86641 4.72348 7.11583 4.92859 7.62861C5.3188 8.60412 5.80011 9.5185 6.3734 10.3723C7.56501 8.70225 8.37246 6.9124 8.80118 5H2C1.44771 5 0.999999 4.55228 0.999999 4C0.999999 3.44772 1.44771 3 2 3H6ZM19.3901 18H14.6099L12.9333 22.359C12.7351 22.8745 12.1565 23.1316 11.641 22.9333C11.1255 22.7351 10.8684 22.1565 11.0667 21.641L16.0667 8.64102C16.3954 7.78633 17.6046 7.78633 17.9333 8.64102L22.9333 21.641C23.1316 22.1565 22.8745 22.7351 22.359 22.9333C21.8435 23.1316 21.2649 22.8745 21.0667 22.359L19.3901 18ZM18.6209 16L17 11.7857L15.3791 16H18.6209Z" fill="#758CA3"/>
</svg>
