<svg width="24" height="24" viewBox="0 0 24 24" fill="none" xmlns="http://www.w3.org/2000/svg">
<path fill-rule="evenodd" clip-rule="evenodd" d="M21.7899 16.1051C23.0635 16.4518 24 17.6165 24 19C24 20.6569 22.6569 22 21 22H3C1.34315 22 0 20.6569 0 19C0 17.6165 0.936468 16.4518 2.21009 16.1051C2.07451 15.7631 2 15.3902 2 15V5C2 3.34315 3.34315 2 5 2H19C20.6569 2 22 3.34315 22 5V15C22 15.3902 21.9255 15.7631 21.7899 16.1051ZM19 16C19.5523 16 20 15.5523 20 15V5C20 4.44772 19.5523 4 19 4H5C4.44772 4 4 4.44772 4 5V15C4 15.5523 4.44772 16 5 16H19ZM3 18C2.44772 18 2 18.4477 2 19C2 19.5523 2.44772 20 3 20H21C21.5523 20 22 19.5523 22 19C22 18.4477 21.5523 18 21 18H3Z" fill="#758CA3"/>
</svg>
