<svg width="24" height="24" viewBox="0 0 24 24" fill="none" xmlns="http://www.w3.org/2000/svg">
<path fill-rule="evenodd" clip-rule="evenodd" d="M0.00400637 7.91007C-0.0330611 7.49869 0.189111 7.09058 0.58643 6.90998L11.1724 2.09817C11.6983 1.85915 12.3017 1.85915 12.8276 2.09817L23.4136 6.90998C23.8109 7.09058 24.0331 7.49869 23.996 7.91007C24.0331 8.32145 23.8109 8.72956 23.4136 8.91016L12.8276 13.722C12.3017 13.961 11.6983 13.961 11.1724 13.722L0.58643 8.91016C0.189111 8.72956 -0.0330611 8.32145 0.00400637 7.91007ZM3.21935 7.91007L12 11.9013L20.7807 7.91007L12 3.91887L3.21935 7.91007ZM0.58643 12.9101C0.0836585 12.6816 -0.138656 12.0887 0.0898764 11.5859C0.318409 11.0832 0.911248 10.8609 1.41402 11.0894L12 15.9012L22.586 11.0894C23.0888 10.8609 23.6816 11.0832 23.9101 11.5859C24.1387 12.0887 23.9163 12.6816 23.4136 12.9101L12.8276 17.7219C12.3017 17.9609 11.6983 17.9609 11.1724 17.7219L0.58643 12.9101ZM0.58643 16.91C0.0836585 16.6815 -0.138656 16.0886 0.0898764 15.5859C0.318409 15.0831 0.911248 14.8608 1.41402 15.0893L12 19.9011L22.586 15.0893C23.0888 14.8608 23.6816 15.0831 23.9101 15.5859C24.1387 16.0886 23.9163 16.6815 23.4136 16.91L12.8276 21.7218C12.3017 21.9608 11.6983 21.9608 11.1724 21.7218L0.58643 16.91Z" fill="#758CA3"/>
</svg>
