<svg id="meteor-icon-kit__regular-line-column-xs" viewBox="0 0 24 24" fill="none" xmlns="http://www.w3.org/2000/svg"><rect width="24" height="24" fill="white"/><path d="M10 7H7C6.44772 7 6 7.44772 6 8C6 8.55228 6.44772 9 7 9H10C10.5523 9 11 8.55228 11 8C11 7.44772 10.5523 7 10 7Z" fill="#758CA3"/><path d="M10 11H7C6.44772 11 6 11.4477 6 12C6 12.5523 6.44772 13 7 13H10C10.5523 13 11 12.5523 11 12C11 11.4477 10.5523 11 10 11Z" fill="#758CA3"/><path d="M10 15H7C6.44772 15 6 15.4477 6 16C6 16.5523 6.44772 17 7 17H10C10.5523 17 11 16.5523 11 16C11 15.4477 10.5523 15 10 15Z" fill="#758CA3"/><path d="M17 7H14C13.4477 7 13 7.44772 13 8C13 8.55228 13.4477 9 14 9H17C17.5523 9 18 8.55228 18 8C18 7.44772 17.5523 7 17 7Z" fill="#758CA3"/><path d="M17 11H14C13.4477 11 13 11.4477 13 12C13 12.5523 13.4477 13 14 13H17C17.5523 13 18 12.5523 18 12C18 11.4477 17.5523 11 17 11Z" fill="#758CA3"/><path d="M17 15H14C13.4477 15 13 15.4477 13 16C13 16.5523 13.4477 17 14 17H17C17.5523 17 18 16.5523 18 16C18 15.4477 17.5523 15 17 15Z" fill="#758CA3"/></svg>