<svg id="meteor-icon-kit__regular-line-column" viewBox="0 0 24 24" fill="none" xmlns="http://www.w3.org/2000/svg"><rect width="24" height="24" fill="white"/><path d="M2 4C2 4.55228 2.44772 5 3 5H10C10.5523 5 11 4.55228 11 4C11 3.44772 10.5523 3 10 3H3C2.44772 3 2 3.44772 2 4Z" fill="#758CA3"/><path d="M2 8C2 8.55228 2.44772 9 3 9H10C10.5523 9 11 8.55228 11 8C11 7.44772 10.5523 7 10 7H3C2.44772 7 2 7.44772 2 8Z" fill="#758CA3"/><path d="M2 12C2 12.5523 2.44772 13 3 13H10C10.5523 13 11 12.5523 11 12C11 11.4477 10.5523 11 10 11H3C2.44772 11 2 11.4477 2 12Z" fill="#758CA3"/><path d="M2 16C2 16.5523 2.44772 17 3 17H10C10.5523 17 11 16.5523 11 16C11 15.4477 10.5523 15 10 15H3C2.44772 15 2 15.4477 2 16Z" fill="#758CA3"/><path d="M2 20C2 20.5523 2.44772 21 3 21H10C10.5523 21 11 20.5523 11 20C11 19.4477 10.5523 19 10 19H3C2.44772 19 2 19.4477 2 20Z" fill="#758CA3"/><path d="M13 4C13 4.55228 13.4477 5 14 5H21C21.5523 5 22 4.55228 22 4C22 3.44772 21.5523 3 21 3H14C13.4477 3 13 3.44772 13 4Z" fill="#758CA3"/><path d="M13 8C13 8.55228 13.4477 9 14 9H21C21.5523 9 22 8.55228 22 8C22 7.44772 21.5523 7 21 7H14C13.4477 7 13 7.44772 13 8Z" fill="#758CA3"/><path d="M13 12C13 12.5523 13.4477 13 14 13H21C21.5523 13 22 12.5523 22 12C22 11.4477 21.5523 11 21 11H14C13.4477 11 13 11.4477 13 12Z" fill="#758CA3"/><path d="M13 16C13 16.5523 13.4477 17 14 17H21C21.5523 17 22 16.5523 22 16C22 15.4477 21.5523 15 21 15H14C13.4477 15 13 15.4477 13 16Z" fill="#758CA3"/><path d="M13 20C13 20.5523 13.4477 21 14 21H21C21.5523 21 22 20.5523 22 20C22 19.4477 21.5523 19 21 19H14C13.4477 19 13 19.4477 13 20Z" fill="#758CA3"/></svg>