<svg width="24" height="24" viewBox="0 0 24 24" fill="none" xmlns="http://www.w3.org/2000/svg">
<path fill-rule="evenodd" clip-rule="evenodd" d="M10.5858 7.75727C12.1479 6.19517 14.6806 6.19517 16.2427 7.75727C17.8048 9.31936 17.8048 11.852 16.2427 13.4141C15.8521 13.8046 15.219 13.8046 14.8285 13.4141C14.4379 13.0236 14.4379 12.3904 14.8285 11.9999C15.6095 11.2189 15.6095 9.95253 14.8285 9.17148C14.0474 8.39043 12.7811 8.39043 12 9.17148C11.6095 9.562 10.9763 9.562 10.5858 9.17148C10.1953 8.78096 10.1953 8.14779 10.5858 7.75727ZM7.75739 10.5857C8.14791 10.1952 8.78108 10.1952 9.1716 10.5857C9.56213 10.9762 9.56213 11.6094 9.1716 11.9999C8.39055 12.781 8.39055 14.0473 9.1716 14.8283C9.95265 15.6094 11.219 15.6094 12 14.8283C12.3906 14.4378 13.0237 14.4378 13.4142 14.8283C13.8048 15.2189 13.8048 15.852 13.4142 16.2425C11.8521 17.8046 9.31949 17.8046 7.75739 16.2425C6.19529 14.6805 6.19529 12.1478 7.75739 10.5857ZM11.2929 14.1212C10.9024 14.5118 10.2692 14.5118 9.87871 14.1212C9.48818 13.7307 9.48818 13.0975 9.87871 12.707L12.7071 9.87859C13.0977 9.48806 13.7308 9.48806 14.1213 9.87859C14.5119 10.2691 14.5119 10.9023 14.1213 11.2928L11.2929 14.1212Z" fill="#758CA3"/>
</svg>
