<svg width="24" height="24" viewBox="0 0 24 24" fill="none" xmlns="http://www.w3.org/2000/svg">
<path fill-rule="evenodd" clip-rule="evenodd" d="M14 7H17C17.5523 7 18 7.44772 18 8C18 8.55228 17.5523 9 17 9H14C13.4477 9 13 8.55228 13 8C13 7.44772 13.4477 7 14 7ZM14 11H17C17.5523 11 18 11.4477 18 12C18 12.5523 17.5523 13 17 13H14C13.4477 13 13 12.5523 13 12C13 11.4477 13.4477 11 14 11ZM14 15H17C17.5523 15 18 15.4477 18 16C18 16.5523 17.5523 17 17 17H14C13.4477 17 13 16.5523 13 16C13 15.4477 13.4477 15 14 15ZM9 15C7.34315 15 6 13.6569 6 12C6 10.3431 7.34315 9 9 9C10.6569 9 12 10.3431 12 12C12 13.6569 10.6569 15 9 15ZM9 13C9.55228 13 10 12.5523 10 12C10 11.4477 9.55228 11 9 11C8.44772 11 8 11.4477 8 12C8 12.5523 8.44772 13 9 13Z" fill="#758CA3"/>
</svg>
