<svg width="24" height="24" viewBox="0 0 24 24" fill="none" xmlns="http://www.w3.org/2000/svg">
<path fill-rule="evenodd" clip-rule="evenodd" d="M14 7.00005H17C17.5523 7.00005 18 7.44777 18 8.00005C18 8.55234 17.5523 9.00005 17 9.00005H14C13.4477 9.00005 13 8.55234 13 8.00005C13 7.44777 13.4477 7.00005 14 7.00005ZM14 11.0001H17C17.5523 11.0001 18 11.4478 18 12.0001C18 12.5523 17.5523 13.0001 17 13.0001H14C13.4477 13.0001 13 12.5523 13 12.0001C13 11.4478 13.4477 11.0001 14 11.0001ZM16 15.0001H17C17.5523 15.0001 18 15.4478 18 16.0001C18 16.5523 17.5523 17.0001 17 17.0001H16C15.4477 17.0001 15 16.5523 15 16.0001C15 15.4478 15.4477 15.0001 16 15.0001ZM9 9.41427L8.70711 9.70716C8.31658 10.0977 7.68342 10.0977 7.29289 9.70716C6.90237 9.31663 6.90237 8.68347 7.29289 8.29294L9.29289 6.29294C9.92286 5.66298 11 6.10915 11 7.00005V16.0001H12C12.5523 16.0001 13 16.4478 13 17.0001C13 17.5523 12.5523 18.0001 12 18.0001H8C6.66667 18.0001 6.66667 16.0001 8 16.0001H9V9.41427Z" fill="#758CA3"/>
</svg>
