<svg width="24" height="24" viewBox="0 0 24 24" fill="none" xmlns="http://www.w3.org/2000/svg">
<path fill-rule="evenodd" clip-rule="evenodd" d="M3 5C2.44772 5 2 4.55228 2 4C2 3.44772 2.44772 3 3 3H4C4.55228 3 5 3.44772 5 4C5 4.55228 4.55228 5 4 5H3ZM3 9C2.44772 9 2 8.55228 2 8C2 7.44772 2.44772 7 3 7H4C4.55228 7 5 7.44772 5 8C5 8.55228 4.55228 9 4 9H3ZM3 13C2.44772 13 2 12.5523 2 12C2 11.4477 2.44772 11 3 11H4C4.55228 11 5 11.4477 5 12C5 12.5523 4.55228 13 4 13H3ZM3 17C2.44772 17 2 16.5523 2 16C2 15.4477 2.44772 15 3 15H4C4.55228 15 5 15.4477 5 16C5 16.5523 4.55228 17 4 17H3ZM3 21C2.44772 21 2 20.5523 2 20C2 19.4477 2.44772 19 3 19H4C4.55228 19 5 19.4477 5 20C5 20.5523 4.55228 21 4 21H3ZM8 5C7.44772 5 7 4.55228 7 4C7 3.44772 7.44772 3 8 3H21C21.5523 3 22 3.44772 22 4C22 4.55228 21.5523 5 21 5H8ZM8 9C7.44772 9 7 8.55228 7 8C7 7.44772 7.44772 7 8 7H21C21.5523 7 22 7.44772 22 8C22 8.55228 21.5523 9 21 9H8ZM8 13C7.44772 13 7 12.5523 7 12C7 11.4477 7.44772 11 8 11H21C21.5523 11 22 11.4477 22 12C22 12.5523 21.5523 13 21 13H8ZM8 17C7.44772 17 7 16.5523 7 16C7 15.4477 7.44772 15 8 15H21C21.5523 15 22 15.4477 22 16C22 16.5523 21.5523 17 21 17H8ZM8 21C7.44772 21 7 20.5523 7 20C7 19.4477 7.44772 19 8 19H21C21.5523 19 22 19.4477 22 20C22 20.5523 21.5523 21 21 21H8Z" fill="#758CA3"/>
</svg>
