<svg width="24" height="24" viewBox="0 0 24 24" fill="none" xmlns="http://www.w3.org/2000/svg">
<path fill-rule="evenodd" clip-rule="evenodd" d="M9.24405 13H10.756L10 10.4801L9.24405 13ZM11.356 15H8.64405L7.95785 17.2873C7.79915 17.8163 7.24166 18.1165 6.71267 17.9578C6.18368 17.7991 5.8835 17.2416 6.04219 16.7127L9.04219 6.71265C9.32725 5.76245 10.6728 5.76245 10.9578 6.71265L13.9578 16.7127C14.1165 17.2416 13.8164 17.7991 13.2874 17.9578C12.7584 18.1165 12.2009 17.8163 12.0422 17.2873L11.356 15ZM14 7H17C17.5523 7 18 7.44772 18 8C18 8.55228 17.5523 9 17 9H14C13.4477 9 13 8.55228 13 8C13 7.44772 13.4477 7 14 7ZM15 11H17C17.5523 11 18 11.4477 18 12C18 12.5523 17.5523 13 17 13H15C14.4477 13 14 12.5523 14 12C14 11.4477 14.4477 11 15 11ZM16 15H17C17.5523 15 18 15.4477 18 16C18 16.5523 17.5523 17 17 17H16C15.4477 17 15 16.5523 15 16C15 15.4477 15.4477 15 16 15Z" fill="#758CA3"/>
</svg>
