<svg width="24" height="24" viewBox="0 0 24 24" fill="none" xmlns="http://www.w3.org/2000/svg">
<path fill-rule="evenodd" clip-rule="evenodd" d="M10 7H17C17.5523 7 18 7.44772 18 8C18 8.55228 17.5523 9 17 9H10C9.44772 9 9 8.55228 9 8C9 7.44772 9.44772 7 10 7ZM7 7C7.55228 7 8 7.44772 8 8C8 8.55228 7.55228 9 7 9C6.44772 9 6 8.55228 6 8C6 7.44772 6.44772 7 7 7ZM10 11H17C17.5523 11 18 11.4477 18 12C18 12.5523 17.5523 13 17 13H10C9.44772 13 9 12.5523 9 12C9 11.4477 9.44772 11 10 11ZM7 11C7.55228 11 8 11.4477 8 12C8 12.5523 7.55228 13 7 13C6.44772 13 6 12.5523 6 12C6 11.4477 6.44772 11 7 11ZM10 15H17C17.5523 15 18 15.4477 18 16C18 16.5523 17.5523 17 17 17H10C9.44772 17 9 16.5523 9 16C9 15.4477 9.44772 15 10 15ZM7 15C7.55228 15 8 15.4477 8 16C8 16.5523 7.55228 17 7 17C6.44772 17 6 16.5523 6 16C6 15.4477 6.44772 15 7 15Z" fill="#758CA3"/>
</svg>
