<svg width="24" height="24" viewBox="0 0 24 24" fill="none" xmlns="http://www.w3.org/2000/svg">
<path fill-rule="evenodd" clip-rule="evenodd" d="M8 9H16.0554V4C16.0554 2.89543 15.16 2 14.0554 2H10C8.89543 2 8 2.89543 8 4V9ZM18.0554 9.1909C19.1916 9.61797 20 10.7146 20 12V21C20 22.6569 18.6569 24 17 24H7C5.34315 24 4 22.6569 4 21V12C4 10.6938 4.83481 9.58254 6 9.17071V4C6 1.79086 7.79086 0 10 0H14.0554C16.2645 0 18.0554 1.79086 18.0554 4V9.1909ZM7 11C6.44772 11 6 11.4477 6 12V21C6 21.5523 6.44772 22 7 22H17C17.5523 22 18 21.5523 18 21V12C18 11.4477 17.5523 11 17 11H7ZM11 15C11 14.4477 11.4477 14 12 14C12.5523 14 13 14.4477 13 15V18C13 18.5523 12.5523 19 12 19C11.4477 19 11 18.5523 11 18V15Z" fill="#758CA3"/>
</svg>
