<svg width="24" height="24" viewBox="0 0 24 24" fill="none" xmlns="http://www.w3.org/2000/svg">
<path fill-rule="evenodd" clip-rule="evenodd" d="M10 10H15C16.1046 10 17 10.8954 17 12V18C17 19.1046 16.1046 20 15 20H9C7.89543 20 7 19.1046 7 18V12C7 11.2597 7.4022 10.6134 8 10.2676V7.5C8 5.567 9.567 4 11.5 4H12.5C14.433 4 16 5.567 16 7.5V8H14V7.5C14 6.67157 13.3284 6 12.5 6H11.5C10.6716 6 10 6.67157 10 7.5V10ZM9.25382 12H9V18H15V12H14.7462C14.5156 12.006 14.2638 12 14 12H10C9.73623 12 9.48439 12.006 9.25382 12ZM12 13C12.5523 13 13 13.4477 13 14V15C13 15.5523 12.5523 16 12 16C11.4477 16 11 15.5523 11 15V14C11 13.4477 11.4477 13 12 13Z" fill="#758CA3"/>
</svg>
