<svg width="24" height="24" viewBox="0 0 24 24" fill="none" xmlns="http://www.w3.org/2000/svg">
<path fill-rule="evenodd" clip-rule="evenodd" d="M16.5858 14L14.2929 11.7071C13.9024 11.3166 13.9024 10.6834 14.2929 10.2929C14.6834 9.90237 15.3166 9.90237 15.7071 10.2929L19.7071 14.2929C20.0976 14.6834 20.0976 15.3166 19.7071 15.7071L15.7071 19.7071C15.3166 20.0976 14.6834 20.0976 14.2929 19.7071C13.9024 19.3166 13.9024 18.6834 14.2929 18.2929L16.5858 16H10C6.68629 16 4 13.3137 4 10V5C4 4.44772 4.44772 4 5 4C5.55228 4 6 4.44772 6 5V10C6 12.2091 7.79086 14 10 14H16.5858Z" fill="#758CA3"/>
</svg>
