<svg width="24" height="24" viewBox="0 0 24 24" fill="none" xmlns="http://www.w3.org/2000/svg">
<path fill-rule="evenodd" clip-rule="evenodd" d="M21.7071 2.29289C21.3166 1.90237 20.6834 1.90237 20.2929 2.29289L2.29289 20.2929C1.90237 20.6834 1.90237 21.3166 2.29289 21.7071C2.68342 22.0976 3.31658 22.0976 3.70711 21.7071L21.7071 3.70711C22.0976 3.31658 22.0976 2.68342 21.7071 2.29289ZM16.2885 11.2929C16.679 10.9024 17.3122 10.9024 17.7027 11.2929L20.4297 14.0198C20.955 13.4821 21.4731 12.89 21.9841 12.2431C21.2098 11.2628 20.4177 10.4074 19.6087 9.67635C19.203 9.30972 19.183 8.69609 19.5642 8.30577C19.9453 7.91546 20.5832 7.89626 20.9889 8.26289C21.8826 9.07043 22.749 10.0062 23.5892 11.0697C24.1369 11.7632 24.1369 12.7229 23.5892 13.4164C20.147 17.774 16.2415 20 11.9082 20C11.2061 20 10.5133 19.9412 9.83053 19.8237C9.28257 19.7293 8.91787 19.2255 9.01594 18.6984C9.11401 18.1713 9.63771 17.8204 10.1857 17.9148C10.7508 18.0121 11.3248 18.0608 11.9082 18.0608C13.0051 18.0608 14.0754 17.8876 15.12 17.5386L13.2885 15.7071C12.898 15.3166 12.898 14.6834 13.2885 14.2929C13.679 13.9024 14.3122 13.9024 14.7027 14.2929L16.7027 16.2929C16.8281 16.4183 16.9132 16.5687 16.9581 16.728C17.6344 16.3552 18.2995 15.9036 18.9537 15.3723L16.2885 12.7071C15.898 12.3166 15.898 11.6834 16.2885 11.2929ZM4.4352 15.6943C4.8164 15.3039 4.7965 14.6903 4.39074 14.3236C3.58202 13.5927 2.79021 12.7375 2.0161 11.7576C5.10513 7.84726 8.45244 5.9394 12.0933 5.9394C12.6762 5.9394 13.2497 5.98799 13.8144 6.08511C14.3624 6.17937 14.8861 5.82841 14.9841 5.30121C15.0821 4.77402 14.7172 4.27024 14.1692 4.17598C13.487 4.05865 12.7948 4 12.0933 4C7.75941 4 3.85352 6.22624 0.410897 10.5841C-0.136964 11.2777 -0.136965 12.2375 0.410892 12.931C1.25074 13.9942 2.11695 14.9297 3.0103 15.737C3.41605 16.1037 4.054 16.0846 4.4352 15.6943Z" fill="#758CA3"/>
</svg>
