<svg width="24" height="24" viewBox="0 0 24 24" fill="none" xmlns="http://www.w3.org/2000/svg">
<path fill-rule="evenodd" clip-rule="evenodd" d="M12.7685 23.0866C12.7296 23.1333 12.6866 23.1763 12.6399 23.2152C12.2154 23.5686 11.5849 23.511 11.2315 23.0866C5.74384 16.4959 3 11.6798 3 8.63811C3 3.86741 7.2293 0 12 0C16.7707 0 21 3.86741 21 8.63811C21 11.6798 18.2562 16.4959 12.7685 23.0866ZM19 8.63811C19 5.06318 15.7595 2 12 2C8.24047 2 5 5.06318 5 8.63811C5 10.9292 7.31851 15.1147 12 20.873C16.6815 15.1147 19 10.9292 19 8.63811ZM12 11C10.8954 11 10 10.1046 10 9C10 7.89543 10.8954 7 12 7C13.1046 7 14 7.89543 14 9C14 10.1046 13.1046 11 12 11Z" fill="#758CA3"/>
</svg>
