<svg width="24" height="24" viewBox="0 0 24 24" fill="none" xmlns="http://www.w3.org/2000/svg">
<path fill-rule="evenodd" clip-rule="evenodd" d="M15.7357 2.03542C15.8199 2.01241 15.9085 2.00012 16 2.00012C16.1034 2.00012 16.2031 2.01581 16.2969 2.04494L23.2747 4.0386C23.704 4.16125 24 4.55364 24 5.00012V21.0001C24 21.6645 23.3641 22.1442 22.7253 21.9616L15.9828 20.0352L8.26429 21.9648C8.21809 21.9775 8.17056 21.9868 8.12196 21.9928C8.05101 22.0014 7.97943 22.0024 7.9084 21.9959C7.83756 21.9895 7.76886 21.9757 7.70307 21.9553L0.725279 19.9616C0.295977 19.839 0 19.4466 0 19.0001V3.00012C0 2.33574 0.635905 1.85608 1.27472 2.0386L8.01725 3.96503L15.7357 2.03542ZM15 4.2809L9 5.7809V19.7193L15 18.2193V4.2809ZM17 4.32585V18.2458L22 19.6744V5.75442L17 4.32585ZM7 5.75442L2 4.32585V18.2458L7 19.6744V5.75442Z" fill="#758CA3"/>
</svg>
