<svg width="24" height="24" viewBox="0 0 24 24" fill="none" xmlns="http://www.w3.org/2000/svg">
<path fill-rule="evenodd" clip-rule="evenodd" d="M14.5528 0.105574C14.8628 -0.0494204 15.2309 -0.0328564 15.5257 0.14935C15.8205 0.331557 16 0.653423 16 1V7.26757C16.5978 7.61337 17 8.25972 17 9V11.5279C17 11.6831 17.0361 11.8362 17.1056 11.9751L18.6833 15.1305C18.8916 15.5471 19 16.0064 19 16.4721V24H17V17.5H7V24H5V16.9244C5 16.8346 5.00404 16.7449 5.01206 16.6557C5.00412 16.605 5 16.553 5 16.5C5 16.2996 5.05894 16.113 5.16042 15.9565C5.18932 15.8718 5.22205 15.7882 5.25857 15.706L6.91381 11.9817C6.97064 11.8539 7 11.7155 7 11.5756V9C7 8.25972 7.4022 7.61337 8 7.26757V4C8 3.62123 8.214 3.27497 8.55279 3.10557L14.5528 0.105574ZM14 2.61804V7H10V4.61804L14 2.61804ZM15.3167 12.8695L16.632 15.5H7.53876L8.74143 12.794C8.91191 12.4104 9 11.9953 9 11.5756V9H15V11.5279C15 11.9936 15.1084 12.4529 15.3167 12.8695Z" fill="#758CA3"/>
</svg>
