<svg width="24" height="24" viewBox="0 0 24 24" fill="none" xmlns="http://www.w3.org/2000/svg">
<path fill-rule="evenodd" clip-rule="evenodd" d="M11.2929 0.292893C11.6834 -0.0976311 12.3166 -0.0976311 12.7071 0.292893C12.7069 0.292697 12.7073 0.293089 12.7071 0.292893L15.7071 3.29289C16.0976 3.68342 16.0976 4.31658 15.7071 4.70711C15.3166 5.09763 14.6834 5.09763 14.2929 4.70711L13 3.41421V7.5H14C14.5523 7.5 15 7.94772 15 8.5C15 9.05229 14.5523 9.5 14 9.5H13V12C13 12.0277 12.9989 12.0552 12.9967 12.0824C15.836 12.5571 18 15.0258 18 18C18 21.3137 15.3137 24 12 24C8.68629 24 6 21.3137 6 18C6 15.0258 8.16399 12.5571 11.0033 12.0824C11.0011 12.0552 11 12.0277 11 12V9.5H10C9.44772 9.5 9 9.05229 9 8.5C9 7.94772 9.44772 7.5 10 7.5H11V3.41421L9.70711 4.70711C9.31658 5.09763 8.68342 5.09763 8.29289 4.70711C7.90237 4.31658 7.90237 3.68342 8.29289 3.29289L11.2929 0.292893ZM12 14C14.2091 14 16 15.7909 16 18C16 20.2091 14.2091 22 12 22C9.79086 22 8 20.2091 8 18C8 15.7909 9.79086 14 12 14Z" fill="#758CA3"/>
</svg>
