<svg width="24" height="24" viewBox="0 0 24 24" fill="none" xmlns="http://www.w3.org/2000/svg">
<path fill-rule="evenodd" clip-rule="evenodd" d="M16.7071 1.29289C16.9147 1.50053 17.012 1.77677 16.9988 2.04866C16.9996 2.06567 17 2.08279 17 2.1V6C17 6.55228 16.5523 7 16 7C15.4477 7 15 6.55228 15 6V4.41421L11.8907 7.52347C12.5892 8.50428 13 9.70417 13 11C13 14.3137 10.3137 17 7 17C3.68629 17 1 14.3137 1 11C1 7.68629 3.68629 5 7 5C8.29583 5 9.49572 5.41079 10.4765 6.10925L13.5858 3H12C11.4477 3 11 2.55228 11 2C11 1.44772 11.4477 1 12 1H15.9C15.9172 1 15.9343 1.0004 15.9513 1.00118C16.2232 0.988014 16.4995 1.08525 16.7071 1.29289ZM11 11C11 13.2091 9.20914 15 7 15C4.79086 15 3 13.2091 3 11C3 8.79086 4.79086 7 7 7C9.20914 7 11 8.79086 11 11Z" fill="#758CA3"/>
<path d="M23.9988 9.04866C24.012 8.77677 23.9147 8.50054 23.7071 8.29289C23.4995 8.08525 23.2232 7.98801 22.9513 8.00118C22.9343 8.0004 22.9172 8 22.9 8H19C18.4477 8 18 8.44772 18 9C18 9.55229 18.4477 10 19 10H20.5858L17.4765 13.1093C16.7348 12.5811 15.8678 12.2174 14.9288 12.0715C14.8377 12.752 14.661 13.4055 14.41 14.0208C16.4265 14.2261 17.9999 15.9293 17.9999 18C17.9999 20.2091 16.2091 22 13.9999 22C11.9292 22 10.226 20.4266 10.0207 18.4101C9.40548 18.6611 8.75199 18.8378 8.07141 18.9289C8.51786 21.8015 11.0022 24 13.9999 24C17.3137 24 19.9999 21.3137 19.9999 18C19.9999 16.7042 19.5892 15.5043 18.8907 14.5235L22 11.4142V13C22 13.5523 22.4477 14 23 14C23.5523 14 24 13.5523 24 13V9.1C24 9.08279 23.9996 9.06568 23.9988 9.04866Z" fill="#758CA3"/>
</svg>
