<svg width="24" height="24" viewBox="0 0 24 24" fill="none" xmlns="http://www.w3.org/2000/svg">
<path fill-rule="evenodd" clip-rule="evenodd" d="M21.4988 3.54866C21.512 3.27677 21.4147 3.00054 21.2071 2.79289C20.9995 2.58525 20.7232 2.48801 20.4513 2.50118C20.4343 2.5004 20.4172 2.5 20.4 2.5H16.5C15.9477 2.5 15.5 2.94772 15.5 3.5C15.5 4.05228 15.9477 4.5 16.5 4.5H18.0858L15.5 7.08579L14.2071 5.79289C13.8166 5.40237 13.1834 5.40237 12.7929 5.79289C12.4024 6.18342 12.4024 6.81658 12.7929 7.20711L14.0858 8.5L11.9765 10.6093C10.9957 9.91079 9.79583 9.5 8.5 9.5C5.18629 9.5 2.5 12.1863 2.5 15.5C2.5 18.8137 5.18629 21.5 8.5 21.5C11.8137 21.5 14.5 18.8137 14.5 15.5C14.5 14.2042 14.0892 13.0043 13.3907 12.0235L15.5 9.91421L16.7929 11.2071C17.1834 11.5976 17.8166 11.5976 18.2071 11.2071C18.5976 10.8166 18.5976 10.1834 18.2071 9.79289L16.9142 8.5L19.5 5.91421V7.5C19.5 8.05228 19.9477 8.5 20.5 8.5C21.0523 8.5 21.5 8.05228 21.5 7.5V3.6C21.5 3.58279 21.4996 3.56568 21.4988 3.54866ZM8.5 19.5C10.7091 19.5 12.5 17.7091 12.5 15.5C12.5 13.2909 10.7091 11.5 8.5 11.5C6.29086 11.5 4.5 13.2909 4.5 15.5C4.5 17.7091 6.29086 19.5 8.5 19.5Z" fill="#758CA3"/>
</svg>
