<svg width="24" height="24" viewBox="0 0 24 24" fill="none" xmlns="http://www.w3.org/2000/svg">
<path fill-rule="evenodd" clip-rule="evenodd" d="M13.3973 8.12182C14.4415 8.30578 15.416 8.69229 16.2786 9.23934L21.1256 0.514623C21.3938 0.031844 22.0026 -0.142098 22.4854 0.126112C22.9682 0.394323 23.1421 1.00312 22.8739 1.4859L17.874 10.4858C17.8643 10.5032 17.8542 10.5202 17.8437 10.5367C19.1811 11.9666 19.9998 13.8878 19.9998 16.0001C19.9998 20.4183 16.4181 24 11.9999 24C7.58164 24 3.99996 20.4183 3.99996 16.0001C3.99996 13.8878 4.81865 11.9666 6.15603 10.5367C6.14552 10.5202 6.13543 10.5032 6.12578 10.4858L1.12583 1.4859C0.85762 1.00312 1.03156 0.394323 1.51434 0.126112C1.99712 -0.142098 2.60592 0.031844 2.87413 0.514623L7.72119 9.23934C8.58378 8.69229 9.55822 8.30578 10.6025 8.12182L8.06359 1.35138C7.86967 0.834266 8.13167 0.257859 8.64879 0.0639412C9.1659 -0.129977 9.74231 0.132026 9.93623 0.649141L11.9999 6.15221L14.0635 0.649141C14.2574 0.132026 14.8339 -0.129977 15.351 0.0639412C15.8681 0.257859 16.1301 0.834266 15.9362 1.35138L13.3973 8.12182V8.12182ZM11.9999 22C15.3136 22 17.9998 19.3138 17.9998 16.0001C17.9998 12.6864 15.3136 10.0002 11.9999 10.0002C8.6862 10.0002 5.99994 12.6864 5.99994 16.0001C5.99994 19.3138 8.6862 22 11.9999 22ZM11.9999 13.0004C12.5522 13.0004 12.9999 13.4481 12.9999 14.0004V17.0004C13.5521 17.0004 13.9999 17.4481 13.9999 18.0004C13.9999 18.5526 13.5521 19.0003 12.9999 19.0003H10.9999C10.4476 19.0003 9.9999 18.5526 9.9999 18.0004C9.9999 17.4481 10.4476 17.0004 10.9999 17.0004V15.0004C10.4476 15.0004 9.9999 14.5527 9.9999 14.0004C9.9999 13.4481 10.4476 13.0004 10.9999 13.0004H11.9999Z" fill="#758CA3"/>
</svg>
