<svg width="24" height="24" viewBox="0 0 24 24" fill="none" xmlns="http://www.w3.org/2000/svg">
<path fill-rule="evenodd" clip-rule="evenodd" d="M8 2C8 1.44772 7.55228 1 7 1C6.44772 1 6 1.44772 6 2C6 3.77412 7.04529 5.21867 8.54949 6.09082C7.00745 7.17667 6 8.97068 6 11C6 13.973 8.16229 16.441 11 16.917V19H10C9.44772 19 9 19.4477 9 20C9 20.5523 9.44772 21 10 21H11V23C11 23.5523 11.4477 24 12 24C12.5523 24 13 23.5523 13 23V21H14C14.5523 21 15 20.5523 15 20C15 19.4477 14.5523 19 14 19H13V16.917C15.8377 16.441 18 13.973 18 11C18 8.97068 16.9925 7.17667 15.4505 6.09082C16.9547 5.21867 18 3.77412 18 2C18 1.44772 17.5523 1 17 1C16.4477 1 16 1.44772 16 2C16 3.46016 14.4289 5 12 5C9.5711 5 8 3.46016 8 2ZM16 11C16 13.2091 14.2091 15 12 15C9.79086 15 8 13.2091 8 11C8 8.79086 9.79086 7 12 7C14.2091 7 16 8.79086 16 11Z" fill="#758CA3"/>
</svg>
