<svg width="24" height="24" viewBox="0 0 24 24" fill="none" xmlns="http://www.w3.org/2000/svg">
<path d="M12 0C9.23858 0 7 2.23858 7 5V12.7574L9 10.7574V5C9 3.34315 10.3431 2 12 2C13.5782 2 14.8718 3.21868 14.991 4.76632L16.6353 3.12202C15.8929 1.2912 14.0972 0 12 0Z" fill="#758CA3"/>
<path d="M6 13.647C6 13.6835 6.00042 13.7198 6.00125 13.7561L4.25441 15.5029C4.08858 14.9128 4 14.2913 4 13.647V11.5882C4 11.0359 4.44772 10.5882 5 10.5882C5.55228 10.5882 6 11.0359 6 11.5882V13.647Z" fill="#758CA3"/>
<path d="M9.66183 18.5808L8.15074 20.0919C9.02038 20.5308 9.98435 20.8249 11 20.9425V22H9C8.44772 22 8 22.4477 8 23C8 23.5523 8.44772 24 9 24H15C15.5523 24 16 23.5523 16 23C16 22.4477 15.5523 22 15 22H13V20.9425C16.8765 20.4939 20 17.4729 20 13.647V11.5882C20 11.0359 19.5523 10.5882 19 10.5882C18.4477 10.5882 18 11.0359 18 11.5882V13.647C18 16.5143 15.4072 19 12 19C11.1626 19 10.3744 18.8499 9.66183 18.5808Z" fill="#758CA3"/>
<path d="M12.2532 15.9895L10.4784 17.7643C10.9582 17.9174 11.4694 18 12 18C14.7614 18 17 15.7614 17 13V11.2426L14.9895 13.2532C14.8679 14.7081 13.7081 15.8679 12.2532 15.9895Z" fill="#758CA3"/>
<path d="M21.7071 2.29289C21.3166 1.90237 20.6834 1.90237 20.2929 2.29289L2.29289 20.2929C1.90237 20.6834 1.90237 21.3166 2.29289 21.7071C2.68342 22.0976 3.31658 22.0976 3.70711 21.7071L21.7071 3.70711C22.0976 3.31658 22.0976 2.68342 21.7071 2.29289Z" fill="#758CA3"/>
</svg>
