<svg width="24" height="24" viewBox="0 0 24 24" fill="none" xmlns="http://www.w3.org/2000/svg">
<path fill-rule="evenodd" clip-rule="evenodd" d="M12 19C12.5523 19 13 19.4477 13 20C13 20.5523 12.5523 21 12 21C11.4477 21 11 20.5523 11 20C11 19.4477 11.4477 19 12 19ZM7 0H17C18.6569 0 20 1.34315 20 3V21C20 22.6569 18.6569 24 17 24H7C5.34315 24 4 22.6569 4 21V3C4 1.34315 5.34315 0 7 0ZM7 2C6.44772 2 6 2.44772 6 3V21C6 21.5523 6.44772 22 7 22H17C17.5523 22 18 21.5523 18 21V3C18 2.44772 17.5523 2 17 2H7Z" fill="#758CA3"/>
</svg>
