<svg width="24" height="24" viewBox="0 0 24 24" fill="none" xmlns="http://www.w3.org/2000/svg">
<path fill-rule="evenodd" clip-rule="evenodd" d="M12.9929 7.11938C14.2704 7.45345 15 8.47425 15 10C15 10.5523 14.5523 11 14 11C13.4477 11 13 10.5523 13 10C13 9.21895 12.781 9 12 9C11.219 9 11 9.21895 11 10C11 10.2811 11.3025 10.5332 12.4472 11.1056C14.3025 12.0332 15 12.6145 15 14C15 15.5257 14.2704 16.5466 12.9929 16.8806C12.9976 16.9198 13 16.9596 13 17C13 17.5523 12.5523 18 12 18C11.4477 18 11 17.5523 11 17C11 16.9596 11.0024 16.9198 11.0071 16.8806C9.72961 16.5466 9 15.5257 9 14C9 13.4477 9.44771 13 10 13C10.5523 13 11 13.4477 11 14C11 14.781 11.219 15 12 15C12.781 15 13 14.781 13 14C13 13.7189 12.6975 13.4668 11.5528 12.8944C9.69749 11.9668 9 11.3855 9 10C9 8.47425 9.72961 7.45345 11.0071 7.11938C11.0024 7.08024 11 7.0404 11 7C11 6.44772 11.4477 6 12 6C12.5523 6 13 6.44772 13 7C13 7.0404 12.9976 7.08024 12.9929 7.11938ZM2 3H22C23.1046 3 24 3.89543 24 5V19C24 20.1046 23.1046 21 22 21H2C0.89543 21 0 20.1046 0 19V5C0 3.89543 0.89543 3 2 3ZM2 5V19H22V5H2Z" fill="#758CA3"/>
</svg>
