<svg width="24" height="24" viewBox="0 0 24 24" fill="none" xmlns="http://www.w3.org/2000/svg">
<path fill-rule="evenodd" clip-rule="evenodd" d="M20.68 20.0771C20.8676 20.1476 21.0359 20.275 21.1565 20.4538C21.4654 20.9116 21.3447 21.5331 20.8868 21.842C18.8964 23.1849 16.5451 23.9149 14.0869 23.9149C7.41374 23.9149 2 18.5644 2 11.958C2 5.35064 7.41353 0 14.0869 0C16.5451 0 18.8964 0.72996 20.8868 2.07286C21.3447 2.38174 21.4654 3.00329 21.1565 3.46112C21.0359 3.6399 20.8676 3.76728 20.68 3.83774C17.3297 5.1507 15.0869 8.34728 15.0869 11.9568C15.0869 15.5674 17.3295 18.7641 20.68 20.0771ZM18.1861 21.0572C15.0732 19.1309 13.0869 15.7296 13.0869 11.9568C13.0869 8.18497 15.0733 4.78392 18.1861 2.85769C16.9123 2.29688 15.5225 2 14.0869 2C8.5129 2 4 6.46047 4 11.958C4 17.4546 8.51308 21.9149 14.0869 21.9149C15.5225 21.9149 16.9123 21.618 18.1861 21.0572Z" fill="#758CA3"/>
</svg>
