<svg width="24" height="25" viewBox="0 0 24 25" fill="none" xmlns="http://www.w3.org/2000/svg">
<path fill-rule="evenodd" clip-rule="evenodd" d="M8 16V5.5C8 3.567 9.567 2 11.5 2C13.433 2 15 3.567 15 5.5V20.0294C15 21.1339 14.1046 22.0294 13 22.0294C11.8954 22.0294 10.9999 21.1339 10.9999 20.0294V5.46181C10.9999 5.1856 11.2239 4.96169 11.5001 4.96169C11.7763 4.96169 12.0002 5.1856 12.0002 5.46181V16.0552C12.0002 16.6075 12.4479 17.0552 13.0002 17.0552C13.5525 17.0552 14.0002 16.6075 14.0002 16.0552V5.46181C14.0002 4.08103 12.8808 2.96169 11.5001 2.96169C10.1193 2.96169 8.99994 4.08103 8.99994 5.46181V20.0294C8.99994 22.2385 10.7908 24.0294 13 24.0294C15.2091 24.0294 17 22.2385 17 20.0294V5.5C17 2.46243 14.5376 0 11.5 0C8.46243 0 6 2.46243 6 5.5V16C6 16.5523 6.44772 17 7 17C7.55228 17 8 16.5523 8 16Z" fill="#758CA3"/>
</svg>
