<svg width="24" height="24" viewBox="0 0 24 24" fill="none" xmlns="http://www.w3.org/2000/svg">
<path fill-rule="evenodd" clip-rule="evenodd" d="M14.9046 8.75004C15.6048 8.01095 16 7.03903 16 5.99989C16 3.79081 14.2092 2 12.0001 2C9.79081 2 8 3.79081 8 5.99989C8 7.03938 8.39551 8.01159 9.09611 8.75076L10.0185 9.72397L6.87982 16.7033C6.29987 17.9929 6 19.3908 6 20.8048V21.9999H18.0015V20.8048C18.0015 19.3908 17.7016 17.9929 17.1217 16.7033L13.9826 9.72322L14.9046 8.75004ZM18.9457 15.883C19.6417 17.4305 20.0015 19.108 20.0015 20.8048V21.9999C20.0015 23.1044 19.1061 23.9999 18.0015 23.9999H6C4.89543 23.9999 4 23.1044 4 21.9999V20.8048C4 19.108 4.35984 17.4305 5.05578 15.883L7.64453 10.1266C6.62524 9.05119 6 7.59856 6 5.99989C6 2.68624 8.68624 0 11.9999 0C15.3138 0 18 2.68624 18 5.99989C18 7.59802 17.3752 9.05022 16.3565 10.1255L18.9457 15.883Z" fill="#758CA3"/>
</svg>
