<svg width="24" height="24" viewBox="0 0 24 24" fill="none" xmlns="http://www.w3.org/2000/svg">
<path fill-rule="evenodd" clip-rule="evenodd" d="M12.5 8.91421L6 15.4142V18H8.58579L15.0858 11.5L12.5 8.91421ZM13.9142 7.5L16.5 10.0858L17.5858 9L15 6.41421L13.9142 7.5ZM5 20C4.44772 20 4 19.5523 4 19V15C4 14.7348 4.10536 14.4804 4.29289 14.2929L14.2929 4.29289C14.6834 3.90237 15.3166 3.90237 15.7071 4.29289L19.7071 8.29289C20.0976 8.68342 20.0976 9.31658 19.7071 9.70711L9.70711 19.7071C9.51957 19.8946 9.26522 20 9 20H5Z" fill="#758CA3"/>
</svg>
