<svg width="24" height="24" viewBox="0 0 24 24" fill="none" xmlns="http://www.w3.org/2000/svg">
<path fill-rule="evenodd" clip-rule="evenodd" d="M12.792 0.0239258C7.8672 0.0239258 3 3.30713 3 8.62073C3 11.9999 4.9008 13.9199 6.0528 13.9199C6.528 13.9199 6.8016 12.5951 6.8016 12.2207C6.8016 11.7743 5.664 10.8239 5.664 8.96633C5.664 5.10713 8.6016 2.37113 12.4032 2.37113C15.672 2.37113 18.0912 4.22873 18.0912 7.64153C18.0912 10.1903 17.0688 14.9711 13.7568 14.9711C12.5616 14.9711 11.5392 14.1071 11.5392 12.8687C11.5392 11.0543 12.8064 9.29753 12.8064 7.42553C12.8064 4.24793 8.2992 4.82393 8.2992 8.66393C8.2992 9.47033 8.4 10.3631 8.76 11.0975C8.0976 13.9487 6.744 18.1967 6.744 21.1343C6.744 22.0415 6.8736 22.9343 6.96 23.8415C7.1232 24.0239 7.0416 24.0047 7.2912 23.9135C9.7104 20.6015 9.624 19.9535 10.7184 15.6191C11.3088 16.7423 12.8352 17.3471 14.0448 17.3471C19.1424 17.3471 21.432 12.3791 21.432 7.90073C21.432 3.13433 17.3136 0.0239258 12.792 0.0239258Z" fill="#758CA3"/>
</svg>
