<svg width="24" height="24" viewBox="0 0 24 24" fill="none" xmlns="http://www.w3.org/2000/svg">
<path fill-rule="evenodd" clip-rule="evenodd" d="M19 16V17C19 18.1046 18.1046 19 17 19H9C6.79086 19 5 17.2091 5 15V13H1C0.447715 13 0 12.5523 0 12C0 11.4477 0.447715 11 1 11H5V9C5 6.79086 6.79086 5 9 5H17C18.1046 5 19 5.89543 19 7V8H22C22.5523 8 23 8.44772 23 9C23 9.55228 22.5523 10 22 10H19V14H22C22.5523 14 23 14.4477 23 15C23 15.5523 22.5523 16 22 16H19ZM9 7C7.89543 7 7 7.89543 7 9V15C7 16.1046 7.89543 17 9 17H17V7H9ZM8 11C8 10.4477 8.44771 10 9 10C9.55229 10 10 10.4477 10 11V13C10 13.5523 9.55229 14 9 14C8.44771 14 8 13.5523 8 13V11Z" fill="#758CA3"/>
</svg>
