<svg width="24" height="24" viewBox="0 0 24 24" fill="none" xmlns="http://www.w3.org/2000/svg">
<path fill-rule="evenodd" clip-rule="evenodd" d="M20 16C17.7909 16 16 14.2091 16 12C16 9.79086 17.7909 8 20 8V6H14V4C14 2.89543 13.1046 2 12 2C10.8954 2 10 2.89543 10 4V6H4V8C6.20914 8 8 9.79086 8 12C8 14.2091 6.20914 16 4 16V18H10V20C10 21.1046 10.8954 22 12 22C13.1046 22 14 21.1046 14 20V18H20V16ZM12 24C9.79086 24 8 22.2091 8 20H3C2.44772 20 2 19.5523 2 19V15C2 14.4477 2.44772 14 3 14H4C5.10457 14 6 13.1046 6 12C6 10.8954 5.10457 10 4 10H3C2.44772 10 2 9.55229 2 9V5C2 4.44772 2.44772 4 3 4H8C8 1.79086 9.79086 0 12 0C14.2091 0 16 1.79086 16 4H21C21.5523 4 22 4.44772 22 5V9C22 9.55229 21.5523 10 21 10H20C18.8954 10 18 10.8954 18 12C18 13.1046 18.8954 14 20 14H21C21.5523 14 22 14.4477 22 15V19C22 19.5523 21.5523 20 21 20H16C16 22.2091 14.2091 24 12 24Z" fill="#758CA3"/>
</svg>
