<svg width="24" height="24" viewBox="0 0 24 24" fill="none" xmlns="http://www.w3.org/2000/svg">
<path fill-rule="evenodd" clip-rule="evenodd" d="M11 10C11 10.5523 10.5523 11 10 11C9.44772 11 9 10.5523 9 10C9 8.44772 10.4477 7 12 7C13.5523 7 15 8.44772 15 10C15 11.285 14.5004 11.8678 13.4472 12.3944C13.0004 12.6178 13 12.6183 13 13C13 13.5523 12.5523 14 12 14C11.4477 14 11 13.5523 11 13C11 11.715 11.4996 11.1322 12.5528 10.6056C12.9996 10.3822 13 10.3817 13 10C13 9.55228 12.4477 9 12 9C11.5523 9 11 9.55228 11 10ZM12 17C11.4477 17 11 16.5523 11 16C11 15.4477 11.4477 15 12 15C12.5523 15 13 15.4477 13 16C13 16.5523 12.5523 17 12 17Z" fill="#758CA3"/>
</svg>
