<svg width="24" height="24" viewBox="0 0 24 24" fill="none" xmlns="http://www.w3.org/2000/svg">
<path fill-rule="evenodd" clip-rule="evenodd" d="M12 4C16.4183 4 20 7.58172 20 12C20 16.4183 16.4183 20 12 20C7.58172 20 4 16.4183 4 12C4 7.58172 7.58172 4 12 4ZM12 6C8.68629 6 6 8.68629 6 12C6 15.3137 8.68629 18 12 18C15.3137 18 18 15.3137 18 12C18 8.68629 15.3137 6 12 6ZM11.07 13.228C11.03 12.956 11.04 12.708 11.1 12.484C11.16 12.26 11.246 12.052 11.358 11.86C11.47 11.668 11.596 11.492 11.736 11.332C11.876 11.172 12.01 11.018 12.138 10.87C12.266 10.722 12.372 10.578 12.456 10.438C12.54 10.298 12.582 10.152 12.582 10C12.582 9.752 12.508 9.564 12.36 9.436C12.212 9.308 12.018 9.244 11.778 9.244C11.554 9.244 11.356 9.296 11.184 9.4C11.012 9.504 10.846 9.636 10.686 9.796L9.714 8.908C9.994 8.58 10.328 8.316 10.716 8.116C11.104 7.916 11.534 7.816 12.006 7.816C12.326 7.816 12.624 7.856 12.9 7.936C13.176 8.016 13.416 8.14 13.62 8.308C13.824 8.476 13.984 8.69 14.1 8.95C14.216 9.21 14.274 9.516 14.274 9.868C14.274 10.116 14.23 10.338 14.142 10.534C14.054 10.73 13.944 10.912 13.812 11.08C13.68 11.248 13.54 11.41 13.392 11.566C13.244 11.722 13.108 11.884 12.984 12.052C12.86 12.22 12.762 12.398 12.69 12.586C12.618 12.774 12.594 12.988 12.618 13.228H11.07ZM11.838 16.144C11.534 16.144 11.282 16.038 11.082 15.826C10.882 15.614 10.782 15.352 10.782 15.04C10.782 14.72 10.882 14.454 11.082 14.242C11.282 14.03 11.534 13.924 11.838 13.924C12.142 13.924 12.396 14.03 12.6 14.242C12.804 14.454 12.906 14.72 12.906 15.04C12.906 15.352 12.804 15.614 12.6 15.826C12.396 16.038 12.142 16.144 11.838 16.144Z" fill="#758CA3"/>
</svg>
