<svg width="24" height="24" viewBox="0 0 24 24" fill="none" xmlns="http://www.w3.org/2000/svg">
<path fill-rule="evenodd" clip-rule="evenodd" d="M3.24254 0.310618L6 0.999985L8.68377 0.105394C8.88904 0.0369716 9.11096 0.0369716 9.31623 0.105394L12 0.999985L14.6838 0.105394C14.889 0.0369716 15.111 0.0369716 15.3162 0.105394L18 0.999985L20.7575 0.310618C21.2933 0.17667 21.8362 0.50243 21.9701 1.03823C21.99 1.11755 22 1.199 22 1.28076V22.7192C22 23.2715 21.5523 23.7192 21 23.7192C20.9182 23.7192 20.8368 23.7092 20.7575 23.6894L18 23L15.3162 23.8946C15.111 23.963 14.889 23.963 14.6838 23.8946L12 23L9.31623 23.8946C9.11096 23.963 8.88904 23.963 8.68377 23.8946L6 23L3.24254 23.6894C2.70674 23.8233 2.16381 23.4975 2.02986 22.9617C2.01003 22.8824 2 22.801 2 22.7192V1.28076C2 0.728476 2.44772 0.280761 3 0.280761C3.08176 0.280761 3.16322 0.290788 3.24254 0.310618ZM4 2.56154V21.4384L5.51493 21.0597C5.88394 20.9674 6.27161 20.9823 6.63246 21.1026L9 21.8918L11.3675 21.1026C11.7781 20.9658 12.2219 20.9658 12.6325 21.1026L15 21.8918L17.3675 21.1026C17.7284 20.9823 18.1161 20.9674 18.4851 21.0597L20 21.4384V2.56154L18.4851 2.94027C18.1161 3.03252 17.7284 3.01763 17.3675 2.89735L15 2.10817L12.6325 2.89735C12.2219 3.0342 11.7781 3.0342 11.3675 2.89735L9 2.10817L6.63246 2.89735C6.27161 3.01763 5.88394 3.03252 5.51493 2.94027L4 2.56154ZM7 6.99998H17C17.5523 6.99998 18 7.4477 18 7.99998C18 8.55227 17.5523 8.99998 17 8.99998H7C6.44772 8.99998 6 8.55227 6 7.99998C6 7.4477 6.44772 6.99998 7 6.99998ZM7 11H17C17.5523 11 18 11.4477 18 12C18 12.5523 17.5523 13 17 13H7C6.44772 13 6 12.5523 6 12C6 11.4477 6.44772 11 7 11ZM7 15H17C17.5523 15 18 15.4477 18 16C18 16.5523 17.5523 17 17 17H7C6.44772 17 6 16.5523 6 16C6 15.4477 6.44772 15 7 15Z" fill="#758CA3"/>
</svg>
