<svg width="24" height="24" viewBox="0 0 24 24" fill="none" xmlns="http://www.w3.org/2000/svg">
<path d="M10.6379 5.54123C11.2633 4.69048 12.5486 4.73506 13.1136 5.6271L14.9477 8.5228L13.8672 8.30662C13.3185 8.19684 12.7872 8.54104 12.6804 9.07541C12.5737 9.60978 12.9319 10.132 13.4806 10.2417L16.7683 10.8995C17.367 11.0193 17.948 10.6476 18.0712 10.066L18.7483 6.87166C18.8613 6.33857 18.5091 5.81251 17.9617 5.69665C17.4142 5.5808 16.8789 5.91904 16.7659 6.45212L16.5747 7.3539L14.8032 4.55694C13.4849 2.47552 10.4858 2.3715 9.02646 4.35658L8.13879 5.56401C7.81166 6.00899 7.90719 6.6349 8.35217 6.96203C8.79714 7.28917 9.42306 7.19364 9.75019 6.74866L10.6379 5.54123Z" fill="#758CA3"/>
<path d="M4.4067 11.3777L3.4194 11.6127C2.87531 11.7422 2.33203 11.4173 2.20595 10.8868C2.07988 10.3564 2.41874 9.82146 2.96283 9.69193L6.22327 8.91576C6.81614 8.77462 7.40935 9.12412 7.55462 9.70015L8.35349 12.868C8.4868 13.3966 8.1552 13.9359 7.61284 14.0724C7.07048 14.209 6.52273 13.8912 6.38942 13.3626L6.14096 12.3773L4.27556 15.3225C3.64299 16.3212 4.36057 17.6251 5.54277 17.6251H7.72227C8.27456 17.6251 8.72227 18.0728 8.72227 18.6251C8.72227 19.1774 8.27456 19.6251 7.72227 19.6251H5.54277C2.7843 19.6251 1.10996 16.5827 2.58596 14.2523L4.4067 11.3777Z" fill="#758CA3"/>
<path d="M15.1412 16.9673C15.5374 16.5825 15.5465 15.9494 15.1616 15.5532C14.7768 15.1571 14.1437 15.148 13.7476 15.5329L11.3769 17.8361C11.3642 17.8486 11.3517 17.8612 11.3397 17.8741C11.1314 18.0573 11 18.3259 11 18.6251C11 18.9243 11.1314 19.1929 11.3397 19.3761C11.3517 19.389 11.3642 19.4016 11.3769 19.414L13.7476 21.7173C14.1437 22.1022 14.7768 22.093 15.1616 21.6969C15.5465 21.3008 15.5374 20.6677 15.1412 20.2829L14.4642 19.6251H18.2527C21.0694 19.6251 22.7322 16.4674 21.1386 14.1449L20.1579 12.7156C19.8454 12.2602 19.2229 12.1443 18.7676 12.4568C18.3122 12.7693 18.1963 13.3917 18.5088 13.8471L19.4895 15.2764C20.1725 16.2718 19.4598 17.6251 18.2527 17.6251H14.4642L15.1412 16.9673Z" fill="#758CA3"/>
</svg>
