<svg width="24" height="24" viewBox="0 0 24 24" fill="none" xmlns="http://www.w3.org/2000/svg">
<path fill-rule="evenodd" clip-rule="evenodd" d="M13.5858 9H11.5C9.01472 9 7 11.0147 7 13.5C7 15.9853 9.01472 18 11.5 18C13.9853 18 16 15.9853 16 13.5C16 12.9477 16.4477 12.5 17 12.5C17.5523 12.5 18 12.9477 18 13.5C18 17.0899 15.0899 20 11.5 20C7.91015 20 5 17.0899 5 13.5C5 9.91015 7.91015 7 11.5 7H13.5858L12.2929 5.70711C11.9024 5.31658 11.9024 4.68342 12.2929 4.29289C12.6834 3.90237 13.3166 3.90237 13.7071 4.29289L16.7071 7.29289C17.0976 7.68342 17.0976 8.31658 16.7071 8.70711L13.7071 11.7071C13.3166 12.0976 12.6834 12.0976 12.2929 11.7071C11.9024 11.3166 11.9024 10.6834 12.2929 10.2929L13.5858 9Z" fill="#758CA3"/>
</svg>
