<svg width="24" height="24" viewBox="0 0 24 24" fill="none" xmlns="http://www.w3.org/2000/svg">
<path fill-rule="evenodd" clip-rule="evenodd" d="M14.5858 9H11.5C9.01472 9 7 11.0147 7 13.5C7 15.9853 9.01472 18 11.5 18H12.9643C13.5166 18 13.9643 17.5523 13.9643 17C13.9643 16.4477 13.5166 16 12.9643 16H11.5C10.1193 16 9 14.8807 9 13.5C9 12.1193 10.1193 11 11.5 11H14.5858L13.2929 12.2929C12.9024 12.6834 12.9024 13.3166 13.2929 13.7071C13.6834 14.0976 14.3166 14.0976 14.7071 13.7071L17.7071 10.7071C18.0976 10.3166 18.0976 9.68342 17.7071 9.29289L14.7071 6.29289C14.3166 5.90237 13.6834 5.90237 13.2929 6.29289C12.9024 6.68342 12.9024 7.31658 13.2929 7.70711L14.5858 9Z" fill="#758CA3"/>
</svg>
