<svg width="24" height="24" viewBox="0 0 24 24" fill="none" xmlns="http://www.w3.org/2000/svg">
<path fill-rule="evenodd" clip-rule="evenodd" d="M17.5858 6H12.5C8.35786 6 5 9.35786 5 13.5C5 17.6421 8.35786 21 12.5 21C16.6421 21 20 17.6421 20 13.5C20 12.9477 20.4477 12.5 21 12.5C21.5523 12.5 22 12.9477 22 13.5C22 18.7467 17.7467 23 12.5 23C7.25329 23 3 18.7467 3 13.5C3 8.25329 7.25329 4 12.5 4H17.5858L15.2929 1.70711C14.9024 1.31658 14.9024 0.683418 15.2929 0.292893C15.6834 -0.0976311 16.3166 -0.0976311 16.7071 0.292893L20.7071 4.29289C21.0976 4.68342 21.0976 5.31658 20.7071 5.70711L16.7071 9.70711C16.3166 10.0976 15.6834 10.0976 15.2929 9.70711C14.9024 9.31658 14.9024 8.68342 15.2929 8.29289L17.5858 6Z" fill="#758CA3"/>
</svg>
