<svg width="24" height="24" viewBox="0 0 24 24" fill="none" xmlns="http://www.w3.org/2000/svg">
<path fill-rule="evenodd" clip-rule="evenodd" d="M3.06155 17H20.9384L19.4384 11H4.56155L3.06155 17ZM3 19V21H21V19H3ZM6 9V7H4C3.44772 7 3 6.55228 3 6V2C3 1.44772 3.44772 1 4 1H14C14.5523 1 15 1.44772 15 2V6C15 6.55228 14.5523 7 14 7H12V9H20.2192C20.6781 9 21.0781 9.3123 21.1894 9.75746L23 17V22C23 22.5523 22.5523 23 22 23H2C1.44772 23 1 22.5523 1 22V17L2.81063 9.75746C2.92193 9.3123 3.32191 9 3.78078 9H6ZM8 9H10V7H8V9ZM13 5V3H5V5H13Z" fill="#758CA3"/>
</svg>
