<svg width="24" height="24" viewBox="0 0 24 24" fill="none" xmlns="http://www.w3.org/2000/svg">
<path fill-rule="evenodd" clip-rule="evenodd" d="M3.41421 9L5.70711 11.2929C6.09763 11.6834 6.09763 12.3166 5.70711 12.7071C5.31658 13.0976 4.68342 13.0976 4.29289 12.7071L0.292893 8.70711C-0.0976311 8.31658 -0.0976311 7.68342 0.292893 7.29289L4.29289 3.29289C4.68342 2.90237 5.31658 2.90237 5.70711 3.29289C6.09763 3.68342 6.09763 4.31658 5.70711 4.70711L3.41421 7H14C19.5228 7 24 11.4772 24 17V19.0312C24 19.5835 23.5523 20.0312 23 20.0312C22.4477 20.0312 22 19.5835 22 19.0312V17C22 12.5817 18.4183 9 14 9H3.41421Z" fill="#758CA3"/>
</svg>
