<svg width="24" height="24" viewBox="0 0 24 24" fill="none" xmlns="http://www.w3.org/2000/svg">
<path fill-rule="evenodd" clip-rule="evenodd" d="M5.22131 14.4042C4.15911 13.767 2.99505 13.2795 1.75747 12.9701C1.00338 12.7816 0.743264 11.8425 1.29289 11.2929L3.12132 9.46447C4.059 8.52678 5.33077 8 6.65686 8H9.12714L9.59713 7.35377C12.0434 3.99009 15.9515 2 20.1107 2H21C21.5523 2 22 2.44772 22 3V3.8893C22 8.04848 20.0099 11.9566 16.6462 14.4029L16.2107 14.7196L16.4209 15.5603C16.8468 17.2642 16.3476 19.0666 15.1057 20.3085L12.7071 22.7071C12.1575 23.2567 11.2184 22.9966 11.0299 22.2425C10.7205 21.0049 10.233 19.8409 9.59583 18.7787C7.88985 19.6201 6.12604 20.3454 4.31623 20.9487C3.53447 21.2093 2.79073 20.4655 3.05132 19.6838C3.65459 17.874 4.37995 16.1102 5.22131 14.4042ZM6.14997 12.6295C6.64596 11.7344 7.17489 10.8573 7.73582 10H6.65686C5.86121 10 5.09814 10.3161 4.53554 10.8787L3.87446 11.5398C4.66845 11.8394 5.42913 12.2048 6.14997 12.6295ZM14.4591 15.9595C13.4565 16.6344 12.426 17.2651 11.3705 17.85C11.7952 18.5709 12.1606 19.3316 12.4602 20.1255L13.6915 18.8943C14.4366 18.1492 14.7362 17.0677 14.4806 16.0454L14.4591 15.9595ZM10.2348 16.1923C11.7197 15.3787 13.1534 14.4701 14.5267 13.4713L15.4699 12.7854C18.2861 10.7373 19.9644 7.47821 19.9994 4.00056C16.5218 4.03564 13.2627 5.71394 11.2146 8.53011L10.5287 9.47328C9.5299 10.8466 8.62133 12.2803 7.80769 13.7652C8.70825 14.477 9.52299 15.2917 10.2348 16.1923ZM8.41758 17.1283C7.9475 16.5698 7.43024 16.0525 6.87171 15.5824C6.43696 16.4825 6.03594 17.3991 5.66964 18.3304C6.60092 17.9641 7.51753 17.563 8.41758 17.1283Z" fill="#758CA3"/>
</svg>
