<svg width="24" height="24" viewBox="0 0 24 24" fill="none" xmlns="http://www.w3.org/2000/svg">
<path fill-rule="evenodd" clip-rule="evenodd" d="M7.00044 6L9.32962 10.6584C9.75191 11.5029 9.75191 12.4971 9.32962 13.3416L7.00044 18H15.0283L17.8047 12.4472C17.9455 12.1657 17.9455 11.8343 17.8047 11.5528L15.0283 6H7.00044ZM7.00044 4H15.0283C15.7858 4 16.4784 4.428 16.8172 5.10557L19.5935 10.6584C20.0158 11.5029 20.0158 12.4971 19.5935 13.3416L16.8172 18.8944C16.4784 19.572 15.7858 20 15.0283 20H7.00044C5.89587 20 5.00044 19.1046 5.00044 18C5.00044 17.6895 5.07273 17.3833 5.21158 17.1056L7.54076 12.4472C7.68153 12.1657 7.68153 11.8343 7.54076 11.5528L5.21158 6.89443C4.71761 5.90647 5.11805 4.70512 6.10601 4.21115C6.38372 4.07229 6.68995 4 7.00044 4Z" fill="#758CA3"/>
</svg>
