<svg width="24" height="24" viewBox="0 0 24 24" fill="none" xmlns="http://www.w3.org/2000/svg">
<path fill-rule="evenodd" clip-rule="evenodd" d="M4.00078 3C3.86876 3 3.73804 3.02614 3.61617 3.07692C3.10637 3.28934 2.86529 3.87481 3.07771 4.38462L6.02642 10.4615C6.43668 11.4462 6.43668 12.5538 6.02642 13.5385L3.07771 19.6154C3.02693 19.7373 3.00078 19.868 3.00078 20C3.00078 20.5523 3.4485 21 4.00078 21H16.5008C16.9045 21 17.2686 20.7573 17.4239 20.3846L21.1739 12.3846C21.2764 12.1385 21.2764 11.8615 21.1739 11.6154L17.4239 3.61538C17.2686 3.24274 16.9045 3 16.5008 3H4.00078ZM4.00078 1H16.5008C17.7119 1 18.8042 1.72821 19.27 2.84615L23.02 10.8462C23.3277 11.5846 23.3277 12.4154 23.02 13.1538L19.27 21.1538C18.8042 22.2718 17.7119 23 16.5008 23H4.00078C2.34393 23 1.00078 21.6569 1.00078 20C1.00078 19.6039 1.07921 19.2118 1.23155 18.8462L4.18027 12.7692C4.3854 12.2769 4.3854 11.7231 4.18027 11.2308L1.23155 5.15385C0.5943 3.62444 1.31753 1.86802 2.84694 1.23077C3.21255 1.07843 3.6047 1 4.00078 1ZM14.5412 18.0009L17.1739 12.3846C17.2764 12.1385 17.2764 11.8615 17.1739 11.6154L14.5412 5.99905C14.3768 5.64832 14.5278 5.23071 14.8786 5.06631C14.9717 5.02264 15.0734 5 15.1763 5H15.644C16.0319 5 16.3848 5.22433 16.5494 5.57557L19.02 10.8462C19.3277 11.5846 19.3277 12.4154 19.02 13.1538L16.5494 18.4244C16.3848 18.7757 16.0319 19 15.644 19H15.1763C14.7889 19 14.4749 18.686 14.4749 18.2986C14.4749 18.1957 14.4975 18.0941 14.5412 18.0009Z" fill="#758CA3"/>
</svg>
