<svg width="24" height="24" viewBox="0 0 24 24" fill="none" xmlns="http://www.w3.org/2000/svg">
<path fill-rule="evenodd" clip-rule="evenodd" d="M7 2H4C3.44772 2 3 2.44772 3 3V21C3 21.5523 3.44772 22 4 22H20C20.5523 22 21 21.5523 21 21V5.70156L18.0387 2H17V8C17 8.55229 16.5523 9 16 9H8C7.44772 9 7 8.55229 7 8V2ZM4 0H19L23 5V21C23 22.6569 21.6569 24 20 24H4C2.34315 24 1 22.6569 1 21V3C1 1.34315 2.34315 0 4 0ZM9 7H15V2H9V7ZM8 15C7.44772 15 7 14.5523 7 14C7 13.4477 7.44772 13 8 13H16C16.5523 13 17 13.4477 17 14C17 14.5523 16.5523 15 16 15H8ZM8 19C7.44772 19 7 18.5523 7 18C7 17.4477 7.44772 17 8 17H16C16.5523 17 17 17.4477 17 18C17 18.5523 16.5523 19 16 19H8Z" fill="#758CA3"/>
</svg>
