<svg width="24" height="24" viewBox="0 0 24 24" fill="none" xmlns="http://www.w3.org/2000/svg">
<path fill-rule="evenodd" clip-rule="evenodd" d="M10.0944 16.3199L4.70711 21.7071C4.31658 22.0976 3.68342 22.0976 3.29289 21.7071C2.90237 21.3166 2.90237 20.6834 3.29289 20.2929L8.68014 14.9056C7.62708 13.551 7 11.8487 7 10C7 5.58172 10.5817 2 15 2C19.4183 2 23 5.58172 23 10C23 14.4183 19.4183 18 15 18C13.1513 18 11.449 17.3729 10.0944 16.3199ZM15 16C18.3137 16 21 13.3137 21 10C21 6.68629 18.3137 4 15 4C11.6863 4 9 6.68629 9 10C9 13.3137 11.6863 16 15 16Z" fill="#758CA3"/>
</svg>
