<svg width="24" height="24" viewBox="0 0 24 24" fill="none" xmlns="http://www.w3.org/2000/svg">
<path fill-rule="evenodd" clip-rule="evenodd" d="M10.5235 14.8907L6.20711 19.2071C5.81658 19.5976 5.18342 19.5976 4.79289 19.2071C4.40237 18.8166 4.40237 18.1834 4.79289 17.7929L9.10925 13.4765C8.41079 12.4957 8 11.2958 8 10C8 6.68629 10.6863 4 14 4C17.3137 4 20 6.68629 20 10C20 13.3137 17.3137 16 14 16C12.7042 16 11.5043 15.5892 10.5235 14.8907ZM14 14C16.2091 14 18 12.2091 18 10C18 7.79086 16.2091 6 14 6C11.7909 6 10 7.79086 10 10C10 12.2091 11.7909 14 14 14Z" fill="#758CA3"/>
</svg>
