<svg width="24" height="24" viewBox="0 0 24 24" fill="none" xmlns="http://www.w3.org/2000/svg">
<path fill-rule="evenodd" clip-rule="evenodd" d="M2.35418 15C1.52375 14.2671 1 13.1947 1 12C1 10.8053 1.52375 9.73294 2.35418 9C1.52375 8.26706 1 7.19469 1 6C1 3.79086 2.79086 2 5 2H19C21.2091 2 23 3.79086 23 6C23 7.19469 22.4762 8.26706 21.6458 9C22.4762 9.73294 23 10.8053 23 12C23 13.1947 22.4762 14.2671 21.6458 15C22.4762 15.7329 23 16.8053 23 18C23 20.2091 21.2091 22 19 22H5C2.79086 22 1 20.2091 1 18C1 16.8053 1.52375 15.7329 2.35418 15ZM19 14C20.1046 14 21 13.1046 21 12C21 10.8954 20.1046 10 19 10H5C3.89543 10 3 10.8954 3 12C3 13.1046 3.89543 14 5 14H19ZM19 8C20.1046 8 21 7.10457 21 6C21 4.89543 20.1046 4 19 4H5C3.89543 4 3 4.89543 3 6C3 7.10457 3.89543 8 5 8H19ZM5 5C5.55228 5 6 5.44772 6 6C6 6.55228 5.55228 7 5 7C4.44772 7 4 6.55228 4 6C4 5.44772 4.44772 5 5 5ZM5 11C5.55228 11 6 11.4477 6 12C6 12.5523 5.55228 13 5 13C4.44772 13 4 12.5523 4 12C4 11.4477 4.44772 11 5 11ZM5 16C3.89543 16 3 16.8954 3 18C3 19.1046 3.89543 20 5 20H19C20.1046 20 21 19.1046 21 18C21 16.8954 20.1046 16 19 16H5ZM5 17C5.55228 17 6 17.4477 6 18C6 18.5523 5.55228 19 5 19C4.44772 19 4 18.5523 4 18C4 17.4477 4.44772 17 5 17Z" fill="#758CA3"/>
</svg>
