<svg width="24" height="24" viewBox="0 0 24 24" fill="none" xmlns="http://www.w3.org/2000/svg">
<path fill-rule="evenodd" clip-rule="evenodd" d="M15.25 6C16.7688 6 18 7.23122 18 8.75C18 10.2688 16.7688 11.5 15.25 11.5C14.5842 11.5 13.9737 11.2634 13.4979 10.8697L11.495 11.87L11.5 12L11.497 12.1296L13.4979 13.1303C13.9737 12.7366 14.5842 12.5 15.25 12.5C16.7688 12.5 18 13.7312 18 15.25C18 16.7688 16.7688 18 15.25 18C13.7312 18 12.5 16.7688 12.5 15.25C12.5 15.1247 12.5084 15.0013 12.5246 14.8804L10.68 13.9589C10.1836 14.4481 9.50204 14.75 8.75 14.75C7.23122 14.75 6 13.5188 6 12C6 10.4812 7.23122 9.25 8.75 9.25C9.50204 9.25 10.1836 9.55188 10.68 10.0411L12.5246 9.11964C12.5084 8.99874 12.5 8.87535 12.5 8.75C12.5 7.23122 13.7312 6 15.25 6ZM15.25 14.5C14.8358 14.5 14.5 14.8358 14.5 15.25C14.5 15.6642 14.8358 16 15.25 16C15.6642 16 16 15.6642 16 15.25C16 14.8358 15.6642 14.5 15.25 14.5ZM8.75 11.25C8.33579 11.25 8 11.5858 8 12C8 12.4142 8.33579 12.75 8.75 12.75C9.16421 12.75 9.5 12.4142 9.5 12C9.5 11.5858 9.16421 11.25 8.75 11.25ZM15.25 8C14.8358 8 14.5 8.33579 14.5 8.75C14.5 9.16421 14.8358 9.5 15.25 9.5C15.6642 9.5 16 9.16421 16 8.75C16 8.33579 15.6642 8 15.25 8Z" fill="#758CA3"/>
</svg>
