<svg width="24" height="24" viewBox="0 0 24 24" fill="none" xmlns="http://www.w3.org/2000/svg">
<path fill-rule="evenodd" clip-rule="evenodd" d="M4 12.8348C4 14.7927 4.95527 16.6274 6.55923 17.7502L12 21.5587L17.4408 17.7502C19.0447 16.6274 20 14.7927 20 12.8348V3.39288C14.8123 1.63467 9.18773 1.63467 4 3.39288V12.8348ZM22 2.00004V12.8348C22 15.4453 20.7263 17.8916 18.5877 19.3887L12.5735 23.5986C12.2291 23.8396 11.7709 23.8396 11.4265 23.5986L5.4123 19.3887C3.27369 17.8916 2 15.4453 2 12.8348V2.00004C8.41941 -0.567723 15.5806 -0.567723 22 2.00004Z" fill="#758CA3"/>
</svg>
