<svg width="24" height="24" viewBox="0 0 24 24" fill="none" xmlns="http://www.w3.org/2000/svg">
<path fill-rule="evenodd" clip-rule="evenodd" d="M7.83398 20.986C7.42604 22.1583 6.31124 22.9996 4.99992 22.9996C3.34309 22.9996 1.99997 21.6565 1.99997 19.9997C1.99997 18.6027 2.95482 17.4288 4.24746 17.0949L4.69032 15.7663C3.68243 15.3426 2.94957 14.3832 2.86086 13.2299L2.15631 4.07074C2.10983 3.46652 1.60599 2.99995 0.999985 2.99995C0.447708 2.99995 0 2.55225 0 1.99997C0 1.44769 0.447708 0.999985 0.999985 0.999985C2.65105 0.999985 4.02375 2.27115 4.15038 3.91735L22.9996 3.94455C23.6303 3.94455 24.1034 4.52112 23.9804 5.13961L22.3006 13.585C22.0214 14.9887 20.7895 15.9998 19.3583 15.9998H6.72066L6.29035 17.2907C7.00898 17.6336 7.56976 18.2541 7.83398 19.0134C7.88794 19.0044 7.94336 18.9997 7.99988 18.9997H16.1705C16.5823 17.8345 17.6935 16.9997 18.9997 16.9997C20.6565 16.9997 21.9997 18.3429 21.9997 19.9997C21.9997 21.6565 20.6565 22.9996 18.9997 22.9996C17.6935 22.9996 16.5823 22.1649 16.1705 20.9997H7.99988C7.94336 20.9997 7.88794 20.995 7.83398 20.986ZM4.98347 18.9998C4.43878 19.0086 3.99994 19.4529 3.99994 19.9997C3.99994 20.552 4.44765 20.9997 4.99992 20.9997C5.5522 20.9997 5.99991 20.552 5.99991 19.9997C5.99991 19.453 5.56114 19.0087 5.01652 18.9998C5.00552 19 4.99451 19 4.98347 18.9998ZM6.02297 13.9998H19.3583C19.8354 13.9998 20.246 13.6628 20.3391 13.1949L21.7812 5.94452H4.30632L4.85493 13.0765C4.89501 13.5975 5.32944 13.9998 5.85197 13.9998H5.97657C5.99199 13.9994 6.00746 13.9994 6.02297 13.9998ZM18.9997 20.9997C19.552 20.9997 19.9997 20.552 19.9997 19.9997C19.9997 19.4474 19.552 18.9997 18.9997 18.9997C18.4474 18.9997 17.9997 19.4474 17.9997 19.9997C17.9997 20.552 18.4474 20.9997 18.9997 20.9997Z" fill="#758CA3"/>
</svg>
