<svg width="24" height="24" viewBox="0 0 24 24" fill="none" xmlns="http://www.w3.org/2000/svg">
<path fill-rule="evenodd" clip-rule="evenodd" d="M16.5538 6.99996L13.7786 4.10916C13.3962 3.71075 13.4091 3.07771 13.8075 2.69524C14.2059 2.31277 14.8389 2.32568 15.2214 2.7241L19.2214 6.89076C19.2547 6.92549 19.2851 6.96199 19.3124 6.99996H21.8196C21.9297 6.99996 22.0397 7.00906 22.1484 7.02717C23.2379 7.20876 23.9739 8.23922 23.7923 9.32876L22.2649 18.4932C22.0239 19.9397 20.7723 21 19.3058 21H4.69427C3.22776 21 1.97619 19.9397 1.73509 18.4932L0.207693 9.32876C0.189583 9.2201 0.180481 9.11012 0.180481 8.99996C0.180481 7.89539 1.07591 6.99996 2.18048 6.99996H4.68763C4.71497 6.96199 4.7453 6.92549 4.77863 6.89076L8.77863 2.7241C9.16111 2.32568 9.79414 2.31277 10.1926 2.69524C10.591 3.07771 10.6039 3.71075 10.2214 4.10916L7.44624 6.99996H16.5538ZM2.18048 8.99996L3.70788 18.1644C3.78825 18.6465 4.20544 19 4.69427 19H19.3058C19.7946 19 20.2118 18.6465 20.2922 18.1644L21.8196 8.99996H2.18048ZM12 11C12.5523 11 13 11.4477 13 12V16C13 16.5522 12.5523 17 12 17C11.4477 17 11 16.5522 11 16V12C11 11.4477 11.4477 11 12 11ZM7.00002 11C7.55231 11 8.00002 11.4477 8.00002 12V16C8.00002 16.5522 7.55231 17 7.00002 17C6.44774 17 6.00002 16.5522 6.00002 16V12C6.00002 11.4477 6.44774 11 7.00002 11ZM17 11C17.5523 11 18 11.4477 18 12V16C18 16.5522 17.5523 17 17 17C16.4477 17 16 16.5522 16 16V12C16 11.4477 16.4477 11 17 11Z" fill="#758CA3"/>
</svg>
