<svg width="24" height="24" viewBox="0 0 24 24" fill="none" xmlns="http://www.w3.org/2000/svg">
<path d="M20.7071 2.29289C20.3166 1.90237 19.6834 1.90237 19.2929 2.29289C18.9024 2.68342 18.9024 3.31658 19.2929 3.70711L20.5858 5H17.5C15.4112 5 13.8775 5.9151 12.7003 7.19928C12.4971 7.42096 12.3035 7.65476 12.1184 7.89774C12.5095 8.57215 12.8587 9.25515 13.172 9.88239C13.4853 9.39148 13.815 8.94311 14.1747 8.55072C15.06 7.5849 16.0888 7 17.5 7H20.5858L19.2929 8.29289C18.9024 8.68342 18.9024 9.31658 19.2929 9.70711C19.6834 10.0976 20.3166 10.0976 20.7071 9.70711L23.7071 6.70711C24.0976 6.31658 24.0976 5.68342 23.7071 5.29289L20.7071 2.29289Z" fill="#758CA3"/>
<path d="M7.72125 15.4977C8.0367 15.1061 8.32907 14.6615 8.61321 14.175C8.93906 14.8074 9.30616 15.4838 9.72629 16.1516C9.58197 16.3599 9.43301 16.5608 9.27875 16.7523C8.25526 18.0229 6.90194 19 5 19H1C0.447715 19 0 18.5523 0 18C0 17.4477 0.447715 17 1 17H5C6.09806 17 6.93224 16.4771 7.72125 15.4977Z" fill="#758CA3"/>
<path d="M12.7003 16.8007C13.8775 18.0849 15.4112 19 17.5 19H20.5858L19.2929 20.2929C18.9024 20.6834 18.9024 21.3166 19.2929 21.7071C19.6834 22.0976 20.3166 22.0976 20.7071 21.7071L23.7071 18.7071C24.0976 18.3166 24.0976 17.6834 23.7071 17.2929L20.7071 14.2929C20.3166 13.9024 19.6834 13.9024 19.2929 14.2929C18.9024 14.6834 18.9024 15.3166 19.2929 15.7071L20.5858 17H17.5C16.0888 17 15.06 16.4151 14.1747 15.4493C13.2523 14.443 12.5274 13.0687 11.7694 11.5528C11.7092 11.4324 11.6487 11.3108 11.5878 11.1885C10.9119 9.83107 10.1871 8.37533 9.27875 7.24767C8.25526 5.97713 6.90194 5 5 5H1C0.447715 5 0 5.44771 0 6C0 6.55229 0.447715 7 1 7H5C6.09806 7 6.93224 7.52287 7.72125 8.50233C8.48623 9.45196 9.11547 10.7133 9.82081 12.1272L9.98057 12.4472C10.7226 13.9313 11.5602 15.557 12.7003 16.8007Z" fill="#758CA3"/>
</svg>
