<svg width="24" height="24" viewBox="0 0 24 24" fill="none" xmlns="http://www.w3.org/2000/svg">
<path fill-rule="evenodd" clip-rule="evenodd" d="M20 10V8C20 5.79086 18.2091 4 16 4H8C5.79086 4 4 5.79086 4 8V10C5.65685 10 7 11.3431 7 13V14H17V13C17 11.3431 18.3431 10 20 10ZM22 10.1707C23.1652 10.5825 24 11.6938 24 13V21C24 21.5523 23.5523 22 23 22H18C17.4477 22 17 21.5523 17 21H7C7 21.5523 6.55228 22 6 22H1C0.447715 22 0 21.5523 0 21V13C0 11.6938 0.834808 10.5825 2 10.1707V8C2 4.68629 4.68629 2 8 2H16C19.3137 2 22 4.68629 22 8V10.1707ZM17 16H7V19H17V16ZM22 20V13C22 12.4477 21.5523 12 21 12H20C19.4477 12 19 12.4477 19 13V20H22ZM2 20H5V13C5 12.4477 4.55228 12 4 12H3C2.44772 12 2 12.4477 2 13V20ZM9 8C9.55229 8 10 8.44772 10 9C10 9.55228 9.55229 10 9 10C8.44771 10 8 9.55228 8 9C8 8.44772 8.44771 8 9 8ZM15 8C15.5523 8 16 8.44772 16 9C16 9.55228 15.5523 10 15 10C14.4477 10 14 9.55228 14 9C14 8.44772 14.4477 8 15 8Z" fill="#758CA3"/>
</svg>
