<svg width="24" height="24" viewBox="0 0 24 24" fill="none" xmlns="http://www.w3.org/2000/svg">
<path fill-rule="evenodd" clip-rule="evenodd" d="M18 20.5858L19.2929 19.2929C19.6834 18.9024 20.3166 18.9024 20.7071 19.2929C21.0976 19.6834 21.0976 20.3166 20.7071 20.7071L17.7071 23.7071C17.3166 24.0976 16.6834 24.0976 16.2929 23.7071L13.2929 20.7071C12.9024 20.3166 12.9024 19.6834 13.2929 19.2929C13.6834 18.9024 14.3166 18.9024 14.7071 19.2929L16 20.5858V1C16 0.447715 16.4477 0 17 0C17.5523 0 18 0.447715 18 1V20.5858ZM8 3.41421V23C8 23.5523 7.55228 24 7 24C6.44772 24 6 23.5523 6 23V3.41421L4.70711 4.70711C4.31658 5.09763 3.68342 5.09763 3.29289 4.70711C2.90237 4.31658 2.90237 3.68342 3.29289 3.29289L6.29289 0.292893C6.68342 -0.0976311 7.31658 -0.0976311 7.70711 0.292893L10.7071 3.29289C11.0976 3.68342 11.0976 4.31658 10.7071 4.70711C10.3166 5.09763 9.68342 5.09763 9.29289 4.70711L8 3.41421Z" fill="#758CA3"/>
</svg>
