<svg width="24" height="24" viewBox="0 0 24 24" fill="none" xmlns="http://www.w3.org/2000/svg">
<path fill-rule="evenodd" clip-rule="evenodd" d="M12 1C12.5523 1 13 1.44772 13 2V7C13 7.55228 12.5523 8 12 8C11.4477 8 11 7.55228 11 7V2C11 1.44772 11.4477 1 12 1ZM12 16C12.5523 16 13 16.4477 13 17V22C13 22.5523 12.5523 23 12 23C11.4477 23 11 22.5523 11 22V17C11 16.4477 11.4477 16 12 16ZM2.47374 6.5C2.74988 6.02171 3.36147 5.85783 3.83977 6.13397L8.16989 8.63398C8.64819 8.91012 8.81206 9.52171 8.53592 10C8.25978 10.4783 7.64819 10.6422 7.16989 10.366L2.83977 7.86603C2.36147 7.58988 2.1976 6.97829 2.47374 6.5ZM15.4641 14C15.7403 13.5217 16.3519 13.3578 16.8301 13.634L21.1603 16.134C21.6386 16.4101 21.8024 17.0217 21.5263 17.5C21.2502 17.9783 20.6386 18.1422 20.1603 17.866L15.8301 15.366C15.3519 15.0899 15.188 14.4783 15.4641 14ZM2.47374 17.5C2.1976 17.0217 2.36147 16.4101 2.83977 16.134L7.16989 13.634C7.64819 13.3578 8.25978 13.5217 8.53592 14C8.81206 14.4783 8.64819 15.0899 8.16989 15.366L3.83977 17.866C3.36147 18.1422 2.74988 17.9783 2.47374 17.5ZM15.4641 10C15.188 9.52171 15.3519 8.91012 15.8301 8.63398L20.1603 6.13397C20.6386 5.85783 21.2502 6.02171 21.5263 6.5C21.8024 6.97829 21.6386 7.58988 21.1603 7.86603L16.8301 10.366C16.3519 10.6422 15.7403 10.4783 15.4641 10Z" fill="#758CA3"/>
</svg>
