<svg width="24" height="24" viewBox="0 0 24 24" fill="none" xmlns="http://www.w3.org/2000/svg">
<path fill-rule="evenodd" clip-rule="evenodd" d="M13 16C13.5523 16 14 16.4477 14 17C14 17.5523 13.5523 18 13 18H11C10.4477 18 10 17.5523 10 17C10 16.4477 10.4477 16 11 16V14H13V16ZM13 8V10H11V8H9C9 8.55228 8.55228 9 8 9C7.44772 9 7 8.55228 7 8V7C7 6.44772 7.44772 6 8 6H16C16.5523 6 17 6.44772 17 7V8C17 8.55228 16.5523 9 16 9C15.4477 9 15 8.55228 15 8H13ZM7 13C6.44772 13 6 12.5523 6 12C6 11.4477 6.44772 11 7 11H17C17.5523 11 18 11.4477 18 12C18 12.5523 17.5523 13 17 13H7Z" fill="#758CA3"/>
</svg>
