<svg width="24" height="24" viewBox="0 0 24 24" fill="none" xmlns="http://www.w3.org/2000/svg">
<path fill-rule="evenodd" clip-rule="evenodd" d="M12.4595 13H13C13.5523 13 14 13.4477 14 14C14 14.5523 13.5523 15 13 15H11.7595L10.9439 17.3304C10.7614 17.8516 10.1909 18.1263 9.66965 17.9439C9.14837 17.7614 8.87369 17.1909 9.05614 16.6696L12.5561 6.66965C12.8686 5.77678 14.1314 5.77678 14.4439 6.66965L17.9439 16.6696C18.1263 17.1909 17.8516 17.7614 17.3303 17.9439C16.8091 18.1263 16.2386 17.8516 16.0561 17.3304L13.5 10.0271L12.4595 13ZM7.94237 17.3346C7.75759 17.855 7.18588 18.1271 6.66542 17.9424C6.14497 17.7576 5.87285 17.1859 6.05763 16.6654L9.55763 6.80727C9.74241 6.28681 10.3141 6.0147 10.8346 6.19948C11.355 6.38426 11.6271 6.95596 11.4424 7.47642L7.94237 17.3346Z" fill="#758CA3"/>
</svg>
