<svg width="24" height="24" viewBox="0 0 24 24" fill="none" xmlns="http://www.w3.org/2000/svg">
<path fill-rule="evenodd" clip-rule="evenodd" d="M8.83396 12.0002L6.14266 7.51465C5.85851 7.04107 6.01208 6.42681 6.48566 6.14266C6.95924 5.85851 7.5735 6.01208 7.85764 6.48566L10.0002 10.0565L12.1427 6.48566C12.4268 6.01208 13.0411 5.85851 13.5146 6.14266C13.9882 6.42681 14.1418 7.04107 13.8576 7.51465L11.1663 12.0002L13.8576 16.4857C14.1418 16.9592 13.9882 17.5735 13.5146 17.8576C13.0411 18.1418 12.4268 17.9882 12.1427 17.5146L10.0002 13.9438L7.85764 17.5146C7.5735 17.9882 6.95924 18.1418 6.48566 17.8576C6.01208 17.5735 5.85851 16.9592 6.14266 16.4857L8.83396 12.0002ZM16.5002 17.0002C15.6717 17.0002 15.0002 16.3286 15.0002 15.5002C15.0002 14.6717 15.6717 14.0002 16.5002 14.0002C17.3286 14.0002 18.0002 14.6717 18.0002 15.5002C18.0002 16.3286 17.3286 17.0002 16.5002 17.0002Z" fill="#758CA3"/>
</svg>
