<svg width="24" height="24" viewBox="0 0 24 24" fill="none" xmlns="http://www.w3.org/2000/svg">
<path fill-rule="evenodd" clip-rule="evenodd" d="M8.83381 12L6.14251 7.51452C5.85836 7.04094 6.01192 6.42668 6.4855 6.14254C6.95908 5.85839 7.57334 6.01195 7.85749 6.48553L10 10.0564L12.1425 6.48553C12.4267 6.01195 13.0409 5.85839 13.5145 6.14254C13.9881 6.42668 14.1416 7.04094 13.8575 7.51452L11.1662 12L13.8575 16.4855C14.1416 16.9591 13.9881 17.5734 13.5145 17.8575C13.0409 18.1417 12.4267 17.9881 12.1425 17.5145L10 13.9437L7.85749 17.5145C7.57334 17.9881 6.95908 18.1417 6.4855 17.8575C6.01192 17.5734 5.85836 16.9591 6.14251 16.4855L8.83381 12ZM16.5 10C15.6716 10 15 9.32846 15 8.50003C15 7.6716 15.6716 7.00003 16.5 7.00003C17.3284 7.00003 18 7.6716 18 8.50003C18 9.32846 17.3284 10 16.5 10Z" fill="#758CA3"/>
</svg>
