<svg width="24" height="24" viewBox="0 0 24 24" fill="none" xmlns="http://www.w3.org/2000/svg">
<path fill-rule="evenodd" clip-rule="evenodd" d="M12.427 5.01281L13.7071 6.29289C14.0976 6.68342 14.0976 7.31658 13.7071 7.70711C13.3166 8.09763 12.6834 8.09763 12.2929 7.70711L9.29289 4.70711C8.90237 4.31658 8.90237 3.68342 9.29289 3.29289L12.2929 0.292893C12.6834 -0.0976311 13.3166 -0.0976311 13.7071 0.292893C14.0976 0.683418 14.0976 1.31658 13.7071 1.70711L12.4053 3.00896C17.1877 3.22089 21 7.16525 21 12C21 14.3981 20.0565 16.6496 18.4053 18.3224C18.0173 18.7154 17.3841 18.7195 16.9911 18.3315C16.598 17.9436 16.5939 17.3104 16.9819 16.9174C18.2673 15.6152 19 13.8668 19 12C19 8.2774 16.0942 5.23349 12.427 5.01281ZM11.5947 20.991C6.81226 20.7791 3 16.8348 3 12C3 9.59706 3.94734 7.34135 5.60451 5.66773C5.9931 5.27528 6.62625 5.27215 7.0187 5.66074C7.41115 6.04933 7.41428 6.68249 7.02569 7.07494C5.73567 8.37777 5 10.1295 5 12C5 15.7226 7.90584 18.7665 11.573 18.9872L10.2929 17.7071C9.90237 17.3166 9.90237 16.6834 10.2929 16.2929C10.6834 15.9024 11.3166 15.9024 11.7071 16.2929L14.7071 19.2929C15.0976 19.6834 15.0976 20.3166 14.7071 20.7071L11.7071 23.7071C11.3166 24.0976 10.6834 24.0976 10.2929 23.7071C9.90237 23.3166 9.90237 22.6834 10.2929 22.2929L11.5947 20.991Z" fill="#758CA3"/>
</svg>
