<svg width="24" height="24" viewBox="0 0 24 24" fill="none" xmlns="http://www.w3.org/2000/svg">
<path fill-rule="evenodd" clip-rule="evenodd" d="M2.04938 12H3C3.55228 12 4 12.4477 4 13C4 13.5523 3.55228 14 3 14H2.04958C2.32821 16.7977 3.76679 19.3236 5.99885 21H7.97217C8.52445 21 8.97217 21.4477 8.97217 22C8.97217 22.5523 8.52445 23 7.97217 23H5.67384C5.46771 23 5.26661 22.9363 5.09808 22.8176C1.9267 20.5843 0 16.9533 0 13C0 6.37258 5.37258 1 12 1C18.6274 1 24 6.37258 24 13C24 16.9533 22.0733 20.5843 18.9019 22.8176C18.7334 22.9363 18.5323 23 18.3262 23H15.876C15.3237 23 14.876 22.5523 14.876 22C14.876 21.4477 15.3237 21 15.876 21H18.0011C20.2332 19.3236 21.6718 16.7977 21.9504 14H21C20.4477 14 20 13.5523 20 13C20 12.4477 20.4477 12 21 12H21.9506C21.4816 7.27558 17.7244 3.51844 13 3.04938V4C13 4.55228 12.5523 5 12 5C11.4477 5 11 4.55228 11 4V3.04938C6.27558 3.51844 2.51844 7.27558 2.04938 12ZM12.7372 13.6757C12.364 14.0828 11.7314 14.1103 11.3243 13.7372C10.9172 13.364 10.8897 12.7314 11.2628 12.3243L15.3535 7.86175C15.7267 7.45463 16.3593 7.42713 16.7664 7.80032C17.1735 8.17352 17.201 8.80608 16.8278 9.2132L12.7372 13.6757Z" fill="#758CA3"/>
</svg>
