<svg width="24" height="24" viewBox="0 0 24 24" fill="none" xmlns="http://www.w3.org/2000/svg">
<path fill-rule="evenodd" clip-rule="evenodd" d="M3.8284 13L11 20.1716L22 9.17157V2H14.8284L3.8284 13ZM1.70708 12.2929L13.7071 0.292893C13.8946 0.105357 14.149 0 14.4142 0H22C23.1045 0 24 0.89543 24 2V9.58579C24 9.851 23.8946 10.1054 23.7071 10.2929L11.7071 22.2929C11.3166 22.6834 10.6834 22.6834 10.2929 22.2929L1.70708 13.7071C1.31655 13.3166 1.31655 12.6834 1.70708 12.2929ZM18 8C16.8954 8 16 7.10457 16 6C16 4.89543 16.8954 4 18 4C19.1045 4 20 4.89543 20 6C20 7.10457 19.1045 8 18 8Z" fill="#758CA3"/>
</svg>
