<svg width="24" height="24" viewBox="0 0 24 24" fill="none" xmlns="http://www.w3.org/2000/svg">
<path fill-rule="evenodd" clip-rule="evenodd" d="M7.99999 9.91864V5.82929C6.8348 5.41746 5.99999 4.30622 5.99999 3C5.99999 1.34315 7.34314 0 8.99999 0H15C16.6568 0 18 1.34315 18 3C18 4.30622 17.1652 5.41746 16 5.82929V9.91864C16.1699 10.095 16.3195 10.2935 16.4441 10.5116L18.1584 13.5116C18.9804 14.9501 18.4806 16.7827 17.042 17.6047C16.5888 17.8638 16.0757 18 15.5536 18H13V23C13 23.5523 12.5523 24 12 24C11.4477 24 11 23.5523 11 23V18H8.44635C6.7895 18 5.44635 16.6569 5.44635 15C5.44635 14.4779 5.5826 13.9649 5.84162 13.5116L7.55591 10.5116C7.6805 10.2935 7.83013 10.095 7.99999 9.91864ZM9.99999 9H14V6H9.99999V9ZM15 4C15.5523 4 16 3.55228 16 3C16 2.44772 15.5523 2 15 2H8.99999C8.44771 2 7.99999 2.44772 7.99999 3C7.99999 3.55228 8.44771 4 8.99999 4H15ZM10.1606 11C9.80178 11 9.47044 11.1923 9.29239 11.5039L7.57811 14.5039C7.49177 14.655 7.44635 14.826 7.44635 15C7.44635 15.5523 7.89407 16 8.44635 16H15.5536C15.7277 16 15.8987 15.9546 16.0498 15.8682C16.5293 15.5942 16.6959 14.9834 16.4219 14.5039L14.7076 11.5039C14.5295 11.1923 14.1982 11 13.8393 11H10.1606Z" fill="#758CA3"/>
</svg>
