<svg width="24" height="24" viewBox="0 0 24 24" fill="none" xmlns="http://www.w3.org/2000/svg">
<path fill-rule="evenodd" clip-rule="evenodd" d="M12 10.5858L13.4142 9.17157C13.8047 8.78105 14.4379 8.78105 14.8284 9.17157C15.219 9.5621 15.219 10.1953 14.8284 10.5858L13.4142 12L14.8284 13.4142C15.219 13.8047 15.219 14.4379 14.8284 14.8284C14.4379 15.219 13.8047 15.219 13.4142 14.8284L12 13.4142L10.5858 14.8284C10.1953 15.219 9.5621 15.219 9.17157 14.8284C8.78105 14.4379 8.78105 13.8047 9.17157 13.4142L10.5858 12L9.17157 10.5858C8.78105 10.1953 8.78105 9.5621 9.17157 9.17157C9.5621 8.78105 10.1953 8.78105 10.5858 9.17157L12 10.5858ZM6.34315 17.6569C3.21895 14.5327 3.21895 9.46734 6.34315 6.34315C9.46734 3.21895 14.5327 3.21895 17.6569 6.34315C20.781 9.46734 20.781 14.5327 17.6569 17.6569C14.5327 20.781 9.46734 20.781 6.34315 17.6569ZM7.75736 16.2426C10.1005 18.5858 13.8995 18.5858 16.2426 16.2426C18.5858 13.8995 18.5858 10.1005 16.2426 7.75736C13.8995 5.41421 10.1005 5.41421 7.75736 7.75736C5.41421 10.1005 5.41421 13.8995 7.75736 16.2426Z" fill="#758CA3"/>
</svg>
