<svg width="24" height="24" viewBox="0 0 24 24" fill="none" xmlns="http://www.w3.org/2000/svg">
<path fill-rule="evenodd" clip-rule="evenodd" d="M12 10.5858L14.2392 8.34666C14.5646 8.02123 15.145 8.07399 15.5355 8.46451C15.9261 8.85504 15.9788 9.43544 15.6534 9.76088L13.4142 12L15.6534 14.2392C15.9788 14.5647 15.9261 15.1451 15.5355 15.5356C15.145 15.9261 14.5646 15.9789 14.2392 15.6534L12 13.4143L9.76083 15.6534C9.43539 15.9789 8.85499 15.9261 8.46447 15.5356C8.07394 15.1451 8.02118 14.5647 8.34661 14.2392L10.5858 12L8.34661 9.76088C8.02118 9.43544 8.07394 8.85504 8.46447 8.46451C8.85499 8.07399 9.43539 8.02123 9.76083 8.34666L12 10.5858Z" fill="#758CA3"/>
</svg>
