<svg width="24" height="24" viewBox="0 0 24 24" fill="none" xmlns="http://www.w3.org/2000/svg">
<path fill-rule="evenodd" clip-rule="evenodd" d="M6.5032 12.0826C4.4762 9.46966 2.95623 6.48259 2.0397 3.27472C1.82417 2.52037 2.52159 1.82295 3.27595 2.03848C6.48381 2.95501 9.47089 4.47498 12.0838 6.50198L17.2929 1.29289C17.6834 0.902369 18.3166 0.902369 18.7071 1.29289L22.7071 5.29289C23.0976 5.68342 23.0976 6.31658 22.7071 6.70711L17.4921 11.9221L18.668 13.2449C20.7524 14.6883 22 17.0644 22 19.6056V21C22 21.5523 21.5523 22 21 22H19.6056C17.062 22 14.6838 20.7501 13.2408 18.6621L11.9233 17.4909L7.70711 21.7071C7.51957 21.8946 7.26522 22 7 22H3C2.44772 22 2 21.5523 2 21V17C2 16.7348 2.10536 16.4804 2.2929 16.2929L6.5032 12.0826ZM7.79399 13.6202L4 17.4142V20H6.58579L10.4259 16.1599L9.77808 15.5841C9.07991 14.9634 8.41784 14.3077 7.79399 13.6202ZM13.6215 7.79276C14.3089 8.41661 14.9647 9.07868 15.5853 9.77686L16.1611 10.4247L18.0858 8.5L15.5 5.91421L13.6215 7.79276ZM16.9142 4.5L19.5 7.08579L20.5858 6L18 3.41421L16.9142 4.5ZM13.9609 16.6262L16.6274 13.9596L14.0905 11.1056C11.4891 8.17905 8.21916 5.93967 4.57154 4.57031C5.9409 8.21793 8.18027 11.4879 11.1068 14.0892L13.9609 16.6262ZM20 19.6056C20 17.9599 19.2945 16.4078 18.0862 15.328L15.328 18.0862C16.4078 19.2944 17.96 20 19.6056 20H20V19.6056Z" fill="#758CA3"/>
</svg>
