<svg width="24" height="24" viewBox="0 0 24 24" fill="none" xmlns="http://www.w3.org/2000/svg">
<path d="M1.5 5C0.947715 5 0.5 5.44772 0.5 6C0.5 6.55228 0.947715 7 1.5 7H4.5V17C4.5 17.5523 4.94772 18 5.5 18C6.05228 18 6.5 17.5523 6.5 17V7H9.5C10.0523 7 10.5 6.55228 10.5 6C10.5 5.44772 10.0523 5 9.5 5H1.5Z" fill="#758CA3"/>
<path d="M15.5 17V9.07519L17.6832 12.0771C18.0865 12.6316 18.9135 12.6317 19.3168 12.0771L21.5 9.07519V17C21.5 17.5523 21.9477 18 22.5 18C23.0523 18 23.5 17.5523 23.5 17V6.03076C23.5 5.05258 22.2485 4.64563 21.6732 5.4367L18.5 9.79982L15.3268 5.4367C14.7515 4.64559 13.5 5.05263 13.5 6.03076V17C13.5 17.5523 13.9477 18 14.5 18C15.0523 18 15.5 17.5523 15.5 17Z" fill="#758CA3"/>
</svg>
