<svg width="24" height="24" viewBox="0 0 24 24" fill="none" xmlns="http://www.w3.org/2000/svg">
<path fill-rule="evenodd" clip-rule="evenodd" d="M16.1011 13L14.8344 9H9.16561L7.89894 13H16.1011ZM16.7344 15H7.26561L5.36561 21H18.6344L16.7344 15ZM14.2011 7L12.9344 3H11.0656L9.79894 7H14.2011ZM4.02333 23C4.008 23.0004 3.99261 23.0004 3.9772 23H1C0.447715 23 0 22.5523 0 22C0 21.4477 0.447715 21 1 21H3.26773L9.15892 2.39622C9.42216 1.56493 10.1936 1 11.0656 1H12.9344C13.8064 1 14.5778 1.56493 14.8411 2.39622L20.7323 21H23C23.5523 21 24 21.4477 24 22C24 22.5523 23.5523 23 23 23H20.0228C20.0074 23.0004 19.992 23.0004 19.9767 23H4.02333H4.02333Z" fill="#758CA3"/>
</svg>
