<svg width="24" height="24" viewBox="0 0 24 24" fill="none" xmlns="http://www.w3.org/2000/svg">
<path fill-rule="evenodd" clip-rule="evenodd" d="M19.9 0H16C15.4477 0 15 0.447715 15 1C15 1.55228 15.4477 2 16 2H17.5858L14.4765 5.10925C13.4957 4.41079 12.2958 4 11 4C7.68629 4 5 6.68629 5 10C5 12.9742 7.16399 15.4429 10.0033 15.9176C10.0011 15.9448 10 15.9723 10 16V18H9C8.44772 18 8 18.4477 8 19C8 19.5523 8.44772 20 9 20H10V22C10 22.5523 10.4477 23 11 23C11.5523 23 12 22.5523 12 22V20H13C13.5523 20 14 19.5523 14 19C14 18.4477 13.5523 18 13 18H12V16C12 15.9723 11.9989 15.9448 11.9967 15.9176C14.836 15.4429 17 12.9742 17 10C17 8.70417 16.5892 7.50428 15.8907 6.52347L19 3.41421V5C19 5.55228 19.4477 6 20 6C20.5523 6 21 5.55228 21 5V1.1C21 1.08279 20.9996 1.06567 20.9988 1.04866C21.012 0.776771 20.9147 0.500534 20.7071 0.292893C20.4995 0.0852527 20.2232 -0.0119861 19.9513 0.00117708C19.9343 0.000395219 19.9172 0 19.9 0ZM11 14C13.2091 14 15 12.2091 15 10C15 7.79086 13.2091 6 11 6C8.79086 6 7 7.79086 7 10C7 12.2091 8.79086 14 11 14Z" fill="#758CA3"/>
</svg>
