<svg width="24" height="24" viewBox="0 0 24 24" fill="none" xmlns="http://www.w3.org/2000/svg">
<path fill-rule="evenodd" clip-rule="evenodd" d="M9 14C9 13.4477 9.44772 13 10 13C10.5523 13 11 13.4477 11 14V16C11 16.5523 10.5523 17 10 17C9.44772 17 9 16.5523 9 16V14ZM13 14C13 13.4477 13.4477 13 14 13C14.5523 13 15 13.4477 15 14V16C15 16.5523 14.5523 17 14 17C13.4477 17 13 16.5523 13 16V14ZM8 7V6C8 4.89543 8.89543 4 10 4H14C15.1046 4 16 4.89543 16 6V7H17C18.1046 7 19 7.89543 19 9V11C19 11.5523 18.5523 12 18 12V18C18 19.1046 17.1046 20 16 20H8C6.89543 20 6 19.1046 6 18V12C5.44772 12 5 11.5523 5 11V9C5 7.89543 5.89543 7 7 7H8ZM17 9H7V10H17V9ZM8 12V18H16V12H8ZM10 7H14V6H10V7Z" fill="#758CA3"/>
</svg>
