<svg width="24" height="24" viewBox="0 0 24 24" fill="none" xmlns="http://www.w3.org/2000/svg">
<path fill-rule="evenodd" clip-rule="evenodd" d="M5 21C5 21.5523 5.44772 22 6 22H18C18.5523 22 19 21.5523 19 21V9H5V21ZM17 3H19C20.6569 3 22 4.34315 22 6V8C22 8.55229 21.5523 9 21 9V21C21 22.6569 19.6569 24 18 24H6C4.34315 24 3 22.6569 3 21V9C2.44772 9 2 8.55229 2 8V6C2 4.34315 3.34315 3 5 3H7C7 1.34315 8.34315 0 10 0H14C15.6569 0 17 1.34315 17 3ZM7 13C7 12.4477 7.44772 12 8 12C8.55228 12 9 12.4477 9 13V18C9 18.5523 8.55228 19 8 19C7.44772 19 7 18.5523 7 18V13ZM11 13C11 12.4477 11.4477 12 12 12C12.5523 12 13 12.4477 13 13V18C13 18.5523 12.5523 19 12 19C11.4477 19 11 18.5523 11 18V13ZM15 13C15 12.4477 15.4477 12 16 12C16.5523 12 17 12.4477 17 13V18C17 18.5523 16.5523 19 16 19C15.4477 19 15 18.5523 15 18V13ZM10 2C9.44772 2 9 2.44772 9 3H15C15 2.44772 14.5523 2 14 2H10ZM4 7H20V6C20 5.44772 19.5523 5 19 5H5C4.44772 5 4 5.44772 4 6V7Z" fill="#758CA3"/>
</svg>
