<svg width="24" height="24" viewBox="0 0 24 24" fill="none" xmlns="http://www.w3.org/2000/svg">
<path fill-rule="evenodd" clip-rule="evenodd" d="M24 10.4051V16C24 17.1046 23.1046 18 22 18H21.9646C21.7219 19.6961 20.2632 21 18.5 21C16.7368 21 15.2781 19.6961 15.0354 18H9.96456C9.72194 19.6961 8.26324 21 6.5 21C4.73676 21 3.27806 19.6961 3.03544 18H2C0.89543 18 0 17.1046 0 16V5C0 3.89543 0.89543 3 2 3H15C16.1046 3 17 3.89543 17 5V6H19.3139C20.0157 6 20.6953 6.24605 21.2344 6.69534L22.9206 8.10046C23.6045 8.67044 24 9.51479 24 10.4051ZM22 11V10.4051C22 10.1083 21.8682 9.8269 21.6402 9.6369L19.954 8.23178C19.7743 8.08202 19.5478 8 19.3139 8H17V11H22ZM17 13V14.3368C17.4546 14.1208 17.9632 14 18.5 14C19.8962 14 21.1015 14.8175 21.6632 16H22V13H17ZM15 16V5H2V16H3.33682C3.89855 14.8175 5.1038 14 6.5 14C7.8962 14 9.10145 14.8175 9.66319 16H15ZM6.5 19C7.32843 19 8 18.3284 8 17.5C8 16.6716 7.32843 16 6.5 16C5.67157 16 5 16.6716 5 17.5C5 18.3284 5.67157 19 6.5 19ZM18.5 19C19.3284 19 20 18.3284 20 17.5C20 16.6716 19.3284 16 18.5 16C17.6716 16 17 16.6716 17 17.5C17 18.3284 17.6716 19 18.5 19Z" fill="#758CA3"/>
</svg>
