<svg width="24" height="24" viewBox="0 0 24 24" fill="none" xmlns="http://www.w3.org/2000/svg">
<path fill-rule="evenodd" clip-rule="evenodd" d="M12 14H6V20H12V14ZM5.41421 6L7.70711 8.29289C8.09763 8.68342 8.09763 9.31658 7.70711 9.70711C7.31658 10.0976 6.68342 10.0976 6.29289 9.70711L2.29289 5.70711C1.90237 5.31658 1.90237 4.68342 2.29289 4.29289L6.29289 0.292893C6.68342 -0.0976311 7.31658 -0.0976311 7.70711 0.292893C8.09763 0.683418 8.09763 1.31658 7.70711 1.70711L5.41421 4H16C19.3137 4 22 6.68629 22 10V23C22 23.5523 21.5523 24 21 24C20.4477 24 20 23.5523 20 23V10C20 7.79086 18.2091 6 16 6H5.41421ZM12 12C13.1046 12 14 12.8954 14 14V20C14 21.1046 13.1046 22 12 22H6C4.89543 22 4 21.1046 4 20V14C4 12.8954 4.89543 12 6 12H12Z" fill="#758CA3"/>
</svg>
