<svg width="24" height="24" viewBox="0 0 24 24" fill="none" xmlns="http://www.w3.org/2000/svg">
<path fill-rule="evenodd" clip-rule="evenodd" d="M12 14V20H18V14H12ZM18.5858 6H8C5.79086 6 4 7.79086 4 10V23C4 23.5523 3.55228 24 3 24C2.44772 24 2 23.5523 2 23V10C2 6.68629 4.68629 4 8 4H18.5858L16.2929 1.70711C15.9024 1.31658 15.9024 0.683418 16.2929 0.292893C16.6834 -0.0976311 17.3166 -0.0976311 17.7071 0.292893L21.7071 4.29289C22.0976 4.68342 22.0976 5.31658 21.7071 5.70711L17.7071 9.70711C17.3166 10.0976 16.6834 10.0976 16.2929 9.70711C15.9024 9.31658 15.9024 8.68342 16.2929 8.29289L18.5858 6ZM12 12H18C19.1046 12 20 12.8954 20 14V20C20 21.1046 19.1046 22 18 22H12C10.8954 22 10 21.1046 10 20V14C10 12.8954 10.8954 12 12 12Z" fill="#758CA3"/>
</svg>
