<svg width="24" height="24" viewBox="0 0 24 24" fill="none" xmlns="http://www.w3.org/2000/svg">
<path fill-rule="evenodd" clip-rule="evenodd" d="M19.9912 11.8667C19.997 11.9103 20 11.9548 20 12V18C20 18.5523 19.5523 19 19 19C18.4477 19 18 18.5523 18 18V16.5991C16.6303 18.0758 14.6731 19 12.5 19C8.35786 19 5 15.6421 5 11.5V3C4.44772 3 4 2.55228 4 2C4 1.44772 4.44772 1 5 1H7C7.55228 1 8 1.44772 8 2C8 2.55228 7.55228 3 7 3V11.5C7 14.5376 9.46243 17 12.5 17C15.5376 17 18 14.5376 18 11.5V3C17.4477 3 17 2.55228 17 2C17 1.44772 17.4477 1 18 1H20C20.5523 1 21 1.44772 21 2C21 2.55228 20.5523 3 20 3V11.5C20 11.6229 19.997 11.7452 19.9912 11.8667ZM5 23C4.44772 23 4 22.5523 4 22C4 21.4477 4.44772 21 5 21H20C20.5523 21 21 21.4477 21 22C21 22.5523 20.5523 23 20 23H5Z" fill="#758CA3"/>
</svg>
