<svg width="24" height="24" viewBox="0 0 24 24" fill="none" xmlns="http://www.w3.org/2000/svg">
<path fill-rule="evenodd" clip-rule="evenodd" d="M16 7V14C16 14.5523 15.5523 15 15 15C14.5946 15 14.2456 14.7588 14.0886 14.4121C13.4807 14.785 12.7654 15 12 15C9.79086 15 8 13.2091 8 11V7C8 6.44772 8.44772 6 9 6C9.55228 6 10 6.44772 10 7V11C10 12.1046 10.8954 13 12 13C13.1046 13 14 12.1046 14 11V7C14 6.44772 14.4477 6 15 6C15.5523 6 16 6.44772 16 7ZM8 16H16C16.5523 16 17 16.4477 17 17C17 17.5523 16.5523 18 16 18H8C7.44772 18 7 17.5523 7 17C7 16.4477 7.44772 16 8 16Z" fill="#758CA3"/>
</svg>
