<svg width="24" height="24" viewBox="0 0 24 24" fill="none" xmlns="http://www.w3.org/2000/svg">
<path fill-rule="evenodd" clip-rule="evenodd" d="M6.41421 6L8.70711 8.29289C9.09763 8.68342 9.09763 9.31658 8.70711 9.70711C8.31658 10.0976 7.68342 10.0976 7.29289 9.70711L3.29289 5.70711C2.90237 5.31658 2.90237 4.68342 3.29289 4.29289L7.29289 0.292893C7.68342 -0.0976311 8.31658 -0.0976311 8.70711 0.292893C9.09763 0.683418 9.09763 1.31658 8.70711 1.70711L6.41421 4H11.5C16.7467 4 21 8.25329 21 13.5C21 18.7467 16.7467 23 11.5 23C6.25329 23 2 18.7467 2 13.5C2 12.9477 2.44772 12.5 3 12.5C3.55228 12.5 4 12.9477 4 13.5C4 17.6421 7.35786 21 11.5 21C15.6421 21 19 17.6421 19 13.5C19 9.35786 15.6421 6 11.5 6H6.41421Z" fill="#758CA3"/>
</svg>
