<svg width="24" height="24" viewBox="0 0 24 24" fill="none" xmlns="http://www.w3.org/2000/svg">
<path fill-rule="evenodd" clip-rule="evenodd" d="M10.4142 9L11.7071 10.2929C12.0976 10.6834 12.0976 11.3166 11.7071 11.7071C11.3166 12.0976 10.6834 12.0976 10.2929 11.7071L7.29289 8.70711C6.90237 8.31658 6.90237 7.68342 7.29289 7.29289L10.2929 4.29289C10.6834 3.90237 11.3166 3.90237 11.7071 4.29289C12.0976 4.68342 12.0976 5.31658 11.7071 5.70711L10.4142 7H12.5C16.0899 7 19 9.91015 19 13.5C19 17.0899 16.0899 20 12.5 20C8.91015 20 6 17.0899 6 13.5C6 12.9477 6.44772 12.5 7 12.5C7.55228 12.5 8 12.9477 8 13.5C8 15.9853 10.0147 18 12.5 18C14.9853 18 17 15.9853 17 13.5C17 11.0147 14.9853 9 12.5 9H10.4142Z" fill="#758CA3"/>
</svg>
