<svg width="24" height="24" viewBox="0 0 24 24" fill="none" xmlns="http://www.w3.org/2000/svg">
<path fill-rule="evenodd" clip-rule="evenodd" d="M9.41421 9L10.7071 7.70711C11.0976 7.31658 11.0976 6.68342 10.7071 6.29289C10.3166 5.90237 9.68342 5.90237 9.29289 6.29289L6.29289 9.29289C5.90237 9.68342 5.90237 10.3166 6.29289 10.7071L9.29289 13.7071C9.68342 14.0976 10.3166 14.0976 10.7071 13.7071C11.0976 13.3166 11.0976 12.6834 10.7071 12.2929L9.41421 11H12.5C13.8807 11 15 12.1193 15 13.5C15 14.8807 13.8807 16 12.5 16H11.0357C10.4834 16 10.0357 16.4477 10.0357 17C10.0357 17.5523 10.4834 18 11.0357 18H12.5C14.9853 18 17 15.9853 17 13.5C17 11.0147 14.9853 9 12.5 9H9.41421Z" fill="#758CA3"/>
</svg>
