<svg width="24" height="24" viewBox="0 0 24 24" fill="none" xmlns="http://www.w3.org/2000/svg">
<path fill-rule="evenodd" clip-rule="evenodd" d="M7.99978 2.99992C5.7907 2.99992 3.99989 4.79073 3.99989 6.9998C3.99989 9.20888 5.7907 10.9997 7.99978 10.9997C10.2089 10.9997 11.9997 9.20888 11.9997 6.9998C11.9997 4.79073 10.2089 2.99992 7.99978 2.99992ZM7.99978 0.999972C11.3134 0.999972 13.9996 3.68619 13.9996 6.9998C13.9996 10.3134 11.3134 12.9996 7.99978 12.9996C4.68616 12.9996 1.99994 10.3134 1.99994 6.9998C1.99994 3.68619 4.68616 0.999972 7.99978 0.999972ZM1.99994 22.0984C1.99994 22.6507 1.55224 23.0984 0.999972 23.0984C0.447703 23.0984 0 22.6507 0 22.0984V19.9994C0 17.2381 2.23851 14.9996 4.99986 14.9996H11.0004C13.7617 14.9996 16.0003 17.2381 16.0003 19.9994V22.0984C16.0003 22.6507 15.5526 23.0984 15.0003 23.0984C14.448 23.0984 14.0003 22.6507 14.0003 22.0984V19.9994C14.0003 18.3426 12.6572 16.9995 11.0004 16.9995H4.99986C3.34305 16.9995 1.99994 18.3426 1.99994 19.9994V22.0984ZM15.8006 3.07995C15.2594 2.97008 14.9097 2.44226 15.0196 1.90103C15.1294 1.3598 15.6572 1.01011 16.1985 1.11997C18.9746 1.68349 20.9994 4.13329 20.9994 6.9998C20.9994 9.86632 18.9746 12.3161 16.1985 12.8796C15.6572 12.9895 15.1294 12.6398 15.0196 12.0986C14.9097 11.5573 15.2594 11.0295 15.8006 10.9197C17.649 10.5445 18.9995 8.91056 18.9995 6.9998C18.9995 5.08905 17.649 3.45514 15.8006 3.07995ZM19.0002 16.9995C18.4479 16.9995 18.0002 16.5518 18.0002 15.9996C18.0002 15.4473 18.4479 14.9996 19.0002 14.9996C21.7615 14.9996 24 17.2381 24 19.9994V22.0984C24 22.6507 23.5523 23.0984 23.0001 23.0984C22.4478 23.0984 22.0001 22.6507 22.0001 22.0984V19.9994C22.0001 18.3426 20.657 16.9995 19.0002 16.9995Z" fill="#758CA3"/>
</svg>
