<svg width="25" height="24" viewBox="0 0 25 24" fill="none" xmlns="http://www.w3.org/2000/svg">
<path fill-rule="evenodd" clip-rule="evenodd" d="M9.54999 4C7.61699 4 6.04999 5.567 6.04999 7.5C6.04999 9.433 7.61699 11 9.54999 11C11.483 11 13.05 9.433 13.05 7.5C13.05 5.567 11.483 4 9.54999 4ZM4.04999 7.5C4.04999 4.46243 6.51242 2 9.54999 2C12.5876 2 15.05 4.46243 15.05 7.5C15.05 10.5376 12.5876 13 9.54999 13C6.51242 13 4.04999 10.5376 4.04999 7.5ZM2.88241 17.7132C2.30086 18.1356 2.04999 18.6337 2.04999 19.0868V21C2.04999 21.5523 1.60227 22 1.04999 22C0.497703 22 0.0499878 21.5523 0.0499878 21V19.0868C0.0499878 17.8351 0.750478 16.7898 1.70707 16.095C2.6647 15.3994 3.93817 15 5.29984 15H13.8001C15.1618 15 16.4353 15.3994 17.3929 16.095C18.3495 16.7898 19.05 17.8351 19.05 19.0868V21C19.05 21.5523 18.6023 22 18.05 22C17.4977 22 17.05 21.5523 17.05 21V19.0868C17.05 18.6337 16.7991 18.1356 16.2176 17.7132C15.6371 17.2916 14.7856 17 13.8001 17H5.29984C4.31438 17 3.46292 17.2916 2.88241 17.7132ZM20.508 7.08156L23.4927 8.36069C23.9638 8.5626 24.2563 9.08089 24.1306 9.61951C23.958 10.3594 23.6003 11.4726 23.0511 12.5503C22.5172 13.598 21.7349 14.7468 20.6474 15.4077C20.4872 15.5089 20.3012 15.5625 20.1125 15.5626C19.9238 15.5625 19.7378 15.5089 19.5776 15.4077C18.4901 14.7468 17.7078 13.598 17.1739 12.5503C16.6247 11.4726 16.267 10.3594 16.0943 9.61951C15.9686 9.08089 16.2612 8.5626 16.7323 8.36069L19.7169 7.08156L19.7273 7.07718C19.8532 7.02458 19.9839 6.99968 20.1125 6.99974C20.2411 6.99968 20.3718 7.02458 20.4977 7.07718L20.508 7.08156ZM20.1125 13.3011C20.5345 12.8911 20.9272 12.3132 21.2691 11.6422C21.5765 11.0391 21.8147 10.4168 21.9818 9.88908L20.1125 9.08796V13.3011Z" fill="#758CA3"/>
<path d="M2.88241 17.7132L2.9118 17.7537L2.88241 17.7132ZM1.70707 16.095L1.73645 16.1355L1.70707 16.095ZM17.3929 16.095L17.3635 16.1355L17.3929 16.095ZM16.2176 17.7132L16.1882 17.7537L16.2176 17.7132ZM23.4927 8.36069L23.473 8.40665L23.4927 8.36069ZM20.508 7.08156L20.5277 7.0356L20.5276 7.03552L20.508 7.08156ZM24.1306 9.61951L24.1793 9.63088L24.1306 9.61951ZM23.0511 12.5503L23.0065 12.5276L23.0511 12.5503ZM20.6474 15.4077L20.6214 15.3649L20.6207 15.3654L20.6474 15.4077ZM20.1125 15.5626L20.1124 15.6126H20.1125L20.1125 15.5626ZM19.5776 15.4077L19.6043 15.3654L19.6036 15.3649L19.5776 15.4077ZM17.1739 12.5503L17.2185 12.5276L17.1739 12.5503ZM16.0943 9.61951L16.0456 9.63088L16.0943 9.61951ZM16.7323 8.36069L16.752 8.40665L16.7323 8.36069ZM19.7169 7.08156L19.6974 7.03552L19.6972 7.0356L19.7169 7.08156ZM19.7273 7.07718L19.708 7.03104L19.7077 7.03114L19.7273 7.07718ZM20.1125 6.99974L20.1125 7.04974H20.1125L20.1125 6.99974ZM20.4977 7.07718L20.5172 7.03114L20.517 7.03104L20.4977 7.07718ZM21.2691 11.6422L21.2246 11.6195L21.2691 11.6422ZM20.1125 13.3011H20.0625V13.4194L20.1473 13.337L20.1125 13.3011ZM21.9818 9.88908L22.0294 9.90418L22.0431 9.86098L22.0015 9.84313L21.9818 9.88908ZM20.1125 9.08796L20.1322 9.04201L20.0625 9.01214V9.08796H20.1125ZM6.09999 7.5C6.09999 5.59462 7.64461 4.05 9.54999 4.05V3.95C7.58938 3.95 5.99999 5.53939 5.99999 7.5H6.09999ZM9.54999 10.95C7.64461 10.95 6.09999 9.40538 6.09999 7.5H5.99999C5.99999 9.46061 7.58938 11.05 9.54999 11.05V10.95ZM13 7.5C13 9.40538 11.4554 10.95 9.54999 10.95V11.05C11.5106 11.05 13.1 9.46061 13.1 7.5H13ZM9.54999 4.05C11.4554 4.05 13 5.59462 13 7.5H13.1C13.1 5.53939 11.5106 3.95 9.54999 3.95V4.05ZM9.54999 1.95C6.48481 1.95 3.99999 4.43482 3.99999 7.5H4.09999C4.09999 4.49005 6.54004 2.05 9.54999 2.05V1.95ZM15.1 7.5C15.1 4.43482 12.6152 1.95 9.54999 1.95V2.05C12.5599 2.05 15 4.49005 15 7.5H15.1ZM9.54999 13.05C12.6152 13.05 15.1 10.5652 15.1 7.5H15C15 10.51 12.5599 12.95 9.54999 12.95V13.05ZM3.99999 7.5C3.99999 10.5652 6.48481 13.05 9.54999 13.05V12.95C6.54004 12.95 4.09999 10.51 4.09999 7.5H3.99999ZM2.09999 19.0868C2.09999 18.6535 2.3398 18.1691 2.9118 17.7537L2.85303 17.6727C2.26192 18.1021 1.99999 18.6139 1.99999 19.0868H2.09999ZM2.09999 21V19.0868H1.99999V21H2.09999ZM1.04999 22.05C1.62989 22.05 2.09999 21.5799 2.09999 21H1.99999C1.99999 21.5247 1.57466 21.95 1.04999 21.95V22.05ZM-1.22078e-05 21C-1.22078e-05 21.5799 0.470089 22.05 1.04999 22.05V21.95C0.525317 21.95 0.0999878 21.5247 0.0999878 21H-1.22078e-05ZM-1.22078e-05 19.0868V21H0.0999878V19.0868H-1.22078e-05ZM1.67768 16.0545C0.711801 16.7561 -1.22078e-05 17.815 -1.22078e-05 19.0868H0.0999878C0.0999878 17.8551 0.789155 16.8235 1.73645 16.1355L1.67768 16.0545ZM5.29984 14.95C3.92877 14.95 2.64475 15.3521 1.67768 16.0545L1.73645 16.1355C2.68465 15.4468 3.94757 15.05 5.29984 15.05V14.95ZM13.8001 14.95H5.29984V15.05H13.8001V14.95ZM17.4223 16.0545C16.4552 15.3521 15.1712 14.95 13.8001 14.95V15.05C15.1524 15.05 16.4153 15.4468 17.3635 16.1355L17.4223 16.0545ZM19.1 19.0868C19.1 17.815 18.3882 16.7561 17.4223 16.0545L17.3635 16.1355C18.3108 16.8235 19 17.8551 19 19.0868H19.1ZM19.1 21V19.0868H19V21H19.1ZM18.05 22.05C18.6299 22.05 19.1 21.5799 19.1 21H19C19 21.5247 18.5747 21.95 18.05 21.95V22.05ZM17 21C17 21.5799 17.4701 22.05 18.05 22.05V21.95C17.5253 21.95 17.1 21.5247 17.1 21H17ZM17 19.0868V21H17.1V19.0868H17ZM16.1882 17.7537C16.7602 18.1691 17 18.6535 17 19.0868H17.1C17.1 18.6139 16.8381 18.1021 16.2469 17.6727L16.1882 17.7537ZM13.8001 17.05C14.7762 17.05 15.6171 17.3389 16.1882 17.7537L16.2469 17.6727C15.657 17.2443 14.795 16.95 13.8001 16.95V17.05ZM5.29984 17.05H13.8001V16.95H5.29984V17.05ZM2.9118 17.7537C3.48289 17.3389 4.3238 17.05 5.29984 17.05V16.95C4.30496 16.95 3.44296 17.2443 2.85303 17.6727L2.9118 17.7537ZM23.5124 8.31473L20.5277 7.0356L20.4884 7.12751L23.473 8.40665L23.5124 8.31473ZM24.1793 9.63088C24.3108 9.06747 24.0047 8.5257 23.5124 8.31473L23.473 8.40665C23.923 8.59949 24.2019 9.09432 24.082 9.60815L24.1793 9.63088ZM23.0956 12.5731C23.6469 11.4912 24.0059 10.3741 24.1793 9.63088L24.082 9.60815C23.9101 10.3447 23.5537 11.454 23.0065 12.5276L23.0956 12.5731ZM20.6733 15.4504C21.7727 14.7823 22.5602 13.6236 23.0956 12.5731L23.0065 12.5276C22.4741 13.5724 21.6971 14.7112 20.6214 15.3649L20.6733 15.4504ZM20.1125 15.6126C20.3106 15.6125 20.5059 15.5562 20.6741 15.4499L20.6207 15.3654C20.4685 15.4615 20.2917 15.5125 20.1124 15.5126L20.1125 15.6126ZM19.5509 15.4499C19.7191 15.5562 19.9144 15.6125 20.1124 15.6126L20.1125 15.5126C19.9333 15.5125 19.7565 15.4615 19.6043 15.3654L19.5509 15.4499ZM17.1294 12.5731C17.6648 13.6236 18.4523 14.7823 19.5516 15.4504L19.6036 15.3649C18.5279 14.7112 17.7509 13.5724 17.2185 12.5276L17.1294 12.5731ZM16.0456 9.63088C16.2191 10.3741 16.578 11.4912 17.1294 12.5731L17.2185 12.5276C16.6713 11.454 16.3149 10.3447 16.143 9.60815L16.0456 9.63088ZM16.7126 8.31473C16.2203 8.5257 15.9142 9.06747 16.0456 9.63088L16.143 9.60815C16.0231 9.09432 16.302 8.59949 16.752 8.40665L16.7126 8.31473ZM19.6972 7.0356L16.7126 8.31473L16.752 8.40665L19.7366 7.12752L19.6972 7.0356ZM19.7077 7.03114L19.6974 7.03552L19.7364 7.12759L19.7468 7.12321L19.7077 7.03114ZM20.1125 6.94974C19.9774 6.94968 19.8401 6.97584 19.708 7.03104L19.7465 7.12332C19.8662 7.07332 19.9904 7.04968 20.1125 7.04974L20.1125 6.94974ZM20.517 7.03104C20.3848 6.97584 20.2476 6.94968 20.1125 6.94974L20.1125 7.04974C20.2346 7.04968 20.3587 7.07332 20.4785 7.12332L20.517 7.03104ZM20.5276 7.03552L20.5172 7.03114L20.4782 7.12321L20.4885 7.12759L20.5276 7.03552ZM21.2246 11.6195C20.8841 12.2876 20.4944 12.8603 20.0776 13.2653L20.1473 13.337C20.5746 12.9219 20.9702 12.3389 21.3137 11.6649L21.2246 11.6195ZM21.9341 9.87399C21.7677 10.3997 21.5305 11.0193 21.2246 11.6195L21.3137 11.6649C21.6225 11.0589 21.8617 10.434 22.0294 9.90418L21.9341 9.87399ZM20.0928 9.13392L21.9621 9.93504L22.0015 9.84313L20.1322 9.04201L20.0928 9.13392ZM20.1625 13.3011V9.08796H20.0625V13.3011H20.1625Z" fill="#758CA3"/>
</svg>
