<svg width="24" height="24" viewBox="0 0 24 24" fill="none" xmlns="http://www.w3.org/2000/svg">
<path fill-rule="evenodd" clip-rule="evenodd" d="M4 7.5C4 4.46243 6.46243 2 9.5 2C12.5376 2 15 4.46243 15 7.5C15 10.5376 12.5376 13 9.5 13C6.46243 13 4 10.5376 4 7.5ZM9.5 4C7.567 4 6 5.567 6 7.5C6 9.433 7.567 11 9.5 11C11.433 11 13 9.433 13 7.5C13 5.567 11.433 4 9.5 4Z" fill="#758CA3"/>
<path d="M2.83243 17.7132C2.25087 18.1356 2 18.6337 2 19.0868V21C2 21.5523 1.55228 22 1 22C0.447715 22 0 21.5523 0 21V19.0868C0 17.8351 0.70049 16.7898 1.65708 16.095C2.61471 15.3994 3.88818 15 5.24985 15H13.7501C15.1118 15 16.3853 15.3994 17.3429 16.095C18.2995 16.7898 19 17.8351 19 19.0868V21C19 21.5523 18.5523 22 18 22C17.4477 22 17 21.5523 17 21V19.0868C17 18.6337 16.7491 18.1356 16.1676 17.7132C15.5871 17.2916 14.7356 17 13.7501 17H5.24985C4.26439 17 3.41294 17.2916 2.83243 17.7132Z" fill="#758CA3"/>
<path d="M21.5 9C21.5 8.44772 21.0523 8 20.5 8C19.9477 8 19.5 8.44772 19.5 9V10.5H18C17.4477 10.5 17 10.9477 17 11.5C17 12.0523 17.4477 12.5 18 12.5H19.5V14C19.5 14.5523 19.9477 15 20.5 15C21.0523 15 21.5 14.5523 21.5 14V12.5H23C23.5523 12.5 24 12.0523 24 11.5C24 10.9477 23.5523 10.5 23 10.5H21.5V9Z" fill="#758CA3"/>
</svg>
