<svg width="24" height="24" viewBox="0 0 24 24" fill="none" xmlns="http://www.w3.org/2000/svg">
<path fill-rule="evenodd" clip-rule="evenodd" d="M12 3C9.79086 3 8 4.79086 8 7C8 9.20914 9.79086 11 12 11C14.2091 11 16 9.20914 16 7C16 4.79086 14.2091 3 12 3ZM12 1C15.3137 1 18 3.68629 18 7C18 10.3137 15.3137 13 12 13C8.68629 13 6 10.3137 6 7C6 3.68629 8.68629 1 12 1ZM4 22.099C4 22.6513 3.55228 23.099 3 23.099C2.44772 23.099 2 22.6513 2 22.099V20C2 17.2386 4.23858 15 7 15H17.0007C19.7621 15 22.0007 17.2386 22.0007 20V22.099C22.0007 22.6513 21.553 23.099 21.0007 23.099C20.4484 23.099 20.0007 22.6513 20.0007 22.099V20C20.0007 18.3431 18.6576 17 17.0007 17H7C5.34315 17 4 18.3431 4 20V22.099Z" fill="#758CA3"/>
</svg>
