<svg width="24" height="24" viewBox="0 0 24 24" fill="none" xmlns="http://www.w3.org/2000/svg">
<path fill-rule="evenodd" clip-rule="evenodd" d="M15 6C16.6569 6 18 7.34315 18 9V15C18 16.6569 16.6569 18 15 18C14.4477 18 14 17.5523 14 17C14 16.4477 14.4477 16 15 16C15.5523 16 16 15.5523 16 15V9C16 8.44772 15.5523 8 15 8C14.4477 8 14 7.55228 14 7C14 6.44772 14.4477 6 15 6ZM8 15C8 15.5523 8.44772 16 9 16C9.55228 16 10 16.4477 10 17C10 17.5523 9.55228 18 9 18C7.34315 18 6 16.6569 6 15V9C6 7.34315 7.34315 6 9 6C9.55228 6 10 6.44772 10 7C10 7.55228 9.55228 8 9 8C8.44772 8 8 8.44772 8 9V15ZM13.4472 9.10557C12.9532 8.85858 12.3526 9.05881 12.1056 9.55279L10.1056 13.5528L10.0594 13.6601C9.88869 14.1308 10.0941 14.6651 10.5528 14.8944C11.0468 15.1414 11.6474 14.9412 11.8944 14.4472L13.8944 10.4472L13.9406 10.3399C14.1113 9.86923 13.9059 9.33492 13.4472 9.10557Z" fill="#758CA3"/>
</svg>
