<svg width="24" height="24" viewBox="0 0 24 24" fill="none" xmlns="http://www.w3.org/2000/svg">
<path fill-rule="evenodd" clip-rule="evenodd" d="M14 9C14 11.9742 11.836 14.4429 8.99665 14.9176C8.99887 14.9448 9 14.9723 9 15V17H10C10.5523 17 11 17.4477 11 18C11 18.5523 10.5523 19 10 19H9V21C9 21.5523 8.55228 22 8 22C7.44772 22 7 21.5523 7 21V19H6C5.44772 19 5 18.5523 5 18C5 17.4477 5.44772 17 6 17H7V15C7 14.9723 7.00113 14.9448 7.00335 14.9176C4.16399 14.4429 2 11.9742 2 9C2 5.68629 4.68629 3 8 3C11.3137 3 14 5.68629 14 9ZM12 9C12 11.2091 10.2091 13 8 13C5.79086 13 4 11.2091 4 9C4 6.79086 5.79086 5 8 5C10.2091 5 12 6.79086 12 9Z" fill="#758CA3"/>
<path d="M15.0009 12.8742C14.6584 13.492 14.2364 14.0596 13.7488 14.5634C14.1475 14.7249 14.5674 14.8447 15.0033 14.9176C15.0011 14.9448 15 14.9723 15 15V17H14C13.4477 17 13 17.4477 13 18C13 18.5523 13.4477 19 14 19H15V21C15 21.5523 15.4477 22 16 22C16.5523 22 17 21.5523 17 21V19H18C18.5523 19 19 18.5523 19 18C19 17.4477 18.5523 17 18 17H17V15C17 14.9723 16.9989 14.9448 16.9967 14.9176C19.836 14.4429 22 11.9742 22 9C22 5.68629 19.3137 3 16 3C15.2038 3 14.4439 3.15506 13.7488 3.43662C14.2364 3.94036 14.6584 4.508 15.0009 5.12576C15.3203 5.04366 15.655 5 16 5C18.2091 5 20 6.79086 20 9C20 11.2091 18.2091 13 16 13C15.655 13 15.3203 12.9563 15.0009 12.8742Z" fill="#758CA3"/>
</svg>
