<svg width="24" height="24" viewBox="0 0 24 24" fill="none" xmlns="http://www.w3.org/2000/svg">
<path fill-rule="evenodd" clip-rule="evenodd" d="M18 7.61257L22.6838 6.05132C23.3313 5.83547 24 6.31744 24 7V17C24 17.6826 23.3313 18.1645 22.6838 17.9487L18 16.3874V17C18 18.6569 16.6569 20 15 20H3C1.34315 20 0 18.6569 0 17V7C0 5.34315 1.34315 4 3 4H15C16.6569 4 18 5.34315 18 7V7.61257ZM18 9.72076V14.2792L22 15.6126V8.38743L18 9.72076ZM16 8.97666V7C16 6.44772 15.5523 6 15 6H3C2.44772 6 2 6.44772 2 7V17C2 17.5523 2.44772 18 3 18H15C15.5523 18 16 17.5523 16 17V15.0233C15.9996 15.0079 15.9996 14.9924 16 14.9769V9.02306C15.9996 9.00756 15.9996 8.99208 16 8.97666Z" fill="#758CA3"/>
</svg>
