<svg width="24" height="24" viewBox="0 0 24 24" fill="none" xmlns="http://www.w3.org/2000/svg">
<path d="M21.7071 2.29289C21.3166 1.90237 20.6834 1.90237 20.2929 2.29289L2.29289 20.2929C1.90237 20.6834 1.90237 21.3166 2.29289 21.7071C2.68342 22.0976 3.31658 22.0976 3.70711 21.7071L21.7071 3.70711C22.0976 3.31658 22.0976 2.68342 21.7071 2.29289Z" fill="#758CA3"/>
<path d="M15 4C15.2339 4 15.4615 4.02676 15.68 4.07739L13.7574 6H3C2.44772 6 2 6.44772 2 7V17C2 17.2142 2.06734 17.4126 2.182 17.5754L0.87868 18.8787C0.839067 18.9183 0.800794 18.9587 0.76386 19C0.28884 18.4692 0 17.7683 0 17V7C0 5.34315 1.34315 4 3 4H15Z" fill="#758CA3"/>
<path d="M15 18H10.2426L8.24264 20H15C16.6569 20 18 18.6569 18 17V16.3874L22.6838 17.9487C23.3313 18.1645 24 17.6826 24 17V7C24 6.31744 23.3313 5.83547 22.6838 6.05132L21.9451 6.29754L18.7828 9.45982L22 8.38743V15.6126L18 14.2792V10.2426L16 12.2426V14.9769C15.9996 14.9924 15.9996 15.0079 16 15.0233V17C16 17.5523 15.5523 18 15 18Z" fill="#758CA3"/>
</svg>
