<svg width="24" height="24" viewBox="0 0 24 24" fill="none" xmlns="http://www.w3.org/2000/svg">
<path fill-rule="evenodd" clip-rule="evenodd" d="M23 2C23.5523 2 24 2.44772 24 3C24 3.55228 23.5523 4 23 4H1C0.447715 4 0 3.55228 0 3C0 2.44772 0.447715 2 1 2H23ZM23 8C23.5523 8 24 8.44772 24 9C24 9.55228 23.5523 10 23 10H1C0.447715 10 0 9.55228 0 9C0 8.44772 0.447715 8 1 8H23ZM23 14C23.5523 14 24 14.4477 24 15C24 15.5523 23.5523 16 23 16H1C0.447715 16 0 15.5523 0 15C0 14.4477 0.447715 14 1 14H23ZM23 20C23.5523 20 24 20.4477 24 21C24 21.5523 23.5523 22 23 22H1C0.447715 22 0 21.5523 0 21C0 20.4477 0.447715 20 1 20H23Z" fill="#758CA3"/>
</svg>
