<svg width="24" height="24" viewBox="0 0 24 24" fill="none" xmlns="http://www.w3.org/2000/svg">
<path fill-rule="evenodd" clip-rule="evenodd" d="M23 1C23.5523 1 24 1.44772 24 2C24 2.55228 23.5523 3 23 3H1C0.447715 3 0 2.55228 0 2C0 1.44772 0.447715 1 1 1H23ZM23 5C23.5523 5 24 5.44772 24 6C24 6.55228 23.5523 7 23 7H1C0.447715 7 0 6.55228 0 6C0 5.44772 0.447715 5 1 5H23ZM23 9C23.5523 9 24 9.44771 24 10C24 10.5523 23.5523 11 23 11H1C0.447715 11 0 10.5523 0 10C0 9.44771 0.447715 9 1 9H23ZM23 13C23.5523 13 24 13.4477 24 14C24 14.5523 23.5523 15 23 15H1C0.447715 15 0 14.5523 0 14C0 13.4477 0.447715 13 1 13H23ZM23 17C23.5523 17 24 17.4477 24 18C24 18.5523 23.5523 19 23 19H1C0.447715 19 0 18.5523 0 18C0 17.4477 0.447715 17 1 17H23ZM23 21C23.5523 21 24 21.4477 24 22C24 22.5523 23.5523 23 23 23H1C0.447715 23 0 22.5523 0 22C0 21.4477 0.447715 21 1 21H23Z" fill="#758CA3"/>
</svg>
