<svg width="24" height="24" viewBox="0 0 24 24" fill="none" xmlns="http://www.w3.org/2000/svg">
<path fill-rule="evenodd" clip-rule="evenodd" d="M23.9359 6.7893C23.829 9.11981 22.204 12.3109 19.0503 16.3626C15.7951 20.596 13.0423 22.7127 10.7866 22.7127C9.39154 22.7127 8.21025 21.4245 7.24276 18.8481C5.36125 11.9421 4.55947 7.89576 3.00401 7.89576C2.82227 7.89576 2.19688 8.27527 1.12249 9.0236L0 7.5697C2.75813 5.14832 5.39332 2.45433 7.04499 2.30467C8.91047 2.12293 10.0543 3.40044 10.4873 6.12649C12.0214 15.8281 12.7002 17.2926 15.4904 12.8989C16.49 11.3167 17.0298 10.114 17.1047 9.28551C17.3612 6.83206 15.1911 6.99776 13.7212 7.6285C14.8971 3.7746 17.1474 1.90378 20.4668 2.01068C22.9149 2.07482 24.0748 3.67304 23.9359 6.7893Z" fill="#758CA3"/>
</svg>
