<svg width="24" height="24" viewBox="0 0 24 24" fill="none" xmlns="http://www.w3.org/2000/svg">
<path d="M13.5 3.30132V6.25747L11.5 8.25747L11.5 3.30133L5.68232 8.73117C5.49715 8.904 5.25329 9.00011 5 9.00011H2V15.0001H4.75735L2.75735 17.0001H1C0.447715 17.0001 0 16.5524 0 16.0001V8.00011C0 7.44783 0.447715 7.00011 1 7.00011H4.60584L10.1354 1.83922C11.4138 0.646005 13.5 1.55256 13.5 3.30132Z" fill="#758CA3"/>
<path d="M20.2929 2.293C20.6834 1.90248 21.3166 1.90248 21.7071 2.293C22.0976 2.68352 22.0976 3.31669 21.7071 3.70721L3.70711 21.7072C3.31658 22.0977 2.68342 22.0977 2.29289 21.7072C1.90237 21.3167 1.90237 20.6835 2.29289 20.293L20.2929 2.293Z" fill="#758CA3"/>
<path d="M11.5 20.6989L9.45372 18.789L8.03867 20.2041L10.1354 22.161C11.4138 23.3542 13.5 22.4477 13.5 20.6989V14.7427L11.5 16.7427V20.6989Z" fill="#758CA3"/>
<path d="M17.7632 10.4796C17.9202 10.9716 18.0008 11.487 18 12.0078C17.9986 12.8868 17.7656 13.7499 17.3243 14.5101C16.8831 15.2703 16.2492 15.9008 15.4866 16.3379C15.0075 16.6126 14.8417 17.2237 15.1164 17.7028C15.391 18.182 16.0021 18.3477 16.4813 18.0731C17.5489 17.4611 18.4363 16.5784 19.0541 15.5141C19.6718 14.4498 19.9981 13.2415 20 12.0109C20.0016 10.9467 19.7606 9.89836 19.298 8.94475L17.7632 10.4796Z" fill="#758CA3"/>
<path d="M20.7977 7.50613L20.7753 7.46747L22.2286 6.01411C22.3334 6.17564 22.4341 6.34014 22.5305 6.50747C23.4961 8.18292 24.003 10.0833 24 12.0171C23.997 13.9509 23.4843 15.8497 22.5135 17.5222C21.5427 19.1946 20.1482 20.5816 18.4705 21.5433C17.9914 21.818 17.3803 21.6522 17.1057 21.1731C16.831 20.6939 16.9968 20.0829 17.4759 19.8082C18.8485 19.0213 19.9895 17.8865 20.7838 16.5182C21.578 15.1498 21.9975 13.5962 22 12.014C22.0024 10.4318 21.5877 8.87695 20.7977 7.50613Z" fill="#758CA3"/>
</svg>
