<svg width="24" height="24" viewBox="0 0 24 24" fill="none" xmlns="http://www.w3.org/2000/svg">
<path fill-rule="evenodd" clip-rule="evenodd" d="M20 22H22V7.6439L12 3.09845L2 7.6439V22H4V11C4 10.4477 4.44772 9.99999 5 9.99999H19C19.5523 9.99999 20 10.4477 20 11V22ZM18 22V12H6V22H18ZM1 24C0.447715 24 0 23.5523 0 23V7.6439C0 6.85962 0.458406 6.14771 1.17239 5.82317L11.1724 1.27772C11.6982 1.03869 12.3018 1.03869 12.8276 1.27772L22.8276 5.82317C23.5416 6.14771 24 6.85962 24 7.6439V23C24 23.5523 23.5523 24 23 24H1ZM6 14H18V16H6V14ZM6 18H18V20H6V18Z" fill="#758CA3"/>
</svg>
