<svg width="24" height="24" viewBox="0 0 24 24" fill="none" xmlns="http://www.w3.org/2000/svg">
<path d="M13 10C13 9.44771 12.5523 9 12 9C11.4477 9 11 9.44771 11 10V11.5858C11 12.1162 11.2107 12.6249 11.5858 13L12.7929 14.2071C13.1834 14.5976 13.8166 14.5976 14.2071 14.2071C14.5976 13.8166 14.5976 13.1834 14.2071 12.7929L13 11.5858V10Z" fill="#758CA3"/>
<path fill-rule="evenodd" clip-rule="evenodd" d="M15.4034 0.96894L16.0412 6.28364C17.8314 7.55156 19 9.63931 19 12C19 14.3607 17.8314 16.4484 16.0412 17.7164L15.4034 23.0311C15.3371 23.5839 14.8681 24 14.3113 24H9.68869C9.13187 24 8.66287 23.5839 8.59653 23.0311L7.95876 17.7163C6.16855 16.4484 5 14.3607 5 12C5 9.63933 6.16855 7.5516 7.95876 6.28367L8.59653 0.96894C8.66287 0.416086 9.13187 0 9.68869 0H14.3113C14.8681 0 15.3371 0.416085 15.4034 0.96894ZM10.1272 5L10.4872 2H13.5128L13.8728 5H10.1272ZM17 12C17 14.7614 14.7614 17 12 17C9.23858 17 7 14.7614 7 12C7 9.23858 9.23858 7 12 7C14.7614 7 17 9.23858 17 12ZM10.1272 19H13.8728L13.5128 22H10.4872L10.1272 19Z" fill="#758CA3"/>
</svg>
