<svg width="24" height="24" viewBox="0 0 24 24" fill="none" xmlns="http://www.w3.org/2000/svg">
<path fill-rule="evenodd" clip-rule="evenodd" d="M16.5858 15.0001L16.2929 14.7071C15.9024 14.3166 15.9024 13.6834 16.2929 13.2929C16.6834 12.9024 17.3166 12.9024 17.7071 13.2929L19.7071 15.2929C20.0976 15.6834 20.0976 16.3166 19.7071 16.7071L17.7071 18.7071C17.3166 19.0976 16.6834 19.0976 16.2929 18.7071C15.9024 18.3166 15.9024 17.6834 16.2929 17.2929L16.5857 17.0001H7.50003C5.56702 17.0001 4 15.433 4 13.5C4 11.567 5.56702 10 7.50003 10H16.5C17.3284 10 18 9.32843 18 8.5C18 7.67157 17.3284 7 16.5 7H5.03567C4.48338 7 4.03567 6.55228 4.03567 6C4.03567 5.44772 4.48338 5 5.03567 5H16.5C18.433 5 20 6.567 20 8.5C20 10.433 18.433 12 16.5 12H7.50003C6.67159 12 6 12.6716 6 13.5C6 14.3285 6.67159 15.0001 7.50003 15.0001H16.5858Z" fill="#758CA3"/>
</svg>
