<svg width="24" height="24" viewBox="0 0 24 24" fill="none" xmlns="http://www.w3.org/2000/svg">
<path fill-rule="evenodd" clip-rule="evenodd" d="M17.5046 0.715928C17.6893 0.383988 17.9122 0.0599285 18.4268 0.0599285V0.0598091H18.4264V0.0595703H21.9057C22.1132 0.0595703 22.2758 0.137779 22.3637 0.27963C22.4543 0.426735 22.4523 0.620884 22.3564 0.811212L14.731 14.2942C14.7263 14.301 14.7263 14.31 14.731 14.3168L19.5864 23.1878C19.6828 23.379 19.6854 23.5732 19.5934 23.7201C19.506 23.8621 19.3439 23.9402 19.1364 23.9402H15.6964C15.1687 23.9402 14.905 23.5896 14.734 23.2842C14.734 23.2842 9.8529 14.3295 9.84036 14.3061C10.0849 13.8741 17.5046 0.715928 17.5046 0.715928ZM3.48777 4.99151C3.57577 4.84906 3.75022 4.77623 3.9575 4.77623V4.77611H7.40216C7.93039 4.77611 8.18914 5.11676 8.36096 5.42208C8.36096 5.42208 10.7146 9.52835 10.7287 9.55103C10.5894 9.79676 7.01051 16.1263 7.01051 16.1263C6.83451 16.4439 6.58604 16.7914 6.07117 16.7914H2.62711C2.41959 16.7914 2.26472 16.6984 2.17684 16.5566C2.0861 16.4093 2.08144 16.2184 2.17684 16.0283L5.8363 9.5705C5.84025 9.56345 5.84025 9.55856 5.8363 9.55091L3.50759 5.51975C3.41075 5.32799 3.39702 5.1385 3.48777 4.99151Z" fill="#758CA3"/>
</svg>
