<svg width="673" height="114" viewBox="0 0 673 114" fill="none" xmlns="http://www.w3.org/2000/svg">
<path d="M152.2 57.5C147.5 55.5 143.7 53.6 143.7 50.6C143.7 48.5 146.1 46.4 150.2 46.4C153.9 46.4 157 47.3 160.3 48.7C161.2 49.1 162.6 49.2 163.3 47.8L164.9 44.6C165.5 43.4 165 42 163.9 41.1C161.6 39.6 156.7 37.6 150.2 37.6C138.8 37.6 134.2 44.5 134.2 50.4C134.2 58.1 140.2 62 147.4 65.2C153.9 68.1 157.5 70.2 157.5 73.3C157.5 75.9 155.3 77.9 151.3 77.9C145.7 77.9 142.4 76 139.6 74.4C138.4 73.7 137.1 74 136.6 75L134.5 79.4C134 80.4 134.6 81.3 135.3 81.8C137.9 83.6 143.3 86.6 150.7 86.6C161.2 86.6 167.5 80.2 167.5 72.9C167.3 64.3 160.8 61.2 152.2 57.5Z" fill="#29333D"/>
<path d="M89.8 100C85 96.4 78 93.7 70.5 90.8C61.6 87.4 51.6 83.5 44 77.5C35.4 70.6 31.3 62 31.3 51.1C31.3 41.4 35.3 33 43 27C51.6 20.2 64.6 16.7 80.7 16.7C85.1 16.7 89.3 17 93.3 17.5C93.6 17.5 94 17.4 94.1 17.1C94.2 16.8 94.2 16.4 93.9 16.2C83.6 7 70.6 2 57 2C42.4 2 28.5 7.7 18.1 18.1C7.7 28.5 2 42.4 2 57C2 71.7 7.7 85.6 18.1 95.9C28.5 106.3 42.4 112 57 112C68.9 112 80.1 108.3 89.8 101.2C90 101.1 90.1 100.8 90.1 100.6C90.1 100.4 90 100.2 89.8 100Z" fill="#29333D"/>
<path d="M111.8 52C111.8 51.8 111.7 51.6 111.5 51.5C100 42 90.8 38.1 79.4 38.1C73.4 38.1 68.8 39.3 65.7 41.7C63 43.8 61.6 46.6 61.6 50C61.6 59.4 73.1 63.7 86.5 68.7C93.4 71.3 100.5 73.9 107 77.5C107.1 77.6 107.2 77.6 107.4 77.6C107.5 77.6 107.6 77.6 107.7 77.6C107.9 77.5 108.1 77.4 108.2 77.1C110.7 70.7 112 64 112 57.1C112.2 55.4 112 53.7 111.8 52Z" fill="#29333D"/>
<path d="M428.1 86.3C429.5 86.1 430.5 85.1 430.5 83.8V59.9C430.5 47.7 429 38.3 413.3 38.3C404.3 38.3 397.3 40.7 396.4 41.1C395.2 41.5 394.5 42.3 394.8 44L395.8 48C396.1 49.4 397.1 50.3 398.6 50C401.1 49.3 406.7 47.7 412.3 47.7C418.4 47.7 420.4 51.2 420.1 58.9C420.1 58.9 415.3 57.4 410.2 57.4C397.6 57.4 390.6 64.2 390.6 73.2C390.6 83.4 397.1 86.8 406.3 86.8C413.8 86.8 421.6 86.7 424.8 86.5L428.1 86.3ZM420 77.6C418.5 80 413.2 79.4 408.7 79.3C403.6 79.2 401.1 77.4 401.1 73.1C401.1 68 405.4 65 411.2 65C415.7 65 419.5 66.3 420.1 66.7V77.6H420Z" fill="#29333D"/>
<path d="M508.3 37.7C511.4 37.7 513.9 35.2 513.9 32.1C513.9 29 511.4 26.5 508.3 26.5C505.2 26.5 502.7 29 502.7 32.1C502.7 35.2 505.2 37.7 508.3 37.7ZM508.3 27.3C510.9 27.3 513 29.4 513 32C513 34.6 510.9 36.7 508.3 36.7C505.7 36.7 503.6 34.6 503.6 32C503.6 29.6 505.7 27.3 508.3 27.3Z" fill="#29333D"/>
<path d="M506.4 35H506.9C507 35 507.1 34.9 507.1 34.8V32.8H508.3L509.4 34.9C509.4 35 509.5 35 509.6 35H510.2C510.3 35 510.4 34.9 510.3 34.8L509.2 32.8C509.9 32.5 510.4 31.9 510.4 31.2C510.4 30.2 509.6 29.5 508.6 29.5H506.4C506.3 29.5 506.2 29.6 506.2 29.7V35C506.2 34.9 506.3 35 506.4 35ZM507.1 30.1H508.5C509 30.1 509.5 30.5 509.5 31.1C509.5 31.7 509 32.1 508.5 32.1H507.1V30.1Z" fill="#29333D"/>
<path d="M198.6 37.7C191.2 37.7 186.1 41.8 185 42.6V21.6C185 20.5 183.9 19.4 182.8 19.4H177C175.8 19.4 174.8 20.5 174.8 21.6V84.6C174.8 85.8 175.8 86.8 177 86.8H182.6C184 86.8 184.9 85.9 184.9 84.6V54.2C185.9 52.2 190 47.4 197.2 47.4C203.3 47.4 206.5 52 206.5 59.7V84.6C206.5 85.8 207.5 86.8 208.7 86.8H214.4C215.5 86.8 216.6 85.8 216.6 84.6V59.9C216.8 47.1 211.9 37.7 198.6 37.7Z" fill="#29333D"/>
<path d="M317.8 60.4C317.2 44.5 310.6 37.8 295.2 37.8C287.8 37.8 279 40 277.7 40.6C276.1 41.3 274.9 42.1 274.9 43.2V44.1V47.5V58.5V60V103C274.9 104.2 275.9 105.2 277.1 105.2H281.8C283.3 105.2 284.2 104.3 284.2 103V86.1C285.6 86.5 292.9 87.1 299 86.9C309.9 86.6 317.2 78.7 317.8 65.4C317.9 63.4 317.8 60.4 317.8 60.4ZM308 65.2C307.8 74.2 305.2 78.2 297.6 78.6C293.8 78.8 285 77.8 285 77.8C284.6 77.7 284.4 77.5 284.4 77.2V58.9V48.5C284.4 48.2 284.6 48 284.9 48C285.9 47.9 289.8 46.7 295.3 46.7C304.6 46.7 307.8 48.1 308.1 59.8C308 61.3 308 63.4 308 65.2Z" fill="#29333D"/>
<path d="M385.2 38.7H380.9C379.7 38.7 378 38.7 377.3 40.1L369.8 67.1H369.6L357 38.7C356.8 38.1 356.1 37.6 355 37.6H354.3C353.4 37.6 352.7 38.1 352.4 38.7L339.7 67.1H339.5L331.7 40.2C331.5 39.3 330.5 38.8 329.7 38.8H323.6C322 38.8 321.3 40 322 41.4L335.7 85.7C335.9 86.4 336.6 86.9 337.6 86.9H338.2C339.2 86.9 339.8 86.4 340 85.8L354.4 53.8H354.6L368.9 85.8C369.2 86.4 369.9 86.9 370.9 86.9H371.3C372.3 86.9 373.2 86.4 373.4 85.7L386.8 41.4C387.7 40 386.8 38.7 385.2 38.7Z" fill="#29333D"/>
<path d="M460.2 38.3C460 38.3 459.7 38.3 459.5 38.3C459.1 38.3 458.7 38.3 458.3 38.3C455.9 38.3 453.5 38.4 451.3 38.5C447.1 38.7 444.6 39 442.8 39.2C442.8 39.2 441.7 39.3 440.3 39.5C439.4 39.6 438.8 40 438.4 40.5C438.1 40.8 438 41.2 438 41.6V41.8V42.7V46.1V55.5V84.7C438 85.9 439 86.9 440.2 86.9H444.9C446.8 86.9 448.1 86.7 448.1 84.7V55.5V48.8C448.1 48.5 448.5 48.2 448.8 48C449.9 47.3 452.7 46.8 458.2 46.8C458.7 46.8 459.1 46.8 459.5 46.8C460.8 46.9 462.8 47.3 463.4 47.7C464.4 48.2 465.6 47.9 466.2 46.6L468.6 42.6C470.3 39.5 464.6 38.3 460.2 38.3Z" fill="#29333D"/>
<path d="M492.4 37.7C478.3 37.7 469 49 469 62.2C469 75.6 478.2 86.8 492.5 86.8C500.3 86.8 506.5 84 509.9 81C511.3 79.8 510.9 78.9 510.1 77.9L507.4 73.6C506.6 72.4 505.7 72.7 504.7 73.4C501.9 75.4 498.6 77.4 493.2 77.4C485 77.4 479.3 70.9 479.2 64.6H511.7C512.7 64.6 513.7 63.8 513.8 62.6C513.9 61.8 514 60.2 514 59.4C513.8 46.8 504.6 37.7 492.4 37.7ZM479.6 57C480.3 51.1 484.8 46.3 492.2 46.3C499.1 46.3 503.6 51.3 503.8 57H479.6Z" fill="#29333D"/>
<path d="M266.6 52.2C265.5 49.2 264.1 46.6 262.1 44.4C260.2 42.2 257.9 40.6 255.3 39.4C252.7 38.2 248.9 37.6 245.8 37.6C242.7 37.6 238.9 38.2 236.3 39.4C233.7 40.6 231.4 42.2 229.5 44.4C227.6 46.6 226.1 49.1 225 52.2C223.9 55.2 223.4 58.6 223.4 62.2C223.4 65.9 223.9 69.3 225 72.3C226.1 75.3 227.5 77.9 229.5 80C231.4 82.2 233.7 83.8 236.3 85C238.9 86.2 242.7 86.8 245.8 86.8C248.9 86.8 252.7 86.2 255.3 85C257.9 83.8 260.2 82.2 262.1 80C264 77.8 265.5 75.3 266.6 72.3C267.7 69.3 268.2 66 268.2 62.2C268.2 58.6 267.7 55.3 266.6 52.2ZM245.5 78.7C237 78.7 232.8 71.5 232.8 62.7C232.8 53.9 237.1 46.7 245.5 46.7C254 46.7 258.3 53.9 258.3 62.7C258.3 71.5 254.1 78.7 245.5 78.7Z" fill="#29333D"/>
<path d="M541.5 73C541.5 61.9 548.7 53 558.4 53C562.9 53 565.8 55.1 566 55.1L568.4 38.3C568.5 37.4 569 36.7 570 36.7H572.5C573.3 36.7 573.9 37.4 573.8 38.3L567.2 85.8C567.1 86.7 566.4 87 565.7 87H564C563.3 87 563 86.5 562.9 85.8L562.6 83.7C562.5 83.7 558.6 87.8 552.7 87.8C546.2 87.7 541.5 81 541.5 73ZM563 77.2L565.3 59.8C565.3 59.8 562.6 57.7 558.4 57.7C552.2 57.7 547 64.5 547 72.4C547 77.7 549.4 82.9 554.2 82.9C559 82.9 563 77.2 563 77.2Z" fill="#29333D"/>
<path d="M595.9 53C602.9 53 608.7 59.7 608.7 67.8C608.7 78.5 601 87.6 591.3 87.6C584.3 87.6 578.5 80.8 578.5 72.6C578.4 62 586.2 53 595.9 53ZM603.6 68.2C603.6 62.4 600.3 57.7 595.4 57.7C589.2 57.7 583.5 64.1 583.5 72.2C583.5 78.1 586.7 82.9 591.7 82.9C597.9 82.9 603.6 76.3 603.6 68.2Z" fill="#29333D"/>
<path d="M633.2 53C637.7 53 641.4 54.7 643.6 58.4C644 59.2 643.7 60 643 60.5L641.5 61.8C640.7 62.5 639.9 62.1 639.4 61.4C638.1 59.3 636 57.7 633.1 57.7C627.2 57.7 621.4 63.2 621.4 72C621.4 77.7 624.3 82.8 629.5 82.8C633.6 82.8 636.3 79.3 637.3 77.8C637.9 76.9 638.7 76.7 639.4 77.3L641.1 78.5C641.8 79 641.7 79.8 641.2 80.6C639.1 84.3 634.6 87.5 628.8 87.5C621.3 87.5 615.8 81.1 615.8 72.7C615.8 61.1 623.6 53 633.2 53Z" fill="#29333D"/>
<path d="M648.2 84.1C647.8 83.7 647.6 83 648.1 82.3L649.3 80.4C649.7 79.7 650.6 79.6 651.3 80.2C652.5 81.2 655.1 82.8 658.1 82.8C661.2 82.8 663.5 80.7 663.5 78C663.5 75.7 661.6 74 657.9 71.7C654.5 69.6 650.7 67.3 650.7 62.6C650.7 58.4 653.7 52.9 661.6 52.9C665.6 52.9 668.3 54.3 669.7 55.3C670.3 55.9 670.5 56.7 670 57.7L669.3 59.1C668.7 60.1 667.8 60 667.1 59.5C665.2 58.3 663.5 57.6 661.2 57.6C657.6 57.6 656.2 59.9 656.2 61.9C656.2 64.3 658.4 65.6 660.9 67.2C665.2 69.9 669 72.4 669 77.4C669 82.4 665.1 87.4 657.5 87.4C653.2 87.7 649.9 85.6 648.2 84.1Z" fill="#29333D"/>
</svg>
