<svg id="meteor-icon-kit__regular-filter" viewBox="0 0 20 14" fill="none" xmlns="http://www.w3.org/2000/svg"><path d="M12 12C12.5523 12 13 12.4477 13 13C13 13.5523 12.5523 14 12 14H8C7.44772 14 7 13.5523 7 13C7 12.4477 7.44772 12 8 12H12z" fill="#1E1E24"/><path d="M15 6C15.5523 6 16 6.4477 16 7C16 7.5523 15.5523 8 15 8H5C4.44772 8 4 7.5523 4 7C4 6.4477 4.44772 6 5 6H15z" fill="#1E1E24"/><path d="M19 0C19.5523 0 20 0.44772 20 1C20 1.55228 19.5523 2 19 2H1C0.44772 2 0 1.55228 0 1C0 0.44772 0.44772 0 1 0H19z" fill="#1E1E24"/></svg>