<svg id="meteor-icon-kit__regular-times-circle-s" viewBox="0 0 17 16" fill="none" xmlns="http://www.w3.org/2000/svg"><path fill-rule="evenodd" clip-rule="evenodd" d="M9 6.5858L10.4142 5.17157C10.8047 4.78105 11.4379 4.78105 11.8284 5.17157C12.219 5.5621 12.219 6.1953 11.8284 6.5858L10.4142 8L11.8284 9.4142C12.219 9.8047 12.219 10.4379 11.8284 10.8284C11.4379 11.219 10.8047 11.219 10.4142 10.8284L9 9.4142L7.5858 10.8284C7.1953 11.219 6.5621 11.219 6.17157 10.8284C5.78105 10.4379 5.78105 9.8047 6.17157 9.4142L7.5858 8L6.17157 6.5858C5.78105 6.1953 5.78105 5.5621 6.17157 5.17157C6.5621 4.78105 7.1953 4.78105 7.5858 5.17157L9 6.5858zM3.34315 13.6569C0.21895 10.5327 0.21895 5.46734 3.34315 2.34315C6.46734 -0.78105 11.5327 -0.78105 14.6569 2.34315C17.781 5.46734 17.781 10.5327 14.6569 13.6569C11.5327 16.781 6.46734 16.781 3.34315 13.6569zM4.75736 12.2426C7.1005 14.5858 10.8995 14.5858 13.2426 12.2426C15.5858 9.8995 15.5858 6.1005 13.2426 3.75736C10.8995 1.41421 7.1005 1.41421 4.75736 3.75736C2.41421 6.1005 2.41421 9.8995 4.75736 12.2426z" fill="#758CA3"/></svg>