<svg width="57" height="58" viewBox="0 0 57 58" fill="none" xmlns="http://www.w3.org/2000/svg">
<path d="M28.4736 0C35.5092 0 42.2652 2.59552 47.4902 7.31348C47.6247 7.43288 47.6665 7.62492 47.5889 7.79102C47.5164 7.95161 47.3459 8.05026 47.165 8.02441C45.1373 7.74413 42.9489 7.60353 40.6572 7.60352C32.3645 7.60352 25.6284 9.462 21.1846 12.9707C17.2219 16.1004 15.127 20.4294 15.127 25.4951C15.1271 31.1366 17.2839 35.6001 21.7119 39.1396C25.6229 42.259 30.833 44.2887 35.4268 46.0742C39.286 47.5739 42.9335 48.9963 45.4062 50.8652C45.5095 50.9432 45.5664 51.0674 45.5664 51.1973C45.5663 51.3272 45.5038 51.4465 45.4004 51.5244C40.4704 55.1832 34.6193 57.1191 28.4736 57.1191C20.8638 57.1191 13.7139 54.1449 8.33887 48.752C2.95882 43.3597 0 36.1863 0 28.5566C9.29409e-05 20.9325 2.96421 13.7598 8.33887 8.36719C13.719 2.96933 20.8689 4.36844e-05 28.4736 0Z" fill="currentColor"/>
<path d="M40.0879 18.6748C45.9285 18.6748 50.7349 20.6943 56.6738 25.6406C56.7561 25.7079 56.808 25.8114 56.8184 25.9199C56.9011 26.8282 56.9372 27.716 56.9424 28.5566C56.9424 32.1431 56.2855 35.647 54.9922 38.9688C54.9509 39.0829 54.8576 39.1665 54.749 39.208C54.7025 39.2236 54.6559 39.2334 54.6094 39.2334C54.5422 39.2334 54.4742 39.2179 54.4121 39.1816C51.0289 37.2977 47.3406 35.9169 43.7764 34.583C36.8547 31.9931 30.8802 29.7562 30.8799 24.8516C30.8799 23.1025 31.6089 21.6073 32.9902 20.5381C34.5835 19.3028 36.9737 18.6748 40.0879 18.6748Z" fill="currentColor"/>
</svg>
