<svg id="meteor-icon-kit__solid-filter" viewBox="0 0 20 16" fill="none" xmlns="http://www.w3.org/2000/svg"><path d="M11.5 12.5C12.3284 12.5 13 13.1716 13 14C13 14.8284 12.3284 15.5 11.5 15.5H8.5C7.67157 15.5 7 14.8284 7 14C7 13.1716 7.67157 12.5 8.5 12.5H11.5z" fill="#1E1E24"/><path d="M14.5 6.5C15.3284 6.5 16 7.1716 16 8C16 8.8284 15.3284 9.5 14.5 9.5H5.5C4.67157 9.5 4 8.8284 4 8C4 7.1716 4.67157 6.5 5.5 6.5H14.5z" fill="#1E1E24"/><path d="M18.5 0.5C19.3284 0.5 20 1.17157 20 2C20 2.82843 19.3284 3.5 18.5 3.5H1.5C0.67157 3.5 0 2.82843 0 2C0 1.17157 0.67157 0.5 1.5 0.5H18.5z" fill="#1E1E24"/></svg>