<svg id="meteor-icon-kit__solid-times-xs" viewBox="0 0 11 10" fill="none" xmlns="http://www.w3.org/2000/svg"><path fill-rule="evenodd" clip-rule="evenodd" d="M8.1213 5L10.5962 7.4749C11.182 8.0607 11.182 9.0104 10.5962 9.5962C10.0104 10.182 9.0607 10.182 8.4749 9.5962L6 7.1213L3.52513 9.5962C2.93934 10.182 1.98959 10.182 1.40381 9.5962C0.81802 9.0104 0.81802 8.0607 1.40381 7.4749L3.87868 5L1.40381 2.52513C0.81802 1.93935 0.81802 0.9896 1.40381 0.40381C1.98959 -0.18198 2.93934 -0.18198 3.52513 0.40381L6 2.87868L8.4749 0.40381C9.0607 -0.18198 10.0104 -0.18198 10.5962 0.40381C11.182 0.9896 11.182 1.93935 10.5962 2.52513L8.1213 5z" fill="#758CA3"/></svg>