<svg id="meteor-icon-kit__solid-times-s" viewBox="0 0 14 12" fill="none" xmlns="http://www.w3.org/2000/svg"><path fill-rule="evenodd" clip-rule="evenodd" d="M7 3.87868L10.5355 0.34315C11.1213 -0.24264 12.0711 -0.24264 12.6569 0.34315C13.2426 0.92893 13.2426 1.87868 12.6569 2.46447L9.1213 6L12.6569 9.5355C13.2426 10.1213 13.2426 11.0711 12.6569 11.6569C12.0711 12.2426 11.1213 12.2426 10.5355 11.6569L7 8.1213L3.46447 11.6569C2.87868 12.2426 1.92893 12.2426 1.34315 11.6569C0.75736 11.0711 0.75736 10.1213 1.34315 9.5355L4.87868 6L1.34315 2.46447C0.75736 1.87868 0.75736 0.92893 1.34315 0.34315C1.92893 -0.24264 2.87868 -0.24264 3.46447 0.34315L7 3.87868z" fill="#758CA3"/></svg>