<svg id="meteor-icon-kit__solid-times-circle-s" viewBox="0 0 17 16" fill="none" xmlns="http://www.w3.org/2000/svg"><path fill-rule="evenodd" clip-rule="evenodd" d="M9 6.5858L7.5858 5.17157C7.1953 4.78105 6.5621 4.78105 6.17157 5.17157C5.78105 5.5621 5.78105 6.1953 6.17157 6.5858L7.5858 8L6.17157 9.4142C5.78105 9.8047 5.78105 10.4379 6.17157 10.8284C6.5621 11.219 7.1953 11.219 7.5858 10.8284L9 9.4142L10.4142 10.8284C10.8047 11.219 11.4379 11.219 11.8284 10.8284C12.219 10.4379 12.219 9.8047 11.8284 9.4142L10.4142 8L11.8284 6.5858C12.219 6.1953 12.219 5.5621 11.8284 5.17157C11.4379 4.78105 10.8047 4.78105 10.4142 5.17157L9 6.5858zM3.34315 13.6569C0.21895 10.5327 0.21895 5.46734 3.34315 2.34315C6.46734 -0.78105 11.5327 -0.78105 14.6569 2.34315C17.781 5.46734 17.781 10.5327 14.6569 13.6569C11.5327 16.781 6.46734 16.781 3.34315 13.6569z" fill="#758CA3"/></svg>